<svg width="300" height="296" viewBox="0 0 300 296" fill="none" xmlns="http://www.w3.org/2000/svg">
<path fill-rule="evenodd" clip-rule="evenodd" d="M139.955 0.172712C135.913 0.43179 130.524 1.06917 126.093 1.81218C124.633 2.0568 122.642 2.3855 121.668 2.54248C116.383 3.39496 108.958 5.12589 105.298 6.35843C104.406 6.65882 102.747 7.19381 101.612 7.54701C98.331 8.5671 92.4004 10.7235 89.5966 11.9154L87.0202 13.0107L87.0158 13.5362C87.0072 14.5421 87.9584 14.4085 91.3825 12.9224C94.7005 11.4825 101.44 9.11565 105.741 7.87957C106.876 7.55322 108.735 7.015 109.87 6.68303C111.006 6.35107 112.532 5.96186 113.262 5.81786C113.992 5.67386 115.585 5.35281 116.802 5.10435C122.606 3.91961 125.403 3.41119 127.715 3.12054C128.932 2.96769 132.515 2.57141 135.679 2.24033L141.43 1.63778L149.394 1.63895C156.74 1.63984 159.103 1.76348 166.059 2.51003C169.585 2.88832 174.274 3.62396 177.562 4.31473C179.103 4.63843 181.019 5.03797 181.821 5.20233L183.277 5.50153L183.675 5.10347C184.27 4.5083 183.837 3.79509 182.777 3.62424C182.261 3.54074 178.786 2.94645 175.055 2.30347C171.324 1.6602 166.319 0.910114 163.934 0.636577C158.894 0.0582239 145.717 -0.196726 139.955 0.172712ZM190.801 5.97012L190.427 6.42101L190.726 6.89607C190.891 7.15751 192.211 7.71137 193.659 8.12684C195.107 8.54231 196.732 9.06726 197.27 9.29359L198.247 9.70492L198.734 9.21863L199.22 8.73205L198.788 8.31657C198.551 8.08818 197.029 7.4815 195.407 6.96865C193.784 6.45551 192.169 5.91936 191.816 5.77743L191.175 5.51924L190.801 5.97012ZM221.104 9.67246C221.045 9.88551 220.85 10.841 220.671 11.7958C220.492 12.7504 220.058 14.124 219.708 14.8478L219.071 16.1639L217.72 16.7434C216.977 17.0621 215.735 17.4587 214.96 17.6251C212.629 18.1253 212.814 18.4956 215.611 18.9255C218.82 19.4186 220.317 21.2811 220.774 25.347C221.009 27.4377 221.568 27.4583 221.863 25.3877C222.076 23.9053 222.857 21.5417 223.34 20.9253C223.769 20.3761 226.497 19.0344 228.131 18.5685C228.951 18.3348 229.82 18.066 230.064 17.9709L230.506 17.7983L229.769 17.5732C229.363 17.4495 228.463 17.335 227.768 17.3188C224.363 17.2394 222.363 15.2217 221.934 11.4332C221.737 9.69193 221.334 8.83739 221.104 9.67246ZM205.288 11.3951C205.288 11.7787 205.578 12.0977 206.099 12.2863C206.545 12.448 207.175 12.7032 207.5 12.8537C207.824 13.0042 209.019 13.4766 210.154 13.9039C211.29 14.3311 212.72 14.8694 213.331 15.0998C214.727 15.626 215.021 15.6254 215.021 15.0978C215.021 14.7274 213.814 14.052 210.744 12.7053C210.258 12.4916 209.092 11.9753 208.155 11.5574C206.062 10.6247 205.288 10.581 205.288 11.3951ZM78.6051 17.1193C77.9562 17.4885 76.4962 18.2929 75.3606 18.9069C72.8715 20.2528 72.4229 20.6414 72.6565 21.2499C72.8535 21.7642 73.7573 21.8731 74.1956 21.4358C74.3495 21.282 75.0731 20.8359 75.8031 20.4446C80.5651 17.8913 80.9922 17.5808 80.7194 16.8697C80.484 16.2557 80.0283 16.3094 78.6051 17.1193ZM225.524 21.2507C225.613 21.4821 226.743 22.3658 228.035 23.2148L230.385 24.758L230.7 24.4429C231.17 23.9725 230.9 23.7155 228.348 22.2083C225.912 20.7689 225.254 20.5458 225.524 21.2507ZM64.7108 25.2128C63.8822 25.805 62.3892 26.8729 61.3925 27.5861C60.2717 28.3884 59.5806 29.0951 59.5806 29.4395C59.5806 30.3637 60.3897 30.3808 61.5657 29.4811C62.1774 29.0134 63.7003 27.9712 64.9503 27.165L67.2232 25.699L67.2362 25.0667C67.2465 24.5795 66.5778 23.9171 66.2666 24.1062C66.2395 24.123 65.5393 24.6208 64.7108 25.2128ZM233.737 25.8684C233.466 26.3075 234.372 27.2022 237.007 29.0963C244.182 34.2542 249.934 39.1573 255.981 45.2707C260.899 50.2437 262.625 52.1791 267.131 57.7758L269.675 60.9349L270.221 60.6425C270.522 60.4817 270.767 60.1532 270.767 59.9131C270.767 59.6726 269.326 57.7162 267.564 55.5651C260.228 46.6089 253.665 40.0393 245.696 33.6732C241.503 30.3232 234.754 25.5515 234.209 25.5515C234.057 25.5515 233.845 25.694 233.737 25.8684ZM51.9033 34.9323C50.8441 35.8589 49.3841 37.1088 48.6588 37.7102L47.3401 38.8035L47.8474 39.314L48.355 39.8244L49.0346 39.4603C49.4086 39.2602 50.176 38.6713 50.7406 38.1519C51.3048 37.6323 52.5289 36.5665 53.4604 35.7837L55.1537 34.3605L54.8499 33.7919C54.6826 33.4794 54.3845 33.2289 54.1874 33.2356C53.9904 33.2424 52.9625 34.0058 51.9033 34.9323ZM39.4501 46.7198C38.0307 48.1483 36.8692 49.5467 36.8692 49.8276C36.8692 50.3 36.9722 50.3747 37.7361 50.4561C38.2425 50.5101 43.3844 45.2338 43.2933 44.754C43.0739 43.602 42.0049 44.1491 39.4501 46.7198ZM31.2138 56.4736C29.4464 58.4147 27.4021 61.3324 27.4891 61.7895C27.5413 62.0639 27.8483 62.3268 28.171 62.3731L28.758 62.4578L30.8964 59.6498C32.0724 58.1057 33.0348 56.7112 33.0348 56.5513C33.0348 56.3913 32.7888 56.1287 32.488 55.9676L31.9411 55.6749L31.2138 56.4736ZM274.528 66.4933C273.682 66.6857 273.915 67.3399 275.926 70.4214C277.836 73.3468 278.333 73.7466 279.024 72.9139L279.389 72.4736L277.402 69.5158C276.309 67.889 275.331 66.5169 275.23 66.467C275.128 66.4169 274.812 66.429 274.528 66.4933ZM21.4582 70.6335C19.4419 73.7708 19.2525 74.2176 19.7926 74.5599C20.0191 74.7033 20.2978 74.8225 20.4123 74.8251C20.7562 74.8325 24.1862 69.4544 24.1862 68.9076C24.1862 68.5093 23.6479 68.0428 23.1881 68.0428C23.1524 68.0428 22.3737 69.2086 21.4582 70.6335ZM282.121 79.6632L281.571 80.0657L283.17 83.213L284.769 86.3603L285.36 86.2753C285.685 86.2284 285.995 85.959 286.049 85.6763C286.166 85.0637 283.913 80.3841 283.183 79.7234L282.672 79.2604L282.121 79.6632ZM15.2665 81.6901C14.8671 82.3015 13.754 84.6338 12.837 86.7802C10.8578 91.4135 9.96678 93.5998 9.28927 95.485C8.85156 96.7022 8.37432 97.9286 8.22861 98.2104C8.08291 98.4921 7.96374 98.9194 7.96374 99.1596C7.96374 99.3995 7.77851 100.032 7.55228 100.565C6.1247 103.928 4.36237 110.968 2.21334 121.895C1.67593 124.627 0.682221 133.016 0.522651 136.167L0.442433 137.751L0.918494 138.058C1.18041 138.227 1.61163 138.282 1.87708 138.18L2.35962 137.995L2.36287 136.584C2.36995 133.498 4.30749 118.706 5.02128 116.288C5.16492 115.801 5.76811 113.411 6.36126 110.977C7.66614 105.623 9.70516 99.1118 11.3516 95.0424C11.5486 94.5555 11.8781 93.6924 12.0837 93.1244C12.2895 92.5564 12.7075 91.5286 13.0128 90.8408C13.318 90.1527 13.5679 89.3893 13.5679 89.1441C13.5679 88.8989 13.7006 88.6982 13.8628 88.6982C14.025 88.6982 14.1578 88.5392 14.1578 88.345C14.1578 88.1506 14.8379 86.6294 15.6691 84.9643C16.5074 83.285 17.1026 81.7344 17.0056 81.4818C16.7481 80.8102 15.7644 80.9279 15.2665 81.6901ZM287.98 93.2764C287.783 93.7889 287.806 93.8798 289.013 97.2555C289.506 98.635 290.097 99.8843 290.327 100.032C290.876 100.385 291.709 100.05 291.709 99.476C291.709 98.9274 289.69 93.7181 289.276 93.1982C288.874 92.693 288.188 92.7343 287.98 93.2764ZM292.708 107.417C292.564 107.792 293.155 110.819 293.96 113.826C294.138 114.49 294.794 114.7 295.369 114.276L295.842 113.927L294.995 110.534L294.148 107.141L293.517 107.046C293.147 106.991 292.812 107.144 292.708 107.417ZM295.662 122.159C295.575 122.385 295.64 123.082 295.806 123.708C295.973 124.333 296.199 125.741 296.309 126.834C296.419 127.929 296.682 128.967 296.892 129.142L297.275 129.46L297.91 129.12L298.545 128.78L298.395 128.141C298.312 127.789 298.082 126.439 297.884 125.14C297.686 123.842 297.405 122.548 297.261 122.263C296.946 121.647 295.885 121.577 295.662 122.159ZM297.711 136.87C297.564 137.075 297.515 139.852 297.601 143.14L297.756 149.042H298.493H299.23L299.183 143.026L299.135 137.011L298.74 136.76C298.202 136.419 298.02 136.439 297.711 136.87ZM0.210307 145.832C0.0946849 145.947 0 147.322 0 148.887C0 152.032 0.340382 152.943 1.39101 152.609C2.17027 152.362 2.27852 151.707 2.07972 148.452L1.9172 145.796L1.16891 145.708C0.757152 145.66 0.325634 145.716 0.210307 145.832ZM297.836 156.645L297.375 157.009L297.024 160.992C296.325 168.932 295.315 175.023 293.378 182.976C292.362 187.149 291.132 191.724 290.84 192.418C290.703 192.743 290.368 193.672 290.095 194.484C289.822 195.295 289.487 196.225 289.35 196.549C289.213 196.874 288.747 198.135 288.312 199.353C287.878 200.57 287.347 201.964 287.132 202.451C286.917 202.938 286.477 204 286.156 204.811C285.492 206.484 283.056 211.811 282.444 212.926C282.222 213.332 281.576 214.527 281.009 215.582C280.442 216.637 279.619 218.164 279.18 218.975C278.74 219.787 277.116 222.49 275.569 224.984L272.757 229.517L273.163 229.774C273.855 230.212 274.21 230.075 274.963 229.082C276.178 227.477 279.202 222.447 281.659 217.942C284.557 212.629 289.644 201.733 289.644 200.839C289.644 200.666 289.766 200.294 289.915 200.012C290.688 198.545 291.421 196.508 292.541 192.713C295.908 181.3 297.297 174.765 298.341 165.419C299.195 157.77 299.224 157.051 298.69 156.607L298.297 156.281L297.836 156.645ZM1.01405 160.432C0.747705 160.863 1.15918 166.009 1.51282 166.67C1.88919 167.373 2.86606 167.327 3.09849 166.594C3.37043 165.737 2.69263 160.609 2.27203 160.342C1.76382 160.019 1.24647 160.056 1.01405 160.432ZM2.85191 174.69C2.63099 175.266 3.39403 179.641 3.89958 180.697C4.35912 181.656 5.41535 181.793 5.54012 180.91C5.58583 180.586 5.31359 178.992 4.93487 177.369L4.24615 174.418L3.63531 174.329C3.29434 174.279 2.94836 174.438 2.85191 174.69ZM6.40078 188.621C5.93653 189.086 6.22027 190.262 8.1705 195.959C9.59218 200.112 12.1713 206.432 12.7759 207.246C13.2257 207.851 13.8628 207.668 13.8628 206.934C13.8628 206.56 13.3086 204.867 12.6311 203.172C11.9536 201.477 10.5254 197.502 9.45709 194.34C7.61304 188.88 7.10071 187.921 6.40078 188.621ZM13.8628 209.325C13.8628 210.31 16.267 215.133 17.2678 216.156C19.1162 218.046 18.0762 214.654 15.2538 209.586C14.5282 208.284 13.8628 208.159 13.8628 209.325ZM20.9308 215.656C19.9442 219.846 18.2998 221.463 14.481 221.998C13.6041 222.121 12.8983 222.354 12.9122 222.516C12.9257 222.678 13.9885 223.082 15.273 223.412C19.1758 224.416 19.8191 225.107 20.0545 228.542C20.2152 230.892 20.7435 231.62 21.1004 229.983C21.3458 228.856 22.6029 225.91 22.8377 225.91C22.925 225.91 23.3453 226.607 23.7712 227.459C24.6493 229.214 25.5787 230.336 26.1547 230.336C26.3697 230.336 26.5458 230.279 26.5458 230.21C26.5458 230.141 25.8757 228.992 25.0569 227.657C24.2378 226.322 23.6388 225.044 23.7252 224.818C23.9213 224.308 25.5353 223.608 27.9463 222.989C29.9602 222.472 30.441 221.974 29.0529 221.842C26.9293 221.64 23.9918 220.81 23.3836 220.24C22.5911 219.497 22.2259 218.393 21.9655 215.951C21.8573 214.936 21.6623 214.106 21.5322 214.106C21.4018 214.106 21.1314 214.803 20.9308 215.656ZM28.6842 234.087C28.4816 234.161 28.3156 234.411 28.3156 234.644C28.3156 235.134 30.3165 237.951 31.942 239.751L33.0617 240.99L33.638 240.807C33.9551 240.706 34.2146 240.485 34.2146 240.316C34.2146 239.971 30.4548 235.176 29.601 234.431C29.2995 234.169 28.8872 234.014 28.6842 234.087ZM267.435 237.034C266.86 237.813 265.915 238.908 265.334 239.467C264.754 240.027 264.278 240.71 264.278 240.985C264.278 241.622 265.049 241.926 265.735 241.558C266.611 241.089 269.648 236.916 269.536 236.335C269.339 235.31 268.5 235.59 267.435 237.034ZM37.9343 246.144C37.6739 246.822 38.0608 247.374 40.3494 249.59C42.4064 251.58 43.2255 251.976 43.5484 251.134C43.7349 250.648 39.1067 245.68 38.4676 245.68C38.272 245.68 38.0319 245.889 37.9343 246.144ZM256.396 249.393L253.675 252.145L254.131 252.601C254.382 252.851 254.727 253.057 254.899 253.057C255.07 253.057 256.394 251.899 257.839 250.483L260.468 247.91L260.382 247.311C260.203 246.057 259.154 246.605 256.396 249.393ZM48.0836 255.853C47.5344 256.514 47.8279 256.947 50.194 258.963C51.3821 259.975 52.6861 261.09 53.0917 261.44C53.4972 261.79 54.7581 262.788 55.8937 263.657C57.0293 264.527 58.4893 265.667 59.1382 266.19C59.7871 266.714 61.6388 268.038 63.2531 269.134L66.1885 271.126L66.6451 270.838C67.4049 270.36 67.3235 269.692 66.4516 269.25C64.7196 268.372 57.3941 262.886 52.9058 259.106C50.9789 257.483 49.1882 255.987 48.9266 255.783L48.4506 255.41L48.0836 255.853ZM246.983 258.386C246.032 259.221 244.657 260.314 243.927 260.814C242.324 261.911 242.095 262.217 242.505 262.711C242.986 263.291 243.269 263.193 245.216 261.766C248.153 259.615 249.6 258.21 249.486 257.622C249.302 256.669 248.74 256.84 246.983 258.386ZM234.046 268.101C232.586 269.069 231.092 270.07 230.727 270.325C230.043 270.803 229.84 271.769 230.356 272.088C230.882 272.413 237.732 267.728 237.732 267.044C237.732 266.774 237.099 266.319 236.75 266.338C236.723 266.339 235.506 267.133 234.046 268.101ZM72.3627 274.175C72.2651 274.429 72.3026 274.743 72.4456 274.873C72.7707 275.167 75.7146 276.787 77.8678 277.857L79.49 278.663L79.8587 278.364C80.6385 277.734 80.1165 277.244 76.8109 275.507C73.1842 273.602 72.6444 273.44 72.3627 274.175ZM223.413 274.568C223.259 274.714 221.639 275.595 219.814 276.526C217.989 277.457 216.496 278.308 216.496 278.418C216.496 278.526 216.668 278.851 216.877 279.138L217.259 279.66L220.85 277.807C224.475 275.937 225.042 275.446 224.429 274.708C224.036 274.235 223.799 274.202 223.413 274.568ZM86.0282 280.401C85.92 280.509 85.8315 280.842 85.8315 281.141V281.686L87.9699 282.678C93.1257 285.07 93.5263 285.167 93.9295 284.115C94.1699 283.489 94.0814 283.432 90.8457 282.126C89.3046 281.504 87.7817 280.817 87.4617 280.6C86.8234 280.166 86.3314 280.097 86.0282 280.401ZM206.025 282.853C203.838 283.738 202.449 284.464 202.39 284.753C202.157 285.898 204.165 285.541 208.038 283.748C209.092 283.259 210.109 282.86 210.296 282.86C210.8 282.86 210.525 281.548 210.007 281.48C209.764 281.448 207.972 282.066 206.025 282.853ZM100.441 286.371C100.334 286.709 100.319 287.103 100.408 287.247C100.497 287.391 101.866 287.932 103.45 288.449C105.034 288.966 106.62 289.531 106.975 289.704C107.871 290.144 108.605 289.798 108.49 288.99C108.427 288.553 108.097 288.241 107.511 288.066C107.024 287.921 106.161 287.63 105.593 287.421C104.714 287.098 103.417 286.66 101.124 285.915C100.804 285.811 100.569 285.968 100.441 286.371ZM194.307 286.862C193.87 287.298 186.294 289.175 179.594 290.506C174.215 291.575 171.584 291.965 163.257 292.927C158.864 293.435 143.286 293.58 137.891 293.163C135.133 292.951 132.346 292.77 131.697 292.761L130.517 292.745V293.482V294.22L133.467 294.562C137.949 295.081 153.768 295.362 158.243 295.002C162.66 294.646 169.4 293.918 172.4 293.472C174.459 293.166 174.887 293.091 179.627 292.197C183.099 291.543 189.658 289.925 194.301 288.578L195.849 288.129V287.412V286.696H195.161C194.782 286.696 194.398 286.77 194.307 286.862ZM115.327 290.94V291.643L117.465 292.108C119.937 292.645 121.654 292.936 122.701 292.997L123.438 293.04V292.32V291.601L119.899 290.931C115.372 290.075 115.327 290.075 115.327 290.94Z" fill="#A699EF"/>
</svg>
