<svg width="787" height="787" viewBox="0 0 787 787" fill="none" xmlns="http://www.w3.org/2000/svg">
<path fill-rule="evenodd" clip-rule="evenodd" d="M384.698 246.949C380.656 247.208 375.266 247.845 370.835 248.588C369.375 248.833 367.384 249.161 366.411 249.318C361.125 250.171 353.7 251.902 350.041 253.134C349.148 253.435 347.489 253.97 346.354 254.323C343.073 255.343 337.143 257.499 334.339 258.691L331.762 259.787L331.758 260.312C331.749 261.318 332.701 261.184 336.125 259.698C339.443 258.258 346.182 255.892 350.483 254.655C351.619 254.329 353.477 253.791 354.612 253.459C355.748 253.127 357.274 252.738 358.004 252.594C358.734 252.45 360.327 252.129 361.544 251.88C367.348 250.695 370.145 250.187 372.457 249.896C373.674 249.744 377.257 249.347 380.421 249.016L386.172 248.414L394.136 248.415C401.482 248.416 403.845 248.539 410.801 249.286C414.327 249.664 419.017 250.4 422.304 251.091C423.845 251.414 425.762 251.814 426.563 251.978L428.02 252.277L428.417 251.879C429.012 251.284 428.58 250.571 427.52 250.4C427.003 250.317 423.528 249.722 419.797 249.079C416.066 248.436 411.062 247.686 408.676 247.412C403.636 246.834 390.46 246.579 384.698 246.949ZM435.543 252.746L435.169 253.197L435.469 253.672C435.633 253.933 436.953 254.487 438.401 254.903C439.849 255.318 441.474 255.843 442.012 256.069L442.99 256.481L443.476 255.995L443.962 255.508L443.53 255.092C443.293 254.864 441.771 254.257 440.149 253.745C438.527 253.231 436.911 252.695 436.558 252.553L435.917 252.295L435.543 252.746ZM465.846 256.448C465.787 256.661 465.592 257.617 465.413 258.572C465.234 259.526 464.801 260.9 464.45 261.624L463.813 262.94L462.462 263.519C461.719 263.838 460.477 264.235 459.703 264.401C457.371 264.901 457.556 265.271 460.353 265.701C463.562 266.194 465.059 268.057 465.516 272.123C465.751 274.214 466.31 274.234 466.606 272.164C466.818 270.681 467.6 268.318 468.082 267.701C468.512 267.152 471.239 265.81 472.873 265.344C473.693 265.111 474.563 264.842 474.806 264.747L475.248 264.574L474.511 264.349C474.105 264.225 473.205 264.111 472.511 264.095C469.105 264.015 467.105 261.998 466.676 258.209C466.479 256.468 466.077 255.613 465.846 256.448ZM450.03 258.171C450.03 258.555 450.32 258.874 450.841 259.062C451.287 259.224 451.918 259.479 452.242 259.63C452.566 259.78 453.761 260.252 454.897 260.68C456.032 261.107 457.462 261.645 458.073 261.876C459.47 262.402 459.763 262.401 459.763 261.874C459.763 261.503 458.556 260.828 455.486 259.481C455 259.268 453.834 258.751 452.897 258.333C450.804 257.401 450.03 257.357 450.03 258.171ZM323.347 263.895C322.698 264.264 321.238 265.069 320.103 265.683C317.614 267.029 317.165 267.417 317.399 268.026C317.596 268.54 318.499 268.649 318.938 268.212C319.092 268.058 319.815 267.612 320.545 267.22C325.307 264.667 325.734 264.357 325.462 263.646C325.226 263.032 324.77 263.085 323.347 263.895ZM470.267 268.027C470.355 268.258 471.485 269.142 472.778 269.991L475.127 271.534L475.442 271.219C475.912 270.748 475.642 270.491 473.09 268.984C470.654 267.545 469.996 267.322 470.267 268.027ZM309.453 271.989C308.624 272.581 307.131 273.649 306.135 274.362C305.014 275.164 304.323 275.871 304.323 276.215C304.323 277.14 305.132 277.157 306.308 276.257C306.92 275.789 308.442 274.747 309.692 273.941L311.965 272.475L311.978 271.843C311.989 271.355 311.32 270.693 311.009 270.882C310.982 270.899 310.281 271.397 309.453 271.989ZM478.479 272.644C478.208 273.083 479.114 273.978 481.749 275.872C488.924 281.03 494.676 285.933 500.723 292.047C505.642 297.02 507.367 298.955 511.874 304.552L514.417 307.711L514.963 307.418C515.264 307.258 515.51 306.929 515.51 306.689C515.51 306.448 514.068 304.492 512.306 302.341C504.97 293.385 498.407 286.815 490.438 280.449C486.245 277.099 479.496 272.327 478.951 272.327C478.799 272.327 478.587 272.47 478.479 272.644ZM296.645 281.708C295.586 282.635 294.126 283.885 293.401 284.486L292.082 285.579L292.59 286.09L293.097 286.6L293.777 286.236C294.151 286.036 294.918 285.447 295.483 284.928C296.047 284.408 297.271 283.342 298.203 282.56L299.896 281.136L299.592 280.568C299.425 280.255 299.127 280.005 298.93 280.012C298.733 280.018 297.705 280.782 296.645 281.708ZM284.192 293.496C282.773 294.924 281.611 296.323 281.611 296.603C281.611 297.076 281.714 297.151 282.478 297.232C282.985 297.286 288.127 292.01 288.035 291.53C287.816 290.378 286.747 290.925 284.192 293.496ZM275.956 303.25C274.189 305.191 272.144 308.108 272.231 308.565C272.283 308.84 272.591 309.103 272.913 309.149L273.5 309.234L275.639 306.426C276.815 304.882 277.777 303.487 277.777 303.327C277.777 303.167 277.531 302.905 277.23 302.743L276.683 302.451L275.956 303.25ZM519.27 313.269C518.424 313.462 518.657 314.116 520.669 317.197C522.578 320.123 523.075 320.522 523.766 319.69L524.132 319.25L522.144 316.292C521.051 314.665 520.074 313.293 519.972 313.243C519.87 313.193 519.554 313.205 519.27 313.269ZM266.2 317.409C264.184 320.547 263.995 320.993 264.535 321.336C264.761 321.479 265.04 321.598 265.154 321.601C265.498 321.608 268.928 316.23 268.928 315.684C268.928 315.285 268.39 314.819 267.93 314.819C267.895 314.819 267.116 315.984 266.2 317.409ZM526.863 326.439L526.313 326.842L527.912 329.989L529.511 333.136L530.102 333.051C530.427 333.004 530.738 332.735 530.791 332.452C530.908 331.84 528.655 327.16 527.925 326.499L527.414 326.036L526.863 326.439ZM260.009 328.466C259.609 329.077 258.496 331.41 257.579 333.556C255.6 338.189 254.709 340.376 254.031 342.261C253.594 343.478 253.117 344.704 252.971 344.986C252.825 345.268 252.706 345.695 252.706 345.935C252.706 346.175 252.521 346.808 252.294 347.341C250.867 350.703 249.105 357.744 246.956 368.67C246.418 371.403 245.424 379.792 245.265 382.943L245.185 384.527L245.661 384.834C245.923 385.003 246.354 385.058 246.619 384.956L247.102 384.771L247.105 383.36C247.112 380.274 249.05 365.482 249.763 363.064C249.907 362.577 250.51 360.187 251.103 357.752C252.408 352.399 254.447 345.888 256.094 341.818C256.291 341.331 256.62 340.468 256.826 339.9C257.032 339.332 257.45 338.304 257.755 337.617C258.06 336.929 258.31 336.165 258.31 335.92C258.31 335.675 258.443 335.474 258.605 335.474C258.767 335.474 258.9 335.315 258.9 335.121C258.9 334.926 259.58 333.405 260.411 331.74C261.25 330.061 261.845 328.51 261.748 328.258C261.49 327.586 260.507 327.704 260.009 328.466ZM532.722 340.052C532.525 340.565 532.549 340.656 533.755 344.031C534.248 345.411 534.84 346.66 535.069 346.808C535.618 347.161 536.451 346.826 536.451 346.252C536.451 345.703 534.432 340.494 534.018 339.974C533.616 339.469 532.93 339.51 532.722 340.052ZM537.45 354.193C537.306 354.568 537.898 357.595 538.702 360.602C538.88 361.266 539.537 361.475 540.111 361.052L540.584 360.703L539.737 357.31L538.89 353.916L538.259 353.822C537.89 353.767 537.554 353.92 537.45 354.193ZM540.404 368.934C540.317 369.161 540.382 369.858 540.549 370.484C540.715 371.109 540.941 372.516 541.051 373.61C541.161 374.704 541.424 375.743 541.634 375.918L542.018 376.236L542.652 375.896L543.287 375.556L543.137 374.917C543.054 374.565 542.825 373.215 542.626 371.916C542.428 370.618 542.148 369.323 542.003 369.039C541.688 368.423 540.627 368.353 540.404 368.934ZM542.453 383.646C542.306 383.851 542.257 386.628 542.344 389.916L542.498 395.818H543.235H543.973L543.925 389.802L543.878 383.787L543.483 383.536C542.945 383.195 542.762 383.214 542.453 383.646ZM244.952 392.607C244.837 392.723 244.742 394.098 244.742 395.663C244.742 398.808 245.083 399.719 246.133 399.385C246.912 399.138 247.021 398.483 246.822 395.227L246.659 392.572L245.911 392.484C245.499 392.436 245.068 392.492 244.952 392.607ZM542.578 403.421L542.118 403.785L541.767 407.768C541.067 415.708 540.057 421.799 538.12 429.752C537.104 433.925 535.875 438.5 535.582 439.194C535.446 439.519 535.11 440.448 534.837 441.26C534.564 442.071 534.229 443.001 534.092 443.325C533.956 443.65 533.489 444.911 533.054 446.128C532.62 447.346 532.089 448.74 531.874 449.227C531.659 449.714 531.22 450.776 530.898 451.587C530.234 453.26 527.798 458.587 527.186 459.702C526.964 460.108 526.318 461.303 525.751 462.358C525.185 463.413 524.362 464.94 523.922 465.751C523.483 466.563 521.858 469.266 520.311 471.759L517.499 476.292L517.905 476.55C518.597 476.988 518.952 476.851 519.705 475.858C520.92 474.253 523.944 469.223 526.401 464.718C529.299 459.405 534.387 448.509 534.387 447.615C534.387 447.442 534.508 447.07 534.657 446.788C535.431 445.32 536.163 443.284 537.283 439.489C540.65 428.076 542.039 421.54 543.083 412.194C543.938 404.545 543.966 403.827 543.432 403.383L543.039 403.057L542.578 403.421ZM245.756 407.208C245.49 407.639 245.901 412.785 246.255 413.446C246.631 414.149 247.608 414.103 247.841 413.37C248.113 412.513 247.435 407.385 247.014 407.118C246.506 406.794 245.989 406.832 245.756 407.208ZM247.594 421.466C247.373 422.042 248.136 426.417 248.642 427.472C249.101 428.432 250.158 428.569 250.282 427.686C250.328 427.361 250.056 425.768 249.677 424.145L248.988 421.194L248.377 421.105C248.037 421.055 247.691 421.214 247.594 421.466ZM251.143 435.397C250.679 435.861 250.962 437.038 252.913 442.735C254.334 446.888 256.913 453.208 257.518 454.022C257.968 454.627 258.605 454.444 258.605 453.71C258.605 453.336 258.051 451.643 257.373 449.948C256.696 448.253 255.268 444.278 254.199 441.116C252.355 435.655 251.843 434.697 251.143 435.397ZM258.605 456.101C258.605 457.086 261.009 461.909 262.01 462.932C263.858 464.822 262.818 461.429 259.996 456.362C259.27 455.06 258.605 454.934 258.605 456.101ZM265.673 462.431C264.686 466.622 263.042 468.239 259.223 468.774C258.346 468.897 257.64 469.13 257.654 469.292C257.668 469.454 258.731 469.858 260.015 470.188C263.918 471.192 264.561 471.883 264.797 475.318C264.957 477.668 265.486 478.395 265.843 476.758C266.088 475.632 267.345 472.685 267.58 472.685C267.667 472.685 268.087 473.382 268.513 474.235C269.391 475.99 270.321 477.112 270.897 477.112C271.112 477.112 271.288 477.055 271.288 476.986C271.288 476.917 270.618 475.768 269.799 474.433C268.98 473.098 268.381 471.82 268.467 471.594C268.664 471.083 270.278 470.384 272.688 469.765C274.702 469.248 275.183 468.75 273.795 468.618C271.671 468.416 268.734 467.586 268.126 467.016C267.333 466.273 266.968 465.169 266.708 462.727C266.599 461.712 266.404 460.882 266.274 460.882C266.144 460.882 265.874 461.579 265.673 462.431ZM273.426 480.863C273.224 480.937 273.058 481.187 273.058 481.419C273.058 481.91 275.059 484.727 276.684 486.527L277.804 487.766L278.38 487.583C278.697 487.482 278.957 487.261 278.957 487.092C278.957 486.747 275.197 481.952 274.343 481.207C274.042 480.945 273.629 480.79 273.426 480.863ZM512.177 483.81C511.603 484.589 510.657 485.684 510.076 486.243C509.496 486.803 509.021 487.485 509.021 487.761C509.021 488.398 509.791 488.702 510.477 488.334C511.353 487.865 514.39 483.692 514.278 483.111C514.081 482.086 513.242 482.365 512.177 483.81ZM282.676 492.92C282.416 493.598 282.803 494.15 285.092 496.365C287.149 498.356 287.968 498.752 288.291 497.91C288.477 497.424 283.849 492.456 283.21 492.456C283.014 492.456 282.774 492.665 282.676 492.92ZM501.138 496.169L498.418 498.921L498.873 499.376C499.124 499.627 499.47 499.833 499.641 499.833C499.813 499.833 501.136 498.675 502.581 497.259L505.21 494.686L505.124 494.087C504.945 492.833 503.896 493.38 501.138 496.169ZM292.826 502.628C292.277 503.29 292.57 503.723 294.936 505.739C296.124 506.751 297.428 507.866 297.834 508.216C298.239 508.566 299.5 509.563 300.636 510.433C301.771 511.303 303.231 512.443 303.88 512.966C304.529 513.489 306.381 514.814 307.995 515.91L310.931 517.902L311.387 517.614C312.147 517.136 312.066 516.468 311.194 516.026C309.462 515.148 302.136 509.662 297.648 505.882C295.721 504.259 293.93 502.763 293.669 502.559L293.193 502.186L292.826 502.628ZM491.725 505.161C490.774 505.997 489.399 507.09 488.669 507.59C487.067 508.687 486.837 508.993 487.247 509.486C487.728 510.067 488.011 509.969 489.959 508.542C492.895 506.391 494.342 504.986 494.229 504.398C494.044 503.444 493.483 503.616 491.725 505.161ZM478.788 514.877C477.328 515.845 475.834 516.846 475.47 517.101C474.786 517.579 474.582 518.544 475.098 518.864C475.624 519.189 482.475 514.504 482.475 513.82C482.475 513.55 481.841 513.095 481.492 513.114C481.465 513.115 480.248 513.908 478.788 514.877ZM317.105 520.951C317.007 521.205 317.045 521.519 317.188 521.649C317.513 521.943 320.457 523.563 322.61 524.633L324.232 525.439L324.601 525.14C325.381 524.509 324.859 524.02 321.553 522.283C317.926 520.377 317.387 520.216 317.105 520.951ZM468.155 521.344C468.001 521.49 466.381 522.371 464.556 523.302C462.731 524.233 461.238 525.084 461.238 525.193C461.238 525.302 461.41 525.627 461.619 525.913L462.001 526.435L465.592 524.583C469.217 522.713 469.784 522.222 469.171 521.483C468.778 521.01 468.541 520.978 468.155 521.344ZM330.77 527.177C330.662 527.285 330.574 527.618 330.574 527.917V528.461L332.712 529.454C337.868 531.846 338.268 531.943 338.672 530.891C338.912 530.265 338.824 530.208 335.588 528.902C334.047 528.28 332.524 527.593 332.204 527.376C331.566 526.941 331.074 526.873 330.77 527.177ZM450.767 529.629C448.58 530.514 447.191 531.24 447.132 531.529C446.899 532.674 448.907 532.317 452.78 530.523C453.834 530.035 454.851 529.636 455.038 529.636C455.542 529.636 455.267 528.324 454.749 528.256C454.506 528.224 452.714 528.842 450.767 529.629ZM345.183 533.147C345.076 533.485 345.061 533.879 345.15 534.023C345.239 534.167 346.608 534.708 348.192 535.225C349.777 535.742 351.363 536.307 351.717 536.48C352.613 536.92 353.348 536.573 353.232 535.766C353.169 535.328 352.839 535.017 352.253 534.842C351.766 534.696 350.903 534.406 350.336 534.197C349.456 533.873 348.159 533.436 345.866 532.691C345.546 532.587 345.311 532.744 345.183 533.147ZM439.049 533.638C438.613 534.074 431.036 535.951 424.336 537.282C418.958 538.351 416.326 538.741 407.999 539.703C403.607 540.211 388.028 540.356 382.633 539.939C379.875 539.727 377.088 539.545 376.439 539.537L375.259 539.521V540.258V540.996L378.209 541.338C382.692 541.857 398.51 542.138 402.985 541.778C407.403 541.422 414.143 540.694 417.143 540.248C419.202 539.942 419.63 539.866 424.369 538.973C427.841 538.319 434.401 536.701 439.043 535.354L440.591 534.905V534.188V533.472H439.903C439.524 533.472 439.14 533.546 439.049 533.638ZM360.069 537.716V538.419L362.207 538.884C364.679 539.421 366.396 539.712 367.443 539.773L368.18 539.816V539.096V538.377L364.641 537.707C360.114 536.851 360.069 536.851 360.069 537.716Z" fill="#A699EF"/>
</svg>
