<svg width="439" height="424" viewBox="0 0 439 424" fill="none" xmlns="http://www.w3.org/2000/svg">
<path fill-rule="evenodd" clip-rule="evenodd" d="M220.233 0.828141C219.602 1.27711 219.086 1.75032 219.086 1.88013C219.086 2.00994 218.861 2.34106 218.586 2.61633C218.311 2.8913 218.024 3.69502 217.95 4.40269L217.813 5.68912L218.722 7.10261C219.329 8.04657 220.088 8.73798 221.01 9.18388L222.389 9.85134L223.638 9.57085C225.255 9.2075 226.575 8.14999 227.359 6.58951C228.208 4.90013 228.154 4.31737 226.989 2.60405C225.199 -0.0271384 222.451 -0.74953 220.233 0.828141ZM206.81 4.58834L205.122 4.76848V5.38224V5.996L208.042 6.08285C209.648 6.13072 211.512 6.05616 212.185 5.91714L213.408 5.66427L213.506 4.98606L213.604 4.30816L211.051 4.35818C209.647 4.3858 207.738 4.48922 206.81 4.58834ZM233.827 4.75774C233.615 5.01245 233.515 5.41078 233.604 5.64278C233.767 6.0672 234.785 6.22892 239.874 6.6383L242.4 6.84146L242.593 6.33817C242.989 5.30828 242.193 4.99435 238.641 4.77953C236.748 4.66507 234.977 4.50886 234.705 4.43276C234.433 4.35665 234.038 4.50272 233.827 4.75774ZM192.734 5.98833C190.854 6.2188 189.454 6.53949 189.31 6.77303C188.919 7.4052 189.319 7.99073 190.141 7.99073C191.075 7.99073 196.571 7.40182 197.546 7.19744L198.256 7.04829L198.16 6.36886L198.063 5.68912L196.989 5.6437C196.398 5.61884 194.483 5.77382 192.734 5.98833ZM249.982 6.04725C249.668 6.36119 249.739 7.31712 250.092 7.53562C250.452 7.75811 256.214 8.66862 257.603 8.72233L258.524 8.75793V7.99594V7.23396L257.296 6.9992C255.869 6.72669 250.629 5.85607 250.365 5.84809C250.267 5.84502 250.094 5.93462 249.982 6.04725ZM178.267 8.47406C176.664 8.877 175.058 9.20904 174.699 9.21241C173.895 9.21947 173.226 9.9698 173.466 10.5952C173.703 11.2111 174.76 11.1807 177.602 10.4768C178.896 10.1564 180.46 9.80746 181.076 9.70128C182.282 9.49413 182.79 8.78677 182.225 8.10519C181.792 7.5841 181.821 7.58135 178.267 8.47406ZM265.616 9.08966C265.498 9.39654 265.579 9.79365 265.801 9.99987C266.39 10.5446 270.902 11.6144 273.255 11.7669L274.176 11.8267V11.2142V10.602L272.993 10.2144C272.342 10.0011 270.823 9.61565 269.617 9.35787C268.411 9.09979 267.064 8.81163 266.624 8.71711L265.824 8.54557L265.616 9.08966ZM164.456 11.8089C163.273 12.2699 161.023 12.9686 159.009 13.5008C157.702 13.8457 157.468 14.2005 157.997 15.0364L158.281 15.4844L161.138 14.6264C162.71 14.1544 164.591 13.6293 165.318 13.4593L166.64 13.1506L166.546 12.3377C166.434 11.3741 165.912 11.2418 164.456 11.8089ZM281.185 13.0748C281.083 13.3393 281.129 13.6846 281.287 13.8423C281.744 14.2996 288.849 16.5278 289.299 16.3551C289.524 16.2688 289.665 15.9313 289.614 15.605L289.522 15.0115L287.373 14.2986C285.031 13.5216 281.868 12.5939 281.562 12.5939C281.456 12.5939 281.286 12.8103 281.185 13.0748ZM149.418 16.708C148.996 16.9317 147.477 17.5694 146.042 18.1248C144.607 18.68 143.231 19.3198 142.984 19.5466L142.534 19.9591L142.992 20.4169L143.45 20.8745L145.436 20.1505C148.834 18.912 151.08 17.8895 151.201 17.5255C151.321 17.1668 150.722 16.267 150.378 16.2888C150.272 16.2955 149.84 16.4843 149.418 16.708ZM296.632 17.7087C296.519 17.821 296.427 18.1399 296.427 18.4167C296.427 18.9328 297.02 19.2425 300.877 20.7413C302.059 21.2004 303.191 21.707 303.394 21.8669C304.01 22.3527 305.02 21.8372 305.02 21.0368V20.3147L304.033 20.0978C303.49 19.9787 302.834 19.7617 302.575 19.6163C301.921 19.248 297.387 17.504 297.084 17.504C296.948 17.504 296.744 17.5961 296.632 17.7087ZM129.297 25.1561C126.08 26.7706 121.962 28.92 120.147 29.9327C118.331 30.9454 116.337 32.0501 115.715 32.388C109.99 35.4955 97.0689 44.3523 89.6217 50.2733C82.6675 55.8027 72.9013 64.8458 72.5874 66.0469C72.3676 66.8872 73.1441 67.0827 74.0062 66.4042C74.4021 66.0927 76.2218 64.4567 78.0497 62.7688C79.8777 61.081 82.631 58.5406 84.1676 57.1238C90.2328 51.5321 107.657 38.7901 113.501 35.6732C114.256 35.2705 115.222 34.701 115.649 34.4076C116.076 34.1142 117.392 33.3433 118.574 32.6943C119.755 32.0452 121.205 31.244 121.796 30.9138C124.023 29.6697 133.069 25.2488 134.763 24.577C135.734 24.1922 136.528 23.746 136.528 23.5858C136.528 23.0134 135.886 22.1081 135.52 22.164C135.315 22.195 132.514 23.5416 129.297 25.1561ZM311.67 23.8463C311.557 23.9586 311.465 24.3029 311.465 24.6114V25.1717L314.458 26.5757C316.103 27.3478 317.657 28.1092 317.91 28.2675C318.892 28.8816 319.21 28.9328 319.471 28.5198C319.621 28.2841 319.745 27.9211 319.747 27.7133C319.75 27.5052 318.053 26.5039 315.976 25.4884C311.957 23.5229 311.983 23.533 311.67 23.8463ZM325.675 31.5177C325.428 32.1612 326.106 32.7056 329.88 34.8931L332.796 36.5827L333.256 36.2931C333.509 36.1338 333.716 35.8297 333.716 35.6173C333.716 35.1849 327.009 31.0067 326.315 31.0067C326.071 31.0067 325.783 31.2366 325.675 31.5177ZM339.389 39.4518L339.002 39.9179L339.582 40.5593C340.095 41.128 341.745 42.3319 344.254 43.9691C345.636 44.8707 345.87 44.9176 346.389 44.3981L346.892 43.8957L346.442 43.4667C345.953 42.9996 340.088 38.9856 339.895 38.9856C339.83 38.9856 339.602 39.1952 339.389 39.4518ZM352.15 48.7843L351.614 49.3769L352.179 49.8366C352.49 50.0895 353.849 51.1608 355.2 52.2174C364.852 59.7697 378.527 73.2675 386.1 82.7161C387.452 84.4039 388.787 86.0623 389.066 86.4011C396.278 95.1622 406.502 111.609 412.148 123.531C416.171 132.026 420.512 142.827 422.261 148.695C422.614 149.877 423.025 151.12 423.175 151.457C423.524 152.239 424.794 156.822 425.599 160.203C427.356 167.581 427.784 169.521 427.788 170.128C427.796 171.225 428.244 171.663 429.132 171.44C429.572 171.33 429.932 171.034 429.932 170.784C429.932 170.183 427.893 161.553 427.109 158.839C426.771 157.667 426.231 155.703 425.909 154.475C424.048 147.368 419.908 136.415 414.506 124.298C413.015 120.956 409.488 114.089 408.753 113.097C408.627 112.928 408.002 111.824 407.362 110.642C402.88 102.359 394.846 90.5191 388.905 83.4418C387.578 81.8611 386.08 80.0244 385.578 79.36C381.548 74.0384 370.921 63.3034 362.749 56.2992C362.174 55.8067 361.276 55.0121 360.754 54.5331C359.847 53.7024 356.137 50.7618 353.79 49.0135L352.686 48.1917L352.15 48.7843ZM65.8044 72.5629C61.1741 77.4699 52.0877 88.6622 52.205 89.314C52.2504 89.5672 52.5785 89.8161 52.9339 89.867L53.5799 89.9597L54.6188 88.603C59.1083 82.7379 64.0836 76.8497 68.3174 72.3908C69.8243 70.8039 70.8494 69.4653 70.8494 69.085C70.8494 67.67 69.6245 68.5143 65.8044 72.5629ZM47.2061 96.1249C46.0008 97.377 43.7966 100.977 43.9016 101.522C43.9574 101.812 44.2647 102.05 44.5845 102.05C45.287 102.05 49.139 96.8617 48.9944 96.1102C48.8453 95.3365 47.9577 95.3439 47.2061 96.1249ZM38.8345 109.507C37.3767 111.516 36.1687 113.773 36.1687 114.489C36.1687 114.91 36.3768 115.091 36.8593 115.09C37.5523 115.088 37.7079 114.887 39.4704 111.716C39.8927 110.957 40.4308 110.114 40.6662 109.843C40.9016 109.572 41.0111 109.134 40.9095 108.869C40.5262 107.871 39.8771 108.07 38.8345 109.507ZM31.4743 123.322C30.8709 124.642 29.9692 126.61 29.4708 127.695C28.1437 130.584 26.607 134.079 26.0401 135.499C25.9054 135.837 25.523 136.735 25.1909 137.494C24.8585 138.254 23.8706 140.878 22.9953 143.325C22.1203 145.772 21.2714 148.096 21.1094 148.489C20.6293 149.652 18.4199 158.424 18.3131 159.59L18.2146 160.664L16.7252 160.568C10.2166 160.151 4.1539 163.721 1.18211 169.719L0.195089 171.711L0.0351907 174.667C-0.237651 179.7 1.05935 183.161 4.51084 186.612C6.64323 188.744 10.2721 190.891 11.7437 190.891C12.1599 190.891 12.5798 191.019 12.6764 191.176C12.7731 191.332 12.6411 193.3 12.3827 195.549C12.1246 197.798 11.8809 201.571 11.8413 203.934L11.7695 208.23H12.5368H13.3041L13.3722 206.696C13.514 203.506 14.0965 194.664 14.2641 193.158L14.4384 191.589L16.7869 191.411C22.9993 190.94 28.0271 187.185 30.703 181.017L31.4116 179.383L31.4037 175.701L31.396 172.018L30.2193 169.578L29.0426 167.138L27.1582 165.26C25.3125 163.422 21.4399 161.124 20.1865 161.124C19.4392 161.124 19.1933 160.648 19.5742 159.937C19.7467 159.614 20.4338 157.506 21.1014 155.251C23.5879 146.85 24.2806 144.676 24.8466 143.497C25.1658 142.833 25.4282 142.142 25.4297 141.963C25.4312 141.784 26.0625 140.118 26.8329 138.261C27.6029 136.405 28.5592 134.044 28.9579 133.015C29.3566 131.986 30.4298 129.57 31.3432 127.645C32.2566 125.72 33.2488 123.626 33.548 122.992L34.0922 121.839L33.7119 121.381C33.0094 120.535 32.5773 120.91 31.4743 123.322ZM13.2936 163.296C7.23618 164.311 2.71573 169.603 2.71573 175.68C2.71573 181.466 6.26819 186.41 11.675 188.148L13.7859 188.827L16.4686 188.674L19.1513 188.521L21.2128 187.527C25.1022 185.651 27.776 182.022 28.5187 177.61L28.8689 175.53L28.4871 173.467C27.555 168.433 24.172 164.867 19.0957 163.569C16.5806 162.926 15.7391 162.886 13.2936 163.296ZM429.819 179.387C429.526 180.151 430.472 186.039 430.968 186.534C431.667 187.234 432.387 186.764 432.387 185.607C432.386 184.437 431.579 179.66 431.308 179.221C431.022 178.758 430.018 178.87 429.819 179.387ZM431.823 194.19C431.665 194.495 431.65 195.458 431.79 196.415C431.925 197.344 432.046 198.955 432.058 199.996C432.07 201.037 432.164 202.107 432.267 202.374C432.555 203.125 433.577 202.966 433.784 202.138C434.045 201.101 433.385 194.576 432.969 194.075C432.5 193.51 432.159 193.544 431.823 194.19ZM431.162 207.725C430.579 208.039 429.694 208.797 429.198 209.41L428.295 210.526V211.913V213.3L429.219 214.447C429.728 215.079 430.683 215.911 431.342 216.298L432.541 217L433.71 216.861C435.228 216.682 436.702 215.654 437.545 214.188C438.789 212.027 438.207 209.66 436.048 208.096L434.75 207.156H433.487C432.793 207.156 431.746 207.412 431.162 207.725ZM11.9997 215.662C11.5716 215.816 11.481 218.97 11.8131 222.148L12.0104 224.034H12.728C13.6088 224.034 13.8752 223.186 13.6564 221.08C13.5708 220.258 13.491 218.795 13.479 217.831L13.4575 216.077L12.9204 215.801C12.6252 215.649 12.2109 215.587 11.9997 215.662ZM432.257 223.804C432.179 224.184 432.029 226.099 431.924 228.06L431.734 231.626L432.265 231.829C432.558 231.942 432.946 231.884 433.129 231.702C433.557 231.274 433.87 223.796 433.477 223.404C432.972 222.901 432.404 223.087 432.257 223.804ZM12.5392 232.704C12.5405 233.421 12.6764 235.182 12.8412 236.617L13.1408 239.225L13.6687 239.612L14.1969 239.998L14.5762 239.612L14.9552 239.225L14.5363 235.389C14.3058 233.279 14.1069 231.519 14.0944 231.476C14.0818 231.434 13.7261 231.4 13.3041 231.4H12.5368L12.5392 232.704ZM430.987 239.409C430.564 240.093 429.723 246.688 429.996 247.176C430.301 247.72 431.024 247.824 431.308 247.365C431.41 247.201 431.761 245.451 432.088 243.477L432.683 239.888L432.344 239.48C431.933 238.984 431.271 238.95 430.987 239.409ZM14.4878 247.514C14.3024 247.997 14.4844 249.692 15.0313 252.574C15.2075 253.503 15.4076 254.558 15.476 254.919C15.6399 255.784 16.5109 256.097 17.1036 255.505L17.5716 255.037L16.8627 251.427C16.4729 249.442 16.0134 247.645 15.8422 247.434C15.4162 246.909 14.7039 246.952 14.4878 247.514ZM427.542 258.586C426.999 260.711 426.632 262.575 426.726 262.729C426.822 262.882 427.214 263.008 427.6 263.008H428.3L428.81 261.244C429.632 258.394 430.192 255.572 430.023 255.132C429.937 254.907 429.566 254.722 429.198 254.722H428.53L427.542 258.586ZM17.6048 263.002C17.2392 263.593 19.5527 271.212 20.1693 271.448C21.0062 271.77 21.2739 271.087 20.9215 269.53C20.467 267.524 19.2805 263.243 19.0966 262.946C18.884 262.601 17.8276 262.641 17.6048 263.002ZM424.512 270.757C424.346 271.137 423.745 272.866 423.176 274.6L422.142 277.753L422.645 278.256L423.149 278.76L423.613 278.375C423.869 278.163 424.593 276.425 425.222 274.513L426.366 271.037L425.963 270.552C425.399 269.872 424.865 269.947 424.512 270.757ZM22.0092 278.378L21.5927 278.635L22.4883 281.179C24.2711 286.243 24.923 287.265 25.8066 286.381L26.1451 286.043L25.7308 284.729C25.5027 284.007 25.225 283.278 25.1133 283.109C25.0016 282.94 24.5989 281.814 24.2183 280.605C23.5223 278.395 22.937 277.805 22.0092 278.378ZM419.352 286.715C419.067 287.432 418.649 288.433 418.423 288.94C418.197 289.446 417.719 290.548 417.36 291.389L416.707 292.917L417.211 293.285C417.488 293.488 417.894 293.585 418.112 293.502C418.644 293.298 421.44 286.425 421.222 285.857C420.865 284.925 419.885 285.374 419.352 286.715ZM27.7057 293.522L27.1628 293.918L28.2131 296.16C30.4452 300.924 30.8027 301.522 31.4184 301.522C32.3502 301.522 32.3066 300.628 31.2656 298.376C30.7386 297.237 30.0066 295.652 29.6389 294.853C28.887 293.22 28.4914 292.947 27.7057 293.522ZM412.329 303.289C410.52 306.897 410.312 307.638 411.028 307.913C411.661 308.155 412.212 307.406 413.983 303.893L415.571 300.741L415.195 300.287C414.988 300.038 414.648 299.834 414.439 299.834C414.231 299.834 413.281 301.389 412.329 303.289ZM34.0204 308.569C34.0204 308.816 34.3656 309.645 34.7876 310.41C35.2096 311.176 35.8999 312.428 36.3219 313.193C37.6143 315.538 38.059 316.099 38.6264 316.099C38.9266 316.099 39.2507 315.894 39.3468 315.643C39.4919 315.265 37.59 311.552 35.8462 308.81C35.3542 308.036 34.0204 307.86 34.0204 308.569ZM406.147 315.353C405.179 316.826 405.123 316.917 403.732 319.25L402.859 320.714L403.236 321.168C403.745 321.781 404.434 321.741 404.676 321.085C404.785 320.79 404.959 320.479 405.062 320.395C405.165 320.31 405.975 319.02 406.863 317.528L408.477 314.815L408.118 314.383C407.53 313.674 407.116 313.877 406.147 315.353ZM42.0021 322.387L41.6219 322.845L43.6554 325.84C46.4271 329.922 46.5045 330.012 47.0492 329.803C47.8227 329.506 47.6075 328.713 46.0862 326.251C43.4139 321.927 42.8369 321.381 42.0021 322.387ZM396.714 330.455C392.203 337.314 382.519 349.168 375.162 356.838C371.697 360.451 371.063 361.517 372.381 361.517C373.455 361.517 381.611 352.846 388.736 344.13C392.843 339.105 399.917 329.077 399.797 328.449C399.741 328.154 399.42 327.883 399.085 327.847L398.474 327.78L396.714 330.455ZM51.1305 335.457C50.4151 335.873 50.4541 336.343 51.2843 337.309C51.6639 337.751 52.8394 339.166 53.8967 340.455C54.9537 341.743 55.9382 342.797 56.084 342.797C56.2301 342.797 56.5213 342.59 56.731 342.337L57.1125 341.878L54.5436 338.502C53.1306 336.645 51.9054 335.13 51.821 335.135C51.7366 335.14 51.4257 335.284 51.1305 335.457ZM60.7828 348.075C60.5802 348.278 60.4194 348.589 60.4252 348.766C60.4313 348.943 61.7139 350.442 63.2752 352.096L66.1144 355.103L66.6404 354.902C67.5476 354.553 67.2334 353.882 64.9509 351.294C63.7321 349.912 62.5275 348.54 62.2737 348.244C61.7333 347.615 61.2932 347.565 60.7828 348.075ZM71.6679 359.573C71.1194 360.121 71.6703 361.011 73.981 363.309C76.5532 365.867 77.0876 366.181 77.415 365.328C77.7637 364.419 78.046 364.763 72.8274 359.752C72.3836 359.326 71.9775 359.264 71.6679 359.573ZM365.879 365.945L364.1 367.611L364.615 368.136L365.13 368.662L366.374 367.677C368.532 365.968 369.383 364.279 368.086 364.279C367.851 364.279 366.858 365.028 365.879 365.945ZM82.8802 370.171C82.22 370.831 82.4784 371.222 84.8904 373.209C91.8756 378.965 104.844 388.522 105.669 388.522C105.761 388.522 106.492 388.988 107.294 389.558C108.096 390.128 109.788 391.181 111.054 391.898C112.32 392.615 113.84 393.484 114.43 393.828C122.387 398.469 130.13 402.296 139.75 406.343C146.105 409.017 148.188 409.799 153.715 411.585C156.837 412.594 160.133 413.677 161.038 413.991C162.981 414.665 163.605 414.525 163.476 413.441C163.413 412.914 163.133 412.588 162.615 412.439C162.193 412.318 161.019 411.985 160.006 411.699C155.362 410.39 148.605 408.135 146.195 407.09C145.689 406.871 144.308 406.32 143.126 405.865C141.945 405.411 140.564 404.859 140.057 404.64C139.551 404.42 138.101 403.794 136.835 403.249C134.098 402.07 129.155 399.735 125.326 397.812C122.719 396.503 121.893 396.063 117.576 393.69C115.844 392.737 108.257 388.148 106.144 386.774C101.889 384.008 90.4059 375.741 89.8777 375.063C89.7933 374.955 89.034 374.314 88.1903 373.639C87.3469 372.963 86.0349 371.825 85.2747 371.109C83.8027 369.721 83.463 369.588 82.8802 370.171ZM357.655 372.923C355.728 374.589 349.248 379.534 346.453 381.47C345.862 381.88 345.241 382.325 345.072 382.461C342.744 384.331 332.987 390.508 327.124 393.826C321.214 397.17 312.371 401.546 307.748 403.415C305.826 404.193 303.807 405.031 303.262 405.279C301.001 406.308 297.018 407.74 290.135 409.998C287.941 410.718 285.869 411.42 285.532 411.558C285.194 411.696 284.435 411.903 283.844 412.016C283.253 412.13 282.631 412.318 282.463 412.435C282.294 412.551 281.051 412.9 279.7 413.21C278.35 413.519 276.683 413.95 275.995 414.167C275.308 414.385 273.582 414.794 272.159 415.077C270.737 415.36 269.089 415.706 268.498 415.846C267.908 415.987 264.696 416.621 261.363 417.255L255.301 418.409V419.098C255.301 419.478 255.432 419.869 255.592 419.968C255.961 420.196 258.624 419.751 263.895 418.582C266.173 418.076 269.281 417.4 270.8 417.08C272.319 416.759 274.391 416.273 275.404 416C276.417 415.727 278.074 415.317 279.087 415.09C282.446 414.334 291.146 411.643 295.587 409.986C299.561 408.502 300.748 408.037 305.788 405.99C320.457 400.031 335.071 391.815 349.062 381.662C353.533 378.417 357.136 375.678 358.269 374.663C358.775 374.209 359.662 373.435 360.238 372.943C360.952 372.333 361.225 371.884 361.092 371.538C360.752 370.654 359.866 371.011 357.655 372.923ZM170.799 415.119C170.417 415.501 170.593 416.382 171.09 416.573C171.362 416.677 173.122 417.11 175.001 417.534L178.418 418.305L178.793 417.792C179 417.51 179.104 417.174 179.024 417.045C178.846 416.758 176.356 415.997 173.568 415.378C171.186 414.849 171.079 414.839 170.799 415.119ZM186.263 418.396C185.865 418.794 185.844 419.422 186.222 419.655C186.817 420.023 194.376 421.025 194.631 420.77C194.778 420.623 194.849 420.25 194.789 419.94L194.681 419.377L193.303 419.149C192.545 419.024 190.723 418.73 189.256 418.497L186.586 418.073L186.263 418.396ZM244.117 419.586C243.854 419.961 243.639 420.444 243.639 420.66C243.639 421.3 244.812 422.279 245.58 422.279C246.458 422.279 247.629 421.091 247.629 420.199C247.629 418.847 244.96 418.381 244.117 419.586ZM201.916 420.333L201.275 421.148L201.698 421.79C202.19 422.535 203.578 422.796 204.219 422.264C205.188 421.46 204.415 419.517 203.127 419.517C202.814 419.517 202.269 419.884 201.916 420.333ZM215.461 420.45C214.536 421.312 214.576 422.683 215.546 423.318C216.559 423.981 217.423 423.942 218.165 423.2C219.022 422.343 218.942 421.224 217.97 420.46C216.952 419.659 216.313 419.657 215.461 420.45ZM230.029 420.385C228.875 421.66 229.787 423.507 231.569 423.507C233.242 423.507 234.019 421.913 233.033 420.506C232.431 419.646 230.759 419.579 230.029 420.385Z" fill="#DFAC67"/>
</svg>
