<svg width="787" height="787" viewBox="0 0 787 787" fill="none" xmlns="http://www.w3.org/2000/svg">
<path fill-rule="evenodd" clip-rule="evenodd" d="M395.493 183.292C394.862 183.741 394.346 184.214 394.346 184.344C394.346 184.474 394.121 184.805 393.846 185.08C393.571 185.355 393.284 186.159 393.209 186.867L393.073 188.153L393.982 189.566C394.588 190.51 395.348 191.202 396.27 191.648L397.649 192.315L398.898 192.035C400.515 191.671 401.835 190.614 402.619 189.053C403.468 187.364 403.414 186.781 402.249 185.068C400.459 182.437 397.71 181.714 395.493 183.292ZM382.07 187.052L380.382 187.232V187.846V188.46L383.301 188.547C384.908 188.595 386.772 188.52 387.445 188.381L388.668 188.128L388.766 187.45L388.864 186.772L386.311 186.822C384.907 186.85 382.998 186.953 382.07 187.052ZM409.086 187.222C408.875 187.476 408.775 187.875 408.864 188.107C409.026 188.531 410.045 188.693 415.133 189.102L417.66 189.305L417.853 188.802C418.248 187.772 417.453 187.458 413.901 187.243C412.007 187.129 410.236 186.973 409.965 186.897C409.693 186.821 409.298 186.967 409.086 187.222ZM367.994 188.452C366.113 188.683 364.714 189.003 364.57 189.237C364.179 189.869 364.579 190.455 365.4 190.455C366.334 190.455 371.831 189.866 372.805 189.661L373.516 189.512L373.419 188.833L373.323 188.153L372.248 188.108C371.658 188.083 369.743 188.238 367.994 188.452ZM425.241 188.511C424.927 188.825 424.998 189.781 425.352 189.999C425.712 190.222 431.474 191.132 432.863 191.186L433.784 191.222V190.46V189.698L432.556 189.463C431.129 189.191 425.888 188.32 425.625 188.312C425.526 188.309 425.354 188.398 425.241 188.511ZM353.527 190.938C351.923 191.341 350.318 191.673 349.958 191.676C349.155 191.683 348.486 192.434 348.726 193.059C348.962 193.675 350.02 193.645 352.862 192.941C354.156 192.62 355.72 192.271 356.336 192.165C357.541 191.958 358.05 191.251 357.485 190.569C357.052 190.048 357.081 190.045 353.527 190.938ZM440.875 191.554C440.758 191.86 440.839 192.258 441.061 192.464C441.65 193.008 446.161 194.078 448.515 194.231L449.436 194.291V193.678V193.066L448.253 192.678C447.602 192.465 446.083 192.08 444.877 191.822C443.671 191.564 442.324 191.275 441.884 191.181L441.084 191.009L440.875 191.554ZM339.716 194.273C338.533 194.734 336.283 195.432 334.269 195.965C332.961 196.31 332.728 196.664 333.257 197.5L333.54 197.948L336.398 197.09C337.97 196.618 339.851 196.093 340.578 195.923L341.9 195.614L341.805 194.802C341.694 193.838 341.172 193.706 339.716 194.273ZM456.444 195.539C456.343 195.803 456.389 196.148 456.546 196.306C457.004 196.763 464.109 198.992 464.559 198.819C464.783 198.733 464.925 198.395 464.874 198.069L464.781 197.475L462.633 196.763C460.291 195.985 457.128 195.058 456.822 195.058C456.716 195.058 456.546 195.274 456.444 195.539ZM324.678 199.172C324.256 199.396 322.736 200.033 321.302 200.589C319.867 201.144 318.491 201.784 318.244 202.01L317.794 202.423L318.252 202.881L318.71 203.338L320.696 202.614C324.093 201.376 326.34 200.353 326.461 199.989C326.58 199.631 325.981 198.731 325.638 198.753C325.531 198.759 325.1 198.948 324.678 199.172ZM471.891 200.173C471.779 200.285 471.687 200.604 471.687 200.881C471.687 201.397 472.28 201.706 476.137 203.205C477.318 203.664 478.451 204.171 478.654 204.331C479.27 204.817 480.28 204.301 480.28 203.501V202.779L479.293 202.562C478.75 202.443 478.094 202.226 477.835 202.08C477.181 201.712 472.647 199.968 472.344 199.968C472.208 199.968 472.004 200.06 471.891 200.173ZM304.557 207.62C301.339 209.234 297.222 211.384 295.407 212.397C293.591 213.409 291.597 214.514 290.975 214.852C285.25 217.959 272.329 226.816 264.881 232.737C257.927 238.267 248.161 247.31 247.847 248.511C247.627 249.351 248.404 249.547 249.266 248.868C249.662 248.557 251.482 246.921 253.309 245.233C255.137 243.545 257.891 241.005 259.427 239.588C265.493 233.996 282.917 221.254 288.761 218.137C289.515 217.734 290.482 217.165 290.909 216.871C291.336 216.578 292.652 215.807 293.833 215.158C295.015 214.509 296.465 213.708 297.056 213.378C299.283 212.134 308.328 207.713 310.023 207.041C310.994 206.656 311.788 206.21 311.788 206.05C311.788 205.477 311.145 204.572 310.779 204.628C310.574 204.659 307.774 206.005 304.557 207.62ZM486.93 206.31C486.817 206.422 486.725 206.767 486.725 207.075V207.636L489.718 209.04C491.363 209.812 492.917 210.573 493.17 210.731C494.151 211.345 494.469 211.397 494.731 210.984C494.88 210.748 495.004 210.385 495.007 210.177C495.01 209.969 493.312 208.968 491.236 207.952C487.216 205.987 487.243 205.997 486.93 206.31ZM500.934 213.982C500.687 214.625 501.365 215.169 505.14 217.357L508.055 219.047L508.516 218.757C508.769 218.598 508.976 218.294 508.976 218.081C508.976 217.649 502.269 213.471 501.574 213.471C501.33 213.471 501.042 213.7 500.934 213.982ZM514.649 221.916L514.262 222.382L514.842 223.023C515.355 223.592 517.005 224.796 519.514 226.433C520.895 227.335 521.129 227.381 521.649 226.862L522.151 226.36L521.702 225.931C521.212 225.463 515.347 221.449 515.154 221.449C515.089 221.449 514.862 221.659 514.649 221.916ZM527.41 231.248L526.873 231.841L527.439 232.3C527.75 232.553 529.109 233.625 530.46 234.681C540.111 242.234 553.787 255.731 561.359 265.18C562.712 266.868 564.047 268.526 564.326 268.865C571.538 277.626 581.762 294.073 587.408 305.995C591.431 314.49 595.772 325.291 597.521 331.159C597.874 332.341 598.285 333.584 598.435 333.921C598.784 334.703 600.054 339.285 600.859 342.667C602.616 350.045 603.044 351.985 603.048 352.591C603.056 353.689 603.504 354.127 604.392 353.904C604.832 353.793 605.192 353.498 605.192 353.248C605.192 352.647 603.152 344.017 602.369 341.303C602.031 340.131 601.491 338.167 601.169 336.938C599.308 329.832 595.168 318.879 589.765 306.762C588.275 303.42 584.748 296.553 584.012 295.561C583.887 295.392 583.261 294.288 582.622 293.106C578.14 284.823 570.105 272.983 564.164 265.906C562.838 264.325 561.34 262.488 560.837 261.824C556.808 256.502 546.181 245.767 538.008 238.763C537.433 238.271 536.536 237.476 536.013 236.997C535.106 236.166 531.397 233.226 529.049 231.477L527.946 230.656L527.41 231.248ZM241.064 255.027C236.434 259.934 227.348 271.126 227.465 271.778C227.51 272.031 227.838 272.28 228.194 272.331L228.84 272.424L229.879 271.067C234.368 265.202 239.343 259.314 243.577 254.855C245.084 253.268 246.109 251.929 246.109 251.549C246.109 250.134 244.884 250.978 241.064 255.027ZM222.466 278.589C221.261 279.841 219.056 283.441 219.161 283.986C219.217 284.276 219.524 284.513 219.844 284.513C220.547 284.513 224.399 279.326 224.254 278.574C224.105 277.8 223.217 277.808 222.466 278.589ZM214.094 291.971C212.636 293.98 211.428 296.237 211.428 296.953C211.428 297.374 211.637 297.555 212.119 297.554C212.812 297.552 212.968 297.351 214.73 294.18C215.153 293.421 215.691 292.578 215.926 292.307C216.161 292.036 216.271 291.597 216.169 291.333C215.786 290.335 215.137 290.534 214.094 291.971ZM206.734 305.786C206.131 307.106 205.229 309.074 204.731 310.159C203.403 313.047 201.867 316.543 201.3 317.963C201.165 318.301 200.783 319.199 200.451 319.958C200.118 320.718 199.13 323.341 198.255 325.789C197.38 328.236 196.531 330.56 196.369 330.953C195.889 332.116 193.68 340.888 193.573 342.053L193.474 343.128L191.985 343.032C185.476 342.615 179.414 346.185 176.442 352.183L175.455 354.175L175.295 357.131C175.022 362.164 176.319 365.625 179.771 369.076C181.903 371.208 185.532 373.355 187.004 373.355C187.42 373.355 187.84 373.483 187.936 373.64C188.033 373.796 187.901 375.764 187.642 378.013C187.384 380.262 187.141 384.035 187.101 386.398L187.029 390.694H187.797H188.564L188.632 389.16C188.774 385.97 189.356 377.128 189.524 375.622L189.698 374.052L192.047 373.874C198.259 373.404 203.287 369.648 205.963 363.481L206.671 361.847L206.663 358.165L206.656 354.482L205.479 352.042L204.302 349.601L202.418 347.724C200.572 345.885 196.7 343.588 195.446 343.588C194.699 343.588 194.453 343.112 194.834 342.401C195.006 342.078 195.694 339.97 196.361 337.714C198.848 329.314 199.54 327.139 200.106 325.961C200.426 325.297 200.688 324.606 200.689 324.427C200.691 324.248 201.322 322.582 202.093 320.725C202.863 318.869 203.819 316.508 204.218 315.479C204.616 314.45 205.69 312.033 206.603 310.108C207.516 308.184 208.509 306.09 208.808 305.456L209.352 304.303L208.972 303.845C208.269 302.999 207.837 303.374 206.734 305.786ZM188.553 345.76C182.496 346.775 177.975 352.067 177.975 358.144C177.975 363.93 181.528 368.874 186.935 370.612L189.046 371.291L191.728 371.138L194.411 370.985L196.473 369.991C200.362 368.115 203.036 364.486 203.778 360.074L204.129 357.993L203.747 355.931C202.815 350.897 199.432 347.331 194.355 346.033C191.84 345.39 190.999 345.35 188.553 345.76ZM605.079 361.851C604.786 362.615 605.732 368.503 606.227 368.998C606.927 369.698 607.647 369.227 607.647 368.071C607.646 366.901 606.839 362.124 606.568 361.685C606.281 361.222 605.278 361.334 605.079 361.851ZM607.083 376.654C606.924 376.959 606.91 377.922 607.05 378.879C607.185 379.807 607.305 381.419 607.318 382.46C607.33 383.501 607.424 384.571 607.526 384.838C607.815 385.589 608.836 385.43 609.044 384.602C609.305 383.565 608.645 377.04 608.229 376.539C607.759 375.974 607.419 376.008 607.083 376.654ZM606.422 390.189C605.838 390.502 604.954 391.26 604.458 391.874L603.555 392.989V394.377V395.764L604.479 396.911C604.988 397.543 605.943 398.375 606.602 398.762L607.801 399.464L608.97 399.325C610.487 399.145 611.961 398.118 612.805 396.652C614.049 394.491 613.467 392.124 611.308 390.56L610.01 389.62H608.747C608.052 389.62 607.006 389.876 606.422 390.189ZM187.259 398.126C186.831 398.28 186.741 401.434 187.073 404.612L187.27 406.498H187.988C188.869 406.498 189.135 405.65 188.916 403.544C188.831 402.722 188.751 401.259 188.739 400.295L188.717 398.541L188.18 398.265C187.885 398.113 187.471 398.05 187.259 398.126ZM607.517 406.268C607.438 406.648 607.289 408.563 607.184 410.524L606.994 414.09L607.525 414.293C607.817 414.406 608.206 414.348 608.389 414.165C608.817 413.738 609.13 406.26 608.737 405.868C608.232 405.365 607.664 405.551 607.517 406.268ZM187.799 415.168C187.8 415.885 187.936 417.646 188.101 419.08L188.401 421.689L188.928 422.076L189.457 422.462L189.836 422.076L190.215 421.689L189.796 417.853C189.566 415.743 189.367 413.982 189.354 413.94C189.342 413.898 188.986 413.863 188.564 413.863H187.797L187.799 415.168ZM606.247 421.873C605.824 422.557 604.983 429.152 605.256 429.64C605.561 430.184 606.284 430.288 606.568 429.829C606.67 429.665 607.02 427.915 607.347 425.941L607.942 422.351L607.604 421.944C607.193 421.448 606.531 421.414 606.247 421.873ZM189.748 429.978C189.562 430.461 189.744 432.156 190.291 435.038C190.467 435.966 190.667 437.022 190.736 437.383C190.9 438.248 191.771 438.561 192.363 437.969L192.831 437.501L192.122 433.891C191.733 431.906 191.273 430.109 191.102 429.898C190.676 429.373 189.964 429.415 189.748 429.978ZM602.802 441.05C602.258 443.175 601.891 445.039 601.986 445.193C602.081 445.346 602.474 445.472 602.86 445.472H603.56L604.069 443.708C604.892 440.858 605.452 438.036 605.283 437.595C605.197 437.37 604.825 437.186 604.458 437.186H603.79L602.802 441.05ZM192.865 445.466C192.499 446.057 194.812 453.676 195.429 453.912C196.266 454.234 196.534 453.551 196.181 451.994C195.727 449.988 194.54 445.707 194.356 445.409C194.144 445.065 193.087 445.105 192.865 445.466ZM599.771 453.221C599.605 453.6 599.005 455.33 598.436 457.064L597.402 460.216L597.905 460.72L598.409 461.224L598.873 460.839C599.129 460.626 599.852 458.889 600.482 456.977L601.626 453.501L601.223 453.016C600.658 452.336 600.125 452.411 599.771 453.221ZM197.269 460.842L196.852 461.099L197.748 463.643C199.531 468.707 200.183 469.729 201.066 468.845L201.405 468.507L200.991 467.193C200.763 466.471 200.485 465.742 200.373 465.573C200.261 465.404 199.859 464.277 199.478 463.069C198.782 460.859 198.197 460.269 197.269 460.842ZM594.611 469.179C594.326 469.896 593.908 470.897 593.683 471.403C593.457 471.91 592.979 473.012 592.62 473.852L591.967 475.381L592.471 475.749C592.748 475.952 593.154 476.049 593.372 475.966C593.904 475.762 596.7 468.889 596.482 468.321C596.124 467.389 595.145 467.838 594.611 469.179ZM202.965 475.986L202.423 476.382L203.473 478.624C205.705 483.387 206.063 483.986 206.678 483.986C207.61 483.986 207.566 483.092 206.525 480.84C205.998 479.701 205.266 478.116 204.899 477.317C204.147 475.684 203.751 475.411 202.965 475.986ZM587.588 485.753C585.78 489.361 585.571 490.101 586.288 490.377C586.921 490.619 587.472 489.869 589.242 486.357L590.831 483.205L590.455 482.751C590.247 482.502 589.907 482.298 589.699 482.298C589.491 482.298 588.541 483.852 587.588 485.753ZM209.28 491.033C209.28 491.28 209.625 492.109 210.047 492.874C210.469 493.64 211.16 494.892 211.582 495.657C212.874 498.002 213.319 498.562 213.886 498.562C214.186 498.562 214.51 498.358 214.607 498.107C214.752 497.729 212.85 494.016 211.106 491.274C210.614 490.5 209.28 490.324 209.28 491.033ZM581.406 497.817C580.439 499.29 580.383 499.381 578.991 501.714L578.118 503.178L578.496 503.632C579.005 504.245 579.694 504.205 579.936 503.549C580.045 503.254 580.218 502.943 580.321 502.859C580.425 502.774 581.235 501.484 582.123 499.992L583.737 497.279L583.378 496.847C582.789 496.137 582.376 496.341 581.406 497.817ZM217.262 504.851L216.882 505.309L218.915 508.303C221.687 512.386 221.764 512.476 222.309 512.267C223.082 511.97 222.867 511.177 221.346 508.715C218.674 504.391 218.097 503.845 217.262 504.851ZM571.974 512.919C567.463 519.778 557.779 531.632 550.422 539.302C546.957 542.915 546.323 543.981 547.64 543.981C548.715 543.981 556.871 535.31 563.995 526.593C568.103 521.569 575.177 511.54 575.057 510.912C575.001 510.618 574.68 510.347 574.344 510.311L573.734 510.244L571.974 512.919ZM226.39 517.92C225.675 518.337 225.714 518.807 226.544 519.773C226.924 520.215 228.099 521.63 229.156 522.919C230.213 524.207 231.198 525.261 231.344 525.261C231.49 525.261 231.781 525.054 231.991 524.801L232.372 524.342L229.803 520.966C228.39 519.109 227.165 517.594 227.081 517.599C226.996 517.604 226.686 517.748 226.39 517.92ZM236.043 530.539C235.84 530.742 235.679 531.053 235.685 531.23C235.691 531.407 236.974 532.905 238.535 534.56L241.374 537.567L241.9 537.366C242.807 537.017 242.493 536.346 240.211 533.758C238.992 532.376 237.787 531.004 237.533 530.708C236.993 530.079 236.553 530.029 236.043 530.539ZM246.928 542.037C246.379 542.585 246.93 543.475 249.241 545.773C251.813 548.331 252.347 548.645 252.675 547.792C253.023 546.883 253.306 547.227 248.087 542.216C247.643 541.79 247.237 541.728 246.928 542.037ZM541.139 548.409L539.36 550.074L539.875 550.6L540.39 551.126L541.634 550.141C543.791 548.432 544.643 546.743 543.346 546.743C543.111 546.743 542.118 547.492 541.139 548.409ZM258.14 552.635C257.48 553.295 257.738 553.686 260.15 555.673C267.135 561.429 280.104 570.986 280.929 570.986C281.02 570.986 281.752 571.452 282.554 572.022C283.356 572.591 285.048 573.644 286.314 574.362C287.58 575.079 289.099 575.947 289.69 576.292C297.647 580.933 305.389 584.76 315.01 588.807C321.365 591.481 323.448 592.263 328.974 594.049C332.097 595.058 335.393 596.14 336.298 596.454C338.241 597.129 338.865 596.988 338.735 595.905C338.672 595.378 338.392 595.052 337.875 594.903C337.453 594.782 336.279 594.449 335.266 594.163C330.622 592.854 323.865 590.599 321.455 589.554C320.949 589.335 319.568 588.783 318.386 588.329C317.204 587.875 315.823 587.323 315.317 587.104C314.811 586.884 313.36 586.258 312.094 585.713C309.357 584.534 304.415 582.199 300.585 580.276C297.979 578.967 297.153 578.527 292.836 576.153C291.104 575.201 283.517 570.612 281.404 569.238C277.149 566.472 265.666 558.205 265.137 557.527C265.053 557.419 264.294 556.778 263.45 556.102C262.607 555.427 261.295 554.289 260.534 553.573C259.062 552.185 258.723 552.052 258.14 552.635ZM532.915 555.386C530.988 557.053 524.507 561.998 521.713 563.934C521.122 564.343 520.5 564.789 520.332 564.925C518.003 566.794 508.247 572.972 502.384 576.29C496.474 579.633 487.631 584.01 483.007 585.879C481.085 586.656 479.067 587.495 478.522 587.743C476.261 588.772 472.278 590.204 465.395 592.462C463.201 593.182 461.129 593.884 460.791 594.022C460.454 594.16 459.694 594.366 459.103 594.48C458.513 594.594 457.891 594.782 457.722 594.899C457.554 595.015 456.311 595.364 454.96 595.673C453.61 595.983 451.943 596.414 451.255 596.631C450.568 596.849 448.841 597.258 447.419 597.541C445.996 597.824 444.349 598.17 443.758 598.31C443.167 598.45 439.956 599.084 436.622 599.719L430.561 600.873V601.562C430.561 601.941 430.692 602.333 430.852 602.432C431.221 602.66 433.884 602.215 439.154 601.046C441.433 600.54 444.541 599.864 446.06 599.544C447.579 599.223 449.651 598.737 450.663 598.464C451.676 598.191 453.334 597.781 454.346 597.553C457.705 596.798 466.406 594.107 470.846 592.449C474.821 590.966 476.007 590.501 481.047 588.454C495.716 582.494 510.331 574.278 524.321 564.126C528.792 560.881 532.396 558.142 533.529 557.127C534.035 556.673 534.921 555.899 535.498 555.406C536.212 554.797 536.485 554.348 536.352 554.002C536.012 553.118 535.126 553.475 532.915 555.386ZM346.059 597.583C345.676 597.965 345.853 598.846 346.35 599.037C346.622 599.141 348.382 599.574 350.261 599.998L353.677 600.769L354.053 600.256C354.259 599.973 354.363 599.637 354.284 599.509C354.106 599.222 351.616 598.461 348.828 597.842C346.446 597.313 346.338 597.303 346.059 597.583ZM361.523 600.86C361.125 601.258 361.104 601.886 361.482 602.119C362.077 602.487 369.636 603.488 369.891 603.233C370.038 603.087 370.109 602.714 370.049 602.404L369.941 601.841L368.562 601.613C367.805 601.488 365.983 601.194 364.515 600.961L361.846 600.537L361.523 600.86ZM419.376 602.05C419.114 602.425 418.899 602.908 418.899 603.124C418.899 603.764 420.072 604.743 420.84 604.743C421.718 604.743 422.888 603.554 422.888 602.663C422.888 601.311 420.22 600.845 419.376 602.05ZM377.176 602.796L376.534 603.612L376.958 604.254C377.45 604.999 378.838 605.26 379.479 604.728C380.448 603.924 379.675 601.981 378.387 601.981C378.074 601.981 377.529 602.348 377.176 602.796ZM390.721 602.914C389.795 603.776 389.836 605.147 390.806 605.782C391.818 606.445 392.682 606.406 393.425 605.664C394.282 604.807 394.202 603.688 393.23 602.924C392.212 602.123 391.572 602.121 390.721 602.914ZM405.289 602.849C404.135 604.124 405.047 605.97 406.829 605.97C408.501 605.97 409.278 604.377 408.293 602.97C407.691 602.11 406.019 602.043 405.289 602.849Z" fill="#DFAC67"/>
</svg>
