<svg width="532" height="533" viewBox="0 0 532 533" fill="none" xmlns="http://www.w3.org/2000/svg">
<path fill-rule="evenodd" clip-rule="evenodd" d="M243.855 0.899714C205.03 4.29071 165.78 16.4387 133.903 34.9307C119.856 43.0797 102.874 54.9627 102.864 56.6517C102.851 58.5577 104.312 57.8147 113.38 51.3027C142.624 30.3017 181.281 13.9537 217.355 7.33271C273.623 -2.99529 330.689 4.80571 381.358 29.7527C399.345 38.6087 425.322 55.1717 424.233 57.0907C423.858 57.7527 422.872 59.0847 422.042 60.0507C421.213 61.0167 420.719 61.9607 420.944 62.1487C421.628 62.7177 437.328 65.6377 437.708 65.2667C437.903 65.0767 436.841 61.2557 435.349 56.7757L432.636 48.6307L429.845 51.3047L427.053 53.9787L413.204 44.7847C398.217 34.8357 373.249 22.0657 357.495 16.2927C321.813 3.21772 280.847 -2.33129 243.855 0.899714ZM56.8546 96.0477C52.7296 97.7437 49.1296 99.3207 48.8546 99.5527C48.5796 99.7847 49.6336 100.996 51.1956 102.245L54.0366 104.516L48.1086 112.905C24.5126 146.3 8.99163 184.903 2.31963 226.795C0.0786319 240.863 -0.77137 278.38 0.81563 293.125C5.39063 335.62 19.9146 376.932 42.1366 410.656C52.1656 425.875 55.2856 429.764 56.7446 428.863L57.9806 428.099L55.5666 425.197C54.2386 423.601 50.4436 418.245 47.1326 413.295C5.19463 350.589 -7.85837 274.946 10.4616 200.795C16.7846 175.203 30.2276 145.045 45.7666 121.592C50.7416 114.083 55.2756 107.653 55.8426 107.302C56.4096 106.952 58.0966 107.626 59.5896 108.802L62.3066 110.938L63.0056 108.324C63.8566 105.139 65.2316 92.7617 64.7206 92.8797C64.5196 92.9267 60.9796 94.3517 56.8546 96.0477ZM474.395 103.73C474.067 104.262 475.781 107.307 478.204 110.496C489.344 125.154 502.831 149.656 510.875 169.846C519.506 191.509 525.482 216.187 527.909 240.178C529.432 255.235 528.596 291.646 526.419 305.118C519.592 347.354 504.073 385.988 481.034 418.103L477.585 422.91L474.773 420.216L471.961 417.523L471.404 419.909C471.098 421.221 470.223 425.362 469.459 429.11L468.072 435.926L469.213 435.493C469.841 435.255 473.618 434.012 477.605 432.731C481.592 431.45 484.855 430.118 484.855 429.772C484.855 429.427 483.757 428.112 482.415 426.851L479.975 424.559L485.277 416.927C507.895 384.368 523.023 345.477 529.554 303.1L531.219 292.295L531.278 266.795L531.336 241.295L529.546 229.795C522.597 185.147 507.709 147.396 483.724 113.601C476.44 103.338 475.35 102.184 474.395 103.73ZM95.8496 469.437C95.8466 469.909 97.2706 473.842 99.0146 478.177L102.187 486.06L104.104 483.427C105.159 481.98 106.398 480.795 106.859 480.795C107.319 480.795 111.219 483.213 115.525 486.168C197.469 542.403 305.59 547.773 393.355 499.969C402.792 494.829 425.88 479.674 427.801 477.36C429.379 475.459 428.351 473.936 426.432 475.33C387.184 503.862 349.013 520.01 304.355 526.974L290.355 529.157L266.355 529.189L242.355 529.222L230.355 527.451C198.397 522.733 173.966 515.03 146.137 500.896C135.593 495.541 111.779 481.032 108.996 478.267C108.798 478.071 109.586 476.577 110.746 474.948C111.906 473.319 112.855 471.776 112.855 471.52C112.855 471.263 110.043 470.743 106.605 470.363C103.168 469.983 99.3426 469.426 98.1046 469.125C96.8666 468.824 95.8526 468.964 95.8496 469.437Z" fill="#A699EF"/>
</svg>
