<svg width="787" height="787" viewBox="0 0 787 787" fill="none" xmlns="http://www.w3.org/2000/svg">
<path fill-rule="evenodd" clip-rule="evenodd" d="M372.544 129.051C333.719 132.442 294.469 144.59 262.592 163.082C248.545 171.231 231.563 183.114 231.553 184.803C231.54 186.709 233.001 185.966 242.069 179.454C271.313 158.453 309.97 142.105 346.044 135.484C402.312 125.156 459.378 132.957 510.047 157.904C528.034 166.76 554.011 183.323 552.922 185.242C552.547 185.904 551.561 187.236 550.731 188.202C549.902 189.168 549.408 190.112 549.633 190.3C550.317 190.869 566.017 193.789 566.397 193.418C566.592 193.228 565.53 189.407 564.038 184.927L561.325 176.782L558.534 179.456L555.742 182.13L541.893 172.936C526.906 162.987 501.938 150.217 486.184 144.444C450.502 131.369 409.536 125.82 372.544 129.051ZM185.544 224.199C181.419 225.895 177.819 227.472 177.544 227.704C177.269 227.936 178.323 229.147 179.885 230.396L182.726 232.667L176.798 241.056C153.202 274.451 137.681 313.054 131.009 354.946C128.768 369.014 127.918 406.531 129.505 421.276C134.08 463.771 148.604 505.083 170.826 538.807C180.855 554.026 183.975 557.915 185.434 557.014L186.67 556.25L184.256 553.348C182.928 551.752 179.133 546.396 175.822 541.446C133.884 478.74 120.831 403.097 139.151 328.946C145.474 303.354 158.917 273.196 174.456 249.743C179.431 242.234 183.965 235.804 184.532 235.453C185.099 235.103 186.786 235.777 188.279 236.953L190.996 239.089L191.695 236.475C192.546 233.29 193.921 220.913 193.41 221.031C193.209 221.078 189.669 222.503 185.544 224.199ZM603.084 231.881C602.756 232.413 604.47 235.458 606.893 238.647C618.033 253.305 631.52 277.807 639.564 297.997C648.195 319.66 654.171 344.338 656.598 368.329C658.121 383.386 657.285 419.797 655.108 433.269C648.281 475.505 632.762 514.139 609.723 546.254L606.274 551.061L603.462 548.367L600.65 545.674L600.093 548.06C599.787 549.372 598.912 553.513 598.148 557.261L596.761 564.077L597.902 563.644C598.53 563.406 602.307 562.163 606.294 560.882C610.281 559.601 613.544 558.269 613.544 557.923C613.544 557.578 612.446 556.263 611.104 555.002L608.664 552.71L613.966 545.078C636.584 512.519 651.712 473.628 658.243 431.251L659.908 420.446L659.967 394.946L660.025 369.446L658.235 357.946C651.286 313.298 636.398 275.547 612.413 241.752C605.129 231.489 604.039 230.335 603.084 231.881ZM224.539 597.588C224.536 598.06 225.96 601.993 227.704 606.328L230.876 614.211L232.793 611.578C233.848 610.131 235.087 608.946 235.548 608.946C236.008 608.946 239.908 611.364 244.214 614.319C326.158 670.554 434.279 675.924 522.044 628.12C531.481 622.98 554.569 607.825 556.49 605.511C558.068 603.61 557.04 602.087 555.121 603.481C515.873 632.013 477.702 648.161 433.044 655.125L419.044 657.308L395.044 657.34L371.044 657.373L359.044 655.602C327.086 650.884 302.655 643.181 274.826 629.047C264.282 623.692 240.468 609.183 237.685 606.418C237.487 606.222 238.275 604.728 239.435 603.099C240.595 601.47 241.544 599.927 241.544 599.671C241.544 599.414 238.732 598.894 235.294 598.514C231.857 598.134 228.032 597.577 226.794 597.276C225.556 596.975 224.542 597.115 224.539 597.588Z" fill="#A699EF"/>
</svg>
