<svg width="615" height="616" viewBox="0 0 615 616" fill="none" xmlns="http://www.w3.org/2000/svg">
<path d="M557.203 139.898L558.433 139.116L566.941 152.489L565.711 153.271L557.203 139.898ZM544.754 131.103L554.09 124.341L555.107 125.745L546.975 131.635L550.157 136.03L558.29 130.14L559.307 131.544L549.971 138.305L544.754 131.103ZM541.646 117.718C542.614 116.959 543.586 116.483 544.56 116.291C545.532 116.101 546.448 116.168 547.307 116.491C548.16 116.813 548.894 117.366 549.507 118.148C550.123 118.934 550.487 119.781 550.599 120.69C550.706 121.598 550.549 122.502 550.13 123.403C549.711 124.304 549.019 125.133 548.053 125.89C547.085 126.65 546.115 127.124 545.143 127.314C544.168 127.506 543.254 127.441 542.4 127.118C541.542 126.795 540.804 126.241 540.188 125.456C539.575 124.673 539.215 123.828 539.108 122.919C538.996 122.011 539.15 121.106 539.569 120.205C539.985 119.307 540.677 118.478 541.646 117.718ZM542.708 119.073C541.97 119.652 541.442 120.259 541.125 120.894C540.802 121.529 540.673 122.155 540.737 122.772C540.796 123.388 541.03 123.956 541.437 124.476C541.847 124.999 542.344 125.362 542.929 125.567C543.511 125.773 544.149 125.797 544.845 125.638C545.535 125.478 546.249 125.109 546.987 124.53C547.725 123.951 548.256 123.345 548.579 122.71C548.896 122.075 549.025 121.449 548.966 120.833C548.904 120.219 548.668 119.65 548.258 119.128C547.851 118.608 547.356 118.245 546.775 118.038C546.188 117.831 545.549 117.807 544.859 117.967C544.163 118.126 543.447 118.495 542.708 119.073ZM547.34 111.162L544.098 113.927L543.605 113.349C543.271 113.293 542.879 113.309 542.427 113.399C541.976 113.488 541.439 113.694 540.817 114.017C540.195 114.34 539.458 114.826 538.605 115.474L534.724 118.427L530.112 113.017L537.762 106.495L536.915 105.502L540.145 102.748L541.226 104.016L539.118 105.813L544.139 111.702L546.259 109.895L547.34 111.162ZM542.276 111.789L538.843 107.763L532.333 113.314L534.841 116.256L537.524 114.206C538.175 113.715 538.784 113.302 539.351 112.966C539.916 112.628 540.444 112.362 540.936 112.17C541.422 111.977 541.869 111.85 542.276 111.789ZM523.283 105.435L524.389 104.426L528.06 108.452L535.472 101.695L536.643 102.98L528.125 110.746L523.283 105.435ZM519.528 93.3351C520.409 92.4752 521.323 91.897 522.271 91.6005C523.217 91.3066 524.134 91.2738 525.023 91.5019C525.906 91.7301 526.695 92.1999 527.39 92.9113C528.087 93.6255 528.541 94.4282 528.75 95.3197C528.955 96.211 528.897 97.1271 528.578 98.068C528.259 99.0088 527.661 99.9079 526.783 100.765C525.902 101.625 524.989 102.202 524.044 102.496C523.096 102.792 522.18 102.826 521.296 102.598C520.407 102.37 519.614 101.899 518.917 101.185C518.222 100.473 517.773 99.672 517.568 98.7806C517.359 97.8892 517.413 96.973 517.733 96.0322C518.049 95.094 518.647 94.1949 519.528 93.3351ZM520.731 94.5674C520.06 95.2227 519.601 95.8833 519.354 96.5491C519.102 97.2147 519.042 97.8509 519.172 98.4574C519.298 99.0639 519.591 99.6034 520.053 100.076C520.517 100.551 521.05 100.859 521.654 100.999C522.254 101.141 522.892 101.096 523.566 100.862C524.235 100.629 524.905 100.184 525.576 99.5288C526.247 98.8734 526.709 98.2129 526.961 97.5472C527.207 96.8814 527.268 96.2453 527.143 95.6388C527.014 95.035 526.718 94.4954 526.254 94.0202C525.793 93.5477 525.262 93.2402 524.661 93.0977C524.055 92.9552 523.418 93.0006 522.749 93.2341C522.075 93.4676 521.402 93.912 520.731 94.5674ZM515.793 95.6486L514.76 96.7316L508.307 90.5712L509.341 89.4883L511.942 91.9719L518.868 84.717L520.122 85.9141L513.196 93.169L515.793 95.6486ZM503.702 78.7672C504.52 77.847 505.391 77.2054 506.316 76.8424C507.238 76.4821 508.15 76.3843 509.053 76.5488C509.951 76.7136 510.771 77.1263 511.515 77.7866C512.261 78.4495 512.77 79.2181 513.042 80.0924C513.31 80.967 513.317 81.8848 513.066 82.846C512.814 83.8071 512.281 84.7463 511.466 85.6637C510.649 86.5839 509.779 87.2241 508.857 87.5843C507.932 87.9474 507.021 88.0465 506.124 87.8816C505.221 87.7171 504.396 87.3034 503.65 86.6405C502.907 85.9802 502.401 85.2127 502.134 84.3381C501.862 83.4638 501.851 82.546 502.103 81.5849C502.352 80.6266 502.885 79.6874 503.702 78.7672ZM504.99 79.911C504.367 80.6124 503.956 81.3038 503.757 81.9854C503.553 82.6673 503.538 83.3061 503.711 83.9019C503.879 84.4979 504.21 85.0153 504.704 85.4538C505.201 85.8949 505.755 86.1638 506.367 86.2605C506.976 86.36 507.608 86.2694 508.264 85.9887C508.915 85.7084 509.552 85.2175 510.174 84.5161C510.797 83.8148 511.211 83.1232 511.415 82.4413C511.614 81.7597 511.629 81.1209 511.461 80.5248C511.291 79.9316 510.957 79.4144 510.46 78.9733C509.967 78.5347 509.415 78.2657 508.806 78.1662C508.191 78.067 507.559 78.1576 506.908 78.4379C506.252 78.7186 505.613 79.2097 504.99 79.911ZM505.713 72.9133L498.389 81.8149L495.129 79.1328C494.497 78.613 494.06 78.0784 493.817 77.5288C493.572 76.9822 493.492 76.4474 493.577 75.9247C493.66 75.4048 493.883 74.9246 494.245 74.4842C494.55 74.1133 494.876 73.8563 495.222 73.7134C495.565 73.5734 495.915 73.5207 496.27 73.5555C496.62 73.5908 496.96 73.6857 497.289 73.8403L497.361 73.7533C497.077 73.4957 496.868 73.1628 496.732 72.7548C496.591 72.3473 496.56 71.9064 496.639 71.4322C496.719 70.958 496.948 70.4905 497.327 70.0298C497.701 69.5749 498.144 69.2545 498.657 69.0687C499.164 68.8835 499.726 68.8675 500.344 69.0207C500.959 69.1768 501.611 69.5386 502.301 70.106L505.713 72.9133ZM503.422 72.9601L501.483 71.3651C500.84 70.8358 500.277 70.5814 499.794 70.6017C499.31 70.622 498.915 70.8191 498.608 71.1929C498.376 71.474 498.235 71.7903 498.184 72.1418C498.133 72.4933 498.182 72.8471 498.331 73.2031C498.477 73.5568 498.73 73.8814 499.09 74.1771L501.076 75.8114L503.422 72.9601ZM500.214 76.8589L498.415 75.3783C498.113 75.1304 497.795 74.9654 497.459 74.8835C497.12 74.7991 496.794 74.8028 496.48 74.8946C496.161 74.987 495.884 75.1766 495.648 75.4634C495.345 75.8314 495.22 76.2461 495.273 76.7075C495.326 77.1689 495.619 77.6189 496.152 78.0576L497.986 79.5667L500.214 76.8589ZM492.095 62.0747L492.025 68.5314L492.999 69.278L496.142 65.1773L497.522 66.2355L490.509 75.3838L489.129 74.3256L492.091 70.4617L491.64 70.1158L485.22 71.3292L483.536 70.0381L490.335 68.7466L490.411 60.7837L492.095 62.0747ZM488.149 59.1541L489.653 60.2248L479.589 67.2098L477.952 66.0444L481.257 54.2479L482.761 55.3186L479.945 64.8936L480.019 64.9458L488.149 59.1541ZM485.279 62.652L480.4 59.1788L481.249 57.9866L486.128 61.4598L485.279 62.652ZM470.389 47.1471L470.868 53.5864L471.901 54.2476L474.685 49.8946L476.15 50.8317L469.94 60.5428L468.474 59.6057L471.098 55.5041L470.619 55.1978L464.325 56.9522L462.538 55.8089L469.202 53.9444L468.601 46.0038L470.389 47.1471ZM449.833 48.4151L455.547 38.4037L457.053 39.263L452.076 47.9839L456.788 50.6735L461.765 41.9526L463.271 42.8119L457.557 52.8233L449.833 48.4151ZM441.464 37.5339C442.03 36.4409 442.717 35.6047 443.524 35.0253C444.329 34.4492 445.189 34.1298 446.105 34.0671C447.015 34.006 447.912 34.204 448.795 34.6612C449.681 35.12 450.364 35.7397 450.843 36.5201C451.317 37.3021 451.551 38.1898 451.544 39.1832C451.536 40.1767 451.251 41.2182 450.687 42.3079C450.121 43.4009 449.435 44.2355 448.63 44.8116C447.823 45.391 446.964 45.7113 446.054 45.7723C445.138 45.835 444.237 45.6369 443.351 45.1781C442.468 44.721 441.789 44.1014 441.315 43.3194C440.836 42.539 440.6 41.652 440.607 40.6586C440.613 39.6685 440.899 38.6269 441.464 37.5339ZM442.994 38.3257C442.563 39.1588 442.335 39.9301 442.309 40.6397C442.279 41.3509 442.422 41.9738 442.736 42.5086C443.046 43.0449 443.494 43.4649 444.081 43.7685C444.67 44.0738 445.274 44.1981 445.89 44.1413C446.505 44.0878 447.096 43.8444 447.663 43.4109C448.224 42.9791 448.721 42.3466 449.152 41.5135C449.583 40.6805 449.814 39.9083 449.844 39.1972C449.869 38.4876 449.727 37.8646 449.417 37.3283C449.106 36.7953 448.655 36.3761 448.065 36.0708C447.479 35.7672 446.878 35.6421 446.263 35.6956C445.643 35.7506 445.052 35.9941 444.491 36.4259C443.924 36.8594 443.425 37.4926 442.994 38.3257ZM442.76 31.7363L442.118 33.1014L441.808 32.9678C441.389 32.7832 440.997 32.7708 440.631 32.9307C440.262 33.089 439.882 33.4448 439.489 33.9981C439.092 34.5498 438.638 35.3211 438.127 36.3121L435.644 41.1281L429.048 38.0261L433.954 27.5948L435.507 28.3254L431.229 37.4222L434.79 39.0966L436.826 35.1902C437.395 34.0938 437.949 33.2076 438.487 32.5316C439.023 31.859 439.597 31.4306 440.211 31.2463C440.82 31.0604 441.521 31.1535 442.312 31.5255L442.76 31.7363ZM431.458 26.4745L426.925 37.0733L420.28 34.2316L420.869 32.855L425.915 35.0128L427.296 31.7835L422.596 29.774L423.183 28.4025L427.882 30.4121L429.27 27.1672L424.162 24.9828L424.75 23.6062L431.458 26.4745ZM424.591 37.5503C424.836 37.6551 425.011 37.8363 425.117 38.0939C425.222 38.3549 425.223 38.6045 425.122 38.8425C425.011 39.1013 424.827 39.2778 424.571 39.3721C424.314 39.4664 424.063 39.4612 423.818 39.3565C423.56 39.2458 423.381 39.0673 423.282 38.8211C423.18 38.5733 423.184 38.32 423.295 38.0613C423.397 37.8232 423.575 37.6504 423.829 37.5428C424.078 37.4371 424.332 37.4397 424.591 37.5503ZM421.548 36.249C421.793 36.3537 421.968 36.5349 422.074 36.7925C422.179 37.0536 422.18 37.3031 422.079 37.5412C421.968 37.8 421.784 37.9765 421.528 38.0708C421.271 38.1651 421.02 38.1599 420.775 38.0551C420.516 37.9445 420.338 37.766 420.239 37.5197C420.137 37.272 420.141 37.0187 420.252 36.76C420.354 36.5219 420.532 36.3491 420.786 36.2415C421.035 36.1358 421.289 36.1383 421.548 36.249ZM419.377 32.2392L418.833 33.6343L410.52 30.3968L411.063 29.0017L414.415 30.3069L418.055 20.9606L419.67 21.5897L416.03 30.936L419.377 32.2392ZM411.949 18.4937L411.442 19.9385L410.789 19.7095C410.516 19.6139 410.275 19.5811 410.066 19.6111C409.853 19.6399 409.663 19.7123 409.495 19.8284C409.322 19.9468 409.164 20.0862 409.02 20.2466L408.73 20.5803L409.693 30.0849L407.951 29.4743L407.303 22.1854L402.559 27.5845L400.838 26.9813L407.751 19.3067C408.037 19.0014 408.338 18.7313 408.655 18.4964C408.969 18.2604 409.331 18.1069 409.741 18.0361C410.15 17.9688 410.638 18.0344 411.205 18.233L411.949 18.4937ZM382.962 16.4486L383.365 15.0475L398.598 19.4265L398.195 20.8276L382.962 16.4486ZM379.139 8.83356L376.581 20.0734L372.575 19.1615C371.7 18.9625 371.012 18.6384 370.51 18.1894C370.008 17.7403 369.677 17.2071 369.518 16.5896C369.357 15.9759 369.355 15.3251 369.512 14.6372C369.669 13.9457 369.955 13.3566 370.37 12.8699C370.78 12.386 371.311 12.0489 371.963 11.8585C372.609 11.6709 373.368 11.6762 374.239 11.8744L376.994 12.5015L376.667 13.9394L374.065 13.3473C373.513 13.2216 373.043 13.2147 372.656 13.3267C372.268 13.4423 371.955 13.6483 371.719 13.9446C371.482 14.2409 371.315 14.6013 371.219 15.0257C371.122 15.4501 371.117 15.8453 371.203 16.2112C371.289 16.5771 371.484 16.893 371.789 17.1587C372.091 17.4236 372.523 17.6201 373.087 17.7484L375.216 18.233L377.443 8.44758L379.139 8.83356ZM369.302 6.67098L371.115 7.02303L364.844 17.5477L362.872 17.1646L360.998 5.05778L362.81 5.40983L364.21 15.2916L364.299 15.3088L369.302 6.67098ZM368.138 11.0432L362.259 9.9012L362.538 8.46463L368.417 9.60664L368.138 11.0432ZM349.018 11.0541L350.753 11.3262C350.762 11.7074 350.835 12.0531 350.972 12.3633C351.11 12.6735 351.295 12.9475 351.527 13.1853C351.759 13.423 352.031 13.6175 352.341 13.7688C352.648 13.9195 352.983 14.0233 353.347 14.0803C354.003 14.1832 354.616 14.1104 355.187 13.8618C355.754 13.6127 356.238 13.1929 356.638 12.6024C357.034 12.0113 357.305 11.2561 357.449 10.3367C357.594 9.40995 357.569 8.60451 357.372 7.92038C357.172 7.23567 356.838 6.68951 356.37 6.28189C355.902 5.87428 355.344 5.61959 354.695 5.51785C354.336 5.46145 353.987 5.45615 353.649 5.50195C353.307 5.55088 352.99 5.65108 352.696 5.80257C352.403 5.95406 352.144 6.15457 351.918 6.40411C351.689 6.65677 351.51 6.95923 351.383 7.31147L349.649 7.03381C349.829 6.48858 350.09 6.0015 350.431 5.57257C350.767 5.14676 351.17 4.79589 351.638 4.51996C352.103 4.24715 352.615 4.05965 353.174 3.95744C353.733 3.85522 354.326 3.85325 354.952 3.95151C355.938 4.10616 356.78 4.4775 357.478 5.06552C358.175 5.65725 358.678 6.42544 358.985 7.37007C359.289 8.31412 359.346 9.39225 359.156 10.6045C358.965 11.8204 358.579 12.829 357.998 13.6304C357.416 14.4355 356.703 15.0111 355.858 15.3573C355.013 15.7071 354.1 15.805 353.117 15.651C352.513 15.5562 351.963 15.3807 351.468 15.1245C350.968 14.8714 350.535 14.5452 350.169 14.1459C349.801 13.7502 349.518 13.2918 349.319 12.7706C349.119 12.253 349.019 11.6809 349.018 11.0541ZM346.374 14.4897L344.669 14.2916L345.108 10.5122C345.169 9.9866 345.126 9.5604 344.979 9.23354C344.831 8.91042 344.592 8.66536 344.26 8.49837C343.924 8.33094 343.507 8.21822 343.007 8.16021C342.742 8.12947 342.473 8.10761 342.199 8.09464C341.92 8.08497 341.643 8.08297 341.366 8.08863C341.09 8.09803 340.821 8.1141 340.562 8.13684C340.298 8.16288 340.053 8.19667 339.825 8.23822L339.996 6.76779C340.22 6.72209 340.457 6.68535 340.705 6.65758C340.95 6.63311 341.205 6.61552 341.471 6.60483C341.736 6.59786 342.012 6.59965 342.297 6.61019C342.583 6.62073 342.877 6.64353 343.179 6.6786C344.014 6.77558 344.721 6.97863 345.301 7.28775C345.877 7.60016 346.299 8.03633 346.566 8.59625C346.83 9.15574 346.912 9.8604 346.813 10.7102L346.374 14.4897ZM339.453 13.6857L337.742 13.487L339.072 2.03672L340.783 2.23544L339.453 13.6857ZM336.22 1.7519L335.278 13.2406L328.075 12.6501L328.198 11.1579L333.667 11.6063L333.954 8.10585L328.86 7.68824L328.982 6.20166L334.076 6.61927L334.364 3.10197L328.827 2.64803L328.95 1.15584L336.22 1.7519ZM333.215 14.4325C333.481 14.4543 333.704 14.5705 333.887 14.7813C334.069 14.9957 334.149 15.232 334.128 15.49C334.105 15.7705 333.987 15.9961 333.773 16.1669C333.56 16.3376 333.32 16.4121 333.055 16.3903C332.774 16.3673 332.548 16.2547 332.376 16.0523C332.201 15.8497 332.125 15.6081 332.148 15.3277C332.169 15.0696 332.283 14.8493 332.49 14.6667C332.693 14.4876 332.935 14.4095 333.215 14.4325ZM329.917 14.1621C330.182 14.1839 330.406 14.3001 330.588 14.5108C330.77 14.7253 330.851 14.9615 330.829 15.2196C330.806 15.5001 330.688 15.7257 330.475 15.8964C330.261 16.0672 330.022 16.1416 329.756 16.1199C329.476 16.0969 329.249 15.9842 329.078 15.7819C328.902 15.5793 328.826 15.3377 328.849 15.0572C328.87 14.7992 328.984 14.5789 329.191 14.3963C329.394 14.2172 329.636 14.1391 329.917 14.1621ZM326.588 11.0467L326.515 12.5422L317.605 12.1071L317.678 10.6117L321.27 10.7871L321.759 0.768921L323.491 0.853465L323.001 10.8716L326.588 11.0467ZM301.709 6.23631C301.706 5.00554 301.929 3.94683 302.377 3.0602C302.825 2.17732 303.441 1.49667 304.224 1.01825C305.003 0.543592 305.89 0.305075 306.884 0.302701C307.883 0.300318 308.774 0.534589 309.56 1.00551C310.341 1.4802 310.958 2.15978 311.411 3.04427C311.863 3.92875 312.091 4.9845 312.094 6.21152C312.097 7.44229 311.874 8.49912 311.426 9.382C310.978 10.2686 310.364 10.9493 309.585 11.4239C308.801 11.9024 307.911 12.1428 306.913 12.1451C305.918 12.1475 305.03 11.9114 304.249 11.4367C303.463 10.9657 302.844 10.288 302.392 9.40356C301.94 8.52283 301.712 7.46708 301.709 6.23631ZM303.431 6.2322C303.434 7.17029 303.587 7.95979 303.893 8.60072C304.195 9.24541 304.609 9.73223 305.135 10.0612C305.657 10.3939 306.248 10.5595 306.909 10.5579C307.573 10.5563 308.166 10.3879 308.686 10.0527C309.207 9.72125 309.619 9.23246 309.921 8.58633C310.22 7.94396 310.368 7.15373 310.366 6.21564C310.363 5.27755 310.211 4.48617 309.91 3.84148C309.604 3.20055 309.19 2.71373 308.668 2.38101C308.146 2.05205 307.552 1.88836 306.888 1.88995C306.228 1.89152 305.637 2.05804 305.116 2.38949C304.592 2.72471 304.18 3.2135 303.882 3.85587C303.579 4.502 303.429 5.29411 303.431 6.2322ZM299.325 0.526921L299.761 12.0459L295.655 12.2015C294.759 12.2355 294.01 12.1005 293.409 11.7966C292.808 11.4927 292.351 11.0632 292.037 10.5081C291.723 9.95672 291.553 9.32857 291.526 8.62363C291.499 7.91494 291.623 7.27188 291.898 6.69445C292.169 6.12092 292.595 5.65793 293.175 5.30551C293.751 4.95698 294.485 4.7658 295.378 4.73197L298.201 4.62496L298.257 6.09858L295.591 6.19963C295.025 6.22109 294.569 6.33599 294.224 6.54433C293.879 6.75642 293.631 7.0362 293.479 7.38368C293.327 7.73115 293.259 8.12237 293.275 8.55733C293.292 8.99229 293.389 9.37538 293.567 9.7066C293.744 10.0378 294.015 10.2923 294.379 10.47C294.738 10.6479 295.207 10.7259 295.784 10.704L297.967 10.6213L297.587 0.592791L299.325 0.526921ZM288.996 0.965999L289.833 12.4628L282.665 12.9849L282.556 11.4917L287.99 11.0959L287.761 7.95225L285.19 8.13951C284.337 8.20165 283.602 8.11593 282.987 7.88232C282.368 7.64899 281.883 7.29116 281.532 6.80882C281.177 6.32676 280.975 5.74329 280.925 5.05842C280.875 4.37355 280.99 3.75756 281.27 3.21045C281.546 2.66361 281.973 2.22056 282.55 1.8813C283.124 1.5423 283.837 1.34173 284.69 1.27959L288.996 0.965999ZM287.368 2.55189L284.797 2.73915C284.302 2.77513 283.892 2.90282 283.566 3.12223C283.236 3.34192 282.994 3.61347 282.841 3.93691C282.684 4.26062 282.618 4.60024 282.644 4.95577C282.682 5.47223 282.912 5.90126 283.336 6.24287C283.76 6.58823 284.343 6.73392 285.084 6.67995L287.655 6.4927L287.368 2.55189ZM279.659 13.2436L277.946 13.4269L277.045 5.00963L276.939 5.02101L272.008 14.0625L270.407 14.2338L269.181 2.77197L270.91 2.58687L271.81 10.9929L271.916 10.9816L276.837 1.95251L278.432 1.78179L279.659 13.2436ZM268.465 12.9606L268.684 14.4417L259.858 15.7458L259.639 14.2647L263.197 13.739L261.731 3.81661L263.446 3.5632L264.912 13.4855L268.465 12.9606ZM256.078 11.6988L253.023 12.2685C252.182 12.4254 251.441 12.4223 250.8 12.2595C250.159 12.0966 249.637 11.7951 249.234 11.3549C248.828 10.9154 248.564 10.3578 248.441 9.68204C248.312 9.00769 248.356 8.38306 248.573 7.80815C248.786 7.23393 249.161 6.74607 249.697 6.34457C250.233 5.94307 250.921 5.66388 251.762 5.507L256.006 4.7154L258.12 16.0472L256.405 16.3672L254.559 6.47395L252.031 6.94561C251.54 7.03713 251.145 7.2101 250.845 7.46452C250.541 7.71964 250.331 8.01645 250.215 8.35495C250.095 8.69415 250.068 9.03896 250.133 9.38939C250.228 9.89844 250.505 10.2991 250.964 10.5913C251.424 10.8873 252.021 10.9668 252.755 10.8299L255.809 10.2602L256.078 11.6988ZM247.153 18.0928L245.039 6.76098L246.755 6.44104L248.868 17.7729L247.153 18.0928ZM225.567 18.1392L225.21 16.7259L240.576 12.8415L240.934 14.2548L225.567 18.1392ZM211.906 15.545L217.149 19.3143L218.32 18.9467L216.772 14.0171L218.431 13.4959L221.885 24.4936L220.226 25.0147L218.767 20.3697L218.224 20.5401L215.527 26.4904L213.502 27.1262L216.354 20.8207L209.882 16.1808L211.906 15.545ZM201.205 25.4055C200.791 24.2465 200.647 23.1743 200.773 22.1888C200.901 21.207 201.253 20.3597 201.832 19.6471C202.408 18.9393 203.164 18.4182 204.1 18.0836C205.04 17.7479 205.959 17.6707 206.856 17.8521C207.752 18.0383 208.56 18.4727 209.282 19.1552C210.004 19.8376 210.572 20.7566 210.984 21.9121C211.398 23.0712 211.542 24.1416 211.414 25.1235C211.288 26.109 210.937 26.9556 210.361 27.6634C209.783 28.376 209.024 28.9002 208.084 29.2359C207.148 29.5704 206.232 29.6446 205.336 29.4584C204.439 29.2769 203.629 28.845 202.907 28.1625C202.186 27.4836 201.619 26.5646 201.205 25.4055ZM202.827 24.8261C203.143 25.7096 203.551 26.4023 204.053 26.9043C204.553 27.4111 205.106 27.7316 205.712 27.8659C206.315 28.0049 206.928 27.9633 207.55 27.7412C208.175 27.5178 208.678 27.1611 209.056 26.6711C209.437 26.1847 209.661 25.5865 209.73 24.8764C209.797 24.1712 209.673 23.3768 209.357 22.4934C209.042 21.61 208.634 20.9149 208.134 20.4081C207.632 19.9061 207.079 19.5855 206.476 19.4465C205.873 19.311 205.26 19.355 204.634 19.5784C204.012 19.8006 203.511 20.1548 203.131 20.6413C202.749 21.1325 202.524 21.7307 202.457 22.436C202.388 23.146 202.511 23.9427 202.827 24.8261ZM197.038 20.8288L201.323 31.53L199.709 32.1765L197.847 27.5261L192.512 29.6623L194.374 34.3128L192.754 34.9614L188.469 24.2601L190.089 23.6115L191.957 28.2776L197.292 26.1414L195.424 21.4753L197.038 20.8288ZM180.376 36.3643L181.978 35.6442C182.193 35.9587 182.443 36.2084 182.728 36.3931C183.012 36.5778 183.317 36.7062 183.642 36.7783C183.966 36.8505 184.3 36.865 184.642 36.822C184.982 36.7805 185.319 36.6844 185.654 36.5336C186.26 36.2613 186.734 35.8651 187.076 35.3451C187.415 34.8266 187.591 34.2107 187.603 33.4974C187.612 32.7857 187.426 32.0054 187.045 31.1567C186.66 30.3011 186.198 29.6405 185.66 29.175C185.118 28.711 184.54 28.4361 183.925 28.3504C183.311 28.2646 182.704 28.3564 182.105 28.6257C181.773 28.7749 181.478 28.961 181.221 29.1838C180.961 29.4116 180.75 29.6691 180.587 29.9564C180.424 30.2436 180.316 30.5532 180.264 30.8853C180.21 31.2223 180.225 31.5732 180.311 31.9378L178.707 32.6528C178.56 32.0975 178.513 31.5472 178.564 31.0018C178.613 30.4613 178.758 29.9475 179 29.4603C179.24 28.978 179.566 28.5413 179.978 28.1502C180.391 27.759 180.886 27.4334 181.465 27.1734C182.375 26.7641 183.283 26.615 184.189 26.7262C185.096 26.8407 185.936 27.2096 186.71 27.8326C187.481 28.4571 188.117 29.329 188.621 30.4481C189.125 31.5706 189.353 32.6264 189.304 33.6153C189.257 34.6076 188.974 35.4794 188.456 36.2307C187.939 36.9854 187.228 37.5666 186.321 37.9744C185.763 38.2252 185.207 38.3786 184.652 38.4347C184.095 38.4958 183.554 38.4593 183.029 38.3251C182.505 38.1944 182.017 37.9653 181.566 37.6376C181.115 37.3135 180.719 36.889 180.376 36.3643ZM180.062 38.9974L180.722 40.3412L172.714 44.2741L172.054 42.9303L175.283 41.3447L170.861 32.3419L172.417 31.5776L176.839 40.5805L180.062 38.9974ZM165.696 34.9353L171.156 45.0871L167.538 47.0335C166.748 47.4584 166.017 47.6666 165.343 47.6582C164.67 47.6498 164.07 47.4654 163.544 47.1051C163.019 46.748 162.59 46.2589 162.256 45.6376C161.92 45.013 161.748 44.381 161.741 43.7416C161.732 43.1073 161.91 42.5043 162.276 41.9326C162.64 41.366 163.215 40.8712 164.002 40.4481L166.49 39.1096L167.189 40.4083L164.839 41.6722C164.34 41.9406 163.982 42.2443 163.764 42.5832C163.547 42.9254 163.447 43.286 163.463 43.6649C163.48 44.0439 163.591 44.425 163.797 44.8083C164.003 45.1917 164.259 45.4929 164.565 45.7121C164.87 45.9313 165.225 46.0408 165.63 46.0404C166.031 46.0419 166.486 45.9057 166.995 45.632L168.918 44.5974L164.164 35.7593L165.696 34.9353ZM155.845 40.1316L156.612 41.4568L156.013 41.8035C155.763 41.9482 155.581 42.1097 155.467 42.2881C155.351 42.4684 155.282 42.6601 155.26 42.8631C155.238 43.0713 155.24 43.2821 155.269 43.4956L155.333 43.933L163.173 49.3915L161.575 50.316L155.622 46.0615L156.63 53.1771L155.052 54.0904L153.729 43.8467C153.683 43.4308 153.675 43.0262 153.703 42.6327C153.728 42.2412 153.847 41.8666 154.061 41.5089C154.276 41.1545 154.644 40.8269 155.163 40.5262L155.845 40.1316ZM153.843 54.8411L152.387 55.7602L147.869 48.601L147.779 48.6581L147.336 58.9471L145.975 59.8062L139.823 50.0575L141.294 49.1294L145.806 56.279L145.896 56.222L146.335 45.9485L147.692 45.0924L153.843 54.8411ZM137.537 51.5553L144.019 61.0876L140.621 63.398C139.88 63.9023 139.174 64.1851 138.503 64.2464C137.832 64.3077 137.216 64.1864 136.656 63.8824C136.097 63.5816 135.62 63.1395 135.223 62.5561C134.824 61.9697 134.588 61.3588 134.515 60.7236C134.44 60.0936 134.555 59.4753 134.86 58.8689C135.163 58.2677 135.684 57.716 136.423 57.2138L138.759 55.625L139.589 56.8444L137.382 58.3446C136.914 58.6632 136.589 59.0024 136.407 59.3621C136.227 59.7249 136.165 60.0939 136.22 60.4691C136.276 60.8443 136.426 61.2119 136.67 61.5718C136.915 61.9317 137.201 62.2049 137.527 62.3913C137.854 62.5778 138.218 62.6499 138.621 62.6077C139.02 62.5676 139.458 62.3851 139.936 62.0601L141.742 60.8321L136.099 52.5333L137.537 51.5553ZM124.37 68.0118C123.638 67.0219 123.191 66.037 123.027 65.0571C122.865 64.0803 122.958 63.1673 123.306 62.318C123.652 61.4739 124.226 60.7565 125.026 60.1657C125.828 59.5726 126.686 59.2332 127.597 59.1476C128.508 59.0671 129.408 59.2493 130.296 59.694C131.185 60.1388 131.993 60.8546 132.722 61.8416C133.454 62.8315 133.9 63.8149 134.062 64.7917C134.226 65.7716 134.135 66.6835 133.788 67.5275C133.44 68.3768 132.865 69.098 132.062 69.691C131.262 70.2819 130.407 70.6175 129.496 70.6979C128.584 70.7836 127.684 70.6041 126.796 70.1594C125.91 69.7176 125.101 69.0018 124.37 68.0118ZM125.755 66.9885C126.312 67.743 126.904 68.288 127.53 68.6236C128.155 68.9643 128.776 69.1114 129.395 69.0649C130.013 69.0236 130.588 68.8068 131.119 68.4144C131.653 68.0197 132.031 67.5331 132.252 66.9546C132.475 66.3791 132.517 65.7415 132.378 65.0418C132.239 64.3473 131.89 63.6228 131.333 62.8683C130.775 62.1137 130.184 61.5661 129.559 61.2253C128.933 60.8898 128.312 60.7427 127.694 60.784C127.078 60.8283 126.503 61.0477 125.969 61.4424C125.437 61.8348 125.06 62.3187 124.837 62.8942C124.613 63.475 124.571 64.1126 124.71 64.8071C124.849 65.5068 125.198 66.2339 125.755 66.9885ZM119.071 64.8182L126.235 73.8496L122.927 76.4728C122.286 76.9812 121.672 77.2962 121.083 77.418C120.497 77.5427 119.958 77.5085 119.465 77.3154C118.974 77.1252 118.551 76.8067 118.197 76.3598C117.898 75.9835 117.715 75.6112 117.648 75.2429C117.584 74.8775 117.606 74.5248 117.714 74.1848C117.822 73.85 117.987 73.5378 118.207 73.248L118.137 73.1598C117.826 73.383 117.456 73.518 117.029 73.5648C116.601 73.6169 116.163 73.5544 115.716 73.3773C115.269 73.2002 114.86 72.878 114.49 72.4105C114.124 71.949 113.904 71.4481 113.83 70.9081C113.755 70.3733 113.858 69.8203 114.137 69.2489C114.419 68.6805 114.91 68.1188 115.61 67.5638L119.071 64.8182ZM118.636 67.0676L116.669 68.6275C116.016 69.1451 115.649 69.6423 115.567 70.119C115.486 70.5957 115.595 71.0236 115.896 71.4029C116.122 71.6881 116.402 71.8926 116.735 72.0165C117.068 72.1404 117.424 72.1668 117.803 72.0957C118.18 72.0269 118.55 71.848 118.915 71.5589L120.93 69.9604L118.636 67.0676ZM121.773 71.0232L119.947 72.4712C119.642 72.7138 119.413 72.9906 119.263 73.3017C119.109 73.6152 119.044 73.9349 119.068 74.2608C119.091 74.592 119.218 74.9031 119.449 75.1942C119.745 75.5675 120.124 75.7769 120.586 75.8222C121.049 75.8675 121.55 75.6756 122.091 75.2466L123.952 73.7706L121.773 71.0232ZM110.066 72.0784L111.466 70.8755L115.831 82.3226L114.306 83.632L103.648 77.5907L105.049 76.3878L113.668 81.4202L113.736 81.3615L110.066 72.0784ZM112.772 75.7044L108.229 79.6066L107.276 78.4965L111.819 74.5943L112.772 75.7044ZM102.265 78.8417L110.077 87.3185L108.798 88.4971L105.403 84.8133L101.177 88.7077L104.572 92.3915L103.289 93.5739L95.4773 85.097L96.7604 83.9146L100.167 87.6108L104.393 83.7165L100.986 80.0203L102.265 78.8417ZM101.63 95.1659L100.411 96.383L94.4287 90.3935L94.353 90.4691L96.1856 100.603L95.0466 101.741L86.9006 93.5848L88.1311 92.3557L94.1054 98.3373L94.1811 98.2618L92.3485 88.1435L93.4835 87.0099L101.63 95.1659ZM85.0007 95.548L93.4195 103.422L88.4829 108.7L87.3894 107.678L91.138 103.67L88.5729 101.27L85.0819 105.003L83.9925 103.984L87.4836 100.252L84.9061 97.841L81.1113 101.898L80.0179 100.876L85.0007 95.548ZM71.1623 121.301L70.0436 120.366L80.2065 108.203L81.3252 109.138L71.1623 121.301ZM71.9139 128.595L70.889 129.979L64.0854 124.942L64.0218 125.028L67.3356 134.779L66.3777 136.073L57.1132 129.214L58.1481 127.816L64.9427 132.846L65.0063 132.76L61.6948 123.025L62.6493 121.736L71.9139 128.595ZM55.5092 131.477L65.0497 137.946L64.0736 139.386L59.9275 136.574L56.7022 141.331L60.8482 144.142L59.8689 145.586L50.3284 139.117L51.3077 137.672L55.4677 140.493L58.693 135.737L54.533 132.916L55.5092 131.477ZM57.6283 146.261L58.8957 147.058L54.1462 154.61L52.8789 153.813L54.7936 150.768L46.3031 145.429L47.226 143.961L55.7166 149.301L57.6283 146.261ZM43.2722 150.338L53.2404 156.127L49.6109 162.377L48.3162 161.625L51.0723 156.88L48.0351 155.116L45.4684 159.535L44.1786 158.786L46.7453 154.367L43.6935 152.594L40.9035 157.398L39.6088 156.646L43.2722 150.338ZM45.1351 170.575L43.8188 169.861L46.4151 165.071L37.5971 160.292L38.4258 158.763L48.5602 164.256L45.1351 170.575ZM34.0219 166.97L44.3113 172.167L42.459 175.834C42.0547 176.635 41.574 177.224 41.0171 177.603C40.4601 177.982 39.8627 178.174 39.225 178.18C38.5906 178.187 37.9586 178.032 37.3289 177.714C36.6959 177.394 36.1933 176.974 35.8212 176.454C35.4507 175.939 35.2517 175.343 35.2243 174.665C35.1985 173.992 35.3869 173.257 35.7895 172.459L37.0633 169.937L38.3796 170.602L37.1768 172.984C36.9214 173.489 36.8013 173.944 36.8164 174.346C36.8349 174.751 36.9594 175.104 37.1897 175.405C37.4201 175.706 37.7295 175.955 38.1181 176.151C38.5066 176.348 38.8888 176.448 39.2647 176.453C39.6406 176.458 39.9943 176.344 40.3258 176.112C40.6556 175.884 40.9508 175.512 41.2113 174.996L42.1959 173.047L33.2378 168.522L34.0219 166.97ZM29.5465 176.017L30.3194 174.34L39.0512 182.933L38.21 184.758L26.0049 183.699L26.7777 182.023L36.7091 183.012L36.7468 182.931L29.5465 176.017ZM33.5164 178.188L31.0092 183.626L29.6802 183.014L32.1874 177.575L33.5164 178.188ZM22.7411 195.448L18.8683 193.665L19.5367 192.066L22.0503 193.116L22.3628 192.368L23.7805 192.961L22.7411 195.448ZM25.2664 185.42L35.9024 189.864L35.2601 191.401L26.0158 187.538L23.8718 192.67L33.116 196.532L32.4715 198.075L21.8354 193.63L25.2664 185.42ZM31.3645 200.85L30.7689 202.466L22.8259 199.539L22.7889 199.639L28.7037 208.07L28.147 209.58L17.3309 205.594L17.9324 203.962L25.8649 206.886L25.9018 206.785L19.9937 198.369L20.5485 196.864L31.3645 200.85ZM13.8749 215.944L14.4202 214.286L23.9532 217.423L24.6358 215.348C24.814 214.806 24.8769 214.339 24.8243 213.947C24.7753 213.555 24.6251 213.231 24.3738 212.975C24.1224 212.718 23.79 212.522 23.3765 212.386C22.9666 212.251 22.5897 212.214 22.2458 212.275C21.9019 212.335 21.5982 212.508 21.3347 212.793C21.0712 213.077 20.8509 213.489 20.6739 214.027L19.7503 216.834L18.3281 216.366L19.3027 213.404C19.5806 212.559 19.953 211.901 20.4199 211.431C20.8856 210.964 21.4178 210.673 22.0166 210.558C22.6178 210.448 23.2534 210.503 23.9236 210.723C24.5972 210.945 25.145 211.279 25.5668 211.726C25.9921 212.174 26.2589 212.726 26.3671 213.382C26.4741 214.041 26.3886 214.793 26.1107 215.638L24.8248 219.546L13.8749 215.944ZM20.5936 212.164L19.992 213.992L15.926 209.709L16.5434 207.833L20.5936 212.164ZM16.8542 233.962L17.3154 232.268C17.6952 232.301 18.0468 232.266 18.3703 232.164C18.6937 232.061 18.9864 231.908 19.2482 231.703C19.5101 231.498 19.7333 231.25 19.9177 230.958C20.1012 230.669 20.2412 230.348 20.3378 229.993C20.5122 229.352 20.5073 228.734 20.323 228.14C20.1377 227.549 19.7736 227.022 19.2306 226.559C18.6867 226.1 17.9658 225.748 17.0678 225.504C16.1627 225.257 15.3593 225.194 14.6577 225.315C13.9551 225.438 13.3756 225.71 12.919 226.13C12.4624 226.551 12.1479 227.078 11.9755 227.711C11.8799 228.062 11.8363 228.408 11.8447 228.749C11.8558 229.094 11.9205 229.421 12.0388 229.729C12.1571 230.038 12.3279 230.317 12.5512 230.569C12.7771 230.825 13.0581 231.035 13.3942 231.201L12.9276 232.894C12.4055 232.654 11.95 232.342 11.5611 231.956C11.1749 231.575 10.8704 231.136 10.6477 230.64C10.4276 230.148 10.2974 229.619 10.2573 229.052C10.2172 228.485 10.2804 227.895 10.4469 227.284C10.709 226.32 11.1706 225.524 11.8318 224.895C12.4966 224.267 13.3153 223.853 14.288 223.651C15.2598 223.452 16.3376 223.514 17.5216 223.836C18.7092 224.16 19.6693 224.654 20.4019 225.32C21.1381 225.987 21.6319 226.759 21.8831 227.637C22.138 228.515 22.1349 229.434 21.8738 230.393C21.7132 230.983 21.4783 231.511 21.1692 231.975C20.8627 232.444 20.4909 232.838 20.0537 233.159C19.6201 233.48 19.1333 233.711 18.5933 233.852C18.057 233.994 17.4773 234.031 16.8542 233.962ZM20.0286 236.746L19.6419 238.424L11.3926 236.524L11.3686 236.628L18.3013 244.244L17.9399 245.812L6.70684 243.225L7.09729 241.53L15.3356 243.428L15.3596 243.323L8.4354 235.721L8.79552 234.158L20.0286 236.746ZM12.0097 256.782L12.3351 255.057C12.7164 255.06 13.0641 254.997 13.3784 254.87C13.6928 254.742 13.9723 254.565 14.2171 254.34C14.4619 254.115 14.6647 253.85 14.8254 253.544C14.9855 253.242 15.0996 252.911 15.1677 252.549C15.2908 251.897 15.2369 251.281 15.006 250.703C14.7745 250.129 14.3698 249.632 13.7919 249.214C13.2133 248.8 12.4667 248.506 11.5523 248.334C10.6304 248.16 9.82455 248.161 9.1347 248.336C8.44415 248.515 7.88796 248.832 7.46613 249.287C7.0443 249.742 6.77255 250.292 6.65087 250.938C6.58343 251.295 6.5674 251.644 6.60278 251.982C6.64116 252.326 6.73153 252.646 6.87391 252.944C7.01629 253.242 7.20872 253.508 7.45121 253.741C7.69669 253.978 7.9935 254.165 8.34166 254.304L8.01073 256.028C7.47132 255.831 6.99249 255.556 6.57425 255.202C6.15901 254.852 5.8207 254.439 5.55933 253.962C5.30096 253.49 5.1293 252.972 5.04435 252.41C4.95941 251.848 4.97569 251.256 5.09319 250.632C5.27814 249.652 5.67523 248.822 6.28446 248.142C6.89737 247.463 7.68066 246.985 8.63432 246.707C9.58728 246.432 10.6667 246.408 11.8724 246.636C13.0819 246.864 14.0782 247.281 14.8613 247.886C15.6481 248.493 16.2015 249.224 16.5215 250.078C16.8451 250.933 16.9148 251.85 16.7306 252.827C16.6173 253.428 16.4249 253.972 16.1536 254.459C15.8852 254.951 15.5458 255.374 15.1354 255.728C14.7287 256.083 14.2617 256.352 13.7346 256.535C13.2112 256.719 12.6362 256.801 12.0097 256.782ZM13.992 258.539L15.4722 258.764L14.1322 267.584L12.652 267.359L13.1922 263.803L3.27594 262.297L3.53635 260.583L13.4526 262.089L13.992 258.539ZM2.45473 267.986L13.9 269.358L13.0395 276.534L11.553 276.356L12.2064 270.907L8.71915 270.489L8.11064 275.563L6.62969 275.385L7.23819 270.311L3.7342 269.891L3.07275 275.407L1.5862 275.228L2.45473 267.986ZM12.8393 278.606L12.6758 280.71L3.45787 283.675L3.44741 283.809L12.0969 288.162L11.9334 290.267L0.44078 289.374L0.568949 287.724L8.8854 288.37L8.89369 288.263L0.857379 284.229L0.96375 282.86L9.5323 280.116L9.54058 280.009L1.21851 279.363L1.34668 277.713L12.8393 278.606ZM6.37959 311.126L4.92197 311.104L5.16518 295.256L6.62281 295.278L6.37959 311.126ZM0.28535 323.645L5.28674 319.561L5.23567 318.335L0.0731393 318.55L0.00076278 316.812L11.5181 316.332L11.5904 318.07L6.72595 318.273L6.7496 318.841L11.7954 322.991L11.8837 325.111L6.53494 320.72L0.373654 325.765L0.28535 323.645ZM6.98385 336.544C5.75666 336.638 4.6844 336.494 3.76705 336.113C2.85344 335.731 2.12913 335.167 1.5941 334.422C1.0631 333.68 0.759645 332.813 0.683737 331.821C0.607542 330.826 0.775221 329.919 1.18677 329.101C1.60235 328.287 2.23444 327.621 3.08304 327.105C3.93164 326.588 4.96767 326.283 6.19111 326.189C7.4183 326.095 8.48869 326.239 9.4023 326.621C10.3196 327.002 11.0438 327.564 11.5748 328.306C12.1098 329.052 12.4155 329.922 12.4917 330.917C12.5676 331.909 12.3977 332.812 11.9821 333.626C11.5706 334.444 10.9405 335.112 10.0919 335.628C9.24706 336.145 8.21103 336.45 6.98385 336.544ZM6.85237 334.826C7.78773 334.755 8.56369 334.543 9.18027 334.191C9.80088 333.842 10.2558 333.393 10.5449 332.844C10.8381 332.299 10.9594 331.697 10.909 331.038C10.8583 330.376 10.6466 329.798 10.2738 329.303C9.90472 328.808 9.38682 328.434 8.7201 328.18C8.0574 327.93 7.25837 327.841 6.32302 327.912C5.38766 327.984 4.60968 328.194 3.98907 328.542C3.37249 328.895 2.91762 329.343 2.62445 329.889C2.33502 330.434 2.21566 331.038 2.26636 331.7C2.31677 332.359 2.52651 332.935 2.89557 333.43C3.26866 333.928 3.78655 334.303 4.44925 334.553C5.11598 334.807 5.91702 334.898 6.85237 334.826ZM12.9268 338.005L13.1811 340.1L4.72768 344.822L4.74396 344.956L14.0814 347.52L14.3356 349.616L2.8923 351.004L2.69298 349.361L10.9738 348.357L10.9609 348.25L2.28736 345.878L2.12194 344.515L9.98205 340.137L9.96916 340.03L1.6828 341.036L1.48347 339.393L12.9268 338.005ZM16.1204 360.768L4.74577 362.638L4.46454 360.927L14.3729 359.298L13.4927 353.944L3.58436 355.573L3.30314 353.862L14.6777 351.993L16.1204 360.768ZM5.09096 364.617L6.56884 364.315L6.64751 364.643C6.75024 365.09 6.97496 365.411 7.32168 365.609C7.66915 365.809 8.1821 365.902 8.86054 365.886C9.53973 365.873 10.4294 365.776 11.5295 365.593L16.8739 364.701L18.3339 371.842L7.04027 374.151L6.69641 372.47L16.5453 370.456L15.7572 366.601L11.4088 367.306C10.1895 367.506 9.14821 367.592 8.28488 367.566C7.42523 367.539 6.73812 367.335 6.22357 366.953C5.70976 366.576 5.3653 365.959 5.19017 365.102L5.09096 364.617ZM7.63001 376.81L18.8407 374.127L20.5229 381.155L19.0668 381.504L17.7894 376.167L14.3737 376.984L15.5633 381.955L14.1127 382.302L12.9231 377.331L9.49091 378.153L10.784 383.556L9.32793 383.904L7.63001 376.81ZM11.7805 392.877L15.722 387.762L15.3934 386.58L10.4151 387.963L9.94936 386.288L21.0557 383.201L21.5214 384.877L16.8305 386.181L16.9827 386.728L22.8401 389.622L23.4083 391.667L17.2011 388.607L12.3487 394.921L11.7805 392.877ZM23.0077 402.898L22.4821 401.223C22.8199 401.046 23.0974 400.827 23.3145 400.567C23.5316 400.306 23.6951 400.019 23.8051 399.705C23.9152 399.391 23.9691 399.061 23.967 398.716C23.9659 398.374 23.9104 398.028 23.8003 397.677C23.6016 397.043 23.2642 396.526 22.7884 396.125C22.3136 395.727 21.7229 395.479 21.0161 395.383C20.3104 395.289 19.5136 395.382 18.6257 395.66C17.7306 395.941 17.02 396.321 16.494 396.801C15.9692 397.284 15.6278 397.826 15.47 398.426C15.3121 399.026 15.3314 399.639 15.528 400.266C15.6369 400.613 15.7868 400.928 15.9775 401.21C16.173 401.495 16.4037 401.735 16.6697 401.931C16.9356 402.127 17.2303 402.27 17.5539 402.362C17.8821 402.455 18.2323 402.481 18.6046 402.439L19.1248 404.116C18.556 404.196 18.0039 404.179 17.4683 404.064C16.9375 403.951 16.4445 403.746 15.9893 403.448C15.5388 403.153 15.1438 402.777 14.8042 402.321C14.4646 401.866 14.1999 401.335 14.0101 400.73C13.7114 399.778 13.6708 398.858 13.8883 397.972C14.1095 397.085 14.5751 396.294 15.2853 395.599C15.9967 394.908 16.9377 394.379 18.1085 394.012C19.2829 393.643 20.3582 393.542 21.3343 393.708C22.314 393.872 23.1463 394.256 23.831 394.86C24.5193 395.462 25.0122 396.237 25.3098 397.186C25.4928 397.77 25.5794 398.34 25.5695 398.898C25.5642 399.458 25.4639 399.991 25.2686 400.496C25.0768 401.001 24.7916 401.458 24.4128 401.868C24.0376 402.277 23.5692 402.62 23.0077 402.898ZM16.3357 407.424L27.1802 403.515L27.7699 405.151L23.0572 406.85L25.0056 412.256L29.7183 410.558L30.3098 412.199L19.4653 416.108L18.8737 414.466L23.6023 412.762L21.6539 407.356L16.9253 409.06L16.3357 407.424ZM27.2873 417.228L28.4594 420.105C28.7822 420.897 28.9282 421.624 28.8976 422.285C28.8669 422.945 28.6764 423.517 28.3262 424C27.9774 424.487 27.4843 424.858 26.847 425.113C26.2124 425.376 25.5918 425.459 24.9849 425.361C24.3795 425.268 23.8263 424.999 23.3252 424.554C22.8242 424.11 22.4123 423.492 22.0895 422.7L20.4609 418.702L31.1364 414.353L31.7946 415.969L22.4744 419.765L23.4448 422.148C23.6331 422.61 23.882 422.962 24.1915 423.205C24.5025 423.451 24.8354 423.597 25.1904 423.643C25.5468 423.692 25.89 423.649 26.2202 423.515C26.6997 423.32 27.0365 422.968 27.2305 422.459C27.4279 421.949 27.3858 421.349 27.1041 420.657L25.932 417.78L27.2873 417.228ZM35.345 424.684L24.6695 429.033L24.0112 427.417L34.6867 423.068L35.345 424.684ZM25.7564 431.56L36.2562 426.803L39.2388 433.386L37.8751 434.004L35.6103 429.005L32.4111 430.455L34.5203 435.11L33.1616 435.725L31.0525 431.07L27.8379 432.527L30.1306 437.587L28.7669 438.205L25.7564 431.56ZM41.9479 439L42.7348 440.532L35.2047 444.4L35.2536 444.495L45.4634 445.844L46.1988 447.276L35.9451 452.543L35.1505 450.996L42.6705 447.133L42.6217 447.038L32.4271 445.694L31.6942 444.267L41.9479 439ZM48.7484 459.478L47.8829 457.95C48.1761 457.707 48.4015 457.435 48.559 457.134C48.7165 456.833 48.8161 456.518 48.8578 456.188C48.8996 455.859 48.8831 455.525 48.8086 455.188C48.7358 454.854 48.6088 454.527 48.4276 454.207C48.1002 453.629 47.6618 453.194 47.1123 452.901C46.5647 452.612 45.9351 452.494 45.2238 452.548C44.5142 452.605 43.7546 452.863 42.9449 453.321C42.1287 453.784 41.5137 454.304 41.1001 454.884C40.6884 455.466 40.4683 456.067 40.4399 456.687C40.4115 457.307 40.5591 457.903 40.8828 458.474C41.0621 458.791 41.2747 459.067 41.5205 459.303C41.7714 459.541 42.0474 459.727 42.3485 459.863C42.6496 459.998 42.9679 460.077 43.3034 460.098C43.644 460.121 43.9918 460.072 44.3469 459.953L45.2076 461.484C44.6683 461.682 44.1248 461.78 43.577 461.78C43.0343 461.781 42.5092 461.684 42.0017 461.489C41.4993 461.295 41.0342 461.01 40.6065 460.636C40.1788 460.262 39.8087 459.798 39.4961 459.247C39.0042 458.378 38.7716 457.488 38.7983 456.576C38.8282 455.662 39.1175 454.791 39.6661 453.962C40.2166 453.137 41.0256 452.423 42.0933 451.818C43.1642 451.211 44.1942 450.886 45.1834 450.844C46.1759 450.799 47.0701 451 47.8662 451.446C48.6655 451.89 49.3102 452.545 49.8003 453.41C50.1018 453.942 50.3062 454.482 50.4135 455.029C50.5259 455.578 50.5397 456.12 50.4548 456.655C50.3732 457.189 50.1903 457.696 49.906 458.176C49.6249 458.654 49.239 459.088 48.7484 459.478ZM57.6913 466.912L47.874 472.953L46.9655 471.477L55.5172 466.214L52.6735 461.593L44.1217 466.856L43.2132 465.379L53.0305 459.338L57.6913 466.912ZM55.8289 472.555L57.5692 475.128C58.0484 475.837 58.3412 476.518 58.4474 477.171C58.5537 477.824 58.4853 478.423 58.2422 478.967C58.0012 479.515 57.5952 479.98 57.0243 480.362C56.4575 480.749 55.8673 480.958 55.2534 480.988C54.6417 481.022 54.0449 480.872 53.463 480.541C52.8811 480.21 52.3506 479.69 51.8714 478.981L49.4532 475.405L59.0024 468.948L59.9798 470.393L51.6429 476.031L53.0837 478.161C53.3632 478.575 53.6795 478.868 54.0324 479.042C54.3874 479.219 54.7433 479.293 55.1001 479.264C55.459 479.239 55.7861 479.127 56.0814 478.927C56.5103 478.637 56.7673 478.223 56.8522 477.686C56.9403 477.146 56.7752 476.567 56.3569 475.948L54.6166 473.374L55.8289 472.555ZM65.2512 478.189L55.702 484.646L54.7246 483.201L64.2738 476.744L65.2512 478.189ZM65.036 480.501L66.2424 479.614L71.5252 486.803L70.3187 487.69L68.189 484.792L60.1065 490.731L59.0799 489.334L67.1624 483.395L65.036 480.501ZM63.3416 495.008L62.2015 493.556L73.8296 489.699L75.0706 491.28L68.5662 501.661L67.426 500.209L72.8328 491.82L72.7772 491.749L63.3416 495.008ZM67.0832 492.463L70.7817 497.174L69.6307 498.077L65.9322 493.367L67.0832 492.463ZM69.7685 503.108L78.5594 495.652L79.6844 496.978L75.8641 500.219L79.5814 504.601L83.4017 501.361L84.5303 502.692L75.7395 510.148L74.6108 508.817L78.4439 505.566L74.7266 501.184L70.8935 504.435L69.7685 503.108ZM86.0624 504.432L87.2242 505.703L80.9749 511.413L81.047 511.492L91.2526 510.112L92.3385 511.3L83.8287 519.076L82.6555 517.792L88.8966 512.089L88.8244 512.01L78.6348 513.392L77.5527 512.207L86.0624 504.432ZM91.4938 526.886L90.2652 525.647L97.3913 518.581L95.8536 517.03C95.452 516.625 95.0644 516.357 94.6908 516.225C94.3199 516.091 93.9631 516.078 93.6203 516.185C93.2776 516.292 92.9517 516.499 92.6426 516.806C92.3362 517.109 92.1319 517.428 92.0297 517.762C91.9274 518.096 91.9432 518.445 92.077 518.809C92.2108 519.173 92.4772 519.556 92.8761 519.959L94.9568 522.057L93.8937 523.111L91.6981 520.897C91.0719 520.266 90.6553 519.635 90.4484 519.005C90.244 518.378 90.2267 517.772 90.3963 517.186C90.5712 516.601 90.9092 516.059 91.4101 515.563C91.9137 515.063 92.4603 514.727 93.0501 514.555C93.6425 514.379 94.2554 514.393 94.8887 514.594C95.5246 514.799 96.1557 515.216 96.7819 515.848L99.679 518.769L91.4938 526.886ZM91.1799 519.183L92.5353 520.55L86.8727 522.226L85.4816 520.823L91.1799 519.183ZM111.752 536.724L110.776 537.807L99.0004 527.198L99.9761 526.115L111.752 536.724ZM124.194 545.163L122.822 544.067C123.004 543.731 123.112 543.395 123.146 543.057C123.18 542.72 123.156 542.39 123.072 542.068C122.988 541.747 122.848 541.443 122.653 541.158C122.462 540.875 122.222 540.619 121.935 540.389C121.416 539.975 120.847 539.734 120.228 539.667C119.612 539.602 118.984 539.727 118.344 540.042C117.706 540.358 117.097 540.88 116.516 541.607C115.931 542.34 115.554 543.052 115.385 543.744C115.22 544.438 115.239 545.078 115.444 545.664C115.648 546.25 116.007 546.748 116.52 547.158C116.804 547.385 117.104 547.562 117.42 547.69C117.741 547.817 118.067 547.887 118.397 547.901C118.727 547.915 119.051 547.869 119.371 547.764C119.695 547.658 120 547.484 120.286 547.241L121.654 548.342C121.227 548.726 120.759 549.02 120.251 549.224C119.747 549.427 119.224 549.532 118.68 549.539C118.142 549.546 117.604 549.455 117.068 549.267C116.531 549.079 116.016 548.786 115.52 548.391C114.74 547.768 114.193 547.028 113.878 546.171C113.566 545.312 113.511 544.395 113.712 543.422C113.915 542.452 114.4 541.487 115.166 540.529C115.935 539.567 116.77 538.882 117.672 538.475C118.577 538.064 119.481 537.917 120.386 538.035C121.294 538.15 122.136 538.518 122.912 539.139C123.39 539.52 123.781 539.945 124.084 540.413C124.393 540.881 124.607 541.379 124.728 541.907C124.85 542.433 124.869 542.971 124.784 543.523C124.701 544.072 124.504 544.618 124.194 545.163ZM126.683 544.243L127.578 543.043L134.728 548.379L133.833 549.579L130.95 547.428L124.951 555.466L123.562 554.429L129.561 546.391L126.683 544.243ZM129.299 558.615L127.784 557.56L137.775 550.47L139.424 551.619L136.242 563.449L134.727 562.394L137.443 552.79L137.369 552.739L129.299 558.615ZM132.133 555.087L137.048 558.509L136.211 559.71L131.297 556.288L132.133 555.087ZM137.806 564.477L144.045 554.784L147.5 557.008C148.254 557.494 148.791 558.033 149.109 558.626C149.428 559.22 149.557 559.834 149.497 560.469C149.438 561.1 149.218 561.713 148.836 562.306C148.452 562.902 147.982 563.359 147.426 563.675C146.876 563.989 146.262 564.125 145.584 564.082C144.912 564.038 144.201 563.774 143.45 563.291L141.074 561.761L141.872 560.521L144.116 561.965C144.592 562.272 145.031 562.439 145.433 562.465C145.838 562.489 146.202 562.402 146.525 562.204C146.849 562.007 147.129 561.725 147.364 561.359C147.6 560.993 147.739 560.623 147.783 560.25C147.827 559.876 147.751 559.513 147.555 559.159C147.362 558.807 147.023 558.475 146.537 558.162L144.7 556.98L139.269 565.419L137.806 564.477ZM151.18 561.134L151.951 559.85L159.599 564.442L158.828 565.726L155.745 563.875L150.582 572.474L149.096 571.582L154.259 562.982L151.18 561.134ZM171.414 575.107L169.864 574.282C169.981 573.919 170.025 573.569 169.997 573.23C169.968 572.892 169.883 572.573 169.741 572.272C169.6 571.971 169.407 571.699 169.163 571.454C168.922 571.211 168.64 571.004 168.315 570.831C167.729 570.519 167.125 570.387 166.505 570.435C165.887 570.485 165.293 570.723 164.721 571.15C164.153 571.579 163.651 572.204 163.213 573.025C162.773 573.854 162.533 574.623 162.495 575.334C162.46 576.046 162.597 576.672 162.906 577.21C163.214 577.748 163.658 578.172 164.238 578.48C164.559 578.651 164.887 578.77 165.221 578.838C165.56 578.903 165.893 578.913 166.22 578.865C166.547 578.818 166.858 578.714 167.152 578.552C167.452 578.388 167.719 578.161 167.955 577.87L169.503 578.7C169.154 579.156 168.748 579.531 168.286 579.824C167.828 580.117 167.333 580.316 166.8 580.424C166.272 580.529 165.727 580.539 165.165 580.453C164.603 580.366 164.042 580.174 163.483 579.876C162.601 579.407 161.927 578.781 161.461 577.997C160.995 577.209 160.772 576.319 160.791 575.326C160.812 574.334 161.111 573.297 161.688 572.214C162.266 571.127 162.961 570.3 163.773 569.734C164.586 569.163 165.449 568.853 166.36 568.802C167.273 568.748 168.168 568.955 169.046 569.422C169.586 569.709 170.048 570.055 170.432 570.459C170.821 570.862 171.124 571.312 171.34 571.809C171.557 572.303 171.675 572.829 171.692 573.387C171.712 573.941 171.619 574.515 171.414 575.107ZM185.175 583.881C184.657 584.997 184.007 585.863 183.226 586.476C182.447 587.087 181.601 587.443 180.689 587.546C179.782 587.646 178.878 587.487 177.975 587.069C177.07 586.649 176.361 586.059 175.849 585.3C175.341 584.54 175.069 583.663 175.033 582.67C174.998 581.677 175.238 580.624 175.754 579.511C176.272 578.395 176.921 577.531 177.7 576.921C178.481 576.307 179.325 575.95 180.232 575.849C181.144 575.747 182.053 575.906 182.958 576.326C183.86 576.744 184.565 577.334 185.073 578.094C185.585 578.853 185.859 579.729 185.895 580.722C185.933 581.711 185.693 582.764 185.175 583.881ZM183.612 583.156C184.007 582.305 184.201 581.525 184.196 580.815C184.195 580.103 184.026 579.487 183.688 578.966C183.356 578.444 182.89 578.043 182.291 577.766C181.688 577.486 181.08 577.388 180.466 577.472C179.854 577.552 179.274 577.821 178.727 578.278C178.185 578.734 177.716 579.387 177.322 580.238C176.927 581.089 176.73 581.871 176.731 582.583C176.736 583.293 176.906 583.909 177.238 584.431C177.572 584.95 178.041 585.349 178.643 585.629C179.242 585.907 179.848 586.006 180.46 585.926C181.077 585.844 181.657 585.575 182.199 585.119C182.747 584.661 183.218 584.007 183.612 583.156ZM183.06 592.301L184.702 588.369L185.403 588.662C185.726 588.561 186.069 588.369 186.431 588.085C186.794 587.801 187.179 587.375 187.588 586.805C187.997 586.236 188.435 585.469 188.902 584.505L191.028 580.117L197.588 582.857L193.713 592.133L194.918 592.636L193.283 596.552L191.745 595.91L192.813 593.355L185.671 590.372L184.597 592.943L183.06 592.301ZM187.294 589.452L192.176 591.491L195.473 583.596L191.905 582.106L190.439 585.147C190.081 585.88 189.724 586.524 189.37 587.08C189.02 587.637 188.669 588.112 188.317 588.506C187.97 588.898 187.629 589.213 187.294 589.452ZM196.355 594.77L200.342 583.954L201.974 584.556L200.241 589.256L205.633 591.243L207.366 586.543L209.003 587.147L205.016 597.962L203.379 597.359L205.117 592.643L199.725 590.655L197.987 595.372L196.355 594.77ZM218.923 596.482C218.542 597.652 218.001 598.589 217.299 599.292C216.598 599.991 215.801 600.446 214.907 600.656C214.019 600.865 213.102 600.815 212.156 600.507C211.207 600.198 210.433 599.698 209.833 599.006C209.239 598.311 208.864 597.473 208.71 596.491C208.556 595.51 208.668 594.436 209.048 593.269C209.429 592.099 209.97 591.164 210.671 590.465C211.373 589.762 212.168 589.306 213.057 589.098C213.95 588.888 214.871 588.937 215.82 589.246C216.766 589.553 217.536 590.055 218.131 590.749C218.73 591.441 219.107 592.278 219.261 593.26C219.417 594.238 219.304 595.312 218.923 596.482ZM217.285 595.949C217.576 595.057 217.676 594.259 217.585 593.555C217.499 592.848 217.258 592.257 216.86 591.78C216.468 591.301 215.957 590.959 215.329 590.755C214.698 590.55 214.082 590.525 213.483 590.681C212.885 590.834 212.341 591.17 211.853 591.69C211.369 592.207 210.982 592.912 210.691 593.804C210.401 594.696 210.299 595.495 210.385 596.202C210.475 596.906 210.717 597.498 211.109 597.977C211.503 598.452 212.016 598.792 212.647 598.998C213.275 599.202 213.889 599.228 214.487 599.075C215.09 598.92 215.633 598.584 216.117 598.067C216.606 597.547 216.995 596.841 217.285 595.949ZM222.565 591.558L224.222 592.026L221.922 600.173L222.025 600.202L229.969 593.649L231.518 594.086L228.386 605.18L226.712 604.707L229.01 596.571L228.907 596.542L220.976 603.087L219.432 602.652L222.565 591.558ZM228.901 590.306L230.234 590.682C230.061 591.293 229.705 591.728 229.163 591.988C228.626 592.246 227.991 592.272 227.258 592.065C226.529 591.859 226.003 591.505 225.68 591.005C225.359 590.501 225.284 589.944 225.456 589.333L226.783 589.708C226.707 589.979 226.719 590.241 226.818 590.496C226.919 590.746 227.163 590.926 227.549 591.035C227.928 591.143 228.228 591.116 228.449 590.956C228.673 590.797 228.824 590.581 228.901 590.306ZM241.866 608.413L239.238 602.515L238.042 602.242L236.894 607.28L235.198 606.893L237.759 595.654L239.455 596.041L238.373 600.788L238.928 600.914L244.257 597.135L246.326 597.606L240.685 601.614L243.935 608.884L241.866 608.413ZM245.737 609.239L247.854 597.908L249.564 598.227L248.644 603.152L254.293 604.207L255.213 599.283L256.928 599.603L254.811 610.934L253.096 610.614L254.019 605.673L248.37 604.618L247.447 609.559L245.737 609.239ZM268.27 607.16C268.089 608.378 267.711 609.391 267.135 610.201C266.56 611.007 265.85 611.588 265.004 611.944C264.163 612.297 263.25 612.4 262.266 612.254C261.279 612.107 260.432 611.742 259.726 611.159C259.024 610.573 258.516 609.809 258.201 608.867C257.885 607.924 257.818 606.847 257.999 605.633C258.18 604.415 258.558 603.404 259.133 602.598C259.708 601.788 260.417 601.207 261.258 600.854C262.104 600.498 263.021 600.393 264.008 600.54C264.992 600.686 265.834 601.053 266.536 601.639C267.243 602.222 267.753 602.984 268.068 603.926C268.384 604.865 268.451 605.943 268.27 607.16ZM266.567 606.907C266.705 605.979 266.671 605.175 266.464 604.496C266.262 603.813 265.926 603.27 265.455 602.866C264.988 602.459 264.428 602.207 263.775 602.11C263.118 602.012 262.507 602.09 261.942 602.344C261.377 602.594 260.897 603.016 260.502 603.609C260.11 604.2 259.846 604.959 259.708 605.887C259.57 606.815 259.602 607.62 259.804 608.303C260.01 608.982 260.347 609.525 260.813 609.932C261.281 610.336 261.843 610.586 262.5 610.684C263.153 610.781 263.762 610.705 264.326 610.455C264.895 610.202 265.375 609.78 265.766 609.189C266.162 608.596 266.429 607.835 266.567 606.907ZM279.985 602.634L278.781 614.098L277.057 613.917L278.106 603.93L272.709 603.364L271.661 613.35L269.937 613.169L271.14 601.705L279.985 602.634ZM288.441 614.839L284.947 609.408L283.723 609.321L283.354 614.475L281.619 614.351L282.442 602.853L284.177 602.977L283.829 607.833L284.396 607.874L289.089 603.328L291.206 603.48L286.239 608.299L290.557 614.99L288.441 614.839ZM292.759 603.545L294.481 603.599L294.214 612.06L294.321 612.064L300.45 603.788L302.059 603.838L301.695 615.36L299.957 615.305L300.223 606.855L300.117 606.852L293.999 615.117L292.396 615.066L292.759 603.545ZM323.166 608.557L323.204 610.014L307.359 610.424L307.321 608.966L323.166 608.557ZM329.096 614.66L328.167 603.171L332.375 602.83C333.19 602.764 333.876 602.845 334.433 603.071C334.989 603.293 335.419 603.621 335.721 604.056C336.023 604.487 336.197 604.987 336.243 605.556C336.282 606.034 336.227 606.445 336.078 606.789C335.928 607.128 335.714 607.409 335.434 607.631C335.158 607.849 334.848 608.018 334.504 608.136L334.513 608.248C334.896 608.236 335.278 608.329 335.659 608.528C336.044 608.723 336.373 609.018 336.646 609.414C336.919 609.81 337.079 610.305 337.127 610.9C337.175 611.487 337.079 612.025 336.84 612.515C336.604 613.001 336.211 613.404 335.661 613.723C335.111 614.039 334.391 614.232 333.5 614.304L329.096 614.66ZM330.71 613.033L333.212 612.831C334.042 612.764 334.624 612.555 334.957 612.204C335.29 611.854 335.437 611.437 335.398 610.955C335.369 610.592 335.25 610.266 335.042 609.978C334.835 609.69 334.553 609.47 334.198 609.318C333.847 609.166 333.44 609.108 332.976 609.146L330.412 609.353L330.71 613.033ZM330.303 608.001L332.625 607.813C333.014 607.782 333.358 607.679 333.656 607.504C333.959 607.329 334.19 607.099 334.352 606.815C334.517 606.527 334.584 606.198 334.554 605.828C334.516 605.353 334.317 604.968 333.958 604.673C333.599 604.378 333.076 604.259 332.388 604.314L330.02 604.506L330.303 608.001ZM340.038 606.771L343.122 606.389C343.971 606.284 344.71 606.333 345.34 606.535C345.97 606.737 346.472 607.069 346.847 607.534C347.226 607.997 347.456 608.57 347.536 609.252C347.624 609.933 347.542 610.554 347.29 611.114C347.042 611.674 346.638 612.138 346.078 612.506C345.519 612.874 344.815 613.11 343.966 613.215L339.681 613.745L338.267 602.305L339.998 602.091L341.233 612.079L343.786 611.763C344.281 611.702 344.686 611.553 345.001 611.318C345.32 611.082 345.548 610.798 345.685 610.468C345.825 610.136 345.874 609.794 345.83 609.44C345.766 608.926 345.514 608.509 345.074 608.19C344.633 607.866 344.042 607.75 343.301 607.842L340.218 608.223L340.038 606.771ZM349.338 600.936L350.753 612.376L349.021 612.59L347.606 601.15L349.338 600.936ZM353.473 611.987L351.626 600.609L355.792 599.932C356.6 599.801 357.29 599.826 357.863 600.006C358.435 600.183 358.89 600.476 359.226 600.886C359.562 601.291 359.775 601.775 359.867 602.338C359.944 602.812 359.922 603.226 359.801 603.581C359.679 603.931 359.488 604.228 359.227 604.472C358.969 604.712 358.674 604.904 358.34 605.05L358.358 605.161C358.739 605.118 359.127 605.18 359.523 605.348C359.922 605.511 360.274 605.779 360.577 606.152C360.881 606.524 361.081 607.005 361.177 607.594C361.271 608.176 361.219 608.72 361.02 609.228C360.824 609.731 360.465 610.164 359.942 610.526C359.419 610.885 358.716 611.136 357.835 611.279L353.473 611.987ZM354.951 610.236L357.429 609.834C358.251 609.7 358.814 609.445 359.118 609.069C359.422 608.693 359.535 608.265 359.457 607.788C359.399 607.428 359.255 607.114 359.025 606.843C358.794 606.572 358.496 606.376 358.13 606.253C357.768 606.129 357.357 606.104 356.898 606.179L354.359 606.591L354.951 610.236ZM354.142 605.252L356.442 604.879C356.827 604.816 357.161 604.686 357.445 604.488C357.732 604.289 357.944 604.042 358.082 603.746C358.224 603.445 358.265 603.112 358.205 602.745C358.129 602.275 357.9 601.907 357.518 601.642C357.137 601.377 356.606 601.3 355.924 601.41L353.58 601.791L354.142 605.252ZM372.589 602.593C372.834 603.799 372.824 604.881 372.559 605.839C372.293 606.793 371.823 607.581 371.15 608.204C370.479 608.823 369.656 609.231 368.682 609.429C367.704 609.628 366.783 609.574 365.921 609.266C365.061 608.955 364.322 608.41 363.705 607.632C363.087 606.853 362.656 605.863 362.412 604.661C362.167 603.454 362.177 602.374 362.443 601.421C362.708 600.463 363.176 599.675 363.847 599.056C364.52 598.433 365.346 598.022 366.325 597.824C367.299 597.626 368.216 597.683 369.076 597.994C369.939 598.301 370.679 598.844 371.296 599.622C371.913 600.397 372.344 601.387 372.589 602.593ZM370.901 602.936C370.714 602.017 370.408 601.273 369.983 600.705C369.56 600.132 369.058 599.736 368.478 599.517C367.9 599.294 367.288 599.248 366.64 599.379C365.99 599.511 365.442 599.793 364.997 600.224C364.552 600.651 364.244 601.212 364.075 601.905C363.909 602.593 363.919 603.397 364.105 604.317C364.292 605.236 364.597 605.982 365.02 606.555C365.445 607.123 365.947 607.519 366.524 607.742C367.101 607.962 367.715 608.006 368.366 607.874C369.013 607.742 369.559 607.463 370.005 607.035C370.453 606.603 370.761 606.043 370.927 605.355C371.096 604.662 371.088 603.855 370.901 602.936ZM375.888 610.625L374.875 606.486L375.613 606.305C375.813 606.032 375.974 605.674 376.097 605.231C376.22 604.787 376.277 604.215 376.268 603.514C376.258 602.813 376.156 601.936 375.96 600.883L375.064 596.09L381.969 594.399L384.36 604.163L385.628 603.853L386.638 607.975L385.02 608.371L384.361 605.681L376.844 607.522L377.506 610.228L375.888 610.625ZM377.603 605.818L382.742 604.559L380.707 596.25L376.951 597.169L377.578 600.487C377.724 601.289 377.82 602.019 377.865 602.677C377.914 603.333 377.914 603.924 377.865 604.45C377.818 604.971 377.731 605.427 377.603 605.818ZM392.164 603.586L388.812 592.557L390.476 592.051L391.933 596.844L397.431 595.172L395.974 590.379L397.643 589.872L400.996 600.901L399.327 601.408L397.865 596.599L392.366 598.271L393.828 603.08L392.164 603.586ZM404.518 599.744L402.771 600.343L402.959 588.093L404.86 587.442L412.521 597.002L410.774 597.601L404.633 589.733L404.548 589.762L404.518 599.744ZM403.347 595.374L409.013 593.432L409.487 594.817L403.822 596.758L403.347 595.374ZM425.407 585.704C425.868 586.845 426.056 587.911 425.971 588.901C425.884 589.887 425.566 590.748 425.018 591.484C424.472 592.215 423.738 592.766 422.816 593.139C421.891 593.513 420.976 593.628 420.071 593.484C419.169 593.335 418.343 592.934 417.594 592.282C416.844 591.63 416.24 590.735 415.78 589.598C415.318 588.457 415.131 587.393 415.218 586.407C415.303 585.417 415.619 584.556 416.165 583.826C416.714 583.09 417.451 582.535 418.376 582.161C419.298 581.788 420.21 581.676 421.112 581.825C422.016 581.969 422.843 582.368 423.593 583.02C424.341 583.668 424.946 584.563 425.407 585.704ZM423.81 586.35C423.459 585.48 423.022 584.805 422.499 584.324C421.979 583.838 421.413 583.541 420.803 583.432C420.194 583.318 419.583 583.384 418.971 583.632C418.355 583.881 417.868 584.258 417.51 584.763C417.15 585.265 416.951 585.872 416.911 586.584C416.873 587.292 417.03 588.08 417.382 588.95C417.733 589.819 418.169 590.497 418.69 590.983C419.212 591.464 419.777 591.761 420.386 591.875C420.994 591.986 421.605 591.917 422.221 591.668C422.833 591.42 423.319 591.046 423.679 590.544C424.041 590.037 424.24 589.43 424.278 588.723C424.318 588.011 424.162 587.22 423.81 586.35ZM429.762 590.103L425.032 579.591L428.779 577.905C429.597 577.537 430.342 577.381 431.013 577.437C431.684 577.493 432.269 577.719 432.769 578.116C433.267 578.509 433.66 579.027 433.95 579.671C434.241 580.317 434.367 580.96 434.329 581.598C434.293 582.232 434.073 582.821 433.668 583.365C433.264 583.904 432.656 584.357 431.841 584.724L429.264 585.883L428.659 584.538L431.092 583.444C431.609 583.211 431.988 582.934 432.23 582.611C432.47 582.285 432.595 581.932 432.606 581.553C432.616 581.174 432.532 580.786 432.353 580.389C432.175 579.992 431.941 579.673 431.652 579.433C431.363 579.193 431.016 579.059 430.613 579.03C430.212 579.001 429.749 579.104 429.222 579.341L427.23 580.237L431.348 589.389L429.762 590.103ZM439.154 585.83L434.096 575.472L440.554 572.318L441.211 573.663L436.315 576.054L437.699 578.887L440.015 577.755C440.784 577.38 441.497 577.186 442.155 577.173C442.816 577.16 443.4 577.311 443.905 577.628C444.414 577.943 444.819 578.409 445.121 579.026C445.422 579.643 445.545 580.258 445.489 580.87C445.436 581.48 445.205 582.05 444.796 582.58C444.39 583.108 443.802 583.56 443.034 583.936L439.154 585.83ZM440.075 583.752L442.391 582.621C442.836 582.403 443.17 582.132 443.391 581.807C443.615 581.48 443.738 581.138 443.76 580.781C443.785 580.422 443.72 580.082 443.563 579.762C443.336 579.296 442.962 578.984 442.442 578.825C441.92 578.662 441.325 578.744 440.657 579.07L438.341 580.201L440.075 583.752ZM443.209 570.969L444.725 570.151L448.746 577.6L448.84 577.55L449.98 567.314L451.397 566.55L456.872 576.694L455.342 577.52L451.326 570.08L451.232 570.131L450.096 580.351L448.685 581.113L443.209 570.969ZM453.704 566.982L452.949 565.689L460.653 561.191L461.408 562.484L458.302 564.297L463.359 572.959L461.862 573.833L456.805 565.171L453.704 566.982ZM469.099 569.695L468.279 568.403L468.863 568.032C469.107 567.877 469.282 567.708 469.388 567.525C469.498 567.34 469.559 567.146 469.571 566.942C469.585 566.733 469.574 566.523 469.537 566.31L469.455 565.876L461.396 560.745L462.955 559.755L469.079 563.761L467.778 556.693L469.317 555.716L471.061 565.896C471.124 566.31 471.149 566.714 471.137 567.108C471.128 567.5 471.025 567.88 470.826 568.246C470.625 568.609 470.272 568.951 469.765 569.273L469.099 569.695ZM488.69 548.249L489.539 549.434L476.653 558.664L475.805 557.479L488.69 548.249ZM499.597 537.901L498.232 539.006C497.944 538.757 497.638 538.579 497.316 538.473C496.994 538.367 496.666 538.321 496.334 538.334C496.002 538.347 495.676 538.418 495.355 538.547C495.038 538.674 494.736 538.853 494.45 539.084C493.934 539.502 493.577 540.006 493.379 540.596C493.183 541.184 493.171 541.824 493.341 542.517C493.514 543.208 493.893 543.915 494.478 544.638C495.069 545.367 495.683 545.888 496.323 546.201C496.965 546.511 497.594 546.629 498.21 546.555C498.827 546.481 499.39 546.238 499.9 545.825C500.183 545.595 500.421 545.34 500.613 545.059C500.806 544.773 500.944 544.47 501.029 544.15C501.113 543.831 501.138 543.504 501.104 543.17C501.07 542.83 500.965 542.495 500.789 542.164L502.158 541.064C502.441 541.563 502.628 542.083 502.718 542.623C502.809 543.158 502.799 543.692 502.69 544.225C502.581 544.753 502.377 545.258 502.078 545.741C501.779 546.225 501.383 546.666 500.89 547.065C500.114 547.693 499.274 548.069 498.37 548.193C497.464 548.314 496.557 548.171 495.65 547.767C494.746 547.359 493.907 546.679 493.135 545.725C492.361 544.769 491.871 543.806 491.666 542.837C491.459 541.866 491.51 540.951 491.819 540.092C492.126 539.231 492.665 538.487 493.438 537.861C493.914 537.476 494.412 537.186 494.935 536.99C495.457 536.789 495.99 536.686 496.532 536.682C497.072 536.675 497.602 536.772 498.122 536.973C498.64 537.172 499.132 537.481 499.597 537.901ZM499.231 535.274L498.25 534.142L504.992 528.3L505.973 529.431L503.255 531.787L509.823 539.367L508.513 540.502L501.945 532.922L499.231 535.274ZM513.828 535.797L512.472 537.05L507.692 525.771L509.167 524.406L520.039 530.053L518.683 531.306L509.886 526.593L509.82 526.654L513.828 535.797ZM510.99 532.272L515.387 528.206L516.381 529.281L511.984 533.347L510.99 532.272ZM521.382 528.742L513.247 520.575L518.34 515.502L519.396 516.563L515.536 520.408L517.76 522.641L519.587 520.822C520.193 520.218 520.805 519.804 521.424 519.58C522.045 519.353 522.646 519.308 523.227 519.444C523.811 519.578 524.345 519.888 524.829 520.375C525.314 520.861 525.629 521.403 525.773 522.001C525.921 522.595 525.886 523.209 525.67 523.843C525.457 524.474 525.047 525.092 524.441 525.695L521.382 528.742ZM521.581 526.478L523.408 524.658C523.759 524.309 523.986 523.945 524.091 523.565C524.198 523.183 524.204 522.82 524.109 522.475C524.017 522.127 523.845 521.827 523.593 521.574C523.228 521.207 522.773 521.033 522.229 521.05C521.682 521.065 521.146 521.335 520.619 521.859L518.793 523.678L521.581 526.478ZM520.443 513.35L521.619 512.092L527.801 517.875L527.874 517.797L525.699 507.731L526.799 506.556L535.217 514.431L534.028 515.701L527.855 509.925L527.782 510.003L529.956 520.054L528.86 521.225L520.443 513.35ZM536.49 513.041L535.35 512.053L535.563 511.791C535.854 511.437 535.972 511.063 535.917 510.668C535.864 510.27 535.625 509.807 535.198 509.279C534.774 508.748 534.155 508.103 533.339 507.342L529.374 503.649L534.145 498.138L542.86 505.683L541.737 506.981L534.136 500.401L531.561 503.376L534.771 506.393C535.672 507.238 536.376 508.01 536.881 508.711C537.384 509.409 537.641 510.078 537.652 510.718C537.666 511.356 537.387 512.005 536.815 512.666L536.49 513.041ZM540.021 498.317L541.967 495.895C542.503 495.228 543.068 494.748 543.66 494.454C544.253 494.16 544.845 494.049 545.438 494.12C546.032 494.189 546.596 494.44 547.129 494.873C547.666 495.301 548.04 495.803 548.25 496.381C548.462 496.956 548.495 497.57 548.35 498.224C548.205 498.877 547.864 499.537 547.328 500.204L544.624 503.569L535.639 496.347L536.732 494.987L544.576 501.292L546.188 499.287C546.5 498.898 546.688 498.51 546.749 498.121C546.814 497.73 546.78 497.368 546.647 497.035C546.517 496.7 546.314 496.421 546.036 496.197C545.632 495.873 545.161 495.749 544.622 495.826C544.081 495.901 543.576 496.23 543.108 496.812L541.161 499.233L540.021 498.317ZM551.272 495.22L542.034 488.325L543.075 486.931L547.089 489.927L550.526 485.322L546.512 482.326L547.556 480.927L556.793 487.822L555.75 489.221L551.722 486.214L548.284 490.819L552.312 493.826L551.272 495.22ZM558.951 484.777L557.906 486.299L550.752 476.353L551.89 474.697L563.74 477.804L562.695 479.326L553.074 476.671L553.023 476.745L558.951 484.777ZM555.405 481.966L558.796 477.03L560.002 477.858L556.611 482.795L555.405 481.966ZM569.15 469.355L568.212 470.826L559.751 465.429L558.576 467.27C558.27 467.751 558.093 468.188 558.047 468.581C557.998 468.973 558.063 469.324 558.243 469.635C558.423 469.945 558.697 470.218 559.064 470.452C559.427 470.684 559.783 470.813 560.132 470.839C560.48 470.866 560.817 470.773 561.143 470.563C561.468 470.352 561.783 470.008 562.088 469.531L563.677 467.039L564.94 467.844L563.263 470.473C562.784 471.223 562.261 471.768 561.692 472.109C561.125 472.446 560.538 472.596 559.929 472.559C559.319 472.518 558.717 472.307 558.122 471.928C557.524 471.546 557.076 471.087 556.778 470.549C556.477 470.01 556.355 469.409 556.412 468.747C556.472 468.082 556.741 467.374 557.219 466.625L559.432 463.156L569.15 469.355ZM561.705 471.356L562.74 469.733L565.62 474.888L564.558 476.554L561.705 471.356ZM572.758 463.353L562.758 457.619L564.802 454.055C565.248 453.277 565.759 452.713 566.336 452.365C566.912 452.016 567.519 451.855 568.156 451.883C568.79 451.91 569.412 452.098 570.024 452.449C570.64 452.802 571.119 453.248 571.463 453.787C571.806 454.32 571.973 454.927 571.965 455.605C571.955 456.279 571.728 457.003 571.284 457.778L569.878 460.229L568.599 459.495L569.926 457.181C570.208 456.689 570.352 456.242 570.358 455.839C570.361 455.434 570.255 455.075 570.041 454.762C569.827 454.449 569.531 454.184 569.154 453.967C568.776 453.751 568.4 453.63 568.025 453.606C567.65 453.581 567.29 453.675 566.947 453.889C566.606 454.1 566.291 454.456 566.004 454.958L564.917 456.852L573.623 461.844L572.758 463.353ZM577.704 454.572L576.839 456.203L568.599 447.137L569.541 445.362L581.668 447.098L580.803 448.729L570.942 447.189L570.9 447.268L577.704 454.572ZM573.861 452.184L576.667 446.893L577.96 447.579L575.154 452.869L573.861 452.184ZM582.502 445.418L572.126 440.397L575.257 433.927L576.604 434.579L574.231 439.483L577.068 440.856L578.191 438.536C578.564 437.766 579.005 437.172 579.515 436.756C580.026 436.337 580.579 436.096 581.172 436.032C581.767 435.966 582.373 436.082 582.992 436.381C583.61 436.68 584.086 437.088 584.42 437.604C584.755 438.116 584.926 438.708 584.931 439.377C584.938 440.043 584.755 440.761 584.383 441.532L582.502 445.418ZM581.942 443.215L583.065 440.894C583.281 440.448 583.375 440.029 583.348 439.637C583.323 439.241 583.209 438.896 583.005 438.602C582.803 438.304 582.542 438.077 582.221 437.922C581.755 437.696 581.268 437.682 580.76 437.878C580.249 438.073 579.832 438.504 579.508 439.173L578.386 441.494L581.942 443.215ZM585.842 424.364C586.968 424.86 587.846 425.493 588.474 426.262C589.1 427.03 589.472 427.869 589.592 428.778C589.71 429.683 589.568 430.591 589.167 431.501C588.764 432.414 588.189 433.134 587.44 433.661C586.689 434.183 585.817 434.471 584.826 434.526C583.834 434.581 582.776 434.361 581.653 433.866C580.527 433.37 579.651 432.738 579.026 431.97C578.397 431.201 578.024 430.364 577.906 429.459C577.787 428.549 577.928 427.637 578.331 426.724C578.732 425.814 579.308 425.098 580.059 424.576C580.807 424.049 581.678 423.758 582.67 423.704C583.658 423.647 584.716 423.867 585.842 424.364ZM585.147 425.94C584.289 425.561 583.505 425.382 582.795 425.401C582.083 425.415 581.471 425.596 580.957 425.944C580.441 426.286 580.049 426.76 579.783 427.364C579.515 427.972 579.429 428.582 579.524 429.194C579.616 429.804 579.896 430.379 580.364 430.917C580.83 431.451 581.492 431.907 582.35 432.285C583.209 432.663 583.994 432.845 584.705 432.831C585.415 432.812 586.028 432.631 586.544 432.288C587.057 431.944 587.447 431.468 587.715 430.86C587.981 430.256 588.068 429.649 587.977 429.038C587.883 428.423 587.603 427.848 587.137 427.315C586.669 426.776 586.006 426.318 585.147 425.94ZM582.301 421.764L580.91 421.21L584.214 412.923L585.605 413.477L584.273 416.818L593.59 420.532L592.948 422.143L583.631 418.428L582.301 421.764ZM595.506 415.528L594.876 417.264L585.456 409.432L586.141 407.543L598.392 407.576L597.762 409.312L587.783 409.157L587.752 409.242L595.506 415.528ZM591.369 413.698L593.411 408.068L594.787 408.567L592.744 414.197L591.369 413.698ZM598.22 385.847L599.618 386.26L595.12 401.459L593.722 401.045L598.22 385.847ZM594.64 379.483L595.108 377.425L604.66 375.837L604.69 375.705L596.768 370.137L597.237 368.079L608.477 370.639L608.109 372.253L599.976 370.4L599.952 370.504L607.314 375.668L607.009 377.007L598.132 378.471L598.108 378.576L606.246 380.43L605.879 382.043L594.64 379.483ZM605.139 357.029C606.35 357.248 607.352 357.657 608.143 358.257C608.931 358.857 609.49 359.585 609.82 360.441C610.146 361.293 610.222 362.209 610.045 363.187C609.868 364.17 609.477 365.005 608.873 365.692C608.265 366.376 607.486 366.861 606.534 367.147C605.583 367.433 604.503 367.467 603.296 367.249C602.085 367.031 601.085 366.621 600.297 366.022C599.506 365.422 598.946 364.695 598.62 363.843C598.29 362.987 598.213 362.068 598.391 361.085C598.567 360.107 598.959 359.276 599.567 358.592C600.171 357.904 600.949 357.417 601.901 357.131C602.848 356.845 603.928 356.811 605.139 357.029ZM604.833 358.724C603.91 358.558 603.106 358.567 602.42 358.752C601.732 358.933 601.179 359.253 600.76 359.711C600.339 360.165 600.07 360.717 599.953 361.367C599.835 362.021 599.894 362.634 600.13 363.206C600.362 363.778 600.769 364.271 601.35 364.685C601.929 365.094 602.679 365.382 603.602 365.548C604.526 365.715 605.332 365.708 606.02 365.527C606.705 365.342 607.259 365.022 607.68 364.568C608.097 364.113 608.365 363.559 608.483 362.906C608.6 362.256 608.543 361.645 608.31 361.073C608.075 360.497 607.668 360.004 607.09 359.594C606.509 359.181 605.756 358.891 604.833 358.724ZM611.183 355.692L599.768 354.085L600.011 352.363L604.971 353.061L605.773 347.371L600.812 346.672L601.056 344.944L612.47 346.552L612.227 348.28L607.25 347.579L606.448 353.269L611.425 353.97L611.183 355.692ZM601.332 342.655L601.506 340.942L609.928 341.794L609.939 341.687L602.107 335L602.269 333.398L613.738 334.559L613.563 336.289L605.151 335.438L605.141 335.545L612.963 342.22L612.801 343.816L601.332 342.655ZM603.92 331.737L602.426 331.639L603.014 322.737L604.508 322.836L604.271 326.424L614.279 327.085L614.165 328.815L604.157 328.154L603.92 331.737ZM609.09 311.633C610.321 311.667 611.372 311.921 612.245 312.396C613.114 312.87 613.776 313.506 614.231 314.303C614.682 315.097 614.893 315.99 614.866 316.984C614.838 317.982 614.577 318.866 614.083 319.637C613.585 320.404 612.887 321.001 611.99 321.426C611.092 321.852 610.03 322.048 608.803 322.014C607.573 321.98 606.523 321.726 605.654 321.251C604.782 320.777 604.12 320.143 603.669 319.349C603.214 318.552 603 317.655 603.028 316.657C603.055 315.663 603.318 314.783 603.816 314.016C604.31 313.245 605.006 312.646 605.904 312.221C606.798 311.795 607.86 311.599 609.09 311.633ZM609.043 313.355C608.105 313.329 607.311 313.459 606.661 313.745C606.008 314.027 605.509 314.426 605.164 314.942C604.816 315.455 604.633 316.041 604.615 316.701C604.596 317.365 604.747 317.962 605.066 318.493C605.382 319.023 605.858 319.449 606.495 319.771C607.128 320.089 607.913 320.261 608.851 320.287C609.789 320.312 610.584 320.184 611.238 319.902C611.888 319.616 612.387 319.217 612.735 318.705C613.079 318.192 613.261 317.604 613.279 316.94C613.297 316.28 613.149 315.685 612.833 315.154C612.514 314.62 612.038 314.194 611.404 313.876C610.768 313.554 609.98 313.381 609.043 313.355ZM614.871 309.43L603.344 309.501L603.319 305.392C603.313 304.496 603.472 303.752 603.795 303.161C604.117 302.569 604.561 302.126 605.126 301.83C605.687 301.534 606.32 301.383 607.026 301.379C607.735 301.375 608.374 301.519 608.942 301.812C609.507 302.101 609.956 302.541 610.29 303.132C610.62 303.719 610.788 304.459 610.793 305.352L610.811 308.178L609.336 308.187L609.32 305.519C609.316 304.952 609.216 304.493 609.018 304.142C608.817 303.79 608.546 303.533 608.203 303.37C607.861 303.207 607.472 303.127 607.037 303.129C606.601 303.132 606.215 303.217 605.879 303.384C605.542 303.551 605.279 303.814 605.09 304.171C604.901 304.525 604.808 304.991 604.811 305.569L604.825 307.753L614.86 307.691L614.871 309.43ZM603.24 299.577L603.166 297.857L611.624 297.493L611.619 297.386L602.909 291.89L602.84 290.282L614.357 289.786L614.432 291.524L605.985 291.887L605.99 291.994L614.688 297.479L614.757 299.082L603.24 299.577ZM614.186 287.035L602.697 287.972L602.555 286.239L607.548 285.831L607.081 280.104L602.088 280.511L601.946 278.772L613.435 277.835L613.577 279.574L608.568 279.982L609.035 285.71L614.044 285.302L614.186 287.035ZM600.879 269.317L602.366 269.143L603 274.554L612.962 273.385L613.165 275.113L601.716 276.456L600.879 269.317ZM598.573 254.605L609.946 252.721L610.229 254.431L600.323 256.072L601.209 261.425L611.116 259.784L611.399 261.495L600.027 263.378L598.573 254.605ZM609.225 248.932L609.597 250.74L597.47 249.005L597.064 247.037L607.516 240.646L607.889 242.454L599.308 247.551L599.326 247.639L609.225 248.932ZM604.741 249.54L603.532 243.675L604.965 243.379L606.174 249.245L604.741 249.54ZM607.1 238.845L595.891 241.534L594.932 237.539C594.723 236.667 594.709 235.906 594.889 235.257C595.069 234.608 595.4 234.075 595.883 233.658C596.362 233.242 596.944 232.952 597.63 232.788C598.32 232.622 598.975 232.617 599.595 232.774C600.21 232.927 600.748 233.253 601.207 233.753C601.662 234.249 601.994 234.932 602.202 235.8L602.861 238.548L601.427 238.892L600.805 236.298C600.673 235.747 600.471 235.322 600.199 235.025C599.923 234.728 599.6 234.54 599.229 234.459C598.859 234.378 598.462 234.388 598.039 234.49C597.615 234.591 597.259 234.762 596.969 235.001C596.679 235.24 596.483 235.556 596.38 235.947C596.276 236.335 596.291 236.809 596.426 237.371L596.936 239.495L606.694 237.154L607.1 238.845ZM604.668 229.055L605.161 230.834L592.944 229.912L592.408 227.975L602.411 220.902L602.903 222.681L594.681 228.339L594.705 228.426L604.668 229.055ZM600.235 229.961L598.637 224.189L600.047 223.799L601.645 229.57L600.235 229.961ZM590.876 222.618L590.228 220.609L597.632 214.369L597.591 214.24L587.936 213.495L587.289 211.486L598.261 207.951L598.769 209.526L590.829 212.084L590.862 212.186L599.828 212.869L600.249 214.176L593.362 219.966L593.395 220.068L601.34 217.509L601.848 219.084L590.876 222.618ZM597.364 205.345L586.541 209.313L584.054 202.528L585.459 202.012L587.348 207.165L590.646 205.956L588.887 201.157L590.287 200.644L592.046 205.443L595.36 204.228L593.448 199.012L594.853 198.497L597.364 205.345ZM584.885 200.507L583.498 201.069L580.148 192.801L581.535 192.239L582.886 195.572L592.182 191.806L592.833 193.413L583.537 197.179L584.885 200.507ZM589.975 186.483L579.445 191.172L577.774 187.418C577.409 186.599 577.256 185.854 577.314 185.183C577.373 184.512 577.601 183.927 578 183.429C578.395 182.933 578.915 182.542 579.559 182.255C580.207 181.966 580.85 181.842 581.488 181.882C582.122 181.921 582.71 182.144 583.253 182.551C583.79 182.956 584.241 183.567 584.604 184.383L585.754 186.964L584.406 187.564L583.321 185.127C583.091 184.609 582.815 184.229 582.493 183.986C582.168 183.745 581.816 183.618 581.436 183.606C581.057 183.594 580.669 183.677 580.271 183.854C579.874 184.031 579.554 184.263 579.313 184.552C579.072 184.84 578.936 185.186 578.906 185.589C578.875 185.989 578.977 186.453 579.212 186.981L580.1 188.976L589.268 184.894L589.975 186.483ZM576.139 170.594C577.244 170.052 578.293 169.789 579.287 169.804C580.277 169.82 581.158 170.075 581.931 170.57C582.699 171.063 583.302 171.756 583.739 172.649C584.179 173.545 584.358 174.449 584.279 175.362C584.194 176.272 583.853 177.124 583.256 177.918C582.659 178.712 581.81 179.379 580.708 179.919C579.603 180.461 578.555 180.723 577.565 180.707C576.572 180.692 575.691 180.438 574.923 179.946C574.15 179.451 573.544 178.756 573.105 177.859C572.667 176.966 572.491 176.065 572.575 175.154C572.655 174.242 572.993 173.389 573.59 172.595C574.184 171.802 575.033 171.135 576.139 170.594ZM576.897 172.14C576.054 172.553 575.412 173.037 574.969 173.592C574.522 174.146 574.265 174.731 574.2 175.348C574.129 175.964 574.24 176.568 574.53 177.161C574.822 177.757 575.233 178.216 575.763 178.538C576.289 178.861 576.908 179.017 577.622 179.006C578.33 178.993 579.105 178.78 579.948 178.368C580.79 177.955 581.435 177.472 581.882 176.918C582.325 176.363 582.581 175.778 582.652 175.162C582.719 174.549 582.606 173.944 582.314 173.347C582.023 172.754 581.615 172.296 581.089 171.973C580.558 171.648 579.938 171.492 579.23 171.505C578.517 171.516 577.739 171.728 576.897 172.14ZM580.22 165.941L570.066 171.397L568.068 167.678C567.681 166.958 567.479 166.297 567.463 165.696C567.444 165.098 567.573 164.573 567.85 164.121C568.124 163.672 568.512 163.312 569.014 163.042C569.437 162.815 569.836 162.701 570.21 162.7C570.582 162.7 570.925 162.784 571.24 162.951C571.551 163.117 571.829 163.334 572.075 163.602L572.174 163.548C572.01 163.202 571.942 162.815 571.972 162.386C571.996 161.955 572.135 161.536 572.388 161.127C572.641 160.719 573.031 160.373 573.556 160.091C574.075 159.812 574.607 159.684 575.151 159.706C575.691 159.727 576.217 159.926 576.73 160.302C577.24 160.68 577.706 161.262 578.129 162.049L580.22 165.941ZM578.083 165.115L576.895 162.904C576.501 162.17 576.076 161.721 575.621 161.556C575.167 161.391 574.726 161.424 574.3 161.653C573.979 161.825 573.728 162.064 573.548 162.37C573.367 162.676 573.278 163.022 573.281 163.408C573.282 163.79 573.393 164.187 573.613 164.597L574.83 166.863L578.083 165.115ZM573.635 167.505L572.533 165.452C572.348 165.108 572.116 164.834 571.836 164.631C571.555 164.425 571.251 164.304 570.926 164.27C570.596 164.234 570.268 164.305 569.94 164.48C569.521 164.706 569.248 165.042 569.121 165.489C568.995 165.936 569.096 166.464 569.422 167.072L570.546 169.164L573.635 167.505Z" fill="#DFAC67"/>
</svg>
