<svg width="787" height="787" viewBox="0 0 787 787" fill="none" xmlns="http://www.w3.org/2000/svg">
<path d="M645.175 226.333L646.405 225.55L654.914 238.923L653.684 239.705L645.175 226.333ZM632.727 217.537L642.063 210.775L643.08 212.179L634.947 218.069L638.13 222.464L646.263 216.574L647.28 217.978L637.944 224.739L632.727 217.537ZM629.618 204.152C630.587 203.393 631.558 202.917 632.533 202.725C633.505 202.535 634.42 202.602 635.279 202.925C636.133 203.247 636.866 203.8 637.48 204.582C638.096 205.368 638.46 206.215 638.572 207.124C638.678 208.032 638.522 208.937 638.103 209.837C637.684 210.738 636.992 211.567 636.026 212.324C635.058 213.084 634.087 213.558 633.116 213.748C632.141 213.94 631.227 213.875 630.373 213.552C629.514 213.229 628.777 212.675 628.161 211.89C627.547 211.107 627.187 210.262 627.081 209.354C626.969 208.445 627.122 207.54 627.541 206.639C627.957 205.741 628.65 204.912 629.618 204.152ZM630.681 205.508C629.943 206.086 629.415 206.693 629.098 207.328C628.775 207.963 628.646 208.589 628.71 209.206C628.769 209.822 629.002 210.391 629.41 210.91C629.82 211.433 630.317 211.796 630.902 212.001C631.483 212.207 632.122 212.231 632.817 212.072C633.507 211.913 634.222 211.543 634.96 210.964C635.698 210.386 636.229 209.779 636.551 209.144C636.869 208.509 636.998 207.883 636.939 207.267C636.877 206.653 636.641 206.084 636.231 205.562C635.823 205.042 635.329 204.679 634.747 204.472C634.16 204.265 633.522 204.241 632.832 204.401C632.136 204.56 631.419 204.929 630.681 205.508ZM635.313 197.597L632.071 200.361L631.578 199.783C631.244 199.727 630.851 199.743 630.4 199.833C629.948 199.922 629.411 200.128 628.79 200.451C628.168 200.774 627.43 201.26 626.577 201.908L622.697 204.861L618.085 199.451L625.735 192.929L624.888 191.936L628.117 189.182L629.198 190.45L627.091 192.247L632.112 198.136L634.232 196.329L635.313 197.597ZM630.248 198.224L626.816 194.197L620.305 199.748L622.814 202.69L625.497 200.64C626.148 200.149 626.757 199.736 627.324 199.4C627.889 199.062 628.417 198.796 628.909 198.604C629.395 198.411 629.842 198.284 630.248 198.224ZM611.255 191.869L612.362 190.86L616.032 194.886L623.444 188.129L624.616 189.414L616.098 197.18L611.255 191.869ZM607.501 179.769C608.381 178.909 609.296 178.331 610.244 178.035C611.189 177.741 612.106 177.708 612.995 177.936C613.879 178.164 614.668 178.634 615.363 179.345C616.06 180.06 616.513 180.862 616.723 181.754C616.927 182.645 616.87 183.561 616.551 184.502C616.232 185.443 615.634 186.342 614.756 187.199C613.875 188.059 612.962 188.636 612.016 188.93C611.068 189.226 610.152 189.261 609.269 189.032C608.38 188.804 607.587 188.333 606.89 187.619C606.195 186.907 605.745 186.106 605.541 185.215C605.331 184.323 605.386 183.407 605.705 182.466C606.022 181.528 606.62 180.629 607.501 179.769ZM608.704 181.001C608.033 181.657 607.574 182.317 607.327 182.983C607.075 183.649 607.014 184.285 607.145 184.891C607.27 185.498 607.564 186.037 608.025 186.51C608.489 186.985 609.023 187.293 609.626 187.433C610.227 187.575 610.864 187.53 611.538 187.296C612.207 187.063 612.877 186.618 613.548 185.963C614.22 185.307 614.681 184.647 614.933 183.981C615.18 183.316 615.241 182.679 615.115 182.073C614.987 181.469 614.691 180.929 614.227 180.454C613.766 179.982 613.235 179.674 612.634 179.532C612.028 179.389 611.391 179.435 610.722 179.668C610.048 179.902 609.375 180.346 608.704 181.001ZM603.766 182.083L602.732 183.166L596.279 177.005L597.313 175.922L599.915 178.406L606.841 171.151L608.095 172.348L601.169 179.603L603.766 182.083ZM591.675 165.201C592.492 164.281 593.363 163.639 594.288 163.276C595.21 162.916 596.123 162.818 597.026 162.983C597.923 163.148 598.744 163.56 599.487 164.221C600.233 164.884 600.743 165.652 601.015 166.526C601.282 167.401 601.29 168.319 601.039 169.28C600.787 170.241 600.254 171.18 599.439 172.098C598.622 173.018 597.752 173.658 596.83 174.018C595.905 174.381 594.994 174.481 594.096 174.316C593.193 174.151 592.369 173.737 591.623 173.075C590.879 172.414 590.374 171.647 590.107 170.772C589.835 169.898 589.824 168.98 590.076 168.019C590.325 167.061 590.858 166.121 591.675 165.201ZM592.963 166.345C592.34 167.046 591.929 167.738 591.73 168.419C591.526 169.101 591.51 169.74 591.684 170.336C591.852 170.932 592.183 171.449 592.677 171.888C593.173 172.329 593.727 172.598 594.339 172.695C594.948 172.794 595.581 172.704 596.237 172.423C596.887 172.142 597.524 171.652 598.147 170.95C598.77 170.249 599.184 169.557 599.388 168.875C599.587 168.194 599.602 167.555 599.434 166.959C599.263 166.366 598.93 165.848 598.433 165.407C597.939 164.969 597.388 164.7 596.779 164.6C596.164 164.501 595.532 164.592 594.881 164.872C594.225 165.153 593.586 165.644 592.963 166.345ZM593.685 159.347L586.361 168.249L583.101 165.567C582.47 165.047 582.033 164.512 581.79 163.963C581.545 163.416 581.465 162.882 581.55 162.359C581.633 161.839 581.855 161.359 582.218 160.918C582.523 160.547 582.848 160.29 583.194 160.147C583.538 160.007 583.887 159.955 584.243 159.99C584.593 160.025 584.932 160.12 585.262 160.274L585.334 160.187C585.05 159.93 584.84 159.597 584.705 159.189C584.564 158.781 584.533 158.341 584.612 157.866C584.691 157.392 584.92 156.925 585.299 156.464C585.674 156.009 586.117 155.689 586.63 155.503C587.137 155.318 587.699 155.302 588.316 155.455C588.931 155.611 589.584 155.973 590.273 156.54L593.685 159.347ZM591.395 159.394L589.456 157.799C588.813 157.27 588.25 157.015 587.766 157.036C587.283 157.056 586.888 157.253 586.58 157.627C586.349 157.908 586.208 158.224 586.157 158.576C586.105 158.927 586.155 159.281 586.304 159.637C586.45 159.991 586.703 160.316 587.062 160.611L589.049 162.245L591.395 159.394ZM588.187 163.293L586.387 161.812C586.086 161.564 585.767 161.4 585.431 161.318C585.093 161.233 584.767 161.237 584.453 161.329C584.134 161.421 583.856 161.611 583.62 161.898C583.318 162.266 583.193 162.68 583.246 163.142C583.298 163.603 583.591 164.053 584.125 164.492L585.959 166.001L588.187 163.293ZM580.068 148.509L579.997 154.966L580.971 155.712L584.115 151.611L585.495 152.67L578.482 161.818L577.101 160.76L580.064 156.896L579.613 156.55L573.193 157.763L571.509 156.472L578.308 155.181L578.384 147.218L580.068 148.509ZM576.122 145.588L577.626 146.659L567.561 153.644L565.924 152.479L569.23 140.682L570.734 141.753L567.918 151.328L567.991 151.38L576.122 145.588ZM573.252 149.086L568.373 145.613L569.222 144.421L574.1 147.894L573.252 149.086ZM558.362 133.581L558.84 140.021L559.874 140.682L562.658 136.329L564.123 137.266L557.912 146.977L556.447 146.04L559.07 141.938L558.591 141.632L552.298 143.386L550.51 142.243L557.175 140.379L556.574 132.438L558.362 133.581ZM537.806 134.849L543.52 124.838L545.026 125.697L540.048 134.418L544.761 137.108L549.738 128.387L551.244 129.246L545.53 139.257L537.806 134.849ZM529.437 123.968C530.003 122.875 530.689 122.039 531.496 121.459C532.301 120.883 533.162 120.564 534.077 120.501C534.988 120.44 535.885 120.638 536.768 121.095C537.654 121.554 538.337 122.174 538.816 122.954C539.29 123.736 539.523 124.624 539.516 125.617C539.509 126.611 539.223 127.652 538.659 128.742C538.094 129.835 537.408 130.67 536.603 131.246C535.796 131.825 534.937 132.145 534.027 132.206C533.111 132.269 532.21 132.071 531.324 131.612C530.441 131.155 529.762 130.535 529.288 129.753C528.809 128.973 528.573 128.086 528.58 127.093C528.586 126.103 528.871 125.061 529.437 123.968ZM530.967 124.76C530.535 125.593 530.307 126.364 530.282 127.074C530.252 127.785 530.394 128.408 530.709 128.943C531.019 129.479 531.467 129.899 532.053 130.203C532.643 130.508 533.246 130.632 533.863 130.575C534.478 130.522 535.069 130.278 535.636 129.845C536.197 129.413 536.694 128.781 537.125 127.948C537.556 127.115 537.787 126.342 537.817 125.631C537.842 124.922 537.7 124.299 537.39 123.762C537.078 123.229 536.628 122.81 536.038 122.505C535.452 122.201 534.851 122.076 534.236 122.13C533.616 122.185 533.025 122.428 532.463 122.86C531.897 123.293 531.398 123.927 530.967 124.76ZM530.733 118.17L530.091 119.535L529.781 119.402C529.362 119.217 528.969 119.205 528.604 119.365C528.235 119.523 527.854 119.879 527.461 120.432C527.065 120.984 526.611 121.755 526.099 122.746L523.617 127.562L517.021 124.46L521.926 114.029L523.48 114.759L519.202 123.856L522.762 125.531L524.798 121.624C525.368 120.528 525.921 119.642 526.459 118.966C526.995 118.293 527.57 117.865 528.183 117.68C528.793 117.494 529.494 117.588 530.285 117.96L530.733 118.17ZM519.43 112.909L514.898 123.507L508.253 120.666L508.841 119.289L513.887 121.447L515.268 118.218L510.569 116.208L511.156 114.837L515.855 116.846L517.242 113.601L512.134 111.417L512.723 110.04L519.43 112.909ZM512.563 123.984C512.808 124.089 512.984 124.27 513.09 124.528C513.195 124.789 513.196 125.039 513.094 125.277C512.984 125.535 512.8 125.712 512.543 125.806C512.287 125.901 512.036 125.895 511.791 125.791C511.532 125.68 511.353 125.501 511.255 125.255C511.152 125.007 511.157 124.754 511.267 124.495C511.369 124.257 511.547 124.084 511.801 123.977C512.051 123.871 512.305 123.874 512.563 123.984ZM509.52 122.683C509.765 122.788 509.941 122.969 510.047 123.227C510.152 123.488 510.153 123.737 510.051 123.975C509.941 124.234 509.757 124.411 509.5 124.505C509.244 124.599 508.993 124.594 508.748 124.489C508.489 124.379 508.31 124.2 508.212 123.954C508.109 123.706 508.114 123.453 508.224 123.194C508.326 122.956 508.504 122.783 508.758 122.676C509.008 122.57 509.262 122.572 509.52 122.683ZM507.349 118.673L506.806 120.068L498.493 116.831L499.036 115.436L502.388 116.741L506.027 107.395L507.643 108.024L504.003 117.37L507.349 118.673ZM499.921 104.928L499.415 106.373L498.762 106.144C498.489 106.048 498.248 106.015 498.039 106.045C497.826 106.074 497.635 106.146 497.467 106.263C497.295 106.381 497.136 106.52 496.993 106.681L496.703 107.014L497.666 116.519L495.923 115.908L495.275 108.619L490.532 114.019L488.811 113.415L495.724 105.741C496.01 105.435 496.311 105.165 496.628 104.931C496.941 104.694 497.303 104.541 497.714 104.47C498.123 104.403 498.611 104.469 499.178 104.667L499.921 104.928ZM470.935 102.883L471.338 101.482L486.571 105.861L486.168 107.262L470.935 102.883ZM467.112 95.2676L464.554 106.507L460.547 105.596C459.673 105.397 458.985 105.073 458.483 104.623C457.981 104.174 457.65 103.641 457.49 103.024C457.33 102.41 457.328 101.759 457.484 101.071C457.642 100.38 457.928 99.7907 458.343 99.304C458.753 98.8201 459.284 98.483 459.935 98.2926C460.582 98.105 461.341 98.1103 462.212 98.3085L464.967 98.9356L464.64 100.373L462.038 99.7814C461.486 99.6557 461.016 99.6488 460.629 99.7608C460.24 99.8764 459.928 100.082 459.691 100.379C459.455 100.675 459.288 101.035 459.191 101.46C459.095 101.884 459.089 102.279 459.175 102.645C459.261 103.011 459.457 103.327 459.762 103.593C460.064 103.858 460.496 104.054 461.06 104.182L463.189 104.667L465.416 94.8817L467.112 95.2676ZM457.275 93.1051L459.087 93.4571L452.817 103.982L450.845 103.599L448.971 91.4919L450.783 91.8439L452.183 101.726L452.271 101.743L457.275 93.1051ZM456.11 97.4773L450.231 96.3353L450.511 94.8987L456.389 96.0407L456.11 97.4773ZM436.991 97.4882L438.726 97.7603C438.734 98.1415 438.807 98.4872 438.945 98.7974C439.082 99.1076 439.267 99.3816 439.5 99.6194C439.732 99.8571 440.004 100.052 440.314 100.203C440.621 100.354 440.956 100.457 441.319 100.514C441.975 100.617 442.589 100.544 443.16 100.296C443.727 100.047 444.21 99.627 444.611 99.0365C445.007 98.4454 445.277 97.6901 445.422 96.7708C445.567 95.844 445.541 95.0386 445.345 94.3545C445.145 93.6698 444.811 93.1236 444.343 92.716C443.875 92.3084 443.317 92.0537 442.668 91.9519C442.308 91.8955 441.96 91.8902 441.622 91.936C441.28 91.985 440.962 92.0852 440.669 92.2367C440.376 92.3881 440.116 92.5887 439.891 92.8382C439.661 93.0909 439.483 93.3933 439.356 93.7456L437.622 93.4679C437.802 92.9227 438.063 92.4356 438.403 92.0066C438.74 91.5808 439.142 91.23 439.611 90.954C440.075 90.6812 440.587 90.4937 441.146 90.3915C441.706 90.2893 442.298 90.2873 442.925 90.3856C443.911 90.5402 444.753 90.9116 445.451 91.4996C446.148 92.0913 446.65 92.8595 446.958 93.8042C447.262 94.7482 447.319 95.8263 447.129 97.0385C446.938 98.2544 446.552 99.2631 445.97 100.064C445.388 100.87 444.675 101.445 443.831 101.791C442.986 102.141 442.072 102.239 441.09 102.085C440.486 101.99 439.936 101.815 439.441 101.559C438.941 101.305 438.508 100.979 438.141 100.58C437.774 100.184 437.491 99.7259 437.292 99.2046C437.092 98.6871 436.991 98.115 436.991 97.4882ZM434.347 100.924L432.642 100.726L433.081 96.9462C433.142 96.4207 433.099 95.9945 432.952 95.6676C432.804 95.3445 432.564 95.0994 432.232 94.9324C431.897 94.765 431.479 94.6523 430.98 94.5943C430.715 94.5635 430.446 94.5417 430.171 94.5287C429.893 94.5191 429.616 94.517 429.339 94.5227C429.062 94.5321 428.794 94.5482 428.535 94.5709C428.271 94.597 428.025 94.6308 427.797 94.6723L427.968 93.2019C428.193 93.1562 428.429 93.1194 428.678 93.0917C428.923 93.0672 429.178 93.0496 429.443 93.0389C429.709 93.0319 429.984 93.0337 430.27 93.0443C430.556 93.0548 430.85 93.0776 431.152 93.1127C431.987 93.2097 432.694 93.4127 433.274 93.7218C433.85 94.0342 434.271 94.4704 434.539 95.0303C434.802 95.5898 434.885 96.2945 434.786 97.1443L434.347 100.924ZM427.425 100.12L425.715 99.9211L427.045 88.4708L428.755 88.6695L427.425 100.12ZM424.193 88.186L423.251 99.6747L416.048 99.0842L416.17 97.592L421.64 98.0404L421.927 94.5399L416.833 94.1223L416.955 92.6357L422.049 93.0534L422.337 89.5361L416.8 89.0821L416.922 87.5899L424.193 88.186ZM421.188 100.867C421.453 100.888 421.677 101.005 421.859 101.215C422.041 101.43 422.122 101.666 422.101 101.924C422.078 102.205 421.959 102.43 421.746 102.601C421.532 102.772 421.293 102.846 421.027 102.824C420.747 102.801 420.521 102.689 420.349 102.486C420.174 102.284 420.097 102.042 420.12 101.762C420.142 101.504 420.256 101.283 420.463 101.101C420.665 100.922 420.907 100.844 421.188 100.867ZM417.889 100.596C418.155 100.618 418.379 100.734 418.561 100.945C418.743 101.159 418.823 101.396 418.802 101.654C418.779 101.934 418.661 102.16 418.447 102.331C418.234 102.501 417.994 102.576 417.729 102.554C417.448 102.531 417.222 102.418 417.05 102.216C416.875 102.013 416.799 101.772 416.822 101.491C416.843 101.233 416.957 101.013 417.164 100.83C417.367 100.651 417.609 100.573 417.889 100.596ZM414.561 97.4808L414.488 98.9762L405.577 98.5412L405.65 97.0457L409.243 97.2211L409.732 87.203L411.463 87.2875L410.974 97.3057L414.561 97.4808ZM389.682 92.6704C389.679 91.4396 389.901 90.3809 390.35 89.4943C390.798 88.6114 391.413 87.9308 392.196 87.4523C392.976 86.9777 393.863 86.7392 394.857 86.7368C395.855 86.7344 396.747 86.9687 397.532 87.4396C398.314 87.9143 398.931 88.5939 399.383 89.4783C399.836 90.3628 400.063 91.4186 400.066 92.6456C400.069 93.8764 399.847 94.9332 399.398 95.8161C398.95 96.7027 398.337 97.3834 397.557 97.858C396.774 98.3364 395.883 98.5768 394.885 98.5792C393.891 98.5816 393.003 98.3454 392.221 97.8708C391.436 97.3998 390.817 96.7221 390.365 95.8376C389.912 94.9569 389.685 93.9012 389.682 92.6704ZM391.404 92.6663C391.406 93.6044 391.56 94.3939 391.866 95.0348C392.167 95.6795 392.581 96.1663 393.107 96.4953C393.63 96.828 394.221 96.9936 394.882 96.992C395.546 96.9904 396.138 96.822 396.659 96.4868C397.18 96.1553 397.591 95.6665 397.894 95.0204C398.192 94.378 398.341 93.5878 398.338 92.6497C398.336 91.7116 398.184 90.9202 397.882 90.2756C397.577 89.6346 397.163 89.1478 396.641 88.8151C396.118 88.4861 395.525 88.3224 394.861 88.324C394.2 88.3256 393.61 88.4921 393.089 88.8236C392.565 89.1588 392.153 89.6476 391.854 90.2899C391.552 90.9361 391.402 91.7282 391.404 92.6663ZM387.297 86.961L387.734 98.48L383.628 98.6356C382.732 98.6696 381.983 98.5346 381.382 98.2307C380.781 97.9268 380.323 97.4973 380.01 96.9422C379.696 96.3908 379.525 95.7626 379.499 95.0577C379.472 94.349 379.596 93.706 379.871 93.1285C380.142 92.555 380.567 92.092 381.147 91.7396C381.724 91.3911 382.458 91.1999 383.35 91.1661L386.174 91.059L386.23 92.5327L383.564 92.6337C382.998 92.6552 382.542 92.7701 382.197 92.9784C381.852 93.1905 381.603 93.4703 381.451 93.8178C381.299 94.1652 381.231 94.5565 381.248 94.9914C381.264 95.4264 381.362 95.8095 381.539 96.1407C381.717 96.4719 381.988 96.7264 382.351 96.9041C382.711 97.082 383.18 97.16 383.757 97.1381L385.939 97.0554L385.559 87.0269L387.297 86.961ZM376.969 87.4001L377.806 98.8969L370.637 99.419L370.528 97.9258L375.962 97.53L375.734 94.3863L373.162 94.5736C372.309 94.6357 371.575 94.55 370.96 94.3164C370.341 94.0831 369.856 93.7252 369.505 93.2429C369.15 92.7608 368.947 92.1774 368.897 91.4925C368.847 90.8076 368.963 90.1916 369.242 89.6445C369.519 89.0977 369.945 88.6546 370.523 88.3154C371.096 87.9764 371.81 87.7758 372.663 87.7137L376.969 87.4001ZM375.34 88.986L372.769 89.1732C372.275 89.2092 371.865 89.3369 371.539 89.5563C371.208 89.776 370.967 90.0476 370.813 90.371C370.656 90.6947 370.591 91.0343 370.617 91.3899C370.654 91.9063 370.885 92.3353 371.309 92.677C371.733 93.0223 372.315 93.168 373.056 93.114L375.627 92.9268L375.34 88.986ZM367.631 99.6777L365.919 99.861L365.018 91.4437L364.911 91.4551L359.981 100.497L358.38 100.668L357.153 89.2061L358.883 89.021L359.782 97.427L359.889 97.4156L364.809 88.3866L366.404 88.2159L367.631 99.6777ZM356.437 99.3947L356.656 100.876L347.831 102.18L347.612 100.699L351.17 100.173L349.704 90.2507L351.419 89.9973L352.885 99.9196L356.437 99.3947ZM344.05 98.1328L340.996 98.7026C340.155 98.8594 339.414 98.8564 338.773 98.6936C338.132 98.5307 337.61 98.2291 337.207 97.789C336.801 97.3495 336.536 96.7919 336.414 96.1161C336.284 95.4418 336.328 94.8171 336.546 94.2422C336.759 93.668 337.134 93.1801 337.67 92.7786C338.205 92.3771 338.894 92.098 339.735 91.9411L343.979 91.1495L346.092 102.481L344.377 102.801L342.532 92.908L340.003 93.3797C339.513 93.4712 339.117 93.6442 338.817 93.8986C338.514 94.1537 338.304 94.4505 338.188 94.789C338.068 95.1282 338.04 95.473 338.106 95.8235C338.201 96.3325 338.478 96.7332 338.937 97.0254C339.397 97.3214 339.994 97.4009 340.728 97.2639L343.782 96.6942L344.05 98.1328ZM335.126 104.527L333.012 93.1951L334.727 92.8751L336.841 104.207L335.126 104.527ZM313.54 104.573L313.182 103.16L328.549 99.2755L328.906 100.689L313.54 104.573ZM299.879 101.979L305.122 105.748L306.293 105.381L304.744 100.451L306.404 99.93L309.858 110.928L308.198 111.449L306.739 106.804L306.197 106.974L303.499 112.924L301.475 113.56L304.327 107.255L297.855 102.615L299.879 101.979ZM289.178 111.84C288.764 110.681 288.62 109.608 288.746 108.623C288.873 107.641 289.226 106.794 289.804 106.081C290.38 105.373 291.136 104.852 292.073 104.518C293.013 104.182 293.932 104.105 294.829 104.286C295.724 104.472 296.533 104.907 297.255 105.589C297.977 106.272 298.544 107.191 298.957 108.346C299.371 109.505 299.514 110.576 299.387 111.558C299.261 112.543 298.91 113.39 298.334 114.097C297.756 114.81 296.997 115.334 296.057 115.67C295.12 116.005 294.204 116.079 293.309 115.892C292.411 115.711 291.602 115.279 290.88 114.597C290.159 113.918 289.592 112.999 289.178 111.84ZM290.8 111.26C291.115 112.144 291.524 112.836 292.026 113.338C292.526 113.845 293.079 114.166 293.685 114.3C294.288 114.439 294.901 114.397 295.523 114.175C296.148 113.952 296.65 113.595 297.029 113.105C297.409 112.619 297.634 112.021 297.703 111.31C297.77 110.605 297.645 109.811 297.33 108.928C297.014 108.044 296.607 107.349 296.107 106.842C295.605 106.34 295.052 106.02 294.448 105.881C293.846 105.745 293.232 105.789 292.607 106.012C291.985 106.235 291.484 106.589 291.104 107.075C290.721 107.567 290.497 108.165 290.43 108.87C290.361 109.58 290.484 110.377 290.8 111.26ZM285.011 107.263L289.296 117.964L287.681 118.611L285.819 113.96L280.484 116.096L282.347 120.747L280.727 121.395L276.442 110.694L278.062 110.046L279.93 114.712L285.265 112.575L283.396 107.909L285.011 107.263ZM268.349 122.798L269.95 122.078C270.166 122.393 270.416 122.642 270.7 122.827C270.985 123.012 271.29 123.14 271.614 123.212C271.939 123.285 272.272 123.299 272.615 123.256C272.954 123.215 273.292 123.118 273.627 122.968C274.233 122.695 274.707 122.299 275.049 121.779C275.388 121.261 275.563 120.645 275.576 119.932C275.585 119.22 275.399 118.44 275.017 117.591C274.633 116.735 274.171 116.075 273.633 115.609C273.091 115.145 272.513 114.87 271.898 114.784C271.283 114.699 270.677 114.79 270.078 115.06C269.746 115.209 269.451 115.395 269.193 115.618C268.934 115.846 268.722 116.103 268.559 116.39C268.396 116.678 268.289 116.987 268.236 117.319C268.182 117.656 268.198 118.007 268.284 118.372L266.68 119.087C266.533 118.532 266.485 117.981 266.536 117.436C266.585 116.895 266.731 116.382 266.972 115.894C267.212 115.412 267.538 114.975 267.951 114.584C268.363 114.193 268.859 113.868 269.437 113.607C270.348 113.198 271.256 113.049 272.161 113.16C273.069 113.275 273.909 113.644 274.683 114.267C275.453 114.891 276.09 115.763 276.593 116.882C277.098 118.005 277.326 119.06 277.277 120.049C277.229 121.042 276.946 121.913 276.428 122.665C275.912 123.419 275.2 124.001 274.293 124.408C273.736 124.659 273.179 124.813 272.624 124.869C272.068 124.93 271.527 124.893 271.001 124.759C270.478 124.629 269.99 124.399 269.538 124.072C269.088 123.748 268.692 123.323 268.349 122.798ZM268.035 125.431L268.695 126.775L260.687 130.708L260.027 129.364L263.255 127.779L258.834 118.776L260.39 118.012L264.811 127.015L268.035 125.431ZM253.668 121.369L259.129 131.521L255.511 133.468C254.721 133.892 253.989 134.101 253.316 134.092C252.642 134.084 252.042 133.899 251.516 133.539C250.992 133.182 250.563 132.693 250.228 132.072C249.892 131.447 249.721 130.815 249.713 130.176C249.704 129.541 249.883 128.938 250.249 128.367C250.613 127.8 251.188 127.305 251.975 126.882L254.463 125.544L255.162 126.842L252.812 128.106C252.313 128.375 251.954 128.678 251.736 129.017C251.52 129.36 251.42 129.72 251.436 130.099C251.452 130.478 251.564 130.859 251.77 131.242C251.976 131.626 252.232 131.927 252.537 132.146C252.843 132.365 253.198 132.475 253.602 132.475C254.004 132.476 254.459 132.34 254.968 132.066L256.891 131.031L252.137 122.193L253.668 121.369ZM243.818 126.566L244.585 127.891L243.985 128.238C243.735 128.382 243.554 128.544 243.44 128.722C243.323 128.902 243.254 129.094 243.233 129.297C243.21 129.505 243.213 129.716 243.241 129.93L243.306 130.367L251.146 135.826L249.548 136.75L243.594 132.496L244.603 139.611L243.025 140.525L241.702 130.281C241.656 129.865 241.647 129.46 241.676 129.067C241.7 128.675 241.82 128.301 242.033 127.943C242.249 127.589 242.616 127.261 243.136 126.96L243.818 126.566ZM241.816 141.275L240.359 142.194L235.842 135.035L235.751 135.092L235.309 145.381L233.947 146.24L227.796 136.492L229.267 135.563L233.778 142.713L233.869 142.656L234.308 132.383L235.664 131.527L241.816 141.275ZM225.51 137.989L231.992 147.522L228.594 149.832C227.852 150.336 227.146 150.619 226.475 150.68C225.805 150.742 225.189 150.62 224.628 150.317C224.07 150.016 223.592 149.574 223.196 148.99C222.797 148.404 222.561 147.793 222.487 147.158C222.413 146.528 222.528 145.909 222.832 145.303C223.136 144.702 223.657 144.15 224.396 143.648L226.732 142.059L227.561 143.279L225.355 144.779C224.887 145.097 224.561 145.436 224.379 145.796C224.199 146.159 224.137 146.528 224.193 146.903C224.248 147.278 224.398 147.646 224.643 148.006C224.888 148.366 225.174 148.639 225.5 148.825C225.826 149.012 226.191 149.084 226.593 149.042C226.992 149.002 227.431 148.819 227.909 148.494L229.715 147.266L224.072 138.967L225.51 137.989ZM212.342 154.446C211.611 153.456 211.163 152.471 210.999 151.491C210.838 150.514 210.931 149.601 211.278 148.752C211.625 147.908 212.198 147.191 212.998 146.6C213.801 146.007 214.658 145.667 215.57 145.582C216.481 145.501 217.381 145.683 218.269 146.128C219.157 146.573 219.966 147.289 220.695 148.276C221.426 149.266 221.873 150.249 222.035 151.226C222.199 152.206 222.107 153.118 221.76 153.962C221.413 154.811 220.837 155.532 220.035 156.125C219.235 156.716 218.379 157.052 217.469 157.132C216.557 157.218 215.657 157.038 214.768 156.593C213.882 156.152 213.074 155.436 212.342 154.446ZM213.728 153.423C214.285 154.177 214.877 154.722 215.502 155.058C216.127 155.398 216.749 155.546 217.368 155.499C217.986 155.458 218.56 155.241 219.092 154.848C219.626 154.454 220.003 153.967 220.225 153.389C220.448 152.813 220.49 152.176 220.351 151.476C220.211 150.781 219.863 150.057 219.305 149.302C218.748 148.548 218.157 148 217.532 147.659C216.906 147.324 216.284 147.177 215.666 147.218C215.05 147.262 214.476 147.482 213.941 147.876C213.41 148.269 213.033 148.753 212.81 149.328C212.585 149.909 212.543 150.547 212.683 151.241C212.822 151.941 213.17 152.668 213.728 153.423ZM207.044 151.252L214.207 160.284L210.9 162.907C210.259 163.415 209.644 163.73 209.056 163.852C208.47 163.977 207.93 163.943 207.437 163.749C206.946 163.559 206.524 163.241 206.169 162.794C205.871 162.418 205.688 162.045 205.621 161.677C205.556 161.312 205.578 160.959 205.687 160.619C205.795 160.284 205.959 159.972 206.18 159.682L206.11 159.594C205.798 159.817 205.429 159.952 205.001 159.999C204.573 160.051 204.136 159.989 203.689 159.811C203.242 159.634 202.833 159.312 202.462 158.845C202.096 158.383 201.876 157.882 201.802 157.342C201.728 156.807 201.83 156.254 202.11 155.683C202.392 155.115 202.883 154.553 203.582 153.998L207.044 151.252ZM206.608 153.502L204.642 155.062C203.989 155.579 203.622 156.076 203.54 156.553C203.458 157.03 203.568 157.458 203.869 157.837C204.095 158.122 204.374 158.327 204.707 158.451C205.04 158.574 205.396 158.601 205.776 158.53C206.152 158.461 206.523 158.282 206.887 157.993L208.903 156.395L206.608 153.502ZM209.746 157.457L207.92 158.905C207.614 159.148 207.386 159.425 207.235 159.736C207.082 160.049 207.017 160.369 207.04 160.695C207.064 161.026 207.191 161.337 207.422 161.628C207.718 162.002 208.097 162.211 208.559 162.256C209.021 162.302 209.523 162.11 210.064 161.681L211.925 160.205L209.746 157.457ZM198.038 158.512L199.439 157.31L203.803 168.757L202.279 170.066L191.621 164.025L193.022 162.822L201.641 167.854L201.709 167.796L198.038 158.512ZM200.745 162.138L196.202 166.041L195.248 164.931L199.791 161.028L200.745 162.138ZM190.238 165.276L198.05 173.753L196.771 174.931L193.376 171.247L189.15 175.142L192.545 178.826L191.262 180.008L183.45 171.531L184.733 170.349L188.139 174.045L192.365 170.151L188.959 166.454L190.238 165.276ZM189.602 181.6L188.384 182.817L182.401 176.828L182.326 176.903L184.158 187.037L183.019 188.175L174.873 180.019L176.104 178.79L182.078 184.771L182.154 184.696L180.321 174.578L181.456 173.444L189.602 181.6ZM172.973 181.982L181.392 189.856L176.456 195.134L175.362 194.112L179.111 190.104L176.546 187.705L173.055 191.437L171.965 190.418L175.456 186.686L172.879 184.275L169.084 188.332L167.991 187.31L172.973 181.982ZM159.135 207.735L158.016 206.8L168.179 194.637L169.298 195.572L159.135 207.735ZM159.887 215.029L158.862 216.414L152.058 211.376L151.994 211.462L155.308 221.213L154.35 222.507L145.086 215.648L146.121 214.25L152.915 219.28L152.979 219.195L149.667 209.459L150.622 208.17L159.887 215.029ZM143.482 217.911L153.022 224.381L152.046 225.82L147.9 223.008L144.675 227.765L148.821 230.576L147.842 232.02L138.301 225.551L139.28 224.107L143.44 226.928L146.666 222.171L142.506 219.35L143.482 217.911ZM145.601 232.695L146.868 233.492L142.119 241.044L140.852 240.247L142.766 237.202L134.276 231.863L135.199 230.395L143.689 235.735L145.601 232.695ZM131.245 236.772L141.213 242.562L137.584 248.811L136.289 248.059L139.045 243.314L136.008 241.55L133.441 245.969L132.151 245.22L134.718 240.801L131.666 239.028L128.876 243.832L127.581 243.08L131.245 236.772ZM133.108 257.009L131.791 256.295L134.388 251.505L125.57 246.726L126.398 245.197L136.533 250.69L133.108 257.009ZM121.995 253.404L132.284 258.601L130.432 262.268C130.027 263.069 129.547 263.658 128.99 264.037C128.433 264.416 127.835 264.608 127.198 264.614C126.563 264.621 125.931 264.466 125.302 264.148C124.669 263.828 124.166 263.408 123.794 262.888C123.423 262.373 123.224 261.777 123.197 261.099C123.171 260.426 123.36 259.691 123.762 258.893L125.036 256.371L126.352 257.036L125.15 259.418C124.894 259.923 124.774 260.378 124.789 260.78C124.808 261.185 124.932 261.538 125.162 261.839C125.393 262.14 125.702 262.389 126.091 262.585C126.479 262.782 126.861 262.882 127.237 262.887C127.613 262.892 127.967 262.778 128.298 262.547C128.628 262.318 128.923 261.946 129.184 261.43L130.169 259.481L121.21 254.956L121.995 253.404ZM117.519 262.451L118.292 260.774L127.024 269.367L126.183 271.192L113.978 270.133L114.75 268.457L124.682 269.447L124.719 269.365L117.519 262.451ZM121.489 264.622L118.982 270.06L117.653 269.448L120.16 264.009L121.489 264.622ZM110.714 281.883L106.841 280.1L107.509 278.5L110.023 279.55L110.335 278.802L111.753 279.395L110.714 281.883ZM113.239 271.854L123.875 276.298L123.233 277.835L113.989 273.973L111.844 279.104L121.089 282.966L120.444 284.509L109.808 280.064L113.239 271.854ZM119.337 287.284L118.742 288.901L110.799 285.973L110.762 286.073L116.676 294.504L116.12 296.014L105.304 292.028L105.905 290.396L113.838 293.32L113.875 293.219L107.966 284.803L108.521 283.298L119.337 287.284ZM101.848 302.378L102.393 300.72L111.926 303.857L112.608 301.782C112.787 301.24 112.85 300.773 112.797 300.381C112.748 299.989 112.598 299.665 112.346 299.409C112.095 299.152 111.763 298.956 111.349 298.82C110.939 298.685 110.562 298.648 110.218 298.709C109.875 298.769 109.571 298.942 109.307 299.227C109.044 299.511 108.824 299.923 108.647 300.461L107.723 303.268L106.301 302.8L107.275 299.838C107.553 298.993 107.926 298.336 108.393 297.865C108.858 297.398 109.39 297.107 109.989 296.992C110.59 296.882 111.226 296.937 111.896 297.157C112.57 297.379 113.118 297.713 113.539 298.16C113.965 298.608 114.232 299.16 114.34 299.816C114.447 300.475 114.361 301.227 114.083 302.072L112.797 305.98L101.848 302.378ZM108.566 298.598L107.965 300.426L103.899 296.144L104.516 294.267L108.566 298.598ZM104.827 320.396L105.288 318.702C105.668 318.735 106.019 318.701 106.343 318.598C106.666 318.496 106.959 318.342 107.221 318.137C107.483 317.932 107.706 317.684 107.89 317.392C108.074 317.103 108.214 316.782 108.31 316.427C108.485 315.786 108.48 315.168 108.296 314.574C108.11 313.983 107.746 313.456 107.203 312.993C106.659 312.534 105.938 312.182 105.041 311.938C104.135 311.691 103.332 311.628 102.63 311.749C101.928 311.872 101.348 312.144 100.892 312.565C100.435 312.985 100.121 313.512 99.9482 314.145C99.8526 314.496 99.809 314.842 99.8174 315.183C99.8284 315.528 99.8931 315.855 100.011 316.163C100.13 316.472 100.301 316.751 100.524 317.003C100.75 317.259 101.031 317.469 101.367 317.635L100.9 319.328C100.378 319.088 99.9227 318.776 99.5338 318.39C99.1476 318.009 98.8431 317.57 98.6203 317.074C98.4002 316.582 98.2701 316.053 98.23 315.486C98.1898 314.919 98.253 314.329 98.4196 313.718C98.6817 312.754 99.1433 311.958 99.8045 311.33C100.469 310.702 101.288 310.287 102.261 310.085C103.232 309.886 104.31 309.948 105.494 310.271C106.682 310.594 107.642 311.088 108.375 311.754C109.111 312.421 109.605 313.194 109.856 314.071C110.111 314.949 110.108 315.868 109.846 316.827C109.686 317.418 109.451 317.945 109.142 318.409C108.835 318.878 108.464 319.272 108.026 319.593C107.593 319.914 107.106 320.145 106.566 320.286C106.03 320.428 105.45 320.465 104.827 320.396ZM108.001 323.18L107.615 324.858L99.3653 322.958L99.3413 323.062L106.274 330.678L105.913 332.246L94.6795 329.659L95.0699 327.964L103.308 329.862L103.332 329.757L96.4081 322.155L96.7682 320.592L108.001 323.18ZM99.9824 343.216L100.308 341.491C100.689 341.494 101.037 341.432 101.351 341.304C101.665 341.176 101.945 340.999 102.19 340.774C102.435 340.55 102.637 340.284 102.798 339.978C102.958 339.676 103.072 339.345 103.14 338.983C103.263 338.331 103.21 337.715 102.979 337.137C102.747 336.563 102.342 336.066 101.765 335.648C101.186 335.234 100.439 334.94 99.5249 334.768C98.6031 334.594 97.7972 334.595 97.1074 334.77C96.4168 334.949 95.8606 335.266 95.4388 335.721C95.017 336.176 94.7452 336.726 94.6235 337.372C94.5561 337.729 94.5401 338.078 94.5754 338.417C94.6138 338.76 94.7042 339.08 94.8466 339.378C94.9889 339.676 95.1814 339.942 95.4239 340.175C95.6693 340.412 95.9662 340.6 96.3143 340.738L95.9834 342.462C95.444 342.265 94.9651 341.99 94.5469 341.636C94.1317 341.287 93.7934 340.873 93.532 340.396C93.2736 339.924 93.102 339.406 93.017 338.844C92.9321 338.282 92.9483 337.69 93.0658 337.067C93.2508 336.086 93.6479 335.256 94.2571 334.576C94.87 333.898 95.6533 333.419 96.607 333.141C97.5599 332.866 98.6393 332.842 99.8451 333.07C101.055 333.298 102.051 333.715 102.834 334.321C103.621 334.927 104.174 335.658 104.494 336.512C104.818 337.368 104.888 338.284 104.703 339.261C104.59 339.862 104.398 340.406 104.126 340.893C103.858 341.385 103.518 341.808 103.108 342.162C102.701 342.517 102.234 342.786 101.707 342.969C101.184 343.153 100.609 343.235 99.9824 343.216ZM101.965 344.973L103.445 345.198L102.105 354.018L100.625 353.793L101.165 350.238L91.2486 348.731L91.509 347.017L101.425 348.524L101.965 344.973ZM90.4274 354.42L101.873 355.792L101.012 362.968L99.5256 362.79L100.179 357.341L96.6918 356.923L96.0833 361.997L94.6023 361.819L95.2108 356.745L91.7069 356.325L91.0454 361.841L89.5589 361.662L90.4274 354.42ZM100.812 365.04L100.649 367.144L91.4305 370.109L91.4201 370.243L100.07 374.596L99.9061 376.701L88.4134 375.808L88.5416 374.158L96.8581 374.804L96.8663 374.697L88.83 370.663L88.9364 369.294L97.505 366.55L97.5132 366.443L89.1912 365.797L89.3193 364.147L100.812 365.04ZM94.3522 397.561L92.8946 397.538L93.1378 381.69L94.5955 381.712L94.3522 397.561ZM88.258 410.079L93.2594 405.995L93.2083 404.769L88.0458 404.984L87.9734 403.246L99.4907 402.766L99.5631 404.504L94.6986 404.707L94.7223 405.275L99.768 409.425L99.8563 411.545L94.5076 407.154L88.3463 412.199L88.258 410.079ZM94.9565 422.978C93.7293 423.072 92.6571 422.928 91.7397 422.547C90.8261 422.165 90.1018 421.601 89.5668 420.856C89.0358 420.114 88.7323 419.247 88.6564 418.255C88.5802 417.26 88.7479 416.353 89.1594 415.535C89.575 414.721 90.2071 414.055 91.0557 413.539C91.9043 413.022 92.9403 412.717 94.1638 412.623C95.391 412.529 96.4613 412.673 97.375 413.055C98.2923 413.436 99.0165 413.998 99.5475 414.74C100.083 415.486 100.388 416.356 100.464 417.351C100.54 418.343 100.37 419.246 99.9548 420.06C99.5433 420.878 98.9132 421.546 98.0646 422.062C97.2197 422.579 96.1837 422.884 94.9565 422.978ZM94.825 421.26C95.7604 421.189 96.5363 420.977 97.1529 420.625C97.7735 420.276 98.2284 419.828 98.5176 419.279C98.8107 418.733 98.9321 418.131 98.8817 417.472C98.831 416.81 98.6192 416.232 98.2464 415.737C97.8774 415.242 97.3595 414.868 96.6928 414.614C96.0301 414.364 95.231 414.275 94.2957 414.346C93.3603 414.418 92.5823 414.628 91.9617 414.977C91.3452 415.329 90.8903 415.777 90.5971 416.323C90.3077 416.868 90.1883 417.472 90.239 418.134C90.2894 418.793 90.4992 419.369 90.8682 419.864C91.2413 420.362 91.7592 420.737 92.4219 420.987C93.0886 421.241 93.8897 421.332 94.825 421.26ZM100.899 424.439L101.154 426.534L92.7003 431.256L92.7166 431.391L102.054 433.954L102.308 436.05L90.865 437.438L90.6656 435.795L98.9464 434.791L98.9335 434.684L90.26 432.312L90.0946 430.949L97.9547 426.571L97.9418 426.464L89.6555 427.47L89.4561 425.827L100.899 424.439ZM104.093 447.202L92.7184 449.072L92.4372 447.361L102.346 445.732L101.465 440.378L91.557 442.007L91.2758 440.297L102.65 438.427L104.093 447.202ZM93.0636 451.051L94.5415 450.749L94.6202 451.077C94.7229 451.524 94.9476 451.845 95.2943 452.043C95.6418 452.244 96.1548 452.336 96.8332 452.32C97.5124 452.307 98.402 452.21 99.5022 452.027L104.847 451.135L106.307 458.277L95.0129 460.585L94.6691 458.904L104.518 456.89L103.73 453.035L99.3815 453.741C98.1622 453.94 97.1209 454.027 96.2575 454C95.3979 453.973 94.7108 453.769 94.1962 453.387C93.6824 453.01 93.338 452.393 93.1628 451.536L93.0636 451.051ZM95.6027 463.244L106.813 460.561L108.496 467.589L107.039 467.938L105.762 462.601L102.346 463.418L103.536 468.389L102.085 468.736L100.896 463.765L97.4636 464.587L98.7567 469.99L97.3006 470.338L95.6027 463.244ZM99.7532 479.311L103.695 474.196L103.366 473.014L98.3877 474.398L97.922 472.722L109.028 469.635L109.494 471.311L104.803 472.615L104.955 473.162L110.813 476.056L111.381 478.101L105.174 475.041L100.321 481.355L99.7532 479.311ZM110.98 489.333L110.455 487.657C110.793 487.48 111.07 487.261 111.287 487.001C111.504 486.74 111.668 486.453 111.778 486.139C111.888 485.825 111.942 485.496 111.94 485.15C111.939 484.808 111.883 484.462 111.773 484.111C111.574 483.477 111.237 482.96 110.761 482.559C110.286 482.161 109.696 481.914 108.989 481.817C108.283 481.723 107.486 481.816 106.598 482.095C105.703 482.375 104.993 482.755 104.467 483.235C103.942 483.718 103.6 484.26 103.443 484.86C103.285 485.46 103.304 486.073 103.501 486.7C103.61 487.047 103.759 487.362 103.95 487.644C104.146 487.929 104.376 488.169 104.642 488.365C104.908 488.561 105.203 488.704 105.527 488.796C105.855 488.889 106.205 488.915 106.577 488.873L107.097 490.55C106.529 490.63 105.977 490.613 105.441 490.498C104.91 490.385 104.417 490.18 103.962 489.882C103.511 489.587 103.116 489.211 102.777 488.756C102.437 488.3 102.173 487.769 101.983 487.164C101.684 486.212 101.643 485.292 101.861 484.406C102.082 483.519 102.548 482.728 103.258 482.033C103.969 481.342 104.91 480.813 106.081 480.446C107.256 480.077 108.331 479.976 109.307 480.142C110.287 480.307 111.119 480.69 111.804 481.294C112.492 481.896 112.985 482.671 113.282 483.62C113.465 484.204 113.552 484.774 113.542 485.332C113.537 485.892 113.437 486.425 113.241 486.93C113.049 487.435 112.764 487.892 112.385 488.302C112.01 488.711 111.542 489.054 110.98 489.333ZM104.308 493.858L115.153 489.949L115.743 491.586L111.03 493.284L112.978 498.69L117.691 496.992L118.283 498.633L107.438 502.542L106.846 500.9L111.575 499.196L109.627 493.79L104.898 495.494L104.308 493.858ZM115.26 503.662L116.432 506.539C116.755 507.331 116.901 508.058 116.87 508.719C116.84 509.379 116.649 509.951 116.299 510.434C115.95 510.921 115.457 511.292 114.82 511.547C114.185 511.81 113.564 511.893 112.958 511.795C112.352 511.702 111.799 511.433 111.298 510.989C110.797 510.544 110.385 509.926 110.062 509.134L108.434 505.136L119.109 500.787L119.767 502.403L110.447 506.2L111.417 508.582C111.606 509.044 111.855 509.396 112.164 509.639C112.475 509.885 112.808 510.031 113.163 510.077C113.519 510.126 113.863 510.084 114.193 509.949C114.672 509.754 115.009 509.402 115.203 508.893C115.401 508.383 115.358 507.783 115.077 507.091L113.905 504.214L115.26 503.662ZM123.318 511.118L112.642 515.467L111.984 513.851L122.659 509.502L123.318 511.118ZM113.729 517.994L124.229 513.237L127.211 519.82L125.848 520.438L123.583 515.439L120.384 516.889L122.493 521.544L121.134 522.16L119.025 517.504L115.811 518.961L118.103 524.021L116.74 524.639L113.729 517.994ZM129.921 525.434L130.707 526.966L123.177 530.834L123.226 530.929L133.436 532.278L134.172 533.71L123.918 538.977L123.123 537.43L130.643 533.567L130.594 533.472L120.4 532.128L119.667 530.701L129.921 525.434ZM136.721 545.912L135.856 544.384C136.149 544.141 136.374 543.869 136.532 543.568C136.689 543.268 136.789 542.952 136.831 542.623C136.872 542.293 136.856 541.959 136.781 541.622C136.708 541.288 136.581 540.961 136.4 540.641C136.073 540.063 135.634 539.628 135.085 539.335C134.537 539.046 133.908 538.928 133.196 538.982C132.487 539.039 131.727 539.297 130.918 539.755C130.101 540.218 129.486 540.739 129.073 541.318C128.661 541.9 128.441 542.502 128.413 543.121C128.384 543.741 128.532 544.337 128.855 544.908C129.035 545.225 129.247 545.501 129.493 545.737C129.744 545.975 130.02 546.161 130.321 546.297C130.622 546.432 130.941 546.511 131.276 546.532C131.617 546.555 131.964 546.507 132.32 546.387L133.18 547.918C132.641 548.116 132.097 548.215 131.55 548.214C131.007 548.216 130.482 548.118 129.974 547.923C129.472 547.729 129.007 547.444 128.579 547.07C128.151 546.696 127.781 546.233 127.469 545.681C126.977 544.812 126.744 543.922 126.771 543.01C126.801 542.096 127.09 541.225 127.639 540.396C128.189 539.571 128.998 538.857 130.066 538.252C131.137 537.645 132.167 537.321 133.156 537.278C134.149 537.233 135.043 537.434 135.839 537.88C136.638 538.324 137.283 538.979 137.773 539.844C138.074 540.376 138.279 540.916 138.386 541.463C138.499 542.012 138.512 542.554 138.427 543.089C138.346 543.623 138.163 544.13 137.879 544.61C137.598 545.088 137.212 545.522 136.721 545.912ZM145.664 553.346L135.847 559.387L134.938 557.911L143.49 552.648L140.646 548.027L132.094 553.29L131.186 551.813L141.003 545.772L145.664 553.346ZM143.802 558.989L145.542 561.563C146.021 562.271 146.314 562.952 146.42 563.605C146.526 564.258 146.458 564.857 146.215 565.402C145.974 565.95 145.568 566.414 144.997 566.796C144.43 567.184 143.84 567.392 143.226 567.422C142.614 567.456 142.018 567.307 141.436 566.975C140.854 566.644 140.323 566.124 139.844 565.415L137.426 561.839L146.975 555.382L147.952 556.827L139.616 562.465L141.056 564.595C141.336 565.009 141.652 565.302 142.005 565.476C142.36 565.653 142.716 565.727 143.073 565.698C143.432 565.673 143.759 565.561 144.054 565.361C144.483 565.071 144.74 564.657 144.825 564.12C144.913 563.58 144.748 563.001 144.33 562.382L142.589 559.808L143.802 558.989ZM153.224 564.624L143.675 571.08L142.697 569.635L152.246 563.178L153.224 564.624ZM153.009 566.935L154.215 566.049L159.498 573.238L158.291 574.124L156.162 571.226L148.079 577.165L147.053 575.768L155.135 569.829L153.009 566.935ZM151.314 581.442L150.174 579.99L161.802 576.133L163.043 577.714L156.539 588.096L155.399 586.644L160.805 578.254L160.75 578.184L151.314 581.442ZM155.056 578.898L158.754 583.608L157.603 584.512L153.905 579.801L155.056 578.898ZM157.741 589.543L166.532 582.086L167.657 583.412L163.837 586.653L167.554 591.035L171.374 587.795L172.503 589.126L163.712 596.582L162.583 595.251L166.417 592L162.699 587.618L158.866 590.869L157.741 589.543ZM174.035 590.866L175.197 592.137L168.948 597.848L169.02 597.927L179.225 596.546L180.311 597.734L171.801 605.51L170.628 604.226L176.869 598.523L176.797 598.444L166.607 599.826L165.525 598.642L174.035 590.866ZM179.466 613.32L178.238 612.081L185.364 605.015L183.826 603.464C183.425 603.059 183.037 602.791 182.663 602.659C182.293 602.525 181.936 602.512 181.593 602.619C181.25 602.726 180.924 602.933 180.615 603.24C180.309 603.544 180.105 603.862 180.002 604.196C179.9 604.53 179.916 604.879 180.05 605.243C180.183 605.607 180.45 605.991 180.849 606.393L182.929 608.491L181.866 609.545L179.671 607.331C179.045 606.7 178.628 606.069 178.421 605.439C178.217 604.812 178.199 604.206 178.369 603.62C178.544 603.035 178.882 602.493 179.383 601.997C179.886 601.497 180.433 601.161 181.023 600.989C181.615 600.813 182.228 600.827 182.861 601.028C183.497 601.233 184.128 601.651 184.755 602.282L187.652 605.204L179.466 613.32ZM179.153 605.618L180.508 606.984L174.845 608.66L173.454 607.257L179.153 605.618ZM199.724 623.158L198.749 624.241L186.973 613.632L187.949 612.549L199.724 623.158ZM212.167 631.597L210.795 630.501C210.976 630.165 211.084 629.829 211.119 629.491C211.153 629.154 211.128 628.824 211.044 628.502C210.96 628.181 210.821 627.877 210.626 627.592C210.434 627.309 210.195 627.053 209.907 626.823C209.389 626.409 208.82 626.168 208.201 626.101C207.585 626.036 206.957 626.161 206.316 626.476C205.679 626.792 205.07 627.314 204.489 628.041C203.903 628.774 203.526 629.487 203.358 630.178C203.193 630.872 203.212 631.512 203.416 632.098C203.621 632.684 203.979 633.182 204.492 633.592C204.777 633.819 205.077 633.996 205.393 634.124C205.714 634.251 206.04 634.321 206.37 634.335C206.699 634.349 207.024 634.303 207.343 634.198C207.668 634.093 207.973 633.918 208.258 633.675L209.627 634.776C209.2 635.16 208.732 635.454 208.223 635.658C207.72 635.861 207.197 635.966 206.653 635.973C206.114 635.98 205.577 635.889 205.04 635.701C204.504 635.513 203.988 635.22 203.493 634.825C202.713 634.202 202.166 633.462 201.851 632.605C201.539 631.746 201.483 630.829 201.684 629.857C201.888 628.886 202.373 627.921 203.139 626.963C203.907 626.001 204.743 625.317 205.645 624.909C206.549 624.498 207.454 624.351 208.359 624.469C209.266 624.584 210.108 624.952 210.885 625.573C211.363 625.955 211.753 626.379 212.057 626.847C212.365 627.315 212.58 627.813 212.7 628.341C212.823 628.867 212.842 629.406 212.757 629.957C212.674 630.506 212.477 631.052 212.167 631.597ZM214.656 630.677L215.551 629.477L222.701 634.813L221.805 636.013L218.923 633.862L212.924 641.9L211.535 640.863L217.534 632.825L214.656 630.677ZM217.272 645.049L215.757 643.994L225.748 636.904L227.397 638.053L224.215 649.883L222.699 648.828L225.415 639.224L225.341 639.173L217.272 645.049ZM220.105 641.521L225.02 644.943L224.184 646.144L219.269 642.722L220.105 641.521ZM225.779 650.912L232.018 641.219L235.473 643.442C236.227 643.928 236.763 644.467 237.082 645.061C237.401 645.654 237.53 646.268 237.469 646.903C237.411 647.535 237.191 648.147 236.809 648.74C236.425 649.337 235.955 649.793 235.399 650.109C234.848 650.424 234.234 650.559 233.557 650.516C232.885 650.472 232.174 650.208 231.423 649.725L229.047 648.195L229.845 646.955L232.088 648.399C232.565 648.706 233.004 648.873 233.406 648.9C233.81 648.923 234.174 648.836 234.498 648.638C234.822 648.441 235.101 648.159 235.337 647.793C235.572 647.427 235.712 647.057 235.756 646.684C235.8 646.31 235.724 645.947 235.528 645.593C235.335 645.241 234.995 644.909 234.509 644.596L232.673 643.414L227.241 651.853L225.779 650.912ZM239.153 647.568L239.923 646.284L247.572 650.876L246.801 652.16L243.718 650.309L238.555 658.908L237.068 658.016L242.231 649.416L239.153 647.568ZM259.387 661.541L257.837 660.716C257.953 660.353 257.998 660.003 257.969 659.665C257.941 659.326 257.856 659.007 257.714 658.706C257.572 658.406 257.379 658.133 257.136 657.888C256.895 657.646 256.612 657.438 256.288 657.265C255.701 656.953 255.098 656.821 254.477 656.869C253.86 656.919 253.266 657.157 252.694 657.584C252.126 658.013 251.623 658.638 251.186 659.46C250.745 660.288 250.506 661.057 250.468 661.768C250.433 662.48 250.57 663.106 250.878 663.644C251.187 664.182 251.631 664.606 252.211 664.914C252.532 665.085 252.86 665.204 253.194 665.272C253.533 665.337 253.866 665.347 254.193 665.3C254.52 665.252 254.83 665.148 255.125 664.986C255.424 664.822 255.692 664.595 255.928 664.304L257.475 665.134C257.126 665.59 256.721 665.965 256.258 666.258C255.801 666.551 255.306 666.75 254.773 666.858C254.244 666.964 253.7 666.973 253.138 666.887C252.576 666.8 252.015 666.608 251.455 666.31C250.574 665.841 249.9 665.215 249.433 664.431C248.968 663.643 248.745 662.753 248.763 661.76C248.785 660.768 249.084 659.731 249.661 658.648C250.239 657.561 250.934 656.735 251.745 656.168C252.559 655.597 253.421 655.287 254.332 655.236C255.245 655.182 256.141 655.389 257.018 655.856C257.558 656.143 258.021 656.489 258.405 656.893C258.794 657.296 259.097 657.746 259.312 658.243C259.53 658.737 259.647 659.263 259.665 659.821C259.684 660.375 259.592 660.949 259.387 661.541ZM273.147 670.315C272.63 671.431 271.98 672.297 271.199 672.91C270.419 673.521 269.574 673.877 268.662 673.98C267.755 674.08 266.85 673.921 265.948 673.503C265.043 673.083 264.334 672.493 263.821 671.735C263.314 670.974 263.042 670.097 263.006 669.104C262.97 668.111 263.21 667.058 263.727 665.945C264.245 664.829 264.893 663.965 265.673 663.355C266.454 662.741 267.298 662.384 268.205 662.283C269.117 662.181 270.026 662.34 270.931 662.76C271.833 663.178 272.538 663.768 273.045 664.528C273.558 665.287 273.832 666.163 273.868 667.156C273.905 668.145 273.665 669.198 273.147 670.315ZM271.585 669.59C271.98 668.739 272.174 667.959 272.168 667.249C272.168 666.537 271.998 665.921 271.661 665.4C271.328 664.878 270.862 664.478 270.263 664.2C269.661 663.92 269.053 663.822 268.439 663.906C267.827 663.986 267.247 664.255 266.7 664.712C266.158 665.168 265.689 665.821 265.294 666.672C264.9 667.523 264.703 668.305 264.703 669.017C264.709 669.727 264.878 670.343 265.211 670.865C265.545 671.384 266.013 671.783 266.616 672.063C267.215 672.341 267.821 672.44 268.433 672.36C269.05 672.278 269.63 672.009 270.172 671.553C270.719 671.095 271.19 670.441 271.585 669.59ZM271.033 678.735L272.675 674.803L273.376 675.096C273.699 674.995 274.041 674.803 274.404 674.519C274.766 674.235 275.152 673.809 275.561 673.239C275.969 672.67 276.407 671.903 276.875 670.939L279 666.551L285.56 669.291L281.686 678.567L282.891 679.07L281.255 682.986L279.718 682.344L280.785 679.789L273.644 676.806L272.57 679.377L271.033 678.735ZM275.267 675.886L280.149 677.925L283.446 670.03L279.878 668.54L278.412 671.582C278.053 672.314 277.697 672.958 277.343 673.514C276.992 674.071 276.641 674.546 276.29 674.94C275.943 675.332 275.602 675.647 275.267 675.886ZM284.328 681.204L288.314 670.388L289.946 670.99L288.214 675.69L293.606 677.677L295.338 672.977L296.975 673.581L292.989 684.397L291.352 683.793L293.09 679.077L287.698 677.09L285.96 681.806L284.328 681.204ZM306.896 682.916C306.515 684.087 305.974 685.023 305.271 685.726C304.57 686.425 303.773 686.88 302.88 687.091C301.992 687.299 301.075 687.249 300.129 686.941C299.18 686.632 298.406 686.132 297.806 685.44C297.211 684.745 296.837 683.907 296.683 682.926C296.528 681.944 296.641 680.87 297.021 679.703C297.402 678.533 297.942 677.598 298.643 676.899C299.346 676.196 300.141 675.741 301.029 675.532C301.923 675.322 302.844 675.371 303.793 675.68C304.739 675.987 305.509 676.489 306.104 677.183C306.703 677.876 307.08 678.712 307.234 679.694C307.389 680.672 307.277 681.746 306.896 682.916ZM305.258 682.383C305.548 681.491 305.648 680.693 305.558 679.989C305.472 679.282 305.23 678.691 304.833 678.214C304.44 677.735 303.93 677.394 303.302 677.189C302.67 676.984 302.055 676.959 301.456 677.115C300.857 677.268 300.314 677.604 299.825 678.124C299.341 678.641 298.954 679.346 298.664 680.238C298.374 681.13 298.271 681.929 298.357 682.636C298.448 683.34 298.689 683.932 299.082 684.411C299.476 684.886 299.989 685.226 300.62 685.432C301.248 685.636 301.861 685.662 302.459 685.509C303.062 685.354 303.606 685.018 304.09 684.501C304.578 683.981 304.968 683.275 305.258 682.383ZM310.537 677.992L312.195 678.46L309.894 686.607L309.997 686.636L317.942 680.083L319.491 680.52L316.359 691.614L314.685 691.141L316.982 683.005L316.879 682.976L308.949 689.522L307.405 689.086L310.537 677.992ZM316.874 676.74L318.206 677.116C318.034 677.727 317.677 678.162 317.136 678.423C316.599 678.68 315.964 678.706 315.231 678.499C314.502 678.293 313.976 677.94 313.653 677.439C313.331 676.935 313.257 676.378 313.429 675.767L314.756 676.142C314.68 676.413 314.691 676.676 314.791 676.93C314.892 677.181 315.135 677.36 315.522 677.47C315.901 677.577 316.201 677.55 316.421 677.39C316.646 677.231 316.796 677.015 316.874 676.74ZM329.839 694.847L327.211 688.949L326.015 688.676L324.867 693.714L323.171 693.327L325.732 682.088L327.428 682.475L326.346 687.222L326.9 687.348L332.23 683.569L334.299 684.04L328.657 688.049L331.908 695.318L329.839 694.847ZM333.71 695.673L335.827 684.342L337.537 684.661L336.617 689.586L342.266 690.641L343.186 685.717L344.901 686.037L342.784 697.369L341.069 697.048L341.992 692.107L336.343 691.052L335.42 695.993L333.71 695.673ZM356.243 693.594C356.062 694.812 355.684 695.825 355.108 696.635C354.533 697.441 353.823 698.022 352.977 698.378C352.135 698.731 351.223 698.834 350.239 698.688C349.252 698.541 348.405 698.176 347.699 697.593C346.997 697.007 346.488 696.243 346.173 695.301C345.858 694.359 345.791 693.281 345.971 692.067C346.152 690.85 346.53 689.838 347.105 689.032C347.681 688.222 348.39 687.641 349.231 687.288C350.077 686.932 350.993 686.827 351.981 686.974C352.964 687.12 353.807 687.487 354.509 688.073C355.215 688.656 355.726 689.418 356.041 690.361C356.357 691.299 356.424 692.377 356.243 693.594ZM354.539 693.341C354.677 692.413 354.643 691.609 354.437 690.93C354.235 690.248 353.898 689.704 353.427 689.3C352.961 688.893 352.401 688.641 351.747 688.544C351.09 688.446 350.479 688.524 349.914 688.778C349.35 689.028 348.87 689.45 348.474 690.043C348.083 690.634 347.818 691.393 347.68 692.321C347.542 693.249 347.574 694.054 347.776 694.737C347.983 695.416 348.319 695.959 348.786 696.366C349.253 696.77 349.816 697.02 350.472 697.118C351.126 697.215 351.735 697.139 352.299 696.889C352.868 696.636 353.348 696.214 353.739 695.623C354.135 695.03 354.401 694.269 354.539 693.341ZM367.957 689.068L366.754 700.532L365.03 700.351L366.078 690.365L360.682 689.798L359.633 699.784L357.909 699.603L359.113 688.139L367.957 689.068ZM376.413 701.273L372.92 695.843L371.696 695.755L371.327 700.909L369.592 700.785L370.415 689.287L372.15 689.411L371.802 694.267L372.369 694.308L377.062 689.762L379.179 689.914L374.212 694.733L378.53 701.424L376.413 701.273ZM380.732 689.979L382.453 690.033L382.186 698.494L382.293 698.498L388.422 690.222L390.031 690.272L389.668 701.794L387.929 701.739L388.196 693.289L388.089 693.286L381.972 701.551L380.368 701.501L380.732 689.979ZM411.139 694.991L411.176 696.448L395.332 696.858L395.294 695.4L411.139 694.991ZM417.069 701.094L416.14 689.605L420.348 689.264C421.163 689.199 421.849 689.279 422.406 689.505C422.962 689.727 423.391 690.056 423.694 690.49C423.996 690.921 424.17 691.421 424.216 691.99C424.255 692.468 424.199 692.88 424.05 693.223C423.901 693.562 423.686 693.843 423.407 694.065C423.131 694.284 422.821 694.452 422.476 694.57L422.485 694.682C422.868 694.67 423.251 694.763 423.632 694.962C424.017 695.157 424.345 695.452 424.618 695.848C424.891 696.244 425.052 696.739 425.1 697.334C425.147 697.921 425.051 698.459 424.813 698.949C424.577 699.435 424.184 699.838 423.634 700.157C423.083 700.473 422.363 700.666 421.473 700.738L417.069 701.094ZM418.682 699.468L421.185 699.265C422.015 699.198 422.597 698.989 422.93 698.639C423.263 698.288 423.41 697.871 423.371 697.389C423.341 697.026 423.223 696.701 423.015 696.412C422.807 696.124 422.526 695.904 422.171 695.752C421.82 695.6 421.412 695.542 420.949 695.58L418.385 695.787L418.682 699.468ZM418.275 694.435L420.598 694.247C420.987 694.216 421.331 694.113 421.629 693.938C421.931 693.763 422.163 693.534 422.324 693.249C422.489 692.961 422.557 692.632 422.527 692.262C422.489 691.787 422.29 691.402 421.931 691.107C421.572 690.812 421.049 690.693 420.36 690.749L417.993 690.94L418.275 694.435ZM428.011 693.205L431.094 692.823C431.943 692.718 432.683 692.767 433.313 692.969C433.943 693.171 434.445 693.504 434.82 693.968C435.199 694.431 435.428 695.004 435.509 695.686C435.597 696.367 435.515 696.988 435.263 697.548C435.014 698.108 434.611 698.572 434.051 698.94C433.492 699.308 432.787 699.544 431.938 699.649L427.654 700.179L426.239 688.739L427.971 688.525L429.206 698.513L431.759 698.197C432.254 698.136 432.659 697.987 432.974 697.752C433.293 697.516 433.52 697.232 433.657 696.902C433.798 696.571 433.846 696.228 433.802 695.874C433.739 695.36 433.487 694.943 433.047 694.624C432.606 694.3 432.015 694.184 431.274 694.276L428.19 694.657L428.011 693.205ZM437.311 687.37L438.725 698.81L436.994 699.024L435.579 687.584L437.311 687.37ZM441.446 698.421L439.598 687.043L443.765 686.366C444.572 686.235 445.263 686.26 445.836 686.44C446.408 686.617 446.862 686.91 447.199 687.32C447.534 687.725 447.748 688.209 447.839 688.772C447.916 689.246 447.894 689.661 447.773 690.015C447.651 690.365 447.46 690.662 447.2 690.906C446.942 691.146 446.646 691.338 446.313 691.484L446.331 691.595C446.711 691.552 447.1 691.614 447.496 691.782C447.895 691.945 448.246 692.213 448.55 692.586C448.854 692.958 449.054 693.439 449.149 694.028C449.244 694.61 449.191 695.154 448.993 695.662C448.797 696.165 448.437 696.598 447.915 696.96C447.391 697.319 446.689 697.57 445.807 697.713L441.446 698.421ZM442.924 696.67L445.402 696.268C446.224 696.134 446.787 695.879 447.091 695.503C447.395 695.127 447.508 694.7 447.43 694.222C447.372 693.862 447.227 693.548 446.997 693.277C446.767 693.007 446.469 692.81 446.103 692.687C445.741 692.563 445.33 692.539 444.871 692.613L442.332 693.025L442.924 696.67ZM442.114 691.687L444.414 691.313C444.8 691.25 445.134 691.12 445.417 690.922C445.704 690.723 445.917 690.476 446.055 690.18C446.196 689.879 446.237 689.546 446.178 689.179C446.101 688.709 445.872 688.341 445.491 688.076C445.11 687.811 444.578 687.734 443.897 687.845L441.552 688.225L442.114 691.687ZM460.562 689.027C460.807 690.234 460.797 691.315 460.532 692.273C460.266 693.227 459.796 694.015 459.122 694.638C458.452 695.257 457.629 695.665 456.655 695.863C455.676 696.062 454.756 696.008 453.893 695.7C453.034 695.389 452.295 694.844 451.677 694.066C451.06 693.287 450.629 692.297 450.385 691.095C450.14 689.888 450.15 688.808 450.416 687.855C450.681 686.897 451.149 686.109 451.819 685.49C452.493 684.867 453.319 684.456 454.297 684.258C455.272 684.06 456.189 684.117 457.049 684.428C457.911 684.735 458.651 685.278 459.269 686.056C459.886 686.831 460.317 687.821 460.562 689.027ZM458.874 689.37C458.687 688.451 458.381 687.707 457.955 687.139C457.533 686.566 457.031 686.17 456.45 685.951C455.873 685.728 455.26 685.682 454.613 685.813C453.962 685.945 453.414 686.227 452.97 686.658C452.524 687.086 452.217 687.646 452.048 688.339C451.881 689.027 451.891 689.831 452.078 690.751C452.265 691.67 452.57 692.416 452.992 692.989C453.418 693.557 453.919 693.953 454.497 694.176C455.074 694.396 455.688 694.44 456.339 694.308C456.986 694.176 457.532 693.897 457.978 693.469C458.426 693.037 458.733 692.477 458.9 691.789C459.069 691.096 459.06 690.29 458.874 689.37ZM463.861 697.059L462.847 692.92L463.585 692.739C463.785 692.466 463.947 692.108 464.07 691.665C464.193 691.221 464.25 690.649 464.24 689.948C464.231 689.247 464.128 688.37 463.932 687.317L463.037 682.524L469.941 680.833L472.333 690.597L473.601 690.287L474.61 694.409L472.992 694.805L472.334 692.115L464.816 693.956L465.479 696.662L463.861 697.059ZM465.575 692.252L470.714 690.994L468.679 682.684L464.924 683.604L465.551 686.921C465.697 687.724 465.793 688.453 465.838 689.111C465.886 689.767 465.886 690.358 465.837 690.884C465.791 691.405 465.704 691.861 465.575 692.252ZM480.137 690.02L476.784 678.991L478.448 678.485L479.905 683.278L485.404 681.606L483.947 676.813L485.616 676.306L488.969 687.335L487.299 687.842L485.837 683.033L480.339 684.705L481.801 689.514L480.137 690.02ZM492.491 686.178L490.744 686.777L490.932 674.527L492.833 673.876L500.493 683.436L498.747 684.035L492.606 676.167L492.521 676.196L492.491 686.178ZM491.32 681.808L496.986 679.866L497.46 681.251L491.795 683.192L491.32 681.808ZM513.38 672.138C513.841 673.279 514.029 674.345 513.944 675.335C513.857 676.321 513.539 677.182 512.991 677.918C512.444 678.649 511.71 679.201 510.789 679.573C509.863 679.948 508.948 680.063 508.044 679.918C507.142 679.769 506.316 679.368 505.567 678.716C504.817 678.064 504.212 677.169 503.752 676.032C503.291 674.891 503.104 673.827 503.191 672.841C503.276 671.851 503.592 670.991 504.138 670.26C504.687 669.524 505.423 668.969 506.349 668.595C507.271 668.222 508.183 668.11 509.085 668.259C509.989 668.404 510.816 668.802 511.565 669.454C512.313 670.103 512.918 670.997 513.38 672.138ZM511.783 672.784C511.431 671.914 510.994 671.239 510.472 670.758C509.952 670.272 509.386 669.975 508.775 669.866C508.167 669.752 507.556 669.819 506.944 670.066C506.328 670.315 505.841 670.692 505.483 671.197C505.123 671.699 504.923 672.306 504.883 673.018C504.846 673.726 505.003 674.514 505.354 675.384C505.706 676.254 506.142 676.931 506.662 677.417C507.185 677.898 507.75 678.195 508.359 678.309C508.966 678.42 509.578 678.351 510.193 678.102C510.806 677.854 511.292 677.48 511.651 676.978C512.013 676.471 512.213 675.864 512.251 675.157C512.291 674.445 512.135 673.654 511.783 672.784ZM517.735 676.537L513.005 666.025L516.752 664.339C517.57 663.971 518.314 663.815 518.985 663.871C519.657 663.927 520.242 664.153 520.741 664.55C521.239 664.943 521.633 665.461 521.922 666.105C522.213 666.751 522.34 667.394 522.302 668.032C522.266 668.666 522.046 669.255 521.64 669.799C521.237 670.338 520.628 670.791 519.814 671.158L517.237 672.317L516.632 670.972L519.065 669.878C519.582 669.645 519.961 669.368 520.202 669.045C520.442 668.719 520.568 668.366 520.578 667.987C520.589 667.608 520.505 667.22 520.326 666.823C520.147 666.426 519.914 666.107 519.624 665.867C519.335 665.627 518.989 665.493 518.585 665.464C518.185 665.435 517.721 665.538 517.195 665.775L515.203 666.672L519.321 675.823L517.735 676.537ZM527.127 672.264L522.068 661.906L528.527 658.752L529.184 660.097L524.288 662.488L525.671 665.321L527.988 664.189C528.756 663.814 529.47 663.62 530.128 663.608C530.789 663.594 531.373 663.745 531.878 664.062C532.387 664.377 532.792 664.843 533.093 665.46C533.395 666.077 533.517 666.692 533.461 667.304C533.409 667.914 533.178 668.484 532.768 669.014C532.362 669.542 531.775 669.994 531.006 670.37L527.127 672.264ZM528.048 670.186L530.364 669.055C530.809 668.837 531.142 668.566 531.363 668.241C531.588 667.914 531.711 667.572 531.733 667.215C531.758 666.856 531.692 666.516 531.536 666.196C531.309 665.731 530.935 665.418 530.414 665.259C529.892 665.096 529.298 665.178 528.63 665.504L526.314 666.636L528.048 670.186ZM531.182 657.403L532.698 656.585L536.719 664.034L536.813 663.984L537.953 653.748L539.37 652.984L544.845 663.128L543.314 663.954L539.299 656.514L539.205 656.565L538.069 666.785L536.657 667.547L531.182 657.403ZM541.676 653.416L540.921 652.123L548.626 647.625L549.38 648.918L546.275 650.731L551.332 659.393L549.835 660.267L544.777 651.605L541.676 653.416ZM557.072 656.129L556.251 654.837L556.836 654.466C557.08 654.311 557.255 654.142 557.361 653.959C557.47 653.774 557.531 653.58 557.544 653.376C557.558 653.167 557.547 652.957 557.51 652.744L557.427 652.31L549.369 647.179L550.928 646.189L557.051 650.195L555.75 643.127L557.29 642.15L559.034 652.33C559.096 652.744 559.122 653.148 559.11 653.542C559.101 653.934 558.997 654.314 558.799 654.68C558.598 655.043 558.244 655.385 557.737 655.707L557.072 656.129ZM576.662 634.683L577.511 635.868L564.626 645.099L563.777 643.913L576.662 634.683ZM587.57 624.335L586.205 625.44C585.916 625.191 585.611 625.013 585.289 624.907C584.966 624.801 584.639 624.755 584.307 624.768C583.974 624.781 583.648 624.852 583.328 624.981C583.01 625.108 582.709 625.287 582.423 625.518C581.907 625.936 581.55 626.44 581.351 627.03C581.156 627.618 581.143 628.258 581.313 628.951C581.486 629.642 581.865 630.349 582.451 631.072C583.041 631.801 583.656 632.322 584.296 632.635C584.938 632.945 585.567 633.063 586.183 632.989C586.799 632.915 587.362 632.672 587.873 632.259C588.156 632.03 588.393 631.774 588.586 631.493C588.779 631.207 588.917 630.904 589.001 630.584C589.086 630.265 589.111 629.938 589.077 629.604C589.043 629.264 588.938 628.929 588.762 628.598L590.13 627.498C590.414 627.997 590.601 628.517 590.691 629.057C590.781 629.592 590.772 630.126 590.662 630.659C590.553 631.187 590.35 631.692 590.051 632.176C589.752 632.659 589.356 633.1 588.863 633.499C588.087 634.127 587.247 634.503 586.343 634.627C585.437 634.748 584.53 634.606 583.623 634.201C582.718 633.793 581.88 633.113 581.108 632.159C580.333 631.203 579.844 630.24 579.639 629.271C579.432 628.3 579.483 627.385 579.792 626.526C580.098 625.665 580.638 624.921 581.411 624.295C581.886 623.91 582.385 623.62 582.907 623.424C583.43 623.223 583.962 623.12 584.504 623.116C585.044 623.109 585.574 623.206 586.095 623.407C586.613 623.606 587.104 623.915 587.57 624.335ZM587.203 621.708L586.223 620.576L592.965 614.734L593.946 615.865L591.227 618.221L597.796 625.801L596.486 626.936L589.917 619.356L587.203 621.708ZM601.801 622.231L600.445 623.484L595.664 612.205L597.139 610.84L608.012 616.487L606.656 617.741L597.859 613.027L597.792 613.088L601.801 622.231ZM598.963 618.706L603.36 614.64L604.353 615.715L599.957 619.781L598.963 618.706ZM609.354 615.176L601.22 607.009L606.312 601.936L607.369 602.997L603.509 606.842L605.733 609.075L607.559 607.256C608.166 606.652 608.778 606.238 609.397 606.014C610.018 605.787 610.619 605.742 611.2 605.878C611.783 606.012 612.317 606.322 612.802 606.809C613.287 607.295 613.601 607.837 613.746 608.435C613.893 609.029 613.859 609.644 613.643 610.277C613.429 610.908 613.019 611.526 612.413 612.129L609.354 615.176ZM609.554 612.912L611.38 611.093C611.731 610.743 611.959 610.379 612.063 609.999C612.17 609.618 612.176 609.254 612.081 608.909C611.989 608.561 611.817 608.261 611.566 608.008C611.2 607.642 610.746 607.467 610.202 607.484C609.655 607.499 609.119 607.769 608.592 608.293L606.766 610.112L609.554 612.912ZM608.415 599.784L609.592 598.526L615.774 604.31L615.847 604.231L613.672 594.165L614.771 592.99L623.189 600.865L622.001 602.135L615.827 596.359L615.754 596.437L617.929 606.488L616.833 607.659L608.415 599.784ZM624.463 599.475L623.323 598.487L623.535 598.225C623.826 597.871 623.944 597.497 623.889 597.102C623.837 596.704 623.597 596.241 623.171 595.713C622.747 595.182 622.127 594.537 621.312 593.776L617.347 590.083L622.118 584.572L630.833 592.117L629.709 593.415L622.109 586.835L619.534 589.81L622.744 592.827C623.645 593.672 624.349 594.445 624.854 595.145C625.356 595.843 625.613 596.512 625.625 597.153C625.639 597.79 625.36 598.439 624.787 599.1L624.463 599.475ZM627.994 584.751L629.94 582.329C630.476 581.662 631.04 581.182 631.633 580.888C632.226 580.594 632.818 580.483 633.41 580.554C634.005 580.623 634.569 580.874 635.102 581.307C635.639 581.735 636.013 582.237 636.222 582.815C636.434 583.39 636.468 584.004 636.323 584.658C636.177 585.311 635.837 585.971 635.301 586.638L632.596 590.003L623.612 582.781L624.705 581.421L632.549 587.726L634.16 585.721C634.473 585.332 634.66 584.944 634.722 584.555C634.786 584.164 634.752 583.802 634.62 583.47C634.49 583.134 634.286 582.855 634.008 582.631C633.605 582.307 633.134 582.183 632.595 582.261C632.053 582.335 631.549 582.664 631.081 583.246L629.134 585.668L627.994 584.751ZM639.245 581.654L630.007 574.759L631.047 573.365L635.062 576.361L638.499 571.756L634.485 568.76L635.528 567.361L644.766 574.257L643.722 575.655L639.694 572.648L636.257 577.254L640.285 580.26L639.245 581.654ZM646.924 571.211L645.878 572.733L638.725 562.787L639.863 561.131L651.713 564.238L650.668 565.76L641.047 563.105L640.996 563.179L646.924 571.211ZM643.378 568.4L646.768 563.464L647.975 564.292L644.584 569.229L643.378 568.4ZM657.123 555.789L656.184 557.26L647.724 551.863L646.549 553.704C646.242 554.185 646.066 554.622 646.02 555.016C645.97 555.407 646.036 555.758 646.216 556.069C646.396 556.379 646.669 556.652 647.036 556.886C647.4 557.118 647.756 557.247 648.104 557.273C648.452 557.3 648.789 557.208 649.115 556.997C649.441 556.786 649.756 556.442 650.061 555.965L651.65 553.473L652.912 554.279L651.235 556.907C650.757 557.657 650.233 558.202 649.665 558.543C649.098 558.88 648.51 559.03 647.902 558.993C647.292 558.952 646.69 558.741 646.095 558.362C645.497 557.98 645.049 557.521 644.751 556.983C644.45 556.444 644.328 555.843 644.385 555.181C644.444 554.516 644.713 553.808 645.192 553.059L647.404 549.59L657.123 555.789ZM649.678 557.79L650.713 556.167L653.593 561.322L652.53 562.988L649.678 557.79ZM660.731 549.787L650.731 544.053L652.775 540.489C653.221 539.711 653.732 539.147 654.308 538.799C654.885 538.45 655.491 538.29 656.128 538.318C656.762 538.344 657.385 538.532 657.997 538.883C658.612 539.236 659.092 539.682 659.436 540.221C659.779 540.755 659.946 541.361 659.937 542.039C659.928 542.713 659.701 543.437 659.256 544.212L657.851 546.663L656.572 545.929L657.899 543.615C658.18 543.123 658.325 542.676 658.331 542.273C658.334 541.868 658.228 541.509 658.014 541.196C657.8 540.883 657.504 540.618 657.126 540.402C656.749 540.185 656.372 540.064 655.997 540.04C655.622 540.015 655.263 540.11 654.92 540.324C654.578 540.534 654.264 540.89 653.976 541.392L652.89 543.286L661.596 548.278L660.731 549.787ZM665.677 541.006L664.812 542.637L656.572 533.571L657.513 531.796L669.641 533.533L668.776 535.163L658.915 533.623L658.873 533.702L665.677 541.006ZM661.834 538.618L664.64 533.327L665.933 534.013L663.127 539.303L661.834 538.618ZM670.475 531.852L660.098 526.831L663.229 520.361L664.577 521.013L662.204 525.917L665.041 527.29L666.164 524.97C666.536 524.2 666.978 523.606 667.488 523.19C667.999 522.771 668.551 522.53 669.145 522.467C669.74 522.4 670.346 522.516 670.964 522.815C671.582 523.115 672.058 523.522 672.392 524.038C672.728 524.551 672.898 525.142 672.904 525.811C672.911 526.477 672.728 527.195 672.355 527.966L670.475 531.852ZM669.915 529.649L671.038 527.328C671.254 526.882 671.348 526.463 671.321 526.071C671.296 525.675 671.181 525.33 670.978 525.036C670.776 524.738 670.515 524.511 670.194 524.356C669.728 524.13 669.241 524.116 668.733 524.312C668.222 524.507 667.805 524.938 667.481 525.607L666.358 527.928L669.915 529.649ZM673.815 510.798C674.941 511.294 675.818 511.927 676.447 512.696C677.072 513.464 677.445 514.303 677.565 515.212C677.682 516.117 677.541 517.025 677.14 517.935C676.737 518.848 676.161 519.568 675.412 520.095C674.662 520.617 673.79 520.905 672.798 520.96C671.806 521.015 670.749 520.795 669.626 520.3C668.5 519.804 667.624 519.172 666.999 518.404C666.37 517.635 665.997 516.798 665.879 515.893C665.759 514.983 665.901 514.071 666.303 513.158C666.704 512.248 667.28 511.532 668.031 511.01C668.78 510.483 669.651 510.192 670.643 510.138C671.631 510.081 672.688 510.301 673.815 510.798ZM673.12 512.374C672.262 511.995 671.477 511.816 670.768 511.835C670.056 511.85 669.443 512.03 668.929 512.378C668.413 512.721 668.022 513.194 667.756 513.798C667.488 514.406 667.401 515.016 667.497 515.628C667.588 516.238 667.868 516.813 668.336 517.351C668.802 517.885 669.465 518.341 670.323 518.719C671.181 519.097 671.966 519.279 672.678 519.265C673.388 519.246 674.001 519.065 674.517 518.722C675.029 518.378 675.419 517.902 675.687 517.294C675.954 516.69 676.041 516.083 675.949 515.472C675.855 514.857 675.576 514.282 675.11 513.749C674.642 513.21 673.978 512.752 673.12 512.374ZM670.274 508.198L668.883 507.644L672.186 499.357L673.577 499.911L672.245 503.252L681.562 506.966L680.92 508.577L671.603 504.863L670.274 508.198ZM683.479 501.963L682.849 503.698L673.428 495.866L674.114 493.977L686.365 494.01L685.735 495.746L675.756 495.591L675.725 495.676L683.479 501.963ZM679.341 500.132L681.384 494.502L682.76 495.001L680.717 500.631L679.341 500.132ZM686.193 472.281L687.591 472.694L683.092 487.893L681.695 487.479L686.193 472.281ZM682.612 465.917L683.081 463.859L692.633 462.271L692.663 462.139L684.741 456.571L685.21 454.513L696.449 457.073L696.082 458.687L687.949 456.834L687.925 456.938L695.286 462.102L694.981 463.441L686.104 464.906L686.08 465.01L694.219 466.864L693.852 468.477L682.612 465.917ZM693.112 443.463C694.323 443.682 695.324 444.091 696.116 444.691C696.904 445.291 697.463 446.019 697.792 446.875C698.119 447.727 698.194 448.643 698.018 449.621C697.841 450.604 697.45 451.439 696.845 452.127C696.238 452.81 695.458 453.295 694.507 453.581C693.555 453.867 692.476 453.901 691.268 453.683C690.057 453.465 689.058 453.056 688.27 452.456C687.478 451.856 686.919 451.129 686.592 450.277C686.262 449.421 686.186 448.502 686.363 447.519C686.54 446.541 686.932 445.71 687.539 445.026C688.144 444.338 688.922 443.851 689.873 443.566C690.821 443.279 691.9 443.245 693.112 443.463ZM692.806 445.158C691.883 444.992 691.078 445.001 690.393 445.186C689.705 445.367 689.151 445.687 688.733 446.145C688.312 446.599 688.043 447.151 687.925 447.801C687.807 448.455 687.867 449.068 688.103 449.64C688.335 450.212 688.742 450.705 689.323 451.119C689.901 451.528 690.652 451.816 691.575 451.983C692.498 452.149 693.304 452.142 693.993 451.961C694.678 451.776 695.231 451.456 695.653 451.002C696.07 450.547 696.338 449.993 696.456 449.34C696.573 448.69 696.515 448.079 696.283 447.507C696.048 446.931 695.641 446.438 695.063 446.028C694.481 445.615 693.729 445.325 692.806 445.158ZM699.155 442.127L687.741 440.519L687.983 438.797L692.944 439.495L693.745 433.805L688.785 433.106L689.028 431.378L700.443 432.986L700.199 434.714L695.222 434.013L694.421 439.703L699.398 440.404L699.155 442.127ZM689.305 429.089L689.478 427.376L697.901 428.228L697.911 428.121L690.08 421.434L690.242 419.833L701.71 420.993L701.535 422.723L693.124 421.872L693.113 421.979L700.935 428.654L700.774 430.25L689.305 429.089ZM691.893 418.172L690.399 418.073L690.987 409.171L692.48 409.27L692.243 412.859L702.252 413.519L702.138 415.249L692.129 414.588L691.893 418.172ZM697.063 398.067C698.293 398.101 699.345 398.355 700.218 398.83C701.087 399.305 701.748 399.94 702.203 400.737C702.654 401.531 702.866 402.424 702.839 403.418C702.811 404.416 702.55 405.3 702.056 406.071C701.558 406.838 700.86 407.435 699.962 407.86C699.065 408.286 698.003 408.482 696.776 408.448C695.546 408.414 694.496 408.16 693.627 407.685C692.754 407.211 692.092 406.577 691.641 405.783C691.187 404.986 690.973 404.089 691.001 403.091C691.028 402.097 691.291 401.217 691.789 400.45C692.283 399.679 692.979 399.081 693.877 398.655C694.77 398.229 695.833 398.033 697.063 398.067ZM697.015 399.789C696.078 399.763 695.284 399.893 694.634 400.179C693.981 400.461 693.482 400.861 693.137 401.377C692.789 401.889 692.605 402.475 692.587 403.135C692.569 403.799 692.719 404.396 693.039 404.927C693.355 405.457 693.831 405.883 694.468 406.205C695.101 406.523 695.886 406.695 696.824 406.721C697.762 406.747 698.557 406.618 699.211 406.336C699.86 406.05 700.359 405.651 700.708 405.139C701.052 404.626 701.234 404.038 701.252 403.374C701.27 402.714 701.121 402.119 700.806 401.588C700.486 401.054 700.01 400.628 699.377 400.31C698.74 399.989 697.953 399.815 697.015 399.789ZM702.844 395.864L691.317 395.935L691.291 391.827C691.286 390.93 691.444 390.186 691.767 389.595C692.09 389.004 692.534 388.56 693.099 388.264C693.66 387.968 694.293 387.817 694.998 387.813C695.708 387.809 696.346 387.953 696.915 388.246C697.48 388.535 697.929 388.975 698.263 389.566C698.593 390.153 698.76 390.893 698.766 391.786L698.783 394.612L697.309 394.621L697.292 391.953C697.289 391.386 697.188 390.927 696.991 390.576C696.79 390.224 696.518 389.967 696.176 389.804C695.833 389.641 695.444 389.561 695.009 389.563C694.574 389.566 694.188 389.651 693.851 389.818C693.515 389.985 693.252 390.248 693.062 390.605C692.873 390.959 692.78 391.425 692.784 392.003L692.797 394.187L702.833 394.125L702.844 395.864ZM691.213 386.011L691.139 384.291L699.596 383.927L699.592 383.82L690.882 378.324L690.813 376.716L702.33 376.221L702.404 377.958L693.958 378.322L693.963 378.428L702.66 383.913L702.729 385.516L691.213 386.011ZM702.158 373.469L690.669 374.406L690.528 372.673L695.521 372.265L695.054 366.538L690.061 366.945L689.919 365.206L701.408 364.269L701.55 366.008L696.54 366.417L697.007 372.144L702.017 371.736L702.158 373.469ZM688.851 355.751L690.338 355.577L690.973 360.988L700.935 359.819L701.138 361.547L689.689 362.89L688.851 355.751ZM686.546 341.039L697.918 339.155L698.202 340.865L688.295 342.506L689.182 347.859L699.088 346.218L699.372 347.929L687.999 349.813L686.546 341.039ZM697.197 335.366L697.57 337.174L685.443 335.439L685.037 333.471L695.489 327.08L695.862 328.888L687.281 333.985L687.299 334.074L697.197 335.366ZM692.714 335.974L691.504 330.109L692.937 329.813L694.147 335.679L692.714 335.974ZM695.073 325.279L683.864 327.968L682.905 323.973C682.696 323.101 682.681 322.34 682.861 321.691C683.041 321.042 683.373 320.509 683.855 320.092C684.334 319.676 684.917 319.386 685.603 319.222C686.292 319.056 686.947 319.052 687.567 319.208C688.183 319.361 688.721 319.687 689.18 320.187C689.635 320.683 689.966 321.366 690.175 322.234L690.834 324.982L689.4 325.326L688.778 322.732C688.645 322.181 688.443 321.757 688.171 321.459C687.896 321.162 687.572 320.974 687.202 320.893C686.831 320.812 686.434 320.822 686.011 320.924C685.588 321.025 685.231 321.196 684.941 321.435C684.652 321.674 684.455 321.99 684.352 322.381C684.248 322.769 684.264 323.243 684.399 323.805L684.908 325.929L694.667 323.588L695.073 325.279ZM692.641 315.489L693.133 317.268L680.917 316.346L680.381 314.41L690.383 307.336L690.876 309.115L682.654 314.773L682.678 314.86L692.641 315.489ZM688.208 316.395L686.61 310.623L688.02 310.233L689.618 316.004L688.208 316.395ZM678.848 309.052L678.201 307.043L685.605 300.803L685.563 300.674L675.909 299.929L675.262 297.92L686.234 294.385L686.741 295.96L678.801 298.518L678.834 298.62L687.8 299.303L688.221 300.61L681.335 306.4L681.368 306.502L689.313 303.943L689.82 305.518L678.848 309.052ZM685.337 291.78L674.514 295.747L672.026 288.962L673.432 288.446L675.321 293.599L678.619 292.39L676.86 287.592L678.26 287.078L680.019 291.877L683.332 290.662L681.42 285.446L682.826 284.931L685.337 291.78ZM672.858 286.941L671.47 287.503L668.12 279.235L669.508 278.673L670.859 282.006L680.155 278.24L680.806 279.847L671.51 283.613L672.858 286.941ZM677.948 272.917L667.417 277.606L665.746 273.852C665.381 273.033 665.228 272.288 665.287 271.617C665.345 270.946 665.574 270.361 665.973 269.864C666.368 269.367 666.888 268.976 667.532 268.689C668.18 268.4 668.823 268.276 669.461 268.316C670.094 268.355 670.682 268.578 671.225 268.985C671.763 269.39 672.214 270.001 672.577 270.817L673.726 273.398L672.379 273.998L671.294 271.561C671.063 271.043 670.787 270.663 670.466 270.42C670.14 270.179 669.788 270.052 669.409 270.04C669.03 270.028 668.642 270.111 668.244 270.288C667.846 270.465 667.527 270.697 667.286 270.986C667.044 271.274 666.909 271.62 666.879 272.023C666.847 272.423 666.949 272.887 667.184 273.415L668.073 275.41L677.241 271.328L677.948 272.917ZM664.111 257.028C665.217 256.486 666.266 256.223 667.259 256.238C668.249 256.254 669.131 256.509 669.904 257.004C670.672 257.497 671.274 258.19 671.712 259.083C672.151 259.979 672.331 260.883 672.251 261.796C672.167 262.706 671.826 263.559 671.229 264.353C670.632 265.147 669.782 265.813 668.681 266.353C667.575 266.895 666.528 267.157 665.538 267.141C664.544 267.126 663.664 266.873 662.896 266.38C662.123 265.885 661.517 265.19 661.077 264.293C660.64 263.4 660.463 262.499 660.548 261.588C660.627 260.676 660.966 259.823 661.563 259.029C662.157 258.236 663.006 257.569 664.111 257.028ZM664.869 258.575C664.027 258.987 663.384 259.471 662.942 260.027C662.494 260.58 662.238 261.165 662.173 261.782C662.102 262.398 662.212 263.002 662.503 263.595C662.795 264.191 663.206 264.65 663.735 264.972C664.261 265.295 664.881 265.451 665.594 265.44C666.302 265.427 667.078 265.214 667.92 264.802C668.763 264.389 669.408 263.906 669.855 263.352C670.298 262.797 670.554 262.212 670.624 261.596C670.691 260.983 670.579 260.378 670.287 259.781C669.996 259.188 669.588 258.73 669.062 258.407C668.531 258.082 667.911 257.926 667.203 257.939C666.489 257.95 665.712 258.162 664.869 258.575ZM668.193 252.375L658.038 257.831L656.04 254.112C655.653 253.392 655.452 252.731 655.436 252.131C655.416 251.532 655.545 251.007 655.822 250.555C656.096 250.106 656.485 249.746 656.987 249.476C657.41 249.249 657.809 249.135 658.183 249.134C658.554 249.135 658.897 249.218 659.213 249.385C659.523 249.551 659.802 249.768 660.048 250.036L660.147 249.983C659.983 249.636 659.915 249.249 659.944 248.82C659.969 248.39 660.107 247.97 660.361 247.561C660.614 247.153 661.003 246.807 661.529 246.525C662.048 246.246 662.58 246.118 663.124 246.14C663.664 246.161 664.19 246.36 664.703 246.736C665.213 247.114 665.679 247.696 666.102 248.483L668.193 252.375ZM666.056 251.549L664.868 249.338C664.473 248.604 664.049 248.155 663.594 247.99C663.139 247.825 662.699 247.858 662.272 248.087C661.952 248.259 661.701 248.498 661.52 248.804C661.339 249.11 661.251 249.456 661.254 249.842C661.255 250.224 661.365 250.621 661.586 251.031L662.803 253.297L666.056 251.549ZM661.608 253.939L660.505 251.886C660.321 251.542 660.088 251.269 659.809 251.065C659.527 250.859 659.224 250.738 658.899 250.704C658.569 250.669 658.24 250.739 657.913 250.914C657.493 251.14 657.22 251.476 657.094 251.923C656.968 252.37 657.068 252.898 657.395 253.506L658.519 255.598L661.608 253.939Z" fill="#DFAC67"/>
</svg>
