<svg width="237" height="52" viewBox="0 0 237 52" fill="none" xmlns="http://www.w3.org/2000/svg">
<path d="M29.1665 3.44067C35.3898 5.89584 39.7933 11.963 39.7933 19.0588C39.7933 28.328 32.2792 35.8421 23.0099 35.8421C22.1259 35.8421 21.2579 35.7734 20.4108 35.6418C17.6412 31.0445 15.7049 26.921 14.4472 22.6936C15.3895 20.4303 16.4509 18.3453 17.6782 16.3602C20.4559 11.8672 24.0971 7.86003 29.1665 3.44067ZM14.1242 23.4886C15.3606 27.4225 17.1838 31.2819 19.705 35.5165C16.6084 34.8979 13.8193 33.4278 11.5925 31.3599C12.3478 28.4752 13.1746 25.8809 14.1242 23.4886ZM12.0358 6.35995C11.8931 12.1578 12.3516 17.0317 13.6089 21.7195C13.6184 21.7549 13.6282 21.7904 13.6377 21.8258C12.5159 24.4488 11.5636 27.2938 10.7074 30.475C7.92683 27.4799 6.22656 23.4679 6.22656 19.0588C6.22656 13.9852 8.47775 9.43745 12.0358 6.35995ZM25.916 14.0873C25.8557 14.0008 25.8507 14.001 25.8256 14.0976C25.8055 14.1486 25.7452 14.5811 25.69 15.0593C25.5092 16.5603 25.1225 18.3107 24.8062 19.1095C24.3042 20.3561 23.2498 21.0176 21.0357 21.4755C20.4483 21.5925 19.2431 21.7604 17.6866 21.9283C16.7579 22.0301 16.5872 22.1014 17.28 22.1065C18.4599 22.1065 21.6329 22.6 22.602 22.9308C22.7677 22.9867 23.1243 23.1444 23.3904 23.2869C24.2037 23.7092 24.6256 24.2894 25.0323 25.5513C25.3385 26.4977 25.4941 27.3577 25.6096 28.7976C25.6899 29.739 25.7704 30.2476 25.8406 30.2476C25.9009 30.2476 25.9261 30.1101 26.0416 29.1791C26.4231 26.1365 26.8698 24.5896 27.5829 23.8314C28.3056 23.0631 29.9074 22.6051 33.1961 22.2337C33.8588 22.1574 34.4364 22.0861 34.4765 22.0708C34.5155 22.0554 33.9735 21.9638 33.2713 21.8723C30.982 21.5721 29.7872 21.3229 28.8281 20.9362C27.8793 20.5546 27.6129 20.3306 27.2315 19.5724C26.7344 18.5903 26.2321 16.6925 26.1166 15.339C26.0614 14.6674 25.9813 14.1738 25.916 14.0873ZM14.1987 27.7301C13.8125 27.7301 13.4995 28.0434 13.4995 28.4296C13.4996 28.8158 13.8125 29.1288 14.1987 29.1288C14.5849 29.1288 14.8979 28.8158 14.8979 28.4296C14.8979 28.0434 14.5849 27.7302 14.1987 27.7301ZM23.0099 2.27539C24.7456 2.27539 26.4198 2.53886 27.9946 3.02801C23.1103 7.33569 19.5235 11.3164 16.7572 15.7911C15.7268 17.4576 14.813 19.1898 13.988 21.0285C12.824 16.4444 12.4184 11.6419 12.5904 5.90076C15.4528 3.63099 19.073 2.27539 23.0099 2.27539ZM10.2826 17.94C9.74187 17.94 9.30366 18.3782 9.30366 18.9189C9.30366 19.4596 9.74187 19.8978 10.2826 19.8978C10.8233 19.8978 11.2615 19.4596 11.2615 18.9189C11.2615 18.3782 10.8233 17.94 10.2826 17.94ZM33.3382 11.2275C33.3228 11.2069 33.2402 11.5215 33.1574 11.9238C32.9043 13.1619 32.8371 13.3735 32.5686 13.6675C32.4395 13.8068 32.2172 13.9873 32.0778 14.0595C31.7939 14.1988 30.9826 14.4207 30.1667 14.5703C29.8879 14.6218 29.6919 14.6786 29.7274 14.6993C29.7636 14.7199 30.2595 14.8283 30.8226 14.947C32.2224 15.2359 32.4292 15.3597 32.7443 16.0715C32.8837 16.3863 33.1211 17.2685 33.2297 17.8824C33.2659 18.0887 33.3176 18.2382 33.3382 18.2176C33.3539 18.1962 33.4108 17.954 33.4622 17.6862C33.8136 15.7053 34.1647 15.2824 35.735 14.9832C36.1067 14.9162 36.4786 14.8283 36.5614 14.7974L36.7165 14.7355L36.5872 14.6683C36.5149 14.6322 36.1326 14.5344 35.7401 14.4416C34.5574 14.1784 34.0821 13.8842 33.8496 13.2652C33.7876 13.1 33.6533 12.5841 33.555 12.1147C33.4519 11.6458 33.3591 11.249 33.3382 11.2275ZM16.2966 9.26837C15.5242 9.26837 14.8979 9.89464 14.8979 10.6671C14.8979 11.4395 15.5242 12.0658 16.2966 12.0658C17.0691 12.0658 17.6953 11.4395 17.6953 10.6671C17.6953 9.89466 17.0691 9.2684 16.2966 9.26837Z" fill="#A699EF"/>
<path d="M41.1972 12.002C44.2193 15.896 46.0189 20.7865 46.0189 26.0974C46.0189 38.8051 35.7172 49.1068 23.0095 49.1068C10.3017 49.1068 0 38.8051 0 26.0974C0 21.0268 1.64002 16.3393 4.41868 12.5365C3.6614 14.6146 3.2484 16.8567 3.2484 19.1948C3.2484 29.99 12.0511 38.7412 22.9098 38.7412C33.7684 38.7412 42.571 29.99 42.571 19.1948C42.571 16.6549 42.0838 14.2282 41.1972 12.002Z" fill="url(#paint0_linear_564_239)"/>
<line x1="55.2679" y1="4.49186e-08" x2="55.2678" y2="51.3809" stroke="#A699EF" stroke-width="2.05524"/>
<path d="M86.557 13.0948V39.1914H81.7913L70.4377 22.7663H70.2466V39.1914H64.7291V13.0948H69.5712L80.8356 29.5071H81.065V13.0948H86.557ZM96.5949 39.5609C95.3461 39.5609 94.2333 39.3443 93.2563 38.9111C92.2794 38.4693 91.5064 37.8195 90.9372 36.9615C90.3765 36.095 90.0962 35.0161 90.0962 33.7249C90.0962 32.6375 90.2958 31.7243 90.6951 30.9852C91.0944 30.2462 91.6381 29.6515 92.3261 29.2013C93.0142 28.7511 93.7958 28.4113 94.6708 28.1819C95.5542 27.9525 96.4802 27.7911 97.4486 27.6977C98.587 27.5788 99.5044 27.4683 100.201 27.3664C100.898 27.2559 101.403 27.0945 101.717 26.8822C102.032 26.6698 102.189 26.3555 102.189 25.9392V25.8628C102.189 25.0557 101.934 24.4314 101.424 23.9896C100.923 23.5479 100.21 23.327 99.2835 23.327C98.3066 23.327 97.5293 23.5436 96.9517 23.9769C96.374 24.4016 95.9917 24.9368 95.8048 25.5824L90.7843 25.1747C91.0392 23.9854 91.5404 22.9575 92.2879 22.091C93.0355 21.216 93.9997 20.5449 95.1805 20.0777C96.3698 19.602 97.746 19.3641 99.309 19.3641C100.396 19.3641 101.437 19.4915 102.431 19.7464C103.433 20.0012 104.321 20.3962 105.094 20.9314C105.876 21.4666 106.492 22.1547 106.942 22.9957C107.392 23.8282 107.617 24.8264 107.617 25.9902V39.1914H102.469V36.4773H102.316C102.002 37.0889 101.581 37.6283 101.055 38.0956C100.528 38.5543 99.8952 38.9153 99.1561 39.1787C98.4171 39.4335 97.5633 39.5609 96.5949 39.5609ZM98.1495 35.8146C98.948 35.8146 99.6531 35.6575 100.265 35.3432C100.876 35.0204 101.356 34.5871 101.705 34.0434C102.053 33.4998 102.227 32.8839 102.227 32.1958V30.1188C102.057 30.2292 101.824 30.3311 101.526 30.4246C101.237 30.5095 100.91 30.5902 100.545 30.6667C100.18 30.7346 99.8145 30.7984 99.4492 30.8578C99.0839 30.9088 98.7526 30.9555 98.4553 30.998C97.8182 31.0914 97.2617 31.2401 96.786 31.444C96.3103 31.6479 95.9408 31.9239 95.6774 32.2722C95.4141 32.612 95.2824 33.0368 95.2824 33.5465C95.2824 34.2855 95.55 34.8505 96.0852 35.2412C96.6289 35.6235 97.317 35.8146 98.1495 35.8146ZM111.829 19.6189H117.257V40.1598C117.257 41.6719 116.96 42.8952 116.365 43.8297C115.77 44.7641 114.916 45.448 113.804 45.8812C112.699 46.3145 111.378 46.5311 109.841 46.5311C109.654 46.5311 109.475 46.5268 109.306 46.5183C109.127 46.5183 108.94 46.5141 108.745 46.5056V42.2623C108.889 42.2708 109.017 42.2751 109.127 42.2751C109.229 42.2836 109.339 42.2878 109.458 42.2878C110.333 42.2878 110.945 42.1009 111.293 41.7272C111.65 41.3619 111.829 40.8097 111.829 40.0706V19.6189ZM114.53 17.0959C113.731 17.0959 113.043 16.8283 112.466 16.2932C111.888 15.7495 111.599 15.0996 111.599 14.3436C111.599 13.596 111.888 12.9546 112.466 12.4194C113.043 11.8758 113.731 11.6039 114.53 11.6039C115.345 11.6039 116.038 11.8758 116.607 12.4194C117.185 12.9546 117.473 13.596 117.473 14.3436C117.473 15.0996 117.185 15.7495 116.607 16.2932C116.038 16.8283 115.345 17.0959 114.53 17.0959ZM121.605 39.1914V19.6189H126.779V23.0722H127.008C127.416 21.9253 128.095 21.0206 129.047 20.358C129.998 19.6954 131.137 19.3641 132.462 19.3641C133.804 19.3641 134.947 19.6996 135.89 20.3707C136.832 21.0334 137.461 21.9338 137.775 23.0722H137.979C138.379 21.9508 139.101 21.0546 140.146 20.3835C141.199 19.7039 142.443 19.3641 143.879 19.3641C145.706 19.3641 147.188 19.946 148.326 21.1098C149.473 22.2651 150.046 23.9047 150.046 26.0284V39.1914H144.631V27.0988C144.631 26.0114 144.342 25.1959 143.764 24.6522C143.187 24.1085 142.465 23.8367 141.598 23.8367C140.613 23.8367 139.844 24.151 139.292 24.7797C138.74 25.3998 138.464 26.2196 138.464 27.239V39.1914H133.201V26.9841C133.201 26.0242 132.925 25.2596 132.373 24.6905C131.829 24.1213 131.111 23.8367 130.219 23.8367C129.616 23.8367 129.072 23.9896 128.588 24.2954C128.112 24.5928 127.734 25.0133 127.454 25.5569C127.174 26.0921 127.034 26.7208 127.034 27.4428V39.1914H121.605ZM154.436 39.1914V13.0948H159.954V34.6423H171.142V39.1914H154.436ZM180.275 39.5609C179.026 39.5609 177.913 39.3443 176.936 38.9111C175.959 38.4693 175.186 37.8195 174.617 36.9615C174.056 36.095 173.776 35.0161 173.776 33.7249C173.776 32.6375 173.976 31.7243 174.375 30.9852C174.774 30.2462 175.318 29.6515 176.006 29.2013C176.694 28.7511 177.476 28.4113 178.351 28.1819C179.234 27.9525 180.16 27.7911 181.129 27.6977C182.267 27.5788 183.184 27.4683 183.881 27.3664C184.578 27.2559 185.083 27.0945 185.397 26.8822C185.712 26.6698 185.869 26.3555 185.869 25.9392V25.8628C185.869 25.0557 185.614 24.4314 185.104 23.9896C184.603 23.5479 183.889 23.327 182.963 23.327C181.987 23.327 181.209 23.5436 180.632 23.9769C180.054 24.4016 179.672 24.9368 179.485 25.5824L174.464 25.1747C174.719 23.9854 175.22 22.9575 175.968 22.091C176.715 21.216 177.68 20.5449 178.86 20.0777C180.05 19.602 181.426 19.3641 182.989 19.3641C184.076 19.3641 185.117 19.4915 186.111 19.7464C187.113 20.0012 188.001 20.3962 188.774 20.9314C189.556 21.4666 190.171 22.1547 190.622 22.9957C191.072 23.8282 191.297 24.8264 191.297 25.9902V39.1914H186.149V36.4773H185.996C185.682 37.0889 185.261 37.6283 184.735 38.0956C184.208 38.5543 183.575 38.9153 182.836 39.1787C182.097 39.4335 181.243 39.5609 180.275 39.5609ZM181.829 35.8146C182.628 35.8146 183.333 35.6575 183.945 35.3432C184.556 35.0204 185.036 34.5871 185.385 34.0434C185.733 33.4998 185.907 32.8839 185.907 32.1958V30.1188C185.737 30.2292 185.503 30.3311 185.206 30.4246C184.917 30.5095 184.59 30.5902 184.225 30.6667C183.86 30.7346 183.494 30.7984 183.129 30.8578C182.764 30.9088 182.433 30.9555 182.135 30.998C181.498 31.0914 180.942 31.2401 180.466 31.444C179.99 31.6479 179.621 31.9239 179.357 32.2722C179.094 32.612 178.962 33.0368 178.962 33.5465C178.962 34.2855 179.23 34.8505 179.765 35.2412C180.309 35.6235 180.997 35.8146 181.829 35.8146ZM195.61 39.1914V13.0948H201.039V22.9065H201.204C201.442 22.3798 201.786 21.8446 202.236 21.301C202.695 20.7488 203.29 20.29 204.02 19.9248C204.76 19.551 205.677 19.3641 206.773 19.3641C208.2 19.3641 209.517 19.7379 210.723 20.4854C211.929 21.2245 212.893 22.3416 213.616 23.8367C214.338 25.3233 214.699 27.188 214.699 29.4307C214.699 31.6139 214.346 33.4573 213.641 34.9609C212.944 36.456 211.993 37.5901 210.787 38.3631C209.589 39.1277 208.247 39.51 206.76 39.51C205.707 39.51 204.81 39.3358 204.071 38.9875C203.341 38.6392 202.742 38.2017 202.275 37.675C201.808 37.1399 201.451 36.6004 201.204 36.0568H200.962V39.1914H195.61ZM200.924 29.4052C200.924 30.569 201.085 31.5841 201.408 32.4506C201.731 33.3171 202.198 33.9925 202.81 34.4767C203.422 34.9524 204.165 35.1903 205.04 35.1903C205.923 35.1903 206.671 34.9482 207.283 34.4639C207.894 33.9712 208.357 33.2916 208.671 32.4251C208.994 31.5502 209.156 30.5435 209.156 29.4052C209.156 28.2753 208.999 27.2814 208.684 26.4234C208.37 25.5654 207.907 24.8943 207.295 24.4101C206.684 23.9259 205.932 23.6838 205.04 23.6838C204.156 23.6838 203.409 23.9174 202.797 24.3846C202.194 24.8519 201.731 25.5145 201.408 26.3725C201.085 27.2305 200.924 28.2414 200.924 29.4052ZM234.606 25.2002L229.636 25.506C229.551 25.0812 229.368 24.6989 229.088 24.3591C228.808 24.0109 228.438 23.7348 227.98 23.5309C227.529 23.3185 226.99 23.2123 226.361 23.2123C225.52 23.2123 224.811 23.3907 224.233 23.7475C223.656 24.0958 223.367 24.563 223.367 25.1492C223.367 25.6164 223.554 26.0114 223.927 26.3342C224.301 26.657 224.943 26.9161 225.852 27.1115L229.394 27.8251C231.297 28.2159 232.715 28.8445 233.65 29.711C234.584 30.5775 235.052 31.7158 235.052 33.126C235.052 34.4087 234.674 35.5343 233.918 36.5027C233.17 37.4712 232.142 38.2272 230.834 38.7709C229.534 39.3061 228.035 39.5737 226.336 39.5737C223.745 39.5737 221.68 39.0342 220.143 37.9554C218.614 36.868 217.718 35.3899 217.454 33.521L222.793 33.2407C222.955 34.0307 223.345 34.6338 223.966 35.0501C224.586 35.4579 225.38 35.6617 226.348 35.6617C227.3 35.6617 228.064 35.4791 228.642 35.1138C229.228 34.74 229.526 34.2601 229.534 33.6739C229.526 33.1812 229.317 32.7777 228.91 32.4634C228.502 32.1406 227.873 31.8942 227.024 31.7243L223.634 31.049C221.723 30.6667 220.3 30.0041 219.366 29.0611C218.44 28.1182 217.977 26.9161 217.977 25.455C217.977 24.1977 218.316 23.1146 218.996 22.2057C219.684 21.2967 220.648 20.5959 221.889 20.1032C223.137 19.6104 224.599 19.3641 226.272 19.3641C228.744 19.3641 230.689 19.8865 232.108 20.9314C233.535 21.9763 234.368 23.3992 234.606 25.2002Z" fill="url(#paint1_linear_564_239)"/>
<defs>
<linearGradient id="paint0_linear_564_239" x1="23.0601" y1="6.24853" x2="23.0095" y2="49.1068" gradientUnits="userSpaceOnUse">
<stop offset="1" stop-color="#A699EF"/>
</linearGradient>
<linearGradient id="paint1_linear_564_239" x1="149.652" y1="-2.47611" x2="149.634" y2="47.1915" gradientUnits="userSpaceOnUse">
<stop offset="1" stop-color="#A699EF"/>
</linearGradient>
</defs>
</svg>
