<svg width="444" height="479" viewBox="0 0 444 479" fill="none" xmlns="http://www.w3.org/2000/svg">
<path d="M13.8683 4.04191C15.2586 4.04191 16.4984 4.16375 17.5878 4.40741C18.6914 4.63675 19.7091 4.95208 20.6408 5.35341L19.2218 8.68591C18.4621 8.37058 17.6666 8.14125 16.8353 7.99791C16.0183 7.85458 15.1869 7.78291 14.3413 7.78291C12.8506 7.78291 11.7469 8.06958 11.0303 8.64291C10.3136 9.20191 9.95528 10.0906 9.95528 11.3089V15.3294H17.5448L17.0288 18.8769H9.95528L9.95528 36.3994H5.16078L5.16078 18.8769H0.000781506L0.000781506 15.3294H5.16078V11.2659C5.16078 9.83258 5.51912 8.57841 6.23578 7.50341C6.96678 6.41408 7.98445 5.56841 9.28878 4.96641C10.5931 4.35008 12.1196 4.04191 13.8683 4.04191ZM30.6645 13.6954V29.5624C30.6645 30.9097 30.9297 31.8701 31.46 32.4434C32.0047 33.0167 32.8217 33.3034 33.911 33.3034C34.943 33.3034 35.9392 32.9952 36.8995 32.3789C37.8598 31.7626 38.6195 31.0101 39.1785 30.1214V13.6954H43.9945V36.3994H39.845L39.544 33.4969C38.6983 34.6292 37.6305 35.4964 36.3405 36.0984C35.0505 36.6861 33.7318 36.9799 32.3845 36.9799C30.1915 36.9799 28.5503 36.3779 27.461 35.1739C26.386 33.9556 25.8485 32.2857 25.8485 30.1644V13.6954H30.6645ZM51.6317 36.3994V13.6954H55.7812L56.1467 16.6409C57.0927 15.4799 58.2107 14.5984 59.5007 13.9964C60.7907 13.3944 62.1165 13.0934 63.4782 13.0934C65.5995 13.0934 67.1834 13.6882 68.2297 14.8779C69.2904 16.0532 69.8207 17.7087 69.8207 19.8444V36.3994H65.0047V22.2309C65.0047 20.9122 64.9259 19.8516 64.7682 19.0489C64.6105 18.2462 64.2952 17.6657 63.8222 17.3074C63.3635 16.9491 62.6755 16.7699 61.7582 16.7699C61.0272 16.7699 60.332 16.9276 59.6727 17.2429C59.0134 17.5582 58.4114 17.9739 57.8667 18.4899C57.322 18.9916 56.849 19.5291 56.4477 20.1024V36.3994H51.6317ZM118.85 13.0934C119.71 13.0934 120.484 13.2797 121.172 13.6524C121.86 14.0251 122.398 14.6772 122.785 15.6089C123.186 16.5406 123.387 17.8449 123.387 19.5219V36.3994H119.108V20.1884C119.108 18.9987 119.022 18.1459 118.85 17.6299C118.692 17.1139 118.27 16.8559 117.582 16.8559C117.037 16.8559 116.485 17.0279 115.926 17.3719C115.367 17.7016 114.801 18.2749 114.228 19.0919V36.3994H110.336V20.1884C110.336 18.9987 110.25 18.1459 110.078 17.6299C109.92 17.1139 109.498 16.8559 108.81 16.8559C108.251 16.8559 107.692 17.0279 107.133 17.3719C106.588 17.7016 106.029 18.2749 105.456 19.0919V36.3994H101.156V13.6954H104.789L105.112 16.1464C105.757 15.2434 106.459 14.5124 107.219 13.9534C107.978 13.3801 108.896 13.0934 109.971 13.0934C110.831 13.0934 111.612 13.3084 112.314 13.7384C113.016 14.1684 113.532 14.9209 113.862 15.9959C114.493 15.1359 115.209 14.4407 116.012 13.9104C116.815 13.3657 117.761 13.0934 118.85 13.0934ZM146.332 30.8309C146.332 31.7196 146.468 32.3717 146.74 32.7874C147.013 33.1887 147.45 33.4897 148.052 33.6904L146.977 36.9584C145.859 36.8294 144.898 36.5212 144.096 36.0339C143.293 35.5466 142.684 34.8084 142.268 33.8194C141.437 34.8657 140.383 35.6541 139.108 36.1844C137.832 36.7147 136.47 36.9799 135.023 36.9799C132.729 36.9799 130.909 36.3349 129.562 35.0449C128.229 33.7406 127.562 32.0349 127.562 29.9279C127.562 27.5342 128.494 25.6924 130.357 24.4024C132.221 23.1124 134.887 22.4674 138.355 22.4674H141.602V20.9839C141.602 19.5219 141.157 18.4684 140.269 17.8234C139.394 17.1784 138.155 16.8559 136.549 16.8559C135.804 16.8559 134.901 16.9562 133.84 17.1569C132.78 17.3432 131.669 17.6371 130.508 18.0384L129.325 14.6414C130.744 14.1111 132.135 13.7241 133.496 13.4804C134.858 13.2224 136.119 13.0934 137.28 13.0934C140.319 13.0934 142.584 13.7671 144.074 15.1144C145.579 16.4617 146.332 18.3251 146.332 20.7044V30.8309ZM136.485 33.4324C137.459 33.4324 138.413 33.1744 139.344 32.6584C140.276 32.1424 141.028 31.4186 141.602 30.4869V25.4774H138.936C136.671 25.4774 135.051 25.8572 134.077 26.6169C133.102 27.3622 132.615 28.3942 132.615 29.7129C132.615 30.9169 132.937 31.8414 133.582 32.4864C134.242 33.1171 135.209 33.4324 136.485 33.4324ZM167.17 13.6954V32.8734H173.341V36.3994H155.56V32.8734H162.354V17.2214H155.775V13.6954H167.17ZM163.816 2.57991C164.762 2.57991 165.522 2.86658 166.095 3.43991C166.683 4.01325 166.977 4.72991 166.977 5.58991C166.977 6.44991 166.683 7.17375 166.095 7.76141C165.522 8.34908 164.762 8.64291 163.816 8.64291C162.899 8.64291 162.146 8.34908 161.559 7.76141C160.971 7.17375 160.677 6.44991 160.677 5.58991C160.677 4.72991 160.971 4.01325 161.559 3.43991C162.146 2.86658 162.899 2.57991 163.816 2.57991ZM180.548 36.3994V13.6954H184.697L185.063 16.6409C186.009 15.4799 187.127 14.5984 188.417 13.9964C189.707 13.3944 191.033 13.0934 192.394 13.0934C194.516 13.0934 196.099 13.6882 197.146 14.8779C198.206 16.0532 198.737 17.7087 198.737 19.8444V36.3994H193.921V22.2309C193.921 20.9122 193.842 19.8516 193.684 19.0489C193.527 18.2462 193.211 17.6657 192.738 17.3074C192.28 16.9491 191.592 16.7699 190.674 16.7699C189.943 16.7699 189.248 16.9276 188.589 17.2429C187.929 17.5582 187.327 17.9739 186.783 18.4899C186.238 18.9916 185.765 19.5291 185.364 20.1024V36.3994H180.548ZM212.437 21.3494C212.437 23.4134 212.602 25.2839 212.931 26.9609C213.275 28.6236 213.806 30.1787 214.522 31.6264C215.239 33.0597 216.149 34.4644 217.253 35.8404C218.371 37.2164 219.697 38.6426 221.23 40.1189L218.564 42.6989C216.257 40.7782 214.272 38.7859 212.609 36.7219C210.961 34.6722 209.692 32.4004 208.803 29.9064C207.915 27.4124 207.47 24.5601 207.47 21.3494C207.47 18.1244 207.915 15.2649 208.803 12.7709C209.692 10.2769 210.961 8.00508 212.609 5.95541C214.272 3.89141 216.257 1.90625 218.564 -8.76188e-05L221.23 2.57991C219.725 4.02758 218.414 5.43941 217.296 6.81541C216.192 8.17708 215.275 9.58175 214.544 11.0294C213.827 12.4771 213.297 14.0394 212.953 15.7164C212.609 17.3934 212.437 19.2711 212.437 21.3494ZM244.154 21.3494C244.154 19.2711 243.982 17.3934 243.638 15.7164C243.294 14.0394 242.757 12.4771 242.026 11.0294C241.309 9.58175 240.392 8.17708 239.274 6.81541C238.17 5.43941 236.866 4.02758 235.361 2.57991L238.027 -8.76188e-05C240.334 1.90625 242.312 3.89141 243.961 5.95541C245.623 8.00508 246.899 10.2769 247.788 12.7709C248.676 15.2649 249.121 18.1244 249.121 21.3494C249.121 24.5601 248.676 27.4124 247.788 29.9064C246.899 32.4004 245.623 34.6722 243.961 36.7219C242.312 38.7859 240.334 40.7782 238.027 42.6989L235.361 40.1189C236.894 38.6426 238.213 37.2164 239.317 35.8404C240.435 34.4644 241.352 33.0597 242.069 31.6264C242.785 30.1787 243.308 28.6236 243.638 26.9609C243.982 25.2839 244.154 23.4134 244.154 21.3494ZM299.505 0.408414V3.95591C298.53 3.95591 297.656 4.04908 296.882 4.23541C296.122 4.42175 295.534 4.74425 295.119 5.20291C294.717 5.66158 294.56 6.29941 294.646 7.11641L295.441 15.0069C295.584 16.3542 295.47 17.4651 295.097 18.3394C294.739 19.1994 294.158 19.8659 293.356 20.3389C292.553 20.8119 291.571 21.1487 290.41 21.3494C291.614 21.5501 292.617 21.8797 293.42 22.3384C294.223 22.7827 294.796 23.4349 295.14 24.2949C295.484 25.1549 295.584 26.2872 295.441 27.6919L294.646 35.5824C294.56 36.3994 294.717 37.0372 295.119 37.4959C295.534 37.9689 296.122 38.2914 296.882 38.4634C297.656 38.6497 298.53 38.7429 299.505 38.7429V42.2904C298.014 42.2904 296.659 42.1686 295.441 41.9249C294.237 41.6956 293.212 41.3086 292.367 40.7639C291.535 40.2192 290.926 39.4811 290.539 38.5494C290.166 37.6321 290.052 36.4926 290.195 35.1309L290.991 27.7134C291.091 26.6957 290.955 25.8644 290.582 25.2194C290.224 24.5601 289.572 24.0727 288.626 23.7574C287.68 23.4421 286.375 23.2844 284.713 23.2844V19.4144C286.361 19.4144 287.658 19.2639 288.604 18.9629C289.564 18.6476 290.224 18.1674 290.582 17.5224C290.955 16.8631 291.091 16.0246 290.991 15.0069L290.195 7.58941C290.052 6.21341 290.166 5.05958 290.539 4.12791C290.926 3.19625 291.535 2.46525 292.367 1.93491C293.212 1.39025 294.237 1.00325 295.441 0.773913C296.659 0.530247 298.014 0.408414 299.505 0.408414ZM94.7654 86.8309C94.7654 87.7196 94.9016 88.3717 95.1739 88.7874C95.4462 89.1887 95.8834 89.4897 96.4854 89.6904L95.4104 92.9584C94.2924 92.8294 93.3321 92.5212 92.5294 92.0339C91.7267 91.5466 91.1176 90.8084 90.7019 89.8194C89.8706 90.8657 88.8171 91.6541 87.5414 92.1844C86.2657 92.7147 84.9041 92.9799 83.4564 92.9799C81.1631 92.9799 79.3427 92.3349 77.9954 91.0449C76.6624 89.7406 75.9959 88.0349 75.9959 85.9279C75.9959 83.5342 76.9276 81.6924 78.7909 80.4024C80.6542 79.1124 83.3202 78.4674 86.7889 78.4674H90.0354V76.9839C90.0354 75.5219 89.5911 74.4684 88.7024 73.8234C87.8281 73.1784 86.5882 72.8559 84.9829 72.8559C84.2376 72.8559 83.3346 72.9562 82.2739 73.1569C81.2132 73.3432 80.1024 73.6371 78.9414 74.0384L77.7589 70.6414C79.1779 70.1111 80.5682 69.7241 81.9299 69.4804C83.2916 69.2224 84.5529 69.0934 85.7139 69.0934C88.7526 69.0934 91.0172 69.7671 92.5079 71.1144C94.0129 72.4617 94.7654 74.3251 94.7654 76.7044V86.8309ZM84.9184 89.4324C85.8931 89.4324 86.8462 89.1744 87.7779 88.6584C88.7096 88.1424 89.4621 87.4186 90.0354 86.4869V81.4774H87.3694C85.1047 81.4774 83.4851 81.8572 82.5104 82.6169C81.5357 83.3622 81.0484 84.3942 81.0484 85.7129C81.0484 86.9169 81.3709 87.8414 82.0159 88.4864C82.6752 89.1171 83.6427 89.4324 84.9184 89.4324ZM103.198 92.3994V69.6954H107.348L107.713 72.6409C108.659 71.4799 109.777 70.5984 111.067 69.9964C112.357 69.3944 113.683 69.0934 115.045 69.0934C117.166 69.0934 118.75 69.6882 119.796 70.8779C120.857 72.0532 121.387 73.7087 121.387 75.8444V92.3994H116.571V78.2309C116.571 76.9122 116.492 75.8516 116.335 75.0489C116.177 74.2462 115.862 73.6657 115.389 73.3074C114.93 72.9491 114.242 72.7699 113.325 72.7699C112.594 72.7699 111.898 72.9276 111.239 73.2429C110.58 73.5582 109.978 73.9739 109.433 74.4899C108.888 74.9916 108.415 75.5291 108.014 76.1024V92.3994H103.198ZM146.332 86.8309C146.332 87.7196 146.468 88.3717 146.74 88.7874C147.013 89.1887 147.45 89.4897 148.052 89.6904L146.977 92.9584C145.859 92.8294 144.898 92.5212 144.096 92.0339C143.293 91.5466 142.684 90.8084 142.268 89.8194C141.437 90.8657 140.383 91.6541 139.108 92.1844C137.832 92.7147 136.47 92.9799 135.023 92.9799C132.729 92.9799 130.909 92.3349 129.562 91.0449C128.229 89.7406 127.562 88.0349 127.562 85.9279C127.562 83.5342 128.494 81.6924 130.357 80.4024C132.221 79.1124 134.887 78.4674 138.355 78.4674H141.602V76.9839C141.602 75.5219 141.157 74.4684 140.269 73.8234C139.394 73.1784 138.155 72.8559 136.549 72.8559C135.804 72.8559 134.901 72.9562 133.84 73.1569C132.78 73.3432 131.669 73.6371 130.508 74.0384L129.325 70.6414C130.744 70.1111 132.135 69.7241 133.496 69.4804C134.858 69.2224 136.119 69.0934 137.28 69.0934C140.319 69.0934 142.584 69.7671 144.074 71.1144C145.579 72.4617 146.332 74.3251 146.332 76.7044V86.8309ZM136.485 89.4324C137.459 89.4324 138.413 89.1744 139.344 88.6584C140.276 88.1424 141.028 87.4186 141.602 86.4869V81.4774H138.936C136.671 81.4774 135.051 81.8572 134.077 82.6169C133.102 83.3622 132.615 84.3942 132.615 85.7129C132.615 86.9169 132.937 87.8414 133.582 88.4864C134.242 89.1171 135.209 89.4324 136.485 89.4324ZM164.741 60.5794V86.2074C164.741 87.2537 165.056 87.9991 165.687 88.4434C166.332 88.8734 167.163 89.0884 168.181 89.0884C168.84 89.0884 169.463 89.0167 170.051 88.8734C170.639 88.7301 171.212 88.5509 171.771 88.3359L172.997 91.6899C172.323 92.0339 171.492 92.3349 170.503 92.5929C169.528 92.8509 168.41 92.9799 167.149 92.9799C164.87 92.9799 163.092 92.3421 161.817 91.0664C160.555 89.7764 159.925 88.0134 159.925 85.7774V64.1269H153.066V60.5794H164.741ZM200.414 69.6954L192.588 92.4854C192 94.2054 191.248 95.7176 190.33 97.0219C189.413 98.3406 188.238 99.4012 186.804 100.204C185.371 101.007 183.594 101.501 181.472 101.687L180.849 98.0754C182.382 97.8317 183.601 97.4734 184.504 97.0004C185.421 96.5417 186.145 95.9326 186.675 95.1729C187.22 94.4132 187.7 93.4887 188.116 92.3994H186.482L178.828 69.6954H183.945L189.664 89.0454L195.469 69.6954H200.414ZM212.2 88.5294H224.348L223.832 92.3994H206.417V88.8734L218.5 73.5654H207.384V69.6954H224.197V73.2214L212.2 88.5294ZM236.113 82.5954C236.213 84.1434 236.543 85.4119 237.102 86.4009C237.661 87.3756 238.392 88.0922 239.295 88.5509C240.212 89.0096 241.216 89.2389 242.305 89.2389C243.423 89.2389 244.455 89.0669 245.401 88.7229C246.347 88.3789 247.3 87.8916 248.261 87.2609L250.346 90.1419C249.285 91.0019 248.046 91.6899 246.627 92.2059C245.208 92.7219 243.688 92.9799 242.069 92.9799C239.718 92.9799 237.726 92.4782 236.092 91.4749C234.472 90.4716 233.239 89.0741 232.394 87.2824C231.548 85.4907 231.125 83.4196 231.125 81.0689C231.125 78.7899 231.541 76.7546 232.372 74.9629C233.203 73.1569 234.393 71.7307 235.941 70.6844C237.489 69.6237 239.338 69.0934 241.488 69.0934C243.509 69.0934 245.243 69.5521 246.691 70.4694C248.153 71.3867 249.278 72.6911 250.067 74.3824C250.869 76.0594 251.271 78.0804 251.271 80.4454C251.271 80.8324 251.256 81.2194 251.228 81.6064C251.213 81.9791 251.192 82.3087 251.163 82.5954H236.113ZM241.531 72.6624C240.026 72.6624 238.779 73.1999 237.79 74.2749C236.815 75.3499 236.249 77.0269 236.092 79.3059H246.605C246.562 77.1702 246.103 75.5291 245.229 74.3824C244.369 73.2357 243.136 72.6624 241.531 72.6624ZM264.003 77.3494C264.003 79.4134 264.168 81.2839 264.498 82.9609C264.842 84.6236 265.372 86.1787 266.089 87.6264C266.805 89.0597 267.716 90.4644 268.819 91.8404C269.937 93.2164 271.263 94.6426 272.797 96.1189L270.131 98.6989C267.823 96.7782 265.838 94.7859 264.175 92.7219C262.527 90.6722 261.258 88.4004 260.37 85.9064C259.481 83.4124 259.037 80.5601 259.037 77.3494C259.037 74.1244 259.481 71.2649 260.37 68.7709C261.258 66.2769 262.527 64.0051 264.175 61.9554C265.838 59.8914 267.823 57.9062 270.131 55.9999L272.797 58.5799C271.292 60.0276 269.98 61.4394 268.862 62.8154C267.759 64.1771 266.841 65.5817 266.11 67.0294C265.394 68.4771 264.863 70.0394 264.519 71.7164C264.175 73.3934 264.003 75.2711 264.003 77.3494ZM295.721 77.3494C295.721 75.2711 295.549 73.3934 295.205 71.7164C294.861 70.0394 294.323 68.4771 293.592 67.0294C292.875 65.5817 291.958 64.1771 290.84 62.8154C289.736 61.4394 288.432 60.0276 286.927 58.5799L289.593 55.9999C291.901 57.9062 293.879 59.8914 295.527 61.9554C297.19 64.0051 298.465 66.2769 299.354 68.7709C300.243 71.2649 300.687 74.1244 300.687 77.3494C300.687 80.5601 300.243 83.4124 299.354 85.9064C298.465 88.4004 297.19 90.6722 295.527 92.7219C293.879 94.7859 291.901 96.7782 289.593 98.6989L286.927 96.1189C288.461 94.6426 289.779 93.2164 290.883 91.8404C292.001 90.4644 292.918 89.0597 293.635 87.6264C294.352 86.1787 294.875 84.6236 295.205 82.9609C295.549 81.2839 295.721 79.4134 295.721 77.3494ZM90.7449 127.042L95.5609 127.579V159.399H91.3254L90.9814 156.604C90.2074 157.679 89.2829 158.511 88.2079 159.098C87.1329 159.686 85.9289 159.98 84.5959 159.98C82.6466 159.98 81.0412 159.485 79.7799 158.496C78.5186 157.493 77.5797 156.096 76.9634 154.304C76.3614 152.498 76.0604 150.412 76.0604 148.047C76.0604 145.74 76.4187 143.69 77.1354 141.898C77.8521 140.092 78.8769 138.673 80.2099 137.641C81.5429 136.609 83.1482 136.093 85.0259 136.093C86.2156 136.093 87.2834 136.308 88.2294 136.738C89.1754 137.154 90.0139 137.763 90.7449 138.566V127.042ZM86.2944 139.791C84.6747 139.791 83.4134 140.465 82.5104 141.812C81.6074 143.145 81.1559 145.224 81.1559 148.047C81.1559 149.982 81.3422 151.559 81.7149 152.777C82.0876 153.981 82.6251 154.87 83.3274 155.443C84.0297 156.002 84.8754 156.282 85.8644 156.282C86.9537 156.282 87.8997 155.967 88.7024 155.336C89.5051 154.705 90.1859 153.946 90.7449 153.057V142.307C90.1859 141.504 89.5337 140.888 88.7884 140.458C88.0431 140.014 87.2117 139.791 86.2944 139.791ZM107.197 149.595C107.297 151.143 107.627 152.412 108.186 153.401C108.745 154.376 109.476 155.092 110.379 155.551C111.296 156.01 112.3 156.239 113.389 156.239C114.507 156.239 115.539 156.067 116.485 155.723C117.431 155.379 118.384 154.892 119.345 154.261L121.43 157.142C120.369 158.002 119.13 158.69 117.711 159.206C116.292 159.722 114.772 159.98 113.153 159.98C110.802 159.98 108.81 159.478 107.176 158.475C105.556 157.472 104.323 156.074 103.478 154.282C102.632 152.491 102.209 150.42 102.209 148.069C102.209 145.79 102.625 143.755 103.456 141.963C104.287 140.157 105.477 138.731 107.025 137.684C108.573 136.624 110.422 136.093 112.572 136.093C114.593 136.093 116.327 136.552 117.775 137.469C119.237 138.387 120.362 139.691 121.151 141.382C121.953 143.059 122.355 145.08 122.355 147.445C122.355 147.832 122.34 148.219 122.312 148.606C122.297 148.979 122.276 149.309 122.247 149.595H107.197ZM112.615 139.662C111.11 139.662 109.863 140.2 108.874 141.275C107.899 142.35 107.333 144.027 107.176 146.306H117.689C117.646 144.17 117.187 142.529 116.313 141.382C115.453 140.236 114.22 139.662 112.615 139.662ZM137.237 156.282C138.742 156.282 139.939 156.017 140.828 155.486C141.716 154.942 142.161 154.196 142.161 153.25C142.161 152.634 142.032 152.111 141.774 151.681C141.516 151.237 141 150.835 140.226 150.477C139.452 150.104 138.276 149.717 136.7 149.316C135.209 148.929 133.898 148.47 132.765 147.94C131.647 147.41 130.78 146.722 130.164 145.876C129.547 145.03 129.239 143.941 129.239 142.608C129.239 141.304 129.605 140.164 130.336 139.189C131.067 138.215 132.113 137.455 133.475 136.91C134.851 136.366 136.463 136.093 138.312 136.093C140.219 136.093 141.881 136.344 143.3 136.846C144.719 137.348 145.93 137.971 146.934 138.716L144.913 141.748C144.024 141.16 143.049 140.68 141.989 140.307C140.942 139.935 139.76 139.748 138.441 139.748C136.908 139.748 135.804 139.978 135.13 140.436C134.471 140.895 134.141 141.504 134.141 142.264C134.141 142.823 134.306 143.296 134.636 143.683C134.98 144.056 135.567 144.407 136.399 144.736C137.23 145.052 138.405 145.424 139.925 145.854C141.401 146.256 142.684 146.729 143.773 147.273C144.877 147.818 145.73 148.542 146.332 149.445C146.948 150.334 147.256 151.495 147.256 152.928C147.256 154.562 146.783 155.902 145.837 156.948C144.906 157.98 143.673 158.747 142.139 159.249C140.62 159.736 138.986 159.98 137.237 159.98C135.13 159.98 133.31 159.679 131.776 159.077C130.243 158.461 128.953 157.694 127.906 156.776L130.465 153.852C131.353 154.569 132.371 155.157 133.518 155.615C134.664 156.06 135.904 156.282 137.237 156.282ZM167.17 136.695V155.873H173.341V159.399H155.56V155.873H162.354V140.221H155.775V136.695H167.17ZM163.816 125.58C164.762 125.58 165.522 125.867 166.095 126.44C166.683 127.013 166.977 127.73 166.977 128.59C166.977 129.45 166.683 130.174 166.095 130.761C165.522 131.349 164.762 131.643 163.816 131.643C162.899 131.643 162.146 131.349 161.559 130.761C160.971 130.174 160.677 129.45 160.677 128.59C160.677 127.73 160.971 127.013 161.559 126.44C162.146 125.867 162.899 125.58 163.816 125.58ZM199.661 133.814L200.951 137.813C200.048 138.114 199.052 138.315 197.963 138.415C196.888 138.516 195.684 138.566 194.351 138.566C195.712 139.168 196.737 139.942 197.425 140.888C198.113 141.82 198.457 142.966 198.457 144.328C198.457 145.804 198.099 147.123 197.382 148.284C196.666 149.445 195.641 150.355 194.308 151.014C192.975 151.674 191.377 152.003 189.513 152.003C188.854 152.003 188.281 151.975 187.793 151.917C187.32 151.86 186.854 151.767 186.396 151.638C186.109 151.839 185.865 152.111 185.665 152.455C185.478 152.785 185.385 153.136 185.385 153.508C185.385 153.967 185.572 154.368 185.944 154.712C186.331 155.042 187.091 155.207 188.223 155.207H192.179C193.799 155.207 195.225 155.486 196.458 156.045C197.705 156.59 198.679 157.343 199.382 158.303C200.098 159.249 200.457 160.324 200.457 161.528C200.457 163.793 199.482 165.548 197.533 166.795C195.583 168.042 192.774 168.666 189.105 168.666C186.51 168.666 184.475 168.401 182.999 167.87C181.522 167.34 180.483 166.552 179.881 165.505C179.279 164.459 178.978 163.176 178.978 161.657H183.3C183.3 162.445 183.45 163.097 183.751 163.613C184.067 164.129 184.647 164.516 185.493 164.774C186.338 165.032 187.557 165.161 189.148 165.161C190.739 165.161 192 165.025 192.932 164.753C193.878 164.495 194.559 164.115 194.974 163.613C195.404 163.126 195.619 162.538 195.619 161.85C195.619 160.933 195.218 160.224 194.415 159.722C193.613 159.22 192.538 158.969 191.19 158.969H187.299C185.149 158.969 183.572 158.532 182.569 157.658C181.58 156.784 181.085 155.766 181.085 154.605C181.085 153.831 181.3 153.086 181.73 152.369C182.175 151.652 182.805 151.029 183.622 150.498C182.261 149.782 181.264 148.915 180.634 147.897C180.017 146.865 179.709 145.618 179.709 144.156C179.709 142.551 180.111 141.146 180.913 139.942C181.716 138.738 182.827 137.799 184.246 137.125C185.679 136.452 187.327 136.115 189.191 136.115C191.011 136.115 192.53 136.022 193.749 135.835C194.967 135.635 196.028 135.355 196.931 134.997C197.848 134.639 198.758 134.244 199.661 133.814ZM189.234 139.426C187.7 139.426 186.546 139.863 185.772 140.737C184.998 141.597 184.611 142.723 184.611 144.113C184.611 145.546 185.005 146.7 185.794 147.574C186.596 148.434 187.765 148.864 189.298 148.864C190.717 148.864 191.799 148.449 192.545 147.617C193.304 146.786 193.684 145.604 193.684 144.07C193.684 142.522 193.312 141.361 192.566 140.587C191.821 139.813 190.71 139.426 189.234 139.426ZM206.331 159.399V136.695H210.48L210.846 139.641C211.792 138.48 212.91 137.598 214.2 136.996C215.49 136.394 216.816 136.093 218.177 136.093C220.299 136.093 221.883 136.688 222.929 137.878C223.99 139.053 224.52 140.709 224.52 142.844V159.399H219.704V145.231C219.704 143.912 219.625 142.852 219.467 142.049C219.31 141.246 218.994 140.666 218.521 140.307C218.063 139.949 217.375 139.77 216.457 139.77C215.726 139.77 215.031 139.928 214.372 140.243C213.713 140.558 213.111 140.974 212.566 141.49C212.021 141.992 211.548 142.529 211.147 143.102V159.399H206.331ZM238.22 144.349C238.22 146.413 238.385 148.284 238.715 149.961C239.059 151.624 239.589 153.179 240.306 154.626C241.022 156.06 241.932 157.464 243.036 158.84C244.154 160.216 245.48 161.643 247.014 163.119L244.348 165.699C242.04 163.778 240.055 161.786 238.392 159.722C236.744 157.672 235.475 155.4 234.587 152.906C233.698 150.412 233.254 147.56 233.254 144.349C233.254 141.124 233.698 138.265 234.587 135.771C235.475 133.277 236.744 131.005 238.392 128.955C240.055 126.891 242.04 124.906 244.348 123L247.014 125.58C245.509 127.028 244.197 128.439 243.079 129.815C241.975 131.177 241.058 132.582 240.327 134.029C239.61 135.477 239.08 137.039 238.736 138.716C238.392 140.393 238.22 142.271 238.22 144.349ZM269.937 144.349C269.937 142.271 269.765 140.393 269.421 138.716C269.077 137.039 268.54 135.477 267.809 134.029C267.092 132.582 266.175 131.177 265.057 129.815C263.953 128.439 262.649 127.028 261.144 125.58L263.81 123C266.117 124.906 268.095 126.891 269.744 128.955C271.406 131.005 272.682 133.277 273.571 135.771C274.459 138.265 274.904 141.124 274.904 144.349C274.904 147.56 274.459 150.412 273.571 152.906C272.682 155.4 271.406 157.672 269.744 159.722C268.095 161.786 266.117 163.778 263.81 165.699L261.144 163.119C262.677 161.643 263.996 160.216 265.1 158.84C266.218 157.464 267.135 156.06 267.852 154.626C268.568 153.179 269.092 151.624 269.421 149.961C269.765 148.284 269.937 146.413 269.937 144.349ZM90.7449 183.042L95.5609 183.579V215.399H91.3254L90.9814 212.604C90.2074 213.679 89.2829 214.511 88.2079 215.098C87.1329 215.686 85.9289 215.98 84.5959 215.98C82.6466 215.98 81.0412 215.485 79.7799 214.496C78.5186 213.493 77.5797 212.096 76.9634 210.304C76.3614 208.498 76.0604 206.412 76.0604 204.047C76.0604 201.74 76.4187 199.69 77.1354 197.898C77.8521 196.092 78.8769 194.673 80.2099 193.641C81.5429 192.609 83.1482 192.093 85.0259 192.093C86.2156 192.093 87.2834 192.308 88.2294 192.738C89.1754 193.154 90.0139 193.763 90.7449 194.566V183.042ZM86.2944 195.791C84.6747 195.791 83.4134 196.465 82.5104 197.812C81.6074 199.145 81.1559 201.224 81.1559 204.047C81.1559 205.982 81.3422 207.559 81.7149 208.777C82.0876 209.981 82.6251 210.87 83.3274 211.443C84.0297 212.002 84.8754 212.282 85.8644 212.282C86.9537 212.282 87.8997 211.967 88.7024 211.336C89.5051 210.705 90.1859 209.946 90.7449 209.057V198.307C90.1859 197.504 89.5337 196.888 88.7884 196.458C88.0431 196.014 87.2117 195.791 86.2944 195.791ZM107.197 205.595C107.297 207.143 107.627 208.412 108.186 209.401C108.745 210.376 109.476 211.092 110.379 211.551C111.296 212.01 112.3 212.239 113.389 212.239C114.507 212.239 115.539 212.067 116.485 211.723C117.431 211.379 118.384 210.892 119.345 210.261L121.43 213.142C120.369 214.002 119.13 214.69 117.711 215.206C116.292 215.722 114.772 215.98 113.153 215.98C110.802 215.98 108.81 215.478 107.176 214.475C105.556 213.472 104.323 212.074 103.478 210.282C102.632 208.491 102.209 206.42 102.209 204.069C102.209 201.79 102.625 199.755 103.456 197.963C104.287 196.157 105.477 194.731 107.025 193.684C108.573 192.624 110.422 192.093 112.572 192.093C114.593 192.093 116.327 192.552 117.775 193.469C119.237 194.387 120.362 195.691 121.151 197.382C121.953 199.059 122.355 201.08 122.355 203.445C122.355 203.832 122.34 204.219 122.312 204.606C122.297 204.979 122.276 205.309 122.247 205.595H107.197ZM112.615 195.662C111.11 195.662 109.863 196.2 108.874 197.275C107.899 198.35 107.333 200.027 107.176 202.306H117.689C117.646 200.17 117.187 198.529 116.313 197.382C115.453 196.236 114.22 195.662 112.615 195.662ZM148.869 192.695L140.871 215.399H135.238L127.24 192.695H132.4L138.162 211.4L143.945 192.695H148.869ZM158.764 205.595C158.864 207.143 159.194 208.412 159.753 209.401C160.312 210.376 161.043 211.092 161.946 211.551C162.863 212.01 163.866 212.239 164.956 212.239C166.074 212.239 167.106 212.067 168.052 211.723C168.998 211.379 169.951 210.892 170.911 210.261L172.997 213.142C171.936 214.002 170.696 214.69 169.277 215.206C167.858 215.722 166.339 215.98 164.719 215.98C162.368 215.98 160.376 215.478 158.742 214.475C157.122 213.472 155.89 212.074 155.044 210.282C154.198 208.491 153.775 206.42 153.775 204.069C153.775 201.79 154.191 199.755 155.023 197.963C155.854 196.157 157.044 194.731 158.592 193.684C160.14 192.624 161.989 192.093 164.139 192.093C166.16 192.093 167.894 192.552 169.342 193.469C170.804 194.387 171.929 195.691 172.717 197.382C173.52 199.059 173.921 201.08 173.921 203.445C173.921 203.832 173.907 204.219 173.878 204.606C173.864 204.979 173.842 205.309 173.814 205.595H158.764ZM164.182 195.662C162.677 195.662 161.43 196.2 160.441 197.275C159.466 198.35 158.9 200.027 158.742 202.306H169.256C169.213 200.17 168.754 198.529 167.88 197.382C167.02 196.236 165.787 195.662 164.182 195.662ZM190.524 183.579V209.207C190.524 210.254 190.839 210.999 191.47 211.443C192.115 211.873 192.946 212.088 193.964 212.088C194.623 212.088 195.247 212.017 195.834 211.873C196.422 211.73 196.995 211.551 197.554 211.336L198.78 214.69C198.106 215.034 197.275 215.335 196.286 215.593C195.311 215.851 194.193 215.98 192.932 215.98C190.653 215.98 188.875 215.342 187.6 214.066C186.338 212.776 185.708 211.013 185.708 208.777V187.127H178.849V183.579H190.524ZM215.425 192.093C217.647 192.093 219.518 192.588 221.037 193.577C222.556 194.566 223.703 195.949 224.477 197.726C225.265 199.504 225.659 201.596 225.659 204.004C225.659 206.398 225.258 208.498 224.455 210.304C223.667 212.096 222.506 213.493 220.972 214.496C219.453 215.485 217.597 215.98 215.404 215.98C213.211 215.98 211.348 215.5 209.814 214.539C208.295 213.565 207.134 212.182 206.331 210.39C205.543 208.598 205.148 206.484 205.148 204.047C205.148 201.682 205.543 199.604 206.331 197.812C207.134 196.021 208.302 194.623 209.835 193.62C211.369 192.602 213.232 192.093 215.425 192.093ZM215.425 195.834C213.691 195.834 212.387 196.501 211.512 197.834C210.638 199.153 210.201 201.224 210.201 204.047C210.201 206.857 210.631 208.928 211.491 210.261C212.365 211.594 213.67 212.26 215.404 212.26C217.138 212.26 218.435 211.594 219.295 210.261C220.17 208.928 220.607 206.842 220.607 204.004C220.607 201.209 220.177 199.153 219.317 197.834C218.457 196.501 217.16 195.834 215.425 195.834ZM243.187 192.093C245.193 192.093 246.799 192.588 248.003 193.577C249.207 194.552 250.081 195.935 250.626 197.726C251.17 199.504 251.443 201.596 251.443 204.004C251.443 206.312 251.113 208.369 250.454 210.175C249.794 211.981 248.812 213.4 247.508 214.432C246.218 215.464 244.613 215.98 242.692 215.98C240.313 215.98 238.392 215.141 236.93 213.464V224.128L232.114 224.666V192.695H236.307L236.608 195.619C237.468 194.444 238.464 193.563 239.596 192.975C240.743 192.387 241.94 192.093 243.187 192.093ZM241.854 195.813C240.779 195.813 239.833 196.135 239.016 196.78C238.199 197.425 237.503 198.185 236.93 199.059V209.68C237.475 210.497 238.12 211.128 238.865 211.572C239.625 212.002 240.478 212.217 241.424 212.217C243.043 212.217 244.276 211.565 245.122 210.261C245.967 208.957 246.39 206.878 246.39 204.026C246.39 202.091 246.218 200.521 245.874 199.317C245.544 198.099 245.043 197.21 244.369 196.651C243.71 196.092 242.871 195.813 241.854 195.813ZM264.003 200.349C264.003 202.413 264.168 204.284 264.498 205.961C264.842 207.624 265.372 209.179 266.089 210.626C266.805 212.06 267.716 213.464 268.819 214.84C269.937 216.216 271.263 217.643 272.797 219.119L270.131 221.699C267.823 219.778 265.838 217.786 264.175 215.722C262.527 213.672 261.258 211.4 260.37 208.906C259.481 206.412 259.037 203.56 259.037 200.349C259.037 197.124 259.481 194.265 260.37 191.771C261.258 189.277 262.527 187.005 264.175 184.955C265.838 182.891 267.823 180.906 270.131 179L272.797 181.58C271.292 183.028 269.98 184.439 268.862 185.815C267.759 187.177 266.841 188.582 266.11 190.029C265.394 191.477 264.863 193.039 264.519 194.716C264.175 196.393 264.003 198.271 264.003 200.349ZM295.721 200.349C295.721 198.271 295.549 196.393 295.205 194.716C294.861 193.039 294.323 191.477 293.592 190.029C292.875 188.582 291.958 187.177 290.84 185.815C289.736 184.439 288.432 183.028 286.927 181.58L289.593 179C291.901 180.906 293.879 182.891 295.527 184.955C297.19 187.005 298.465 189.277 299.354 191.771C300.243 194.265 300.687 197.124 300.687 200.349C300.687 203.56 300.243 206.412 299.354 208.906C298.465 211.4 297.19 213.672 295.527 215.722C293.879 217.786 291.901 219.778 289.593 221.699L286.927 219.119C288.461 217.643 289.779 216.216 290.883 214.84C292.001 213.464 292.918 212.06 293.635 210.626C294.352 209.179 294.875 207.624 295.205 205.961C295.549 204.284 295.721 202.413 295.721 200.349ZM96.3779 281.195C95.5466 281.726 94.5504 282.156 93.3894 282.485C92.2284 282.815 91.0172 282.98 89.7559 282.98C87.1186 282.98 85.1119 282.299 83.7359 280.937C82.3742 279.561 81.6934 277.755 81.6934 275.519V263.2H76.6409V259.695H81.6934V254.621L86.5094 254.041V259.695H94.1634L93.6259 263.2H86.5094V275.476C86.5094 276.695 86.8104 277.605 87.4124 278.207C88.0287 278.795 89.0321 279.088 90.4224 279.088C91.2537 279.088 92.0206 278.988 92.7229 278.787C93.4252 278.587 94.0631 278.329 94.6364 278.013L96.3779 281.195ZM107.197 272.595C107.297 274.143 107.627 275.412 108.186 276.401C108.745 277.376 109.476 278.092 110.379 278.551C111.296 279.01 112.3 279.239 113.389 279.239C114.507 279.239 115.539 279.067 116.485 278.723C117.431 278.379 118.384 277.892 119.345 277.261L121.43 280.142C120.369 281.002 119.13 281.69 117.711 282.206C116.292 282.722 114.772 282.98 113.153 282.98C110.802 282.98 108.81 282.478 107.176 281.475C105.556 280.472 104.323 279.074 103.478 277.282C102.632 275.491 102.209 273.42 102.209 271.069C102.209 268.79 102.625 266.755 103.456 264.963C104.287 263.157 105.477 261.731 107.025 260.684C108.573 259.624 110.422 259.093 112.572 259.093C114.593 259.093 116.327 259.552 117.775 260.469C119.237 261.387 120.362 262.691 121.151 264.382C121.953 266.059 122.355 268.08 122.355 270.445C122.355 270.832 122.34 271.219 122.312 271.606C122.297 271.979 122.276 272.309 122.247 272.595H107.197ZM112.615 262.662C111.11 262.662 109.863 263.2 108.874 264.275C107.899 265.35 107.333 267.027 107.176 269.306H117.689C117.646 267.17 117.187 265.529 116.313 264.382C115.453 263.236 114.22 262.662 112.615 262.662ZM137.237 279.282C138.742 279.282 139.939 279.017 140.828 278.486C141.716 277.942 142.161 277.196 142.161 276.25C142.161 275.634 142.032 275.111 141.774 274.681C141.516 274.237 141 273.835 140.226 273.477C139.452 273.104 138.276 272.717 136.7 272.316C135.209 271.929 133.898 271.47 132.765 270.94C131.647 270.41 130.78 269.722 130.164 268.876C129.547 268.03 129.239 266.941 129.239 265.608C129.239 264.304 129.605 263.164 130.336 262.189C131.067 261.215 132.113 260.455 133.475 259.91C134.851 259.366 136.463 259.093 138.312 259.093C140.219 259.093 141.881 259.344 143.3 259.846C144.719 260.348 145.93 260.971 146.934 261.716L144.913 264.748C144.024 264.16 143.049 263.68 141.989 263.307C140.942 262.935 139.76 262.748 138.441 262.748C136.908 262.748 135.804 262.978 135.13 263.436C134.471 263.895 134.141 264.504 134.141 265.264C134.141 265.823 134.306 266.296 134.636 266.683C134.98 267.056 135.567 267.407 136.399 267.736C137.23 268.052 138.405 268.424 139.925 268.854C141.401 269.256 142.684 269.729 143.773 270.273C144.877 270.818 145.73 271.542 146.332 272.445C146.948 273.334 147.256 274.495 147.256 275.928C147.256 277.562 146.783 278.902 145.837 279.948C144.906 280.98 143.673 281.747 142.139 282.249C140.62 282.736 138.986 282.98 137.237 282.98C135.13 282.98 133.31 282.679 131.776 282.077C130.243 281.461 128.953 280.694 127.906 279.776L130.465 276.852C131.353 277.569 132.371 278.157 133.518 278.615C134.664 279.06 135.904 279.282 137.237 279.282ZM173.728 281.195C172.896 281.726 171.9 282.156 170.739 282.485C169.578 282.815 168.367 282.98 167.106 282.98C164.468 282.98 162.462 282.299 161.086 280.937C159.724 279.561 159.043 277.755 159.043 275.519V263.2H153.991V259.695H159.043V254.621L163.859 254.041V259.695H171.513L170.976 263.2H163.859V275.476C163.859 276.695 164.16 277.605 164.762 278.207C165.378 278.795 166.382 279.088 167.772 279.088C168.603 279.088 169.37 278.988 170.073 278.787C170.775 278.587 171.413 278.329 171.986 278.013L173.728 281.195ZM186.654 267.349C186.654 269.413 186.819 271.284 187.148 272.961C187.492 274.624 188.023 276.179 188.739 277.626C189.456 279.06 190.366 280.464 191.47 281.84C192.588 283.216 193.914 284.643 195.447 286.119L192.781 288.699C190.474 286.778 188.488 284.786 186.826 282.722C185.177 280.672 183.909 278.4 183.02 275.906C182.132 273.412 181.687 270.56 181.687 267.349C181.687 264.124 182.132 261.265 183.02 258.771C183.909 256.277 185.177 254.005 186.826 251.955C188.488 249.891 190.474 247.906 192.781 246L195.447 248.58C193.942 250.028 192.631 251.439 191.513 252.815C190.409 254.177 189.492 255.582 188.761 257.029C188.044 258.477 187.514 260.039 187.17 261.716C186.826 263.393 186.654 265.271 186.654 267.349ZM218.371 267.349C218.371 265.271 218.199 263.393 217.855 261.716C217.511 260.039 216.973 258.477 216.242 257.029C215.526 255.582 214.608 254.177 213.49 252.815C212.387 251.439 211.082 250.028 209.577 248.58L212.243 246C214.551 247.906 216.529 249.891 218.177 251.955C219.84 254.005 221.116 256.277 222.004 258.771C222.893 261.265 223.337 264.124 223.337 267.349C223.337 270.56 222.893 273.412 222.004 275.906C221.116 278.4 219.84 280.672 218.177 282.722C216.529 284.786 214.551 286.778 212.243 288.699L209.577 286.119C211.111 284.643 212.43 283.216 213.533 281.84C214.651 280.464 215.569 279.06 216.285 277.626C217.002 276.179 217.525 274.624 217.855 272.961C218.199 271.284 218.371 269.413 218.371 267.349ZM4.06898 353.979L0.241984 352.259L18.517 314.483L22.301 316.268L4.06898 353.979ZM25.569 353.979L21.742 352.259L40.017 314.483L43.801 316.268L25.569 353.979ZM65.4347 317.042C66.825 317.042 68.0649 317.164 69.1542 317.407C70.2579 317.637 71.2755 317.952 72.2072 318.353L70.7882 321.686C70.0285 321.371 69.233 321.141 68.4017 320.998C67.5847 320.855 66.7534 320.783 65.9077 320.783C64.417 320.783 63.3134 321.07 62.5967 321.643C61.88 322.202 61.5217 323.091 61.5217 324.309V328.329H69.1112L68.5952 331.877H61.5217V349.399H56.7272V331.877H51.5672V328.329H56.7272V324.266C56.7272 322.833 57.0855 321.578 57.8022 320.503C58.5332 319.414 59.5509 318.568 60.8552 317.966C62.1595 317.35 63.686 317.042 65.4347 317.042ZM89.8204 328.329V345.873H95.9909V349.399H78.2104V345.873H85.0044V331.877H78.4254V328.329H89.8204ZM86.4664 316.956C87.4124 316.956 88.1721 317.25 88.7454 317.837C89.3331 318.411 89.6269 319.12 89.6269 319.966C89.6269 320.84 89.3331 321.571 88.7454 322.159C88.1721 322.747 87.4124 323.04 86.4664 323.04C85.5491 323.04 84.7966 322.747 84.2089 322.159C83.6212 321.571 83.3274 320.84 83.3274 319.966C83.3274 319.12 83.6212 318.411 84.2089 317.837C84.7966 317.25 85.5491 316.956 86.4664 316.956ZM106.552 349.399H101.22L109.369 337.424L102.123 326.695H107.67L112.314 334.693L116.958 326.695H122.247L115.152 337.23L123.322 349.399H117.668L112.099 340.133L106.552 349.399ZM163.021 346.282C164.526 346.282 165.722 346.017 166.611 345.486C167.5 344.942 167.944 344.196 167.944 343.25C167.944 342.634 167.815 342.111 167.557 341.681C167.299 341.237 166.783 340.835 166.009 340.477C165.235 340.104 164.06 339.717 162.483 339.316C160.992 338.929 159.681 338.47 158.549 337.94C157.431 337.41 156.563 336.722 155.947 335.876C155.331 335.03 155.023 333.941 155.023 332.608C155.023 331.304 155.388 330.164 156.119 329.189C156.85 328.215 157.896 327.455 159.258 326.91C160.634 326.366 162.247 326.093 164.096 326.093C166.002 326.093 167.665 326.344 169.084 326.846C170.503 327.348 171.714 327.971 172.717 328.716L170.696 331.748C169.807 331.16 168.833 330.68 167.772 330.307C166.726 329.935 165.543 329.748 164.225 329.748C162.691 329.748 161.587 329.978 160.914 330.436C160.254 330.895 159.925 331.504 159.925 332.264C159.925 332.823 160.089 333.296 160.419 333.683C160.763 334.056 161.351 334.407 162.182 334.736C163.013 335.052 164.189 335.424 165.708 335.854C167.184 336.256 168.467 336.729 169.557 337.273C170.66 337.818 171.513 338.542 172.115 339.445C172.731 340.334 173.039 341.495 173.039 342.928C173.039 344.562 172.567 345.902 171.621 346.948C170.689 347.98 169.456 348.747 167.923 349.249C166.403 349.736 164.769 349.98 163.021 349.98C160.914 349.98 159.093 349.679 157.56 349.077C156.026 348.461 154.736 347.694 153.69 346.776L156.248 343.852C157.137 344.569 158.154 345.157 159.301 345.615C160.448 346.06 161.688 346.282 163.021 346.282ZM189.642 326.093C191.864 326.093 193.734 326.588 195.254 327.577C196.773 328.566 197.92 329.949 198.694 331.726C199.482 333.504 199.876 335.596 199.876 338.004C199.876 340.398 199.475 342.498 198.672 344.304C197.884 346.096 196.723 347.493 195.189 348.496C193.67 349.485 191.814 349.98 189.621 349.98C187.428 349.98 185.564 349.5 184.031 348.539C182.511 347.565 181.35 346.182 180.548 344.39C179.759 342.598 179.365 340.484 179.365 338.047C179.365 335.682 179.759 333.604 180.548 331.812C181.35 330.021 182.519 328.623 184.052 327.62C185.586 326.602 187.449 326.093 189.642 326.093ZM189.642 329.834C187.908 329.834 186.604 330.501 185.729 331.834C184.855 333.153 184.418 335.224 184.418 338.047C184.418 340.857 184.848 342.928 185.708 344.261C186.582 345.594 187.886 346.26 189.621 346.26C191.355 346.26 192.652 345.594 193.512 344.261C194.387 342.928 194.824 340.842 194.824 338.004C194.824 335.209 194.394 333.153 193.534 331.834C192.674 330.501 191.377 329.834 189.642 329.834ZM221.983 326.093C222.843 326.093 223.617 326.28 224.305 326.652C224.993 327.025 225.53 327.677 225.917 328.609C226.319 329.541 226.519 330.845 226.519 332.522V349.399H222.241V333.188C222.241 331.999 222.155 331.146 221.983 330.63C221.825 330.114 221.402 329.856 220.714 329.856C220.17 329.856 219.618 330.028 219.059 330.372C218.5 330.702 217.934 331.275 217.36 332.092V349.399H213.469V333.188C213.469 331.999 213.383 331.146 213.211 330.63C213.053 330.114 212.63 329.856 211.942 329.856C211.383 329.856 210.824 330.028 210.265 330.372C209.721 330.702 209.162 331.275 208.588 332.092V349.399H204.288V326.695H207.922L208.244 329.146C208.889 328.243 209.592 327.512 210.351 326.953C211.111 326.38 212.028 326.093 213.103 326.093C213.963 326.093 214.745 326.308 215.447 326.738C216.149 327.168 216.665 327.921 216.995 328.996C217.626 328.136 218.342 327.441 219.145 326.91C219.948 326.366 220.894 326.093 221.983 326.093ZM236.113 339.595C236.213 341.143 236.543 342.412 237.102 343.401C237.661 344.376 238.392 345.092 239.295 345.551C240.212 346.01 241.216 346.239 242.305 346.239C243.423 346.239 244.455 346.067 245.401 345.723C246.347 345.379 247.3 344.892 248.261 344.261L250.346 347.142C249.285 348.002 248.046 348.69 246.627 349.206C245.208 349.722 243.688 349.98 242.069 349.98C239.718 349.98 237.726 349.478 236.092 348.475C234.472 347.472 233.239 346.074 232.394 344.282C231.548 342.491 231.125 340.42 231.125 338.069C231.125 335.79 231.541 333.755 232.372 331.963C233.203 330.157 234.393 328.731 235.941 327.684C237.489 326.624 239.338 326.093 241.488 326.093C243.509 326.093 245.243 326.552 246.691 327.469C248.153 328.387 249.278 329.691 250.067 331.382C250.869 333.059 251.271 335.08 251.271 337.445C251.271 337.832 251.256 338.219 251.228 338.606C251.213 338.979 251.192 339.309 251.163 339.595H236.113ZM241.531 329.662C240.026 329.662 238.779 330.2 237.79 331.275C236.815 332.35 236.249 334.027 236.092 336.306H246.605C246.562 334.17 246.103 332.529 245.229 331.382C244.369 330.236 243.136 329.662 241.531 329.662ZM288.497 329.404C289.285 328.372 290.202 327.563 291.249 326.975C292.309 326.387 293.47 326.093 294.732 326.093C296.724 326.093 298.336 326.588 299.569 327.577C300.816 328.552 301.726 329.935 302.3 331.726C302.887 333.504 303.181 335.596 303.181 338.004C303.181 340.312 302.837 342.369 302.149 344.175C301.461 345.981 300.443 347.4 299.096 348.432C297.763 349.464 296.115 349.98 294.151 349.98C291.614 349.98 289.622 349.041 288.174 347.163L287.916 349.399H283.681V317.579L288.497 317.042V329.404ZM292.947 346.303C294.581 346.303 295.842 345.637 296.731 344.304C297.634 342.971 298.086 340.878 298.086 338.026C298.086 336.091 297.906 334.521 297.548 333.317C297.19 332.099 296.659 331.21 295.957 330.651C295.269 330.092 294.423 329.813 293.42 329.813C292.345 329.813 291.399 330.135 290.582 330.78C289.765 331.425 289.07 332.185 288.497 333.059V343.68C289.027 344.497 289.665 345.142 290.41 345.615C291.17 346.074 292.015 346.303 292.947 346.303ZM314.28 326.695V342.562C314.28 343.91 314.545 344.87 315.075 345.443C315.62 346.017 316.437 346.303 317.526 346.303C318.558 346.303 319.554 345.995 320.515 345.379C321.475 344.763 322.235 344.01 322.794 343.121V326.695H327.61V349.399H323.46L323.159 346.497C322.314 347.629 321.246 348.496 319.956 349.098C318.666 349.686 317.347 349.98 316 349.98C313.807 349.98 312.166 349.378 311.076 348.174C310.001 346.956 309.464 345.286 309.464 343.164V326.695H314.28ZM354.36 323.814L355.65 327.813C354.747 328.114 353.751 328.315 352.662 328.415C351.587 328.516 350.383 328.566 349.05 328.566C350.412 329.168 351.436 329.942 352.124 330.888C352.812 331.82 353.156 332.966 353.156 334.328C353.156 335.804 352.798 337.123 352.081 338.284C351.365 339.445 350.34 340.355 349.007 341.014C347.674 341.674 346.076 342.003 344.212 342.003C343.553 342.003 342.98 341.975 342.492 341.917C342.019 341.86 341.554 341.767 341.095 341.638C340.808 341.839 340.565 342.111 340.364 342.455C340.178 342.785 340.084 343.136 340.084 343.508C340.084 343.967 340.271 344.368 340.643 344.712C341.03 345.042 341.79 345.207 342.922 345.207H346.878C348.498 345.207 349.924 345.486 351.157 346.045C352.404 346.59 353.379 347.343 354.081 348.303C354.798 349.249 355.156 350.324 355.156 351.528C355.156 353.793 354.181 355.548 352.232 356.795C350.283 358.042 347.473 358.666 343.804 358.666C341.21 358.666 339.174 358.401 337.698 357.87C336.222 357.34 335.182 356.552 334.58 355.505C333.978 354.459 333.677 353.176 333.677 351.657H337.999C337.999 352.445 338.149 353.097 338.45 353.613C338.766 354.129 339.346 354.516 340.192 354.774C341.038 355.032 342.256 355.161 343.847 355.161C345.438 355.161 346.699 355.025 347.631 354.753C348.577 354.495 349.258 354.115 349.673 353.613C350.103 353.126 350.318 352.538 350.318 351.85C350.318 350.933 349.917 350.224 349.114 349.722C348.312 349.22 347.237 348.969 345.889 348.969H341.998C339.848 348.969 338.271 348.532 337.268 347.658C336.279 346.784 335.784 345.766 335.784 344.605C335.784 343.831 335.999 343.086 336.429 342.369C336.874 341.652 337.504 341.029 338.321 340.498C336.96 339.782 335.964 338.915 335.333 337.897C334.717 336.865 334.408 335.618 334.408 334.156C334.408 332.551 334.81 331.146 335.612 329.942C336.415 328.738 337.526 327.799 338.945 327.125C340.378 326.452 342.027 326.115 343.89 326.115C345.71 326.115 347.23 326.022 348.448 325.835C349.666 325.635 350.727 325.355 351.63 324.997C352.547 324.639 353.457 324.244 354.36 323.814ZM343.933 329.426C342.399 329.426 341.245 329.863 340.471 330.737C339.697 331.597 339.31 332.723 339.31 334.113C339.31 335.546 339.705 336.7 340.493 337.574C341.296 338.434 342.464 338.864 343.997 338.864C345.416 338.864 346.499 338.449 347.244 337.617C348.004 336.786 348.383 335.604 348.383 334.07C348.383 332.522 348.011 331.361 347.265 330.587C346.52 329.813 345.409 329.426 343.933 329.426ZM369.286 346.282C370.791 346.282 371.988 346.017 372.877 345.486C373.765 344.942 374.21 344.196 374.21 343.25C374.21 342.634 374.081 342.111 373.823 341.681C373.565 341.237 373.049 340.835 372.275 340.477C371.501 340.104 370.325 339.717 368.749 339.316C367.258 338.929 365.946 338.47 364.814 337.94C363.696 337.41 362.829 336.722 362.213 335.876C361.596 335.03 361.288 333.941 361.288 332.608C361.288 331.304 361.654 330.164 362.385 329.189C363.116 328.215 364.162 327.455 365.524 326.91C366.9 326.366 368.512 326.093 370.361 326.093C372.267 326.093 373.93 326.344 375.349 326.846C376.768 327.348 377.979 327.971 378.983 328.716L376.962 331.748C376.073 331.16 375.098 330.68 374.038 330.307C372.991 329.935 371.809 329.748 370.49 329.748C368.956 329.748 367.853 329.978 367.179 330.436C366.52 330.895 366.19 331.504 366.19 332.264C366.19 332.823 366.355 333.296 366.685 333.683C367.029 334.056 367.616 334.407 368.448 334.736C369.279 335.052 370.454 335.424 371.974 335.854C373.45 336.256 374.733 336.729 375.822 337.273C376.926 337.818 377.779 338.542 378.381 339.445C378.997 340.334 379.305 341.495 379.305 342.928C379.305 344.562 378.832 345.902 377.886 346.948C376.954 347.98 375.722 348.747 374.188 349.249C372.669 349.736 371.035 349.98 369.286 349.98C367.179 349.98 365.359 349.679 363.825 349.077C362.291 348.461 361.001 347.694 359.955 346.776L362.514 343.852C363.402 344.569 364.42 345.157 365.567 345.615C366.713 346.06 367.953 346.282 369.286 346.282ZM417.525 345.809C417.525 345.035 417.711 344.34 418.084 343.723C418.442 343.093 418.937 342.591 419.567 342.218C420.198 341.846 420.9 341.659 421.674 341.659C422.463 341.659 423.172 341.846 423.803 342.218C424.433 342.591 424.935 343.093 425.308 343.723C425.666 344.34 425.845 345.035 425.845 345.809C425.845 346.569 425.666 347.271 425.308 347.916C424.935 348.547 424.433 349.048 423.803 349.421C423.172 349.794 422.463 349.98 421.674 349.98C420.9 349.98 420.198 349.794 419.567 349.421C418.937 349.048 418.442 348.547 418.084 347.916C417.711 347.271 417.525 346.569 417.525 345.809ZM434.725 345.809C434.725 345.035 434.904 344.34 435.262 343.723C435.635 343.093 436.137 342.591 436.767 342.218C437.398 341.846 438.1 341.659 438.874 341.659C439.663 341.659 440.372 341.846 441.003 342.218C441.633 342.591 442.128 343.093 442.486 343.723C442.859 344.34 443.045 345.035 443.045 345.809C443.045 346.569 442.859 347.271 442.486 347.916C442.128 348.547 441.633 349.048 441.003 349.421C440.372 349.794 439.663 349.98 438.874 349.98C438.1 349.98 437.398 349.794 436.767 349.421C436.137 349.048 435.635 348.547 435.262 347.916C434.904 347.271 434.725 346.569 434.725 345.809ZM400.325 345.809C400.325 345.035 400.511 344.34 400.884 343.723C401.242 343.093 401.737 342.591 402.367 342.218C402.998 341.846 403.7 341.659 404.474 341.659C405.263 341.659 405.972 341.846 406.603 342.218C407.233 342.591 407.735 343.093 408.108 343.723C408.466 344.34 408.645 345.035 408.645 345.809C408.645 346.569 408.466 347.271 408.108 347.916C407.735 348.547 407.233 349.048 406.603 349.421C405.972 349.794 405.263 349.98 404.474 349.98C403.7 349.98 402.998 349.794 402.367 349.421C401.737 349.048 401.242 348.547 400.884 347.916C400.511 347.271 400.325 346.569 400.325 345.809ZM77.6299 405.399V401.959H80.9624V386.114H77.6299V382.695H84.6389L85.5204 387.963C86.3661 386.057 87.4124 384.609 88.6594 383.62C89.9207 382.617 91.5404 382.115 93.5184 382.115C94.1921 382.115 94.7941 382.172 95.3244 382.287C95.8691 382.387 96.4066 382.523 96.9369 382.695L95.4964 386.823C95.0377 386.694 94.6077 386.601 94.2064 386.544C93.8051 386.472 93.3607 386.436 92.8734 386.436C91.2251 386.436 89.7989 387.053 88.5949 388.285C87.4052 389.518 86.4664 391.267 85.7784 393.531V401.959H90.3579V405.399H77.6299ZM92.6799 391.059V385.469L93.2819 382.695H96.9369L96.1199 391.059H92.6799ZM107.197 395.595C107.297 397.143 107.627 398.412 108.186 399.401C108.745 400.376 109.476 401.092 110.379 401.551C111.296 402.01 112.3 402.239 113.389 402.239C114.507 402.239 115.539 402.067 116.485 401.723C117.431 401.379 118.384 400.892 119.345 400.261L121.43 403.142C120.369 404.002 119.13 404.69 117.711 405.206C116.292 405.722 114.772 405.98 113.153 405.98C110.802 405.98 108.81 405.478 107.176 404.475C105.556 403.472 104.323 402.074 103.478 400.282C102.632 398.491 102.209 396.42 102.209 394.069C102.209 391.79 102.625 389.755 103.456 387.963C104.287 386.157 105.477 384.731 107.025 383.684C108.573 382.624 110.422 382.093 112.572 382.093C114.593 382.093 116.327 382.552 117.775 383.469C119.237 384.387 120.362 385.691 121.151 387.382C121.953 389.059 122.355 391.08 122.355 393.445C122.355 393.832 122.34 394.219 122.312 394.606C122.297 394.979 122.276 395.309 122.247 395.595H107.197ZM112.615 385.662C111.11 385.662 109.863 386.2 108.874 387.275C107.899 388.35 107.333 390.027 107.176 392.306H117.689C117.646 390.17 117.187 388.529 116.313 387.382C115.453 386.236 114.22 385.662 112.615 385.662ZM138.957 373.579V399.207C138.957 400.254 139.273 400.999 139.903 401.443C140.548 401.873 141.38 402.088 142.397 402.088C143.057 402.088 143.68 402.017 144.268 401.873C144.855 401.73 145.429 401.551 145.988 401.336L147.213 404.69C146.54 405.034 145.708 405.335 144.719 405.593C143.745 405.851 142.627 405.98 141.365 405.98C139.086 405.98 137.309 405.342 136.033 404.066C134.772 402.776 134.141 401.013 134.141 398.777V377.127H127.283V373.579H138.957ZM158.764 395.595C158.864 397.143 159.194 398.412 159.753 399.401C160.312 400.376 161.043 401.092 161.946 401.551C162.863 402.01 163.866 402.239 164.956 402.239C166.074 402.239 167.106 402.067 168.052 401.723C168.998 401.379 169.951 400.892 170.911 400.261L172.997 403.142C171.936 404.002 170.696 404.69 169.277 405.206C167.858 405.722 166.339 405.98 164.719 405.98C162.368 405.98 160.376 405.478 158.742 404.475C157.122 403.472 155.89 402.074 155.044 400.282C154.198 398.491 153.775 396.42 153.775 394.069C153.775 391.79 154.191 389.755 155.023 387.963C155.854 386.157 157.044 384.731 158.592 383.684C160.14 382.624 161.989 382.093 164.139 382.093C166.16 382.093 167.894 382.552 169.342 383.469C170.804 384.387 171.929 385.691 172.717 387.382C173.52 389.059 173.921 391.08 173.921 393.445C173.921 393.832 173.907 394.219 173.878 394.606C173.864 394.979 173.842 395.309 173.814 395.595H158.764ZM164.182 385.662C162.677 385.662 161.43 386.2 160.441 387.275C159.466 388.35 158.9 390.027 158.742 392.306H169.256C169.213 390.17 168.754 388.529 167.88 387.382C167.02 386.236 165.787 385.662 164.182 385.662ZM197.898 399.831C197.898 400.72 198.034 401.372 198.307 401.787C198.579 402.189 199.016 402.49 199.618 402.69L198.543 405.958C197.425 405.829 196.465 405.521 195.662 405.034C194.86 404.547 194.25 403.808 193.835 402.819C193.003 403.866 191.95 404.654 190.674 405.184C189.399 405.715 188.037 405.98 186.589 405.98C184.296 405.98 182.476 405.335 181.128 404.045C179.795 402.741 179.129 401.035 179.129 398.928C179.129 396.534 180.06 394.692 181.924 393.402C183.787 392.112 186.453 391.467 189.922 391.467H193.168V389.984C193.168 388.522 192.724 387.468 191.835 386.823C190.961 386.178 189.721 385.856 188.116 385.856C187.37 385.856 186.467 385.956 185.407 386.157C184.346 386.343 183.235 386.637 182.074 387.038L180.892 383.641C182.311 383.111 183.701 382.724 185.063 382.48C186.424 382.222 187.686 382.093 188.847 382.093C191.885 382.093 194.15 382.767 195.641 384.114C197.146 385.462 197.898 387.325 197.898 389.704V399.831ZM188.051 402.432C189.026 402.432 189.979 402.174 190.911 401.658C191.842 401.142 192.595 400.419 193.168 399.487V394.477H190.502C188.238 394.477 186.618 394.857 185.643 395.617C184.669 396.362 184.181 397.394 184.181 398.713C184.181 399.917 184.504 400.841 185.149 401.486C185.808 402.117 186.776 402.432 188.051 402.432ZM214.587 402.282C216.092 402.282 217.289 402.017 218.177 401.486C219.066 400.942 219.51 400.196 219.51 399.25C219.51 398.634 219.381 398.111 219.123 397.681C218.865 397.237 218.349 396.835 217.575 396.477C216.801 396.104 215.626 395.717 214.049 395.316C212.559 394.929 211.247 394.47 210.115 393.94C208.997 393.41 208.13 392.722 207.513 391.876C206.897 391.03 206.589 389.941 206.589 388.608C206.589 387.304 206.954 386.164 207.685 385.189C208.416 384.215 209.463 383.455 210.824 382.91C212.2 382.366 213.813 382.093 215.662 382.093C217.568 382.093 219.231 382.344 220.65 382.846C222.069 383.348 223.28 383.971 224.283 384.716L222.262 387.748C221.374 387.16 220.399 386.68 219.338 386.307C218.292 385.935 217.11 385.748 215.791 385.748C214.257 385.748 213.154 385.978 212.48 386.436C211.821 386.895 211.491 387.504 211.491 388.264C211.491 388.823 211.656 389.296 211.985 389.683C212.329 390.056 212.917 390.407 213.748 390.736C214.58 391.052 215.755 391.424 217.274 391.854C218.751 392.256 220.034 392.729 221.123 393.273C222.227 393.818 223.079 394.542 223.681 395.445C224.298 396.334 224.606 397.495 224.606 398.928C224.606 400.562 224.133 401.902 223.187 402.948C222.255 403.98 221.023 404.747 219.489 405.249C217.97 405.736 216.336 405.98 214.587 405.98C212.48 405.98 210.66 405.679 209.126 405.077C207.592 404.461 206.302 403.694 205.256 402.776L207.814 399.852C208.703 400.569 209.721 401.157 210.867 401.615C212.014 402.06 213.254 402.282 214.587 402.282ZM236.113 395.595C236.213 397.143 236.543 398.412 237.102 399.401C237.661 400.376 238.392 401.092 239.295 401.551C240.212 402.01 241.216 402.239 242.305 402.239C243.423 402.239 244.455 402.067 245.401 401.723C246.347 401.379 247.3 400.892 248.261 400.261L250.346 403.142C249.285 404.002 248.046 404.69 246.627 405.206C245.208 405.722 243.688 405.98 242.069 405.98C239.718 405.98 237.726 405.478 236.092 404.475C234.472 403.472 233.239 402.074 232.394 400.282C231.548 398.491 231.125 396.42 231.125 394.069C231.125 391.79 231.541 389.755 232.372 387.963C233.203 386.157 234.393 384.731 235.941 383.684C237.489 382.624 239.338 382.093 241.488 382.093C243.509 382.093 245.243 382.552 246.691 383.469C248.153 384.387 249.278 385.691 250.067 387.382C250.869 389.059 251.271 391.08 251.271 393.445C251.271 393.832 251.256 394.219 251.228 394.606C251.213 394.979 251.192 395.309 251.163 395.595H236.113ZM241.531 385.662C240.026 385.662 238.779 386.2 237.79 387.275C236.815 388.35 236.249 390.027 236.092 392.306H246.605C246.562 390.17 246.103 388.529 245.229 387.382C244.369 386.236 243.136 385.662 241.531 385.662ZM264.003 390.349C264.003 392.413 264.168 394.284 264.498 395.961C264.842 397.624 265.372 399.179 266.089 400.626C266.805 402.06 267.716 403.464 268.819 404.84C269.937 406.216 271.263 407.643 272.797 409.119L270.131 411.699C267.823 409.778 265.838 407.786 264.175 405.722C262.527 403.672 261.258 401.4 260.37 398.906C259.481 396.412 259.037 393.56 259.037 390.349C259.037 387.124 259.481 384.265 260.37 381.771C261.258 379.277 262.527 377.005 264.175 374.955C265.838 372.891 267.823 370.906 270.131 369L272.797 371.58C271.292 373.028 269.98 374.439 268.862 375.815C267.759 377.177 266.841 378.582 266.11 380.029C265.394 381.477 264.863 383.039 264.519 384.716C264.175 386.393 264.003 388.271 264.003 390.349ZM295.721 390.349C295.721 388.271 295.549 386.393 295.205 384.716C294.861 383.039 294.323 381.477 293.592 380.029C292.875 378.582 291.958 377.177 290.84 375.815C289.736 374.439 288.432 373.028 286.927 371.58L289.593 369C291.901 370.906 293.879 372.891 295.527 374.955C297.19 377.005 298.465 379.277 299.354 381.771C300.243 384.265 300.687 387.124 300.687 390.349C300.687 393.56 300.243 396.412 299.354 398.906C298.465 401.4 297.19 403.672 295.527 405.722C293.879 407.786 291.901 409.778 289.593 411.699L286.927 409.119C288.461 407.643 289.779 406.216 290.883 404.84C292.001 403.464 292.918 402.06 293.635 400.626C294.352 399.179 294.875 397.624 295.205 395.961C295.549 394.284 295.721 392.413 295.721 390.349ZM2.38728 436.408C3.87795 436.408 5.22528 436.53 6.42928 436.774C7.64762 437.003 8.67245 437.39 9.50378 437.935C10.3494 438.48 10.9658 439.218 11.3528 440.149C11.7398 441.067 11.8544 442.206 11.6968 443.568L10.9013 451.007C10.8009 452.025 10.9514 452.863 11.3528 453.522C11.7684 454.167 12.4564 454.648 13.4168 454.963C14.3771 455.264 15.6313 455.414 17.1793 455.414V459.284C15.6313 459.284 14.3771 459.442 13.4168 459.757C12.4564 460.073 11.7684 460.56 11.3528 461.219C10.9514 461.864 10.8009 462.696 10.9013 463.713L11.6968 471.109C11.8401 472.485 11.7183 473.639 11.3313 474.571C10.9586 475.503 10.3494 476.234 9.50378 476.764C8.67245 477.309 7.64762 477.696 6.42928 477.925C5.22528 478.169 3.87795 478.29 2.38728 478.29V474.743C3.36195 474.743 4.22911 474.65 4.98878 474.463C5.76278 474.291 6.35045 473.969 6.75178 473.496C7.16745 473.037 7.33228 472.399 7.24628 471.582L6.45078 463.692C6.30745 462.287 6.41495 461.155 6.77328 460.295C7.14595 459.435 7.75512 458.783 8.60078 458.338C9.44645 457.88 10.5071 457.557 11.7828 457.371C10.5071 457.17 9.44645 456.833 8.60078 456.36C7.75512 455.873 7.14595 455.199 6.77328 454.339C6.41495 453.479 6.30745 452.369 6.45078 451.007L7.24628 443.116C7.33228 442.299 7.16745 441.662 6.75178 441.203C6.35045 440.744 5.76995 440.422 5.01028 440.235C4.25062 440.049 3.37628 439.956 2.38728 439.956V436.408Z" fill="url(#paint0_linear_633_175)"/>
<defs>
<linearGradient id="paint0_linear_633_175" x1="228.738" y1="-5.60059" x2="228.738" y2="486.399" gradientUnits="userSpaceOnUse">
<stop stop-color="#A699EF"/>
<stop offset="1" stop-color="#E0A453"/>
</linearGradient>
</defs>
</svg>
