<svg width="52" height="43" viewBox="0 0 52 43" fill="none" xmlns="http://www.w3.org/2000/svg">
<circle cx="25.5703" cy="11.5" r="11.5" fill="#A699EF"/>
<ellipse cx="40.5703" cy="11" rx="8.5" ry="9" fill="#A699EF" fill-opacity="0.5"/>
<ellipse cx="11.5703" cy="11" rx="8.5" ry="9" fill="#A699EF" fill-opacity="0.5"/>
<path d="M40.3799 22.7393C48.8091 22.7396 51.2266 32.7591 51.8008 36.124C51.9003 36.7071 51.444 37.2108 50.8525 37.2109H42.0215C40.8547 32.8412 38.6 27.8849 34.2363 25.0537C35.8056 23.6675 37.8143 22.7393 40.3799 22.7393Z" fill="#A699EF" fill-opacity="0.5"/>
<path d="M11.4346 22.7393C13.9999 22.7393 16.008 23.6677 17.5772 25.0537C13.2137 27.8849 10.9597 32.8414 9.79298 37.2109H0.961924C0.370328 37.2109 -0.08582 36.7072 0.0136816 36.124C0.58785 32.759 3.00524 22.7394 11.4346 22.7393Z" fill="#A699EF" fill-opacity="0.5"/>
<path d="M25.5703 26C37.9421 26 39.7579 38.3758 40.0245 42.0088C40.0649 42.5596 39.6226 43 39.0703 43H12.0703C11.518 43 11.0758 42.5596 11.1162 42.0088C11.3827 38.3758 13.1986 26 25.5703 26Z" fill="#A699EF"/>
</svg>
