<svg width="47" height="47" viewBox="0 0 47 47" fill="none" xmlns="http://www.w3.org/2000/svg">
<g clip-path="url(#clip0_610_175)">
<path d="M29.6567 1.24975C35.8801 3.70492 40.2835 9.77208 40.2835 16.8678C40.2835 26.1371 32.7695 33.6512 23.5002 33.6512C22.6161 33.6512 21.7481 33.5825 20.901 33.4509C18.1314 28.8536 16.1952 24.7301 14.9375 20.5027C15.8798 18.2394 16.9411 16.1544 18.1684 14.1693C20.9462 9.67628 24.5874 5.66911 29.6567 1.24975ZM14.6144 21.2977C15.8509 25.2316 17.674 29.091 20.1952 33.3256C17.0986 32.707 14.3095 31.2369 12.0827 29.169C12.838 26.2843 13.6648 23.69 14.6144 21.2977ZM12.526 4.16903C12.3834 9.96688 12.8418 14.8408 14.0992 19.5286C14.1087 19.564 14.1184 19.5995 14.128 19.6349C13.0062 22.2579 12.0539 25.1029 11.1976 28.2841C8.41706 25.289 6.7168 21.277 6.7168 16.8678C6.7168 11.7943 8.96799 7.24653 12.526 4.16903ZM26.4062 11.8964C26.346 11.8099 26.3409 11.81 26.3158 11.9067C26.2957 11.9577 26.2354 12.3902 26.1802 12.8684C25.9995 14.3694 25.6128 16.1198 25.2965 16.9186C24.7944 18.1652 23.7401 18.8267 21.526 19.2846C20.9385 19.4016 19.7333 19.5695 18.1769 19.7374C17.2481 19.8392 17.0774 19.9105 17.7703 19.9156C18.9501 19.9156 22.1231 20.4091 23.0923 20.7399C23.258 20.7958 23.6145 20.9535 23.8806 21.0959C24.694 21.5183 25.1158 22.0985 25.5225 23.3604C25.8287 24.3068 25.9844 25.1668 26.0998 26.6067C26.1802 27.548 26.2606 28.0567 26.3309 28.0567C26.3911 28.0567 26.4163 27.9192 26.5318 26.9881C26.9134 23.9455 27.3601 22.3987 28.0731 21.6405C28.7959 20.8722 30.3976 20.4142 33.6863 20.0427C34.349 19.9664 34.9267 19.8952 34.9667 19.8799C35.0057 19.8645 34.4638 19.7729 33.7616 19.6814C31.4723 19.3812 30.2774 19.132 29.3183 18.7453C28.3695 18.3637 28.1032 18.1396 27.7217 17.3815C27.2246 16.3994 26.7223 14.5016 26.6069 13.1481C26.5516 12.4765 26.4715 11.9829 26.4062 11.8964ZM14.689 25.5392C14.3027 25.5392 13.9897 25.8525 13.9897 26.2387C13.9898 26.6249 14.3028 26.9379 14.689 26.9379C15.0751 26.9379 15.3881 26.6249 15.3882 26.2387C15.3882 25.8525 15.0752 25.5393 14.689 25.5392ZM23.5002 0.0844727C25.2359 0.0844727 26.91 0.347947 28.4848 0.837091C23.6005 5.14477 20.0138 9.12552 17.2474 13.6002C16.2171 15.2667 15.3033 16.9989 14.4783 18.8376C13.3142 14.2535 12.9087 9.45098 13.0806 3.70984C15.9431 1.44007 19.5633 0.0844727 23.5002 0.0844727ZM10.7728 15.7491C10.2321 15.7491 9.79389 16.1873 9.79389 16.728C9.79389 17.2687 10.2321 17.7069 10.7728 17.7069C11.3135 17.7069 11.7517 17.2687 11.7517 16.728C11.7517 16.1873 11.3135 15.7491 10.7728 15.7491ZM33.8284 9.03659C33.813 9.01596 33.7305 9.33057 33.6476 9.73291C33.3945 10.971 33.3274 11.1826 33.0588 11.4766C32.9297 11.6159 32.7075 11.7964 32.5681 11.8686C32.2841 12.0079 31.4728 12.2298 30.6569 12.3794C30.3781 12.4309 30.1821 12.4877 30.2176 12.5084C30.2539 12.529 30.7498 12.6374 31.3128 12.7561C32.7126 13.0449 32.9194 13.1687 33.2345 13.8806C33.3739 14.1953 33.6113 15.0776 33.7199 15.6915C33.7562 15.8978 33.8079 16.0473 33.8284 16.0267C33.8441 16.0053 33.901 15.7631 33.9524 15.4953C34.3038 13.5144 34.6549 13.0915 36.2252 12.7923C36.5969 12.7253 36.9688 12.6374 37.0517 12.6064L37.2068 12.5446L37.0774 12.4774C37.0051 12.4413 36.6229 12.3435 36.2304 12.2506C35.0477 11.9875 34.5723 11.6933 34.3398 11.0743C34.2778 10.9091 34.1435 10.3932 34.0453 9.92378C33.9421 9.45493 33.8493 9.05811 33.8284 9.03659ZM16.7869 7.07746C16.0144 7.07746 15.3882 7.70372 15.3882 8.47616C15.3882 9.2486 16.0144 9.87487 16.7869 9.87487C17.5593 9.87484 18.1856 9.24858 18.1856 8.47616C18.1856 7.70375 17.5593 7.07748 16.7869 7.07746Z" fill="#9182E6"/>
<path d="M41.6875 9.81055C44.7096 13.7046 46.5092 18.595 46.5092 23.906C46.5092 36.6137 36.2074 46.9154 23.4997 46.9154C10.7919 46.9154 0.490234 36.6137 0.490234 23.906C0.490234 18.8354 2.13026 14.1479 4.90892 10.3451C4.15164 12.4232 3.73863 14.6653 3.73863 17.0034C3.73863 27.7986 12.5414 36.5498 23.4 36.5498C34.2587 36.5498 43.0613 27.7986 43.0613 17.0034C43.0613 14.4635 42.574 12.0368 41.6875 9.81055Z" fill="#9182E6"/>
</g>
<defs>
<clipPath id="clip0_610_175">
<rect width="47" height="47" rx="10" fill="white"/>
</clipPath>
</defs>
</svg>
