<svg width="47" height="47" viewBox="0 0 47 47" fill="none" xmlns="http://www.w3.org/2000/svg">
<path d="M29.1665 1.16528C35.3898 3.62045 39.7933 9.68761 39.7933 16.7834C39.7933 26.0526 32.2792 33.5668 23.0099 33.5668C22.1259 33.5668 21.2579 33.498 20.4108 33.3664C17.6412 28.7691 15.7049 24.6456 14.4472 20.4182C15.3895 18.155 16.4509 16.0699 17.6782 14.0848C20.4559 9.59181 24.0971 5.58464 29.1665 1.16528ZM14.1242 21.2132C15.3606 25.1471 17.1838 29.0065 19.705 33.2411C16.6084 32.6226 13.8193 31.1524 11.5925 29.0845C12.3478 26.1999 13.1746 23.6055 14.1242 21.2132ZM12.0358 4.08456C11.8931 9.8824 12.3516 14.7563 13.6089 19.4441C13.6184 19.4795 13.6282 19.515 13.6377 19.5504C12.5159 22.1734 11.5636 25.0184 10.7074 28.1996C7.92683 25.2045 6.22656 21.1925 6.22656 16.7834C6.22656 11.7098 8.47775 7.16206 12.0358 4.08456ZM25.916 11.8119C25.8557 11.7254 25.8507 11.7256 25.8256 11.8222C25.8055 11.8732 25.7452 12.3057 25.69 12.784C25.5092 14.285 25.1225 16.0353 24.8062 16.8341C24.3042 18.0807 23.2498 18.7422 21.0357 19.2001C20.4483 19.3172 19.2431 19.485 17.6866 19.653C16.7579 19.7547 16.5872 19.826 17.28 19.8311C18.4599 19.8311 21.6329 20.3246 22.602 20.6554C22.7677 20.7113 23.1243 20.869 23.3904 21.0115C24.2037 21.4338 24.6256 22.014 25.0323 23.2759C25.3385 24.2223 25.4941 25.0823 25.6096 26.5222C25.6899 27.4636 25.7704 27.9722 25.8406 27.9722C25.9009 27.9722 25.9261 27.8347 26.0416 26.9037C26.4231 23.8611 26.8698 22.3142 27.5829 21.5561C28.3056 20.7877 29.9074 20.3297 33.1961 19.9583C33.8588 19.882 34.4364 19.8107 34.4765 19.7955C34.5155 19.78 33.9735 19.6884 33.2713 19.5969C30.982 19.2967 29.7872 19.0475 28.8281 18.6608C27.8793 18.2792 27.6129 18.0552 27.2315 17.297C26.7344 16.315 26.2321 14.4171 26.1166 13.0636C26.0614 12.392 25.9813 11.8984 25.916 11.8119ZM14.1987 25.4548C13.8125 25.4548 13.4995 25.768 13.4995 26.1542C13.4996 26.5404 13.8125 26.8535 14.1987 26.8535C14.5849 26.8534 14.8979 26.5404 14.8979 26.1542C14.8979 25.768 14.5849 25.4548 14.1987 25.4548ZM23.0099 0C24.7456 0 26.4198 0.263474 27.9946 0.752618C23.1103 5.0603 19.5235 9.04104 16.7572 13.5157C15.7268 15.1822 14.813 16.9144 13.988 18.7531C12.824 14.169 12.4184 9.3665 12.5904 3.62537C15.4528 1.3556 19.073 0 23.0099 0ZM10.2826 15.6646C9.74187 15.6646 9.30366 16.1028 9.30366 16.6435C9.30366 17.1842 9.74187 17.6224 10.2826 17.6224C10.8233 17.6224 11.2615 17.1842 11.2615 16.6435C11.2615 16.1028 10.8233 15.6646 10.2826 15.6646ZM33.3382 8.95212C33.3228 8.93149 33.2402 9.2461 33.1574 9.64844C32.9043 10.8865 32.8371 11.0981 32.5686 11.3921C32.4395 11.5314 32.2172 11.7119 32.0778 11.7842C31.7939 11.9235 30.9826 12.1453 30.1667 12.2949C29.8879 12.3464 29.6919 12.4032 29.7274 12.4239C29.7636 12.4445 30.2595 12.5529 30.8226 12.6716C32.2224 12.9605 32.4292 13.0843 32.7443 13.7962C32.8837 14.1109 33.1211 14.9931 33.2297 15.607C33.2659 15.8134 33.3176 15.9628 33.3382 15.9422C33.3539 15.9208 33.4108 15.6787 33.4622 15.4108C33.8136 13.4299 34.1647 13.007 35.735 12.7078C36.1067 12.6408 36.4786 12.5529 36.5614 12.522L36.7165 12.4601L36.5872 12.393C36.5149 12.3568 36.1326 12.259 35.7401 12.1662C34.5574 11.903 34.0821 11.6088 33.8496 10.9898C33.7876 10.8247 33.6533 10.3087 33.555 9.83931C33.4519 9.37046 33.3591 8.97364 33.3382 8.95212ZM16.2966 6.99298C15.5242 6.99298 14.8979 7.61925 14.8979 8.39169C14.8979 9.16413 15.5242 9.79039 16.2966 9.79039C17.0691 9.79037 17.6953 9.1641 17.6953 8.39169C17.6953 7.61927 17.0691 6.99301 16.2966 6.99298Z" fill="#A699EF"/>
<path d="M41.1972 9.72656C44.2193 13.6206 46.0189 18.5111 46.0189 23.822C46.0189 36.5297 35.7172 46.8314 23.0095 46.8314C10.3017 46.8314 0 36.5297 0 23.822C0 18.7514 1.64002 14.0639 4.41868 10.2611C3.6614 12.3392 3.2484 14.5813 3.2484 16.9194C3.2484 27.7146 12.0511 36.4658 22.9098 36.4658C33.7684 36.4658 42.571 27.7146 42.571 16.9194C42.571 14.3795 42.0838 11.9528 41.1972 9.72656Z" fill="url(#paint0_linear_564_240)"/>
<defs>
<linearGradient id="paint0_linear_564_240" x1="23.0601" y1="3.97314" x2="23.0095" y2="46.8314" gradientUnits="userSpaceOnUse">
<stop offset="1" stop-color="#A699EF"/>
</linearGradient>
</defs>
</svg>
