<svg width="675" height="768" viewBox="0 0 675 768" fill="none" xmlns="http://www.w3.org/2000/svg">
<path fill-rule="evenodd" clip-rule="evenodd" d="M480.263 102.154C472.666 104.077 463.889 110.917 460.975 117.185C456.834 126.088 458.852 135.567 464.478 133.65C466.238 133.05 466.294 132.243 464.75 129.713L463.571 127.779L463.917 123.91C464.518 117.182 469.41 111.376 477.481 107.81L481.53 106.021L486.972 106.02C498.354 106.017 504.534 112.912 503.44 124.393C502.812 130.97 500.57 134.446 488.813 147.068L477.766 158.927L475.475 163.542L473.186 168.157V171.801C473.186 177.635 474.785 179.985 478.766 180.006C481.772 180.022 482.123 179.262 480.405 176.463C476.973 170.871 479.958 162.897 488.32 155.32C491.067 152.831 495.887 148.482 499.032 145.656C508.225 137.394 511.635 129.289 510.131 119.271C508.949 111.395 502.988 104.255 495.807 102.114C492.631 101.166 484.077 101.188 480.263 102.154ZM363.491 161.248C356.664 162.842 347.755 166.682 341.333 170.798C335.397 174.603 326.05 184.434 321.949 191.183L318.37 197.075L312.489 201.366C305.42 206.523 296.489 214.603 293.14 218.872C291.798 220.582 287.743 228.231 284.128 235.872C279.909 244.789 276.987 250.068 275.97 250.613C273.4 251.99 271.416 254.182 268.805 258.532L266.349 262.623H264.667C262.649 262.623 256.951 268.846 250.936 277.62C235.048 300.796 228.844 317.686 231.828 329.642C232.417 331.999 232.815 334.016 232.713 334.124C232.612 334.234 230.598 333.595 228.238 332.705C222.861 330.676 214.393 329.985 208.709 331.109C198.477 333.134 187.039 341.908 183.458 350.48C180.323 357.982 179.229 363.728 178.82 374.842L178.432 385.362L179.628 392.766C180.991 401.204 188.037 424.58 191.982 433.751C193.439 437.137 195.507 440.89 196.579 442.091L198.527 444.274L199.386 449.749C199.923 453.173 201.354 457.571 203.207 461.494C204.837 464.944 206.17 468.357 206.17 469.079C206.17 469.802 205.473 472.653 204.62 475.415L203.07 480.437L199.521 483.827L195.973 487.218L192.802 494.348C189.293 502.241 188.466 506.195 189.595 509.676L190.348 511.997L186.468 518.267L182.588 524.537L173.519 529.211C156.578 537.94 151.557 541.426 147.488 547.286C143.725 552.706 142.382 555.699 141.852 559.856L141.41 563.32L142.991 566.067C146.292 571.805 157.027 578.19 168.802 581.421L175.332 583.213L186.579 583.252C200.573 583.301 211.848 581.281 228.623 575.719L236.203 573.207L238.493 570.746C241.171 567.871 241.763 565.636 244.019 549.892L245.681 538.3L247.874 537.311C249.081 536.767 251.894 535.759 254.126 535.069C256.358 534.38 260.814 532.118 264.029 530.043C274.093 523.547 292.208 507.536 296.26 501.556L298.319 498.516V494.917V491.317L293.577 480.422L288.834 469.527L290.856 467.772C291.968 466.808 293.204 466.174 293.603 466.365C317.351 477.72 339.487 481.714 358.714 478.113C376.08 474.86 394.391 463.344 401.792 451.018L403.547 448.096H406.042C414.049 448.096 419.754 444.651 421.944 438.493L423.154 435.089L433.24 434.181C450.459 432.632 462.326 427.821 470.674 419.006L475.229 414.196L476.785 408.741C477.641 405.741 478.505 401.007 478.704 398.221C479.352 389.185 479.549 388.528 482.078 386.978C485.289 385.009 489.048 381.146 490.35 378.476C492.107 374.872 492.759 364.209 492.789 338.605C492.825 306.95 491.504 288.686 488.345 277.149L486.882 271.804L483.48 268.163L480.079 264.522L472.823 261.295C468.832 259.521 461.812 256.848 457.223 255.355C452.633 253.862 448.884 252.345 448.892 251.983C448.899 251.62 449.354 247.863 449.904 243.635C454.873 205.347 434.052 172.21 398.577 161.948L393.008 160.337L381.399 160.057L369.79 159.777L363.491 161.248ZM369.064 164.455C357.002 166.456 342.822 173.433 334.932 181.248L330.608 185.532L333.147 184.212C337.554 181.922 342.701 180.764 350.561 180.292L358.18 179.835L364.886 181.095C380.661 184.056 395.206 191.976 407.482 204.288C414.28 211.107 420.557 220.541 418.296 220.541C418.038 220.541 414.528 216.93 410.496 212.516C398.704 199.605 384.443 190.443 369.427 186.131L363.259 184.361L352.738 184.332L342.217 184.304L336.996 186.141C333.866 187.243 330.582 189.076 328.798 190.715C327.161 192.22 325.934 193.57 326.07 193.717C326.206 193.864 329.406 192.9 333.179 191.576L340.04 189.169L349.163 188.781L358.287 188.393L364.39 189.722C382.91 193.751 400.377 205.844 412.029 222.703C414.534 226.327 416.259 228.166 416.813 227.803C417.289 227.489 419.135 226.042 420.916 224.587L424.153 221.939L428.688 222.249L433.225 222.56L435.921 224.904C442.804 230.886 443.773 241.518 438.253 250.469C434.858 255.973 425.892 259.596 421.669 257.168L420.005 256.212L419.28 257.664C418.88 258.463 417.051 260.647 415.214 262.518C402.573 275.39 382.296 282.971 360.51 282.971C355.748 282.971 351.969 283.098 352.114 283.252C352.952 284.15 365.153 286.827 371.944 287.604C391.797 289.874 412.547 284.652 429.289 273.172C434.385 269.677 437.373 266.248 439.776 261.133C452.553 233.95 444.18 196.96 421.088 178.574C414.531 173.354 403.97 168.014 396.241 166.014C389.143 164.176 375.472 163.392 369.064 164.455ZM292.797 174.898C292.074 176.92 293.086 178.591 294.87 178.319L296.505 178.069V176.121V174.173L294.87 173.924C293.888 173.774 293.059 174.164 292.797 174.898ZM250.495 187.338C249.999 187.98 249.701 189.312 249.831 190.301L250.068 192.097H252.97H255.873V189.369V186.642L253.634 186.407C252.301 186.268 251.031 186.644 250.495 187.338ZM274.638 189.759C273.952 191.678 274.938 193.266 276.814 193.266C278.835 193.266 279.87 191.236 278.652 189.66C277.552 188.237 275.16 188.296 274.638 189.759ZM209.574 191.471C209.378 191.816 208.986 194.097 208.703 196.54L208.188 200.984L204.289 201.853C197.797 203.301 198.352 205.929 205.069 205.549L208.686 205.345L209.168 209.487C209.712 214.159 209.995 214.691 211.581 214.038L212.7 213.577V209.301V205.026L215.421 204.556C220.648 203.654 221.508 203.333 221.22 202.394C221.05 201.841 219.23 201.352 216.841 201.215L212.752 200.982L212.374 198.488C212.165 197.116 211.909 194.969 211.803 193.715C211.618 191.513 210.304 190.191 209.574 191.471ZM473.765 193.303L471.553 195.679L471.951 198.873C472.473 203.046 474.566 205.267 477.979 205.267H480.629L481.986 203.466C482.899 202.256 483.344 200.417 483.344 197.855V194.045L481.893 192.486C479.709 190.142 476.398 190.474 473.765 193.303ZM332.048 195.613C327.912 197.265 322.619 206.094 320.501 214.871C318.463 223.319 319.363 237.941 322.355 244.993C324.127 249.171 324.678 246.599 324.761 233.746L324.845 220.931L326.796 214.696C327.869 211.268 330.227 205.887 332.036 202.738C333.844 199.591 335.324 196.734 335.324 196.392C335.324 195.387 333.626 194.983 332.048 195.613ZM316.096 202.774C313.932 204.099 302.851 213.915 298.538 218.326L294.766 222.185L287.793 237.49L280.819 252.796L281.249 254.639C281.486 255.652 283.042 258.068 284.707 260.007C291.521 267.948 299.859 269.3 303.654 263.08C305.275 260.422 305.167 260.031 302.974 260.622C299.559 261.542 296.513 259.361 299.589 258.198C302.024 257.276 305.585 253.953 306.767 251.499L307.957 249.028L307.523 240.325L307.088 231.623L310.685 228.064L314.282 224.505V220.964C314.282 219.017 314.005 217.424 313.665 217.424C313.327 217.424 311.613 218.495 309.856 219.804C308.1 221.112 305.458 223.075 303.985 224.163C302.511 225.253 300.934 225.897 300.479 225.595C299.41 224.886 302.438 221.401 307.752 217.224C313.844 212.436 316.413 209.567 317.954 205.83C318.728 203.954 319.361 202.288 319.361 202.129C319.361 201.543 317.508 201.91 316.096 202.774ZM522.195 205.085C522.012 205.657 521.766 207.176 521.65 208.462L521.437 210.8L518.692 211.19C514.949 211.721 514.942 213.084 518.681 213.376L521.73 213.613L522.332 216.882C523.139 221.266 524.984 221.334 525.281 216.99L525.497 213.829L527.773 213.093C531.24 211.974 531.203 210.41 527.709 210.41H524.79L524.564 207.548C524.34 204.693 522.824 203.116 522.195 205.085ZM235.456 207.683C234.881 209.291 235.661 211.19 236.896 211.19C238.348 211.19 239.786 209.087 239.288 207.693C238.744 206.17 235.999 206.163 235.456 207.683ZM177.81 213.997L176.918 215.152L177.709 216.002C178.711 217.078 180.774 216.272 180.774 214.804C180.774 213.181 178.847 212.655 177.81 213.997ZM556.181 224.782C555.009 228.062 558.146 230.642 559.998 227.922L560.926 226.56L560.202 225.109C559.346 223.392 556.753 223.181 556.181 224.782ZM425.579 226.702C416.716 232.506 416.747 250.112 425.625 253.259L428.199 254.172L430.619 253.314C435.575 251.557 439.083 245.402 439.083 238.465C439.083 233.476 437.741 230.006 434.772 227.323C431.99 224.809 428.799 224.593 425.579 226.702ZM489.874 227.036C489.874 227.838 490.96 228.577 492.958 229.136C494.653 229.61 497.348 230.357 498.944 230.796C500.54 231.235 504.904 232.82 508.641 234.317C513.134 236.116 515.68 236.777 516.156 236.266C516.632 235.755 516.282 235.075 515.125 234.261C513.058 232.807 496.538 226.942 492.604 226.266L489.874 225.797V227.036ZM423.998 229.07C421.943 231.277 420.213 236.363 420.222 240.174C420.235 246.034 424.16 252.492 427.708 252.492H429.505L427.126 249.937L424.747 247.382L423.818 242.925L422.889 238.467L423.812 235.155C424.32 233.332 425.351 230.911 426.104 229.773C428.596 226.009 427.262 225.564 423.998 229.07ZM408.788 230.477C408.098 232.16 407.471 236.211 407.308 240.025L407.027 246.651L408.566 250.935L410.107 255.22L406.733 258.547C402.101 263.113 390.247 269.24 381.399 271.64C364.264 276.287 348.319 275.436 334.339 269.126C332.001 268.071 329.916 267.393 329.705 267.619C329.019 268.357 331.567 271.762 334.028 273.395C337.547 275.731 348.331 278.882 354.766 279.455C375.193 281.274 402.687 271.443 414.76 258.003L417.647 254.79L416.765 253.446C413.15 247.94 412.075 240.771 413.912 234.424L414.969 230.772L413.374 229.163C411.107 226.876 410.152 227.15 408.788 230.477ZM157.374 229.176C156.676 229.613 156.104 230.454 156.104 231.045C156.104 232.232 158.029 234.569 159.007 234.569C159.349 234.569 160.142 234.018 160.769 233.344C161.396 232.67 161.909 231.818 161.909 231.451C161.909 230.646 159.828 228.325 159.137 228.358C158.865 228.371 158.072 228.739 157.374 229.176ZM182.259 231.019C181.098 232.521 181.558 235.373 183.133 236.433L184.402 237.288L185.672 236.433C188.261 234.69 187.33 229.893 184.402 229.893C183.702 229.893 182.737 230.399 182.259 231.019ZM311.957 231.985L310.773 233.4L310.895 242.167C310.962 246.988 311.201 250.934 311.426 250.934C311.65 250.934 312.769 249.886 313.911 248.606L315.987 246.278L315.135 242.312C314.666 240.131 314.259 237.233 314.231 235.873C314.203 234.512 313.946 232.763 313.661 231.985L313.142 230.571L311.957 231.985ZM525.418 238.868L524.464 240.102L525.666 241.393L526.869 242.684L527.668 241.826C528.617 240.807 528.3 238.323 527.169 237.919C526.73 237.762 525.942 238.189 525.418 238.868ZM119.132 240.887C111.001 242.569 104.436 248.26 101.771 255.94L100.398 259.896L94.3303 263.608C87.763 267.626 83.5459 271.807 83.5459 274.301C83.5459 278.715 89.3593 280.481 99.032 279.006L105.137 278.075L108.52 280.848C112.72 284.291 116.772 285.516 122.225 284.99C130.803 284.162 138.99 277.502 140.848 269.84C141.343 267.799 141.89 265.543 142.064 264.826C142.239 264.109 144.805 261.899 147.767 259.916C154.226 255.592 156.257 253.086 155.959 249.806L155.742 247.427L153.202 246.016L150.663 244.606L143.708 245.096L136.752 245.585L132.461 243.288C127.497 240.631 123.687 239.945 119.132 240.887ZM116.752 244.656C111.571 246.436 107.126 251.014 105.434 256.31C103.639 261.929 105.03 271.308 107.828 272.463C109.092 272.983 125.951 267.013 133.239 263.464L137.965 261.162V258.538C137.965 255.006 134.441 249.208 130.663 246.523L127.638 244.372L123.187 244.173C120.739 244.063 117.844 244.28 116.752 244.656ZM538.452 246.33C536.702 249.844 539.329 253.3 542.84 252.104C546.325 250.915 545.108 244.699 541.391 244.699C539.976 244.699 538.993 245.245 538.452 246.33ZM140.281 248.327C139.36 248.541 138.769 249.127 138.968 249.63C139.167 250.133 139.861 252.386 140.512 254.635C141.163 256.885 141.917 258.724 142.188 258.72C143.433 258.701 150.317 253.898 151.334 252.339L152.471 250.595L151.481 249.53C150.453 248.426 143.208 247.648 140.281 248.327ZM314.797 254.105C313.285 255.452 311.084 258.358 309.906 260.563L307.766 264.571L307.758 268.298C307.755 270.348 307.279 273.241 306.701 274.727C306.122 276.213 305.748 277.43 305.869 277.43C305.99 277.43 309.157 275.899 312.906 274.029C316.656 272.159 320.949 270.203 322.445 269.682L325.166 268.737L325.154 267.043C325.144 265.645 323.245 261.767 318.113 252.658L317.547 251.655L314.797 254.105ZM561.33 252.517C561.048 253.007 561.159 253.774 561.576 254.222C562.552 255.27 564.825 254.356 564.428 253.076C564.025 251.774 561.971 251.403 561.33 252.517ZM274.099 258.145C273.108 259.54 271.95 261.665 271.525 262.866L270.752 265.048L271.928 267.537C274.278 272.51 277.996 276.525 282.476 278.929L286.941 281.326L291.361 281.323L295.78 281.321L298.102 279.799C300.33 278.341 301.938 275.844 302.972 272.241L303.454 270.559L298.528 270.627L293.603 270.694L289.975 268.96C286.087 267.1 281.01 262.261 278.625 258.142C277.819 256.749 276.875 255.61 276.529 255.61C276.183 255.61 275.09 256.75 274.099 258.145ZM444.35 263.597L441.515 269.247L442.196 272.15L442.878 275.052L448.886 277.021C452.189 278.103 455.458 278.988 456.148 278.988C456.839 278.988 460.991 277.571 465.375 275.838C469.76 274.105 474.535 272.615 475.988 272.526L478.627 272.364V273.533C478.627 274.959 474.285 277.267 465.385 280.569C461.694 281.938 458.674 283.209 458.674 283.392C458.674 283.576 459.293 285.03 460.049 286.622C461.907 290.532 463.038 295.169 464.177 303.536C464.702 307.394 466.109 313.631 467.303 317.398C470.558 327.662 478.544 369.293 479.117 378.988C479.214 380.625 479.493 382.098 479.738 382.259C480.679 382.885 484.787 379.464 486.029 377.019L487.334 374.452L487.313 340.553L487.292 306.654L486.004 295.354C484.296 280.386 482.898 274.011 480.712 271.22C479.572 269.765 476.787 268.052 472.974 266.462C463.493 262.508 450.541 257.947 448.791 257.947H447.185L444.35 263.597ZM582.401 264.666C580.987 266.185 581.2 267.989 582.93 269.16L584.2 270.019L585.47 269.16C587.259 267.95 587.496 265.638 585.955 264.428C584.271 263.106 583.826 263.136 582.401 264.666ZM95.1552 266.478C82.7789 273.352 86.0883 277.803 101.193 274.599L103.239 274.165L102.72 272.875C102.435 272.166 101.809 270.025 101.329 268.118C100.848 266.211 100.16 264.563 99.8004 264.456C99.4405 264.349 97.3501 265.259 95.1552 266.478ZM130.709 268.929C128.115 270.168 122.728 272.279 118.737 273.619C114.746 274.959 111.212 276.321 110.882 276.645C110.554 276.969 111.814 278.03 113.684 279.002C122.242 283.451 133.159 278.947 136.85 269.442L137.984 266.52L136.704 266.598C136.001 266.641 133.303 267.69 130.709 268.929ZM555.902 267.513C555.902 268.059 557.882 270.054 560.3 271.945C565.984 276.391 572.291 283.661 575.495 289.461C578.078 294.136 579.847 295.743 579.847 293.412C579.847 289.412 567.744 274.088 560.531 268.957C556.777 266.287 555.902 266.013 555.902 267.513ZM261.424 271.751C254.689 279.372 241.97 301.57 238.744 311.333C236.736 317.411 236.187 324.714 237.39 329.331C238.723 334.445 244.862 341.372 250.883 344.555L255.557 347.026L263.333 347.762C274.369 348.808 290.82 347.993 297.832 346.053C304.633 344.172 311.541 340.956 313.322 338.842L314.615 337.308L313.219 336.469C309.769 334.395 304.925 328.541 299.596 320.006L293.824 310.758L292.922 311.823C292.427 312.409 291.449 314.562 290.751 316.607C288.031 324.566 281.563 332.765 275.318 336.169C272.861 337.51 270.746 337.825 270.75 336.851C270.751 336.529 272.7 334.576 275.08 332.511C278.693 329.375 285.735 319.763 284.998 318.973C284.879 318.844 283.011 319.76 280.848 321.007C275.399 324.151 267.203 326.674 263.392 326.38C258.587 326.01 259.236 324.152 264.58 322.98C281.1 319.354 291.8 309.019 297.87 290.826C300.191 283.868 300.214 283.346 298.138 284.578C297.24 285.11 294.054 285.556 291.059 285.569L285.613 285.592L281.544 283.454C277.053 281.094 271.029 275.087 268.905 270.85C266.788 266.63 265.85 266.743 261.424 271.751ZM434.723 272.373C433.131 274.433 423.696 280.354 417.412 283.236C397.165 292.524 372.828 293.73 352.863 286.437C346.405 284.078 336.339 279.256 333.65 277.233C331.17 275.369 330.675 275.765 331.351 279.074C332.466 284.527 342.795 292.286 353.464 295.685C363.987 299.038 380.428 300.192 392.331 298.415C406.691 296.269 434.302 284.214 436.929 278.942C438.122 276.548 437.612 271.195 436.192 271.195C435.885 271.195 435.224 271.725 434.723 272.373ZM601.976 273.728C601.801 274.264 601.566 276.442 601.455 278.568L601.251 282.435L598.062 283.423C596.308 283.966 594.685 284.612 594.456 284.859C593.684 285.688 596.148 286.757 598.861 286.77L601.548 286.781L602.008 289.704C602.747 294.411 603.137 295.457 604.034 295.14C604.506 294.973 604.974 292.919 605.095 290.489L605.311 286.139L608.904 285.608C614.798 284.737 614.426 282.142 608.404 282.117C605.158 282.105 604.517 281.331 604.517 277.43C604.517 273.555 602.834 271.104 601.976 273.728ZM316.703 276.993C313.164 278.896 308.962 281.468 307.366 282.71L304.464 284.968L303.137 289.577C302.408 292.111 300.388 297.244 298.648 300.983L295.486 307.782L300.7 316.18C306.19 325.022 311.65 331.595 312.846 330.802C314.038 330.01 313.64 322.709 312.101 317.158C309.217 306.756 307.467 288.324 309.252 287.139C309.677 286.856 310.129 286.748 310.256 286.898C310.382 287.048 311.008 291.585 311.645 296.98C312.73 306.155 315.386 317.807 316.195 316.939C316.392 316.726 317.872 312.404 319.484 307.334C321.095 302.264 323.707 295.354 325.287 291.977L328.161 285.838L327.021 283.257C326.394 281.837 325.675 279.069 325.424 277.104C325.157 275.007 324.591 273.533 324.053 273.533C323.549 273.533 320.241 275.09 316.703 276.993ZM441.473 281.506C439.653 284.032 439.819 284.423 443.591 286.469C445.815 287.675 449.983 291.29 453.507 295.069C456.85 298.655 459.678 301.588 459.791 301.588C460.282 301.588 457.839 291.928 456.777 289.665C455.063 286.016 452.216 283.023 449.666 282.189C445.227 280.739 442.208 280.487 441.473 281.506ZM428.596 290.318C423.286 291.882 415.252 296.419 411.32 300.073C398.368 312.11 393.079 333.74 399.577 348.088C401.212 351.697 405.993 357.697 407.233 357.697C407.497 357.697 406.863 355.506 405.824 352.827L403.933 347.956L403.957 340.553C404 327.753 407.737 318.13 416.227 308.96C424.156 300.397 433.299 296.152 443.904 296.116L448.878 296.099L447.064 294.562C441.052 289.468 435.674 288.232 428.596 290.318ZM329.684 290.873C327.074 294.314 321.141 314.121 318.569 327.978C317.012 336.363 316.471 350.301 317.658 351.427C317.996 351.748 319.681 351.847 321.403 351.649L324.534 351.29L323.943 350.013C322.02 345.851 327.114 313.19 330.445 308.327L331.333 307.031L341.492 308.951C347.079 310.008 357.625 312.114 364.928 313.633C372.231 315.152 378.815 316.395 379.559 316.395C380.665 316.395 386.574 309.415 388.465 305.874C388.737 305.367 385.691 305.186 379.726 305.357C369.853 305.639 360.044 304.673 353.101 302.734C347.248 301.1 337.827 296.113 334.12 292.688C330.719 289.543 330.699 289.535 329.684 290.873ZM62.7861 296.468C62.0634 298.49 63.0756 300.161 64.8591 299.889L66.4946 299.64V297.692V295.743L64.8591 295.494C63.8774 295.344 63.0481 295.734 62.7861 296.468ZM98.7084 296.821L97.0215 298.288L97.8871 300.328L98.752 302.367H100.867C103.859 302.367 104.948 298.969 102.722 296.578C101.259 295.007 100.759 295.037 98.7084 296.821ZM440.171 300.081C431.726 301.233 422.951 306.276 416.977 313.413C410.58 321.055 406.603 333.376 407.483 342.828C407.963 347.991 410.181 354.63 411.953 356.209L412.961 357.108L412.614 354.87C411.125 345.271 410.796 341.009 411.485 340.268C413.103 338.531 413.569 340.33 419.261 370.275L420.392 376.228L424.462 374.227C427.307 372.829 430.192 372.122 434.037 371.883L439.541 371.541L445.576 373.181C451.807 374.872 455.795 376.867 456.318 378.551C456.772 380.014 454.563 379.713 448.153 377.438L442.348 375.377L436.543 375.319L430.739 375.261L426.94 377.091C424.849 378.098 423.288 379.179 423.469 379.494C423.651 379.809 426.051 380.27 428.805 380.518C438.927 381.429 453.19 388.68 456.569 394.632C458.359 397.784 458.307 398.221 456.147 398.221C455.007 398.221 453.123 396.962 451.013 394.791C443.824 387.393 434.184 383.871 422.395 384.336L415.501 384.608L410.967 386.845C408.473 388.075 406.432 389.242 406.432 389.437C406.432 389.631 407.572 391.222 408.967 392.972C410.361 394.721 412.534 398.985 413.794 402.447L416.087 408.741L416.409 414.976C416.63 419.256 416.396 422.244 415.663 424.505L414.594 427.8L417.078 428.3C418.444 428.576 424.526 428.633 430.592 428.427L441.623 428.054L447.79 425.905C459.179 421.936 466.853 416.771 470.043 410.925C472.877 405.731 473.887 399.846 473.9 388.452L473.911 378.295L472.123 366.632C469.807 351.518 464.934 327.058 462.659 319.122C458.13 303.329 452.336 298.422 440.171 300.081ZM399.539 302.442C397.942 302.826 395.903 303.323 395.008 303.546C393.472 303.931 383.213 317.55 383.213 319.205C383.213 319.604 384.541 321.657 386.165 323.766L389.116 327.602L388.665 331.545C387.402 342.599 384.368 361.519 383.486 363.834L382.486 366.465L380.491 366.032C379.394 365.794 377.844 365.347 377.045 365.038C376.247 364.728 378.543 367.638 382.147 371.503C385.751 375.368 389.832 380.144 391.217 382.117L393.734 385.704L398.026 385.728L402.318 385.752L408.728 382.842L415.139 379.932L415.107 377.192C415.089 375.685 414.675 372.384 414.185 369.857L413.295 365.261L409.419 363.679C390.928 356.133 387.156 326.967 401.866 305.29C404.497 301.413 404.386 301.277 399.539 302.442ZM579.847 306.264C578.099 308.14 578.071 308.537 579.525 310.766C581.465 313.74 584.926 312.539 584.926 308.891C584.926 307.135 583.211 304.705 581.972 304.705C581.601 304.705 580.645 305.407 579.847 306.264ZM79.6763 307.563C79.41 307.848 79.1873 309.514 79.1815 311.265C79.167 315.413 78.7265 315.986 74.8976 316.844C70.2343 317.89 70.264 319.374 74.9535 319.664L78.7897 319.902L79.418 323.408C79.7634 325.337 80.3576 327.263 80.7379 327.688C81.9227 329.012 82.7775 326.409 82.324 322.857L81.9017 319.542L82.9052 319.23C83.4573 319.058 85.19 318.613 86.7559 318.24C88.3217 317.868 89.7366 317.126 89.8998 316.59L90.1973 315.615H86.1456H82.0947V312.562C82.0947 308.023 81.121 306.011 79.6763 307.563ZM331.037 318.927C329.152 327.973 327.349 340.075 327.346 343.726L327.343 346.509L337.682 348.002C343.369 348.824 348.512 349.499 349.11 349.505L350.199 349.515L350.759 343.67C351.066 340.456 351.96 332.928 352.744 326.943C353.528 320.958 353.929 315.817 353.635 315.52C352.801 314.674 338.644 311.719 335.426 311.719H332.541L331.037 318.927ZM617.523 317.232C615.828 319.053 615.807 319.454 617.285 321.72C619.445 325.035 623.357 322.619 622.408 318.556C621.801 315.956 619.334 315.287 617.523 317.232ZM357.576 317.726C356.511 321.881 354.205 342.318 354.196 347.684L354.189 351.309L362.51 353.489C367.087 354.688 371.028 355.459 371.267 355.201C371.826 354.602 375.957 326.229 375.957 322.995V320.551L368.157 318.807C363.867 317.848 359.812 316.898 359.146 316.696C358.404 316.472 357.796 316.87 357.576 317.726ZM41.0185 321.406C40.2959 323.428 41.3081 325.099 43.0915 324.827L44.727 324.577V322.629V320.681L43.0915 320.431C42.1098 320.282 41.2805 320.671 41.0185 321.406ZM594.786 325.106C594.593 326.102 594.236 328.892 593.992 331.308L593.549 335.7L591.272 336.19C585.843 337.355 583.475 338.335 583.475 339.414V340.553H588.917H594.358L594.431 343.865C594.53 348.428 595.315 351.073 596.568 351.073H597.624L597.986 345.618L598.349 340.163L602.646 339.372C609.537 338.103 608.944 335.132 601.796 335.11L597.986 335.098L597.901 331.786C597.78 327.146 597.051 323.981 596.018 323.612C595.534 323.44 594.979 324.111 594.786 325.106ZM364.097 325.613C361.473 328.728 363.5 333.539 367.436 333.539C369.888 333.539 371.603 331.642 371.603 328.929C371.603 324.759 366.658 322.574 364.097 325.613ZM379.256 324.907C378.764 325.763 375.233 352.528 375.232 355.409C375.231 357.372 379.136 362.337 379.972 361.437C380.488 360.883 384.664 333.362 384.664 330.517C384.664 329.188 383.892 327.582 382.629 326.282C380.428 324.017 379.894 323.8 379.256 324.907ZM209.285 337.005C203.389 338.443 196.269 342.142 193.177 345.373C190.326 348.352 187.917 353.59 186.074 360.815L184.782 365.88L184.848 377.959C184.92 391.292 185.621 395.74 189.902 410.051C193.185 421.022 198.777 436.496 199.892 437.694L200.728 438.592L206.15 436.727C209.132 435.702 213.362 434.507 215.55 434.073C217.736 433.639 219.814 432.974 220.166 432.596C220.518 432.218 221.853 429.321 223.133 426.159C226.804 417.089 230.724 410.786 236.81 404.166C239.912 400.793 242.449 397.558 242.449 396.978C242.449 393.36 233.617 373.491 227.512 363.372C223.342 356.463 223.424 354.159 227.681 358.584C230.981 362.013 236.258 370.916 240.949 380.963C243.02 385.401 244.889 388.846 245.102 388.618C245.739 387.934 243.978 370.108 242.818 365.49C242.226 363.133 241.737 360.766 241.732 360.23C241.715 358.289 243.176 359.322 244.556 362.225C246.791 366.931 248.199 373.936 248.984 384.25C249.384 389.508 249.833 393.943 249.982 394.102C250.131 394.262 253.527 393.676 257.53 392.8L264.807 391.207L276.303 391.273C282.626 391.309 289.757 391.612 292.152 391.944C296.296 392.522 298.319 391.999 298.319 390.352C298.319 389.345 282.348 375.854 272.924 368.901C257.237 357.327 231.933 340.231 227.865 338.459C222.617 336.172 215.106 335.585 209.285 337.005ZM65.8931 339.106C64.3324 341.714 62.2949 349.753 62.821 351.227C63.487 353.09 64.0813 352.001 66.2203 344.995C68.1605 338.64 67.9922 335.599 65.8931 339.106ZM303.898 349.587C295.143 352.415 287.018 353.294 274.738 352.74C268.752 352.47 262.454 351.942 260.741 351.565C259.03 351.19 257.723 350.978 257.839 351.094C257.955 351.211 263.437 355.169 270.021 359.89C276.606 364.611 286.238 372.165 291.426 376.676L300.859 384.879L302.534 382.88C303.605 381.603 304.025 380.425 303.698 379.615C303.416 378.918 303.035 376.205 302.851 373.586L302.517 368.822L303.936 365.403C304.717 363.522 306.875 359.991 308.731 357.555L312.105 353.127V350.346V347.567L310.836 347.661C310.138 347.712 307.015 348.579 303.898 349.587ZM620.661 348.853C619.39 349.417 619.526 352.761 620.842 353.304C622.779 354.102 624.2 352.955 623.965 350.786C623.75 348.794 622.476 348.049 620.661 348.853ZM333.171 357.246C331.179 362.517 330.305 363.362 324.044 366.066L318.999 368.244L318.163 370.98C317.703 372.485 317.214 374.912 317.075 376.374L316.822 379.031L324.803 380.437C329.193 381.21 333.379 381.757 334.104 381.654L335.424 381.466L338.914 372.504C340.834 367.575 343.238 361.57 344.257 359.158L346.11 354.774L342.047 353.898C339.813 353.416 337.261 353.022 336.376 353.022H334.767L333.171 357.246ZM46.6861 354.736C45.4831 356.028 45.5948 358.869 46.8943 360.027C48.5262 361.481 51.5192 360.349 52.0504 358.077C52.2985 357.013 52.3137 355.615 52.0837 354.971C51.5824 353.568 47.9218 353.409 46.6861 354.736ZM327.706 354.531C326.907 354.879 324.215 355.417 321.722 355.727C316.238 356.41 313.298 358.361 310.135 363.417C306.107 369.854 306.036 375.448 309.96 377.194C312.742 378.431 313.143 377.953 314.184 372.16C315.228 366.345 316.892 364.423 322.672 362.357C327.161 360.752 328.737 359.254 329.826 355.554C330.375 353.691 330.025 353.522 327.706 354.531ZM82.5953 355.48C81.0665 356.398 80.9991 359.515 82.4793 360.834L83.5887 361.823L85.3816 360.946C87.9364 359.696 87.6817 356.265 84.9535 355.189C84.3302 354.943 83.2694 355.074 82.5953 355.48ZM348.674 357.32C347.166 359.791 341.617 373.51 340.061 378.614C339.348 380.952 339.067 383.07 339.419 383.449C339.764 383.819 342.73 384.893 346.01 385.836L351.973 387.551L357.254 385.87C360.157 384.945 363.269 384.19 364.166 384.191C365.064 384.193 365.799 384.051 365.799 383.877C365.799 383.703 363.542 381.221 360.784 378.361C358.026 375.501 355.359 372.098 354.858 370.797L353.946 368.434L355.505 363.284C356.363 360.452 356.826 357.881 356.534 357.571C356.242 357.261 354.602 356.671 352.89 356.26L349.777 355.511L348.674 357.32ZM359.249 362.568C358.479 364.389 357.842 366.845 357.833 368.024L357.817 370.168L360.901 373.401C367.829 380.666 372.306 384.07 378.063 386.455C381.268 387.783 384.213 388.869 384.607 388.869C386.003 388.869 389.018 387.047 389.018 386.203C389.018 384.79 378.264 372.679 373.123 368.302C367.84 363.804 361.795 359.256 361.098 359.256C360.851 359.256 360.019 360.747 359.249 362.568ZM572.867 363.574L571.659 365.554L572.463 367.449C573.419 369.702 576.211 370.643 578.328 369.426L579.847 368.553V366.009C579.847 362.895 578.739 361.594 576.09 361.594C574.733 361.594 573.681 362.24 572.867 363.574ZM604.977 370.586C603.834 372.53 601.778 375.038 600.409 376.16C597.77 378.322 598.015 380.391 600.725 378.832C603.051 377.495 608.87 370.13 608.87 368.523C608.87 365.99 607.142 366.906 604.977 370.586ZM60.9076 374.58L60.6899 378.994L57.9145 379.84C54.2032 380.972 54.1945 382.192 57.8957 382.481L60.9054 382.717L61.3807 385.599C62.144 390.228 62.5387 391.207 63.6409 391.207H64.6806V386.531V381.856L66.676 381.845C69.783 381.828 71.9365 380.998 71.9365 379.816V378.738H67.9458H63.955V375.685C63.955 371.908 63.3695 370.166 62.0997 370.166C61.4242 370.166 61.0585 371.521 60.9076 374.58ZM307.811 384.679L306.214 386.859L316.235 388.999C321.746 390.175 329.657 392.173 333.817 393.437L341.38 395.734L343.794 393.666C345.122 392.528 346.208 391.376 346.208 391.104C346.208 389.497 324.958 384.067 314.566 383.019L309.408 382.499L307.811 384.679ZM586.733 389.115C583.544 391.393 579.031 394.416 576.704 395.832C573.997 397.481 572.725 398.677 573.171 399.156C574.654 400.749 593.633 388.189 593.633 385.617C593.633 384.413 592.537 384.969 586.733 389.115ZM546.954 387.051C546.687 387.336 546.47 389.78 546.47 392.478V397.387L545.2 398.091C544.502 398.478 542.706 399.032 541.209 399.323C539.59 399.637 538.488 400.293 538.488 400.945V402.039L542.66 402.273L546.832 402.507L547.26 406.404C548.17 414.708 550.346 415.292 550.675 407.322L550.889 402.129L552.489 401.784C553.369 401.594 555.366 401.254 556.928 401.027C558.49 400.8 560.119 400.238 560.55 399.776L561.332 398.935L560.25 398.201C559.654 397.796 557.127 397.46 554.633 397.453L550.098 397.442V393.494C550.098 388.316 548.612 385.271 546.954 387.051ZM359.269 389.52C354.025 391.397 348.443 394.496 345.478 397.176C342.352 400.001 338.952 405.085 338.952 406.934C338.952 410.277 341.202 409.263 347.013 403.3C353.316 396.832 358.667 393.602 364.184 392.934L367.441 392.54L367.119 393.576C366.943 394.145 364.744 395.548 362.233 396.692C354.181 400.363 346.208 407.756 346.208 411.55C346.208 412.972 347.62 414.586 348.865 414.586C349.369 414.586 351.783 412.667 354.232 410.322C358.886 405.86 364.962 402.292 369.142 401.563L371.603 401.134V402.332C371.603 403.054 370.313 404.002 368.354 404.719C361.837 407.103 354.189 413.722 354.189 416.976C354.189 420.252 357.835 419.594 365.131 415.001C373.689 409.614 381.172 408.531 374.621 413.628L371.671 415.923L373.633 417.897C376.354 420.634 380.95 422.979 383.954 423.162C389.646 423.51 392.583 423.114 393.769 421.841L394.996 420.524L394.658 414.888L394.322 409.251L392.299 404.811C391.186 402.368 388.932 398.886 387.288 397.074L384.301 393.777L377.771 391.213C369.735 388.057 364.653 387.592 359.269 389.52ZM391.738 391.365C388.729 392.223 388.428 392.833 390.226 394.424C392.375 396.326 396.099 403.249 397.29 407.556C398.745 412.819 398.777 419.25 397.367 422.876C396.042 426.283 396.301 426.793 399.882 427.829C403.504 428.876 408.523 427.728 410.232 425.462C415.105 418.999 411.848 402.064 403.982 392.961L401.794 390.428L398.127 390.508C396.109 390.553 393.235 390.938 391.738 391.365ZM616.5 391.492L615.223 392.495L615.736 394.234L616.251 395.973L618.184 395.733C620.609 395.433 621.263 392.491 619.173 391.29L617.777 390.488L616.5 391.492ZM303.722 392.054C303.454 392.52 303.517 393.163 303.861 393.483C304.587 394.158 333.607 400.559 335.938 400.559C338.123 400.559 337.887 399.352 335.506 398.345C331.959 396.845 320.591 393.574 314.756 392.375C308.036 390.994 304.393 390.888 303.722 392.054ZM46.3327 397.146C45.4098 398.137 45.7856 401.121 46.9647 402.172L48.1141 403.196L49.3229 402.377C49.9962 401.92 50.5317 400.56 50.5317 399.305V397.052L48.6909 396.821C47.678 396.694 46.6164 396.841 46.3327 397.146ZM260.246 397.493C247.708 399.744 237.964 408.012 231.377 421.988C230.164 424.56 226.809 432.978 223.921 440.693C221.032 448.408 216.176 461.295 213.13 469.33L207.593 483.94L208.049 485.895C209.748 493.167 239.076 508.093 251.676 508.099L255.461 508.102L262.282 497.776C270.31 485.622 272.988 480.187 275.457 471.034L277.277 464.287V457.022C277.277 453.026 276.78 447.217 276.172 444.113C274.862 437.424 275.688 435.43 277.869 440.02C279.973 444.451 281.002 449.172 281.581 457.058L282.097 464.071L283.49 460.954L284.883 457.837L284.822 447.706L284.761 437.575L282.866 430.955C280.951 424.266 281.186 421.506 283.387 424.846C284.046 425.847 285.307 429.12 286.191 432.12L287.798 437.575L287.791 449.265C287.787 457.293 287.494 461.504 286.859 462.708C285.447 465.383 287.01 464.798 289.538 461.705C292.684 457.857 295.237 452.145 296.571 445.968C297.865 439.971 297.507 435.608 295.253 429.954C293.417 425.348 294.17 424.258 296.832 427.667C299.455 431.026 300.498 434.994 300.487 441.562L300.476 446.927L298.34 453.519C297.166 457.145 296.272 460.166 296.354 460.233C298.771 462.176 312.716 467.371 322.989 470.155L332.059 472.613L344.757 472.628L357.455 472.644L363.259 470.843C370.337 468.648 380.789 463.42 386.654 459.142C394.585 453.358 399.548 445.685 400.409 437.876L400.828 434.076L397.281 432.42C395.33 431.51 393.081 430.146 392.283 429.389L390.832 428.013L385.027 427.661C381.091 427.423 378.185 426.767 376.002 425.624C374.231 424.697 372.702 423.938 372.605 423.938C372.507 423.938 373.522 425.685 374.86 427.82C376.198 429.956 378.341 434.602 379.62 438.146L381.949 444.589L382.006 449.854L382.064 455.119L380.881 456.39C380.23 457.089 379.182 457.448 378.553 457.189L377.408 456.717V451.976C377.408 442.434 374.266 432.744 368.701 425.126C365.589 420.866 364.372 420.364 361.3 422.072C359.983 422.805 357.581 423.437 355.961 423.476L353.017 423.548L350.645 421.405C349.34 420.226 347.671 419.262 346.934 419.262C346.197 419.262 344.658 418.257 343.515 417.028C342.371 415.8 340.632 414.533 339.649 414.212C337.034 413.356 334.599 410.676 334.599 408.652C334.599 407.68 334.304 406.69 333.944 406.45C332.302 405.361 299.55 398.845 290.567 397.822C279.794 396.594 266.084 396.445 260.246 397.493ZM598.756 402.088C597.37 403.008 598.15 405.624 599.81 405.624C600.726 405.624 601.331 405.022 601.471 403.97C601.711 402.166 600.208 401.125 598.756 402.088ZM79.4753 404.787C78.815 406.635 79.7489 408.501 81.1855 408.204C81.9888 408.038 82.4575 407.23 82.4575 406.014C82.4575 403.792 80.1675 402.851 79.4753 404.787ZM63.7461 408.836C62.9414 409.701 66.5991 416.413 71.7747 423.57C77.6534 431.698 80.2278 434.436 81.3147 433.715C81.7849 433.403 80.3402 430.975 77.6722 427.593C75.2408 424.511 71.4046 418.935 69.1473 415.203C65.0645 408.452 64.6066 407.911 63.7461 408.836ZM517.861 413.473C517.234 414.147 516.721 414.998 516.721 415.365C516.721 416.541 518.957 418.483 520.312 418.483C521.032 418.483 522.036 417.946 522.544 417.29L523.464 416.099L522.647 414.173C521.714 411.974 519.551 411.658 517.861 413.473ZM99.2671 421.34C99.0009 421.626 98.7832 423.9 98.7832 426.394V430.929L95.5057 431.816C93.7033 432.303 92.0613 432.992 91.8575 433.346C91.2523 434.397 94.1808 435.658 96.7189 435.44L99.0763 435.237L99.6989 439.111C100.318 442.96 101.281 444.979 102.5 444.979C102.85 444.979 103.137 442.715 103.137 439.948V434.919L105.858 434.468C113.367 433.227 114.073 431.53 107.321 430.951L102.774 430.562L102.318 426.549C101.727 421.35 100.773 419.722 99.2671 421.34ZM570.439 422.328C569.249 424.715 569.549 426.142 571.532 427.537L573.376 428.835L575.16 427.961L576.944 427.088V424.889C576.944 423.681 576.552 422.27 576.074 421.756C574.694 420.274 571.291 420.619 570.439 422.328ZM536.484 425.623C535.124 427.083 535.406 429.235 537.084 430.199L538.581 431.06L539.659 430.098C541.211 428.716 540.654 425.161 538.842 424.882C538.04 424.758 536.978 425.092 536.484 425.623ZM408.384 433.073C406.096 433.442 405.956 433.729 405.483 439L405.146 442.762L408.872 442.222C413.804 441.508 414.864 440.819 416.573 437.221L418.012 434.191L414.363 433.351C412.356 432.888 410.648 432.562 410.568 432.627C410.488 432.691 409.505 432.892 408.384 433.073ZM58.6343 433.809C57.715 434.796 58.1547 437.021 59.3679 437.521C60.909 438.156 62.8456 436.148 62.263 434.519C61.8218 433.285 59.5384 432.837 58.6343 433.809ZM126.174 436.469C124.486 437.525 124.558 440.049 126.305 441.053L127.706 441.858L128.845 440.636C129.471 439.962 129.983 439.111 129.983 438.744C129.983 438.178 127.96 435.58 127.574 435.651C127.502 435.664 126.873 436.032 126.174 436.469ZM475.904 436.427C466.638 438.928 460.244 445.529 457.036 455.907C456.834 456.56 454.497 457.917 451.843 458.924C445.092 461.483 438.747 466.036 437.781 469.015L437.006 471.401L438.422 473.334C440.416 476.056 446.348 477.252 454.476 476.569L460.866 476.032L464.304 479.316C466.196 481.122 469.176 483.291 470.927 484.135C483.272 490.086 499.136 482.258 502.337 468.634C503.522 463.592 503.733 463.351 509.724 460.233C512.575 458.748 516.149 456.421 517.666 455.062L520.426 452.589L520.206 449.796L519.986 447.003L517.482 445.438L514.977 443.873L506.673 443.995L498.37 444.118L495.392 441.512C493.754 440.079 491.12 438.331 489.539 437.628C485.947 436.029 479.487 435.46 475.904 436.427ZM214.25 438.386C209.506 439.549 203.265 442.6 203.276 443.748C203.297 445.736 205.429 452.984 207.23 457.183L209.18 461.734L210.312 459.439C212.186 455.638 218.578 438.583 218.352 437.987C218.236 437.681 216.39 437.861 214.25 438.386ZM473.911 440.721C469.404 442.224 465.338 446.075 463.304 450.768L461.591 454.72L461.583 460.005C461.576 465.081 463.003 470.695 464.298 470.695C465.663 470.695 485.57 465.164 491.688 463.085L498.218 460.865L498.13 456.983C498.019 452.094 495.88 447.511 492.081 444.019C487.259 439.585 480.82 438.417 473.911 440.721ZM541.399 445.358C540.04 447.116 541.099 450.325 543.225 450.898C545.423 451.491 547.195 450.094 547.195 447.767C547.195 444.467 543.328 442.861 541.399 445.358ZM163.684 448.164C163.416 448.63 163.56 449.401 164.004 449.878L164.811 450.746L165.619 449.878C166.456 448.979 165.933 447.317 164.811 447.317C164.46 447.317 163.952 447.698 163.684 448.164ZM500.638 447.702C500.373 447.989 500.618 449.411 501.182 450.862C501.747 452.313 502.209 454.739 502.209 456.254C502.209 457.768 502.43 459.006 502.699 459.006C504.001 459.006 513.838 453.239 515.209 451.671L516.769 449.888L515.547 448.797C514.263 447.652 501.551 446.718 500.638 447.702ZM142.386 452.295C141.892 452.934 141.593 454.435 141.722 455.632L141.956 457.808L143.967 458.563L145.977 459.319L147.559 457.62L149.14 455.922L148.437 453.763L147.734 451.603L145.509 451.368C144.19 451.229 142.918 451.607 142.386 452.295ZM92.2812 455.053C91.3575 456.906 91.9656 458.803 93.6692 459.384C95.6457 460.057 97.332 459.02 97.332 457.13C97.332 453.706 93.6968 452.211 92.2812 455.053ZM112.703 455.668C113.283 458.906 152.214 477.719 153.545 475.406C154.114 474.417 152.565 473.439 146.672 471.067C138.387 467.733 124.67 461.003 118.982 457.482C113.34 453.988 112.35 453.702 112.703 455.668ZM449.456 463.66C440.287 468.589 439.307 471.13 446.131 472.288C449.621 472.881 458.216 472.226 459.077 471.302C459.313 471.048 458.942 468.966 458.25 466.677C457.559 464.386 456.893 462.075 456.768 461.539C456.431 460.083 455.734 460.285 449.456 463.66ZM167.464 467.445C165.729 469.503 165.985 472.023 168.077 473.495L169.891 474.771L171.705 473.495C173.992 471.885 174.089 468.875 171.906 467.233C169.817 465.661 168.931 465.703 167.464 467.445ZM489.511 468.461C485.92 469.724 479.595 471.603 475.458 472.637C471.32 473.671 467.752 474.713 467.53 474.952C467.306 475.191 467.753 475.929 468.522 476.591C475.345 482.464 486.613 482.153 492.656 475.922C494.992 473.514 497.855 468.506 497.855 466.83C497.855 465.681 496.871 465.874 489.511 468.461ZM186.668 470.912C185.589 472.071 185.634 473.559 186.76 474.004C188.23 474.584 189.481 473.788 189.481 472.273C189.481 470.545 187.777 469.721 186.668 470.912ZM281.09 472.449C280.695 472.985 279.794 475.352 279.089 477.709C278.384 480.067 277.314 483.047 276.713 484.333C275.102 487.777 268.187 499.088 263.697 505.624C261.013 509.529 259.848 511.919 260.001 513.198L260.226 515.066L268.655 507.492C273.291 503.327 279.723 497.536 282.947 494.623C286.172 491.71 289.009 488.656 289.251 487.836C289.681 486.379 283.34 471.475 282.289 471.475C282.025 471.475 281.485 471.914 281.09 472.449ZM407.656 476.654C406.659 477.725 407.176 479.378 408.427 479.12C409.125 478.975 409.697 478.365 409.697 477.764C409.697 476.533 408.417 475.837 407.656 476.654ZM393.804 485.741C392.226 486.98 392.491 490.06 394.278 491.263L395.548 492.118L396.818 491.263C398.605 490.06 398.87 486.98 397.292 485.741C396.579 485.181 395.795 484.723 395.548 484.723C395.301 484.723 394.517 485.181 393.804 485.741ZM127.484 486.211C126.784 487.428 127.931 489.487 129.168 489.234C129.816 489.102 130.451 488.208 130.578 487.248L130.81 485.502H129.351C128.549 485.502 127.709 485.821 127.484 486.211ZM418.912 487.996C417.525 489.485 417.888 492.373 419.584 493.348L421.127 494.235L422.849 493.392C423.989 492.834 424.571 491.895 424.571 490.612C424.571 487.687 420.816 485.951 418.912 487.996ZM201.28 489.988C198.22 493.058 196.192 497.728 195.293 503.771L194.52 508.968L196.032 511.249C198.01 514.233 210.16 522.888 217.223 526.345C229.556 532.382 240.834 534.692 245.738 532.187L247.891 531.087L250.585 525.244C252.066 522.031 253.485 517.979 253.739 516.241L254.199 513.081L248.564 512.139C234.848 509.849 215.994 500.412 206.919 491.295L203.45 487.81L201.28 489.988ZM362.67 489.123C362.395 489.417 362.166 491.09 362.16 492.841C362.145 497.052 361.666 497.683 357.874 498.486C353.211 499.473 353.248 500.951 357.944 501.24L361.794 501.478L361.934 502.647C362.571 507.968 363.074 509.66 364.017 509.66H365.073V505.458V501.255L366.221 500.782C366.852 500.522 368.24 500.303 369.305 500.297C370.369 500.29 371.691 499.979 372.241 499.604C374.047 498.375 372.308 497.192 368.696 497.192H365.149L364.93 493.162C364.726 489.412 363.853 487.852 362.67 489.123ZM284.802 497.805C281.158 501.111 275.771 506.123 272.829 508.943C269.889 511.763 265.267 515.747 262.56 517.797C259.209 520.334 257.295 522.404 256.565 524.284C255.974 525.802 255.636 527.2 255.814 527.391C256.251 527.861 264.426 523.354 268.522 520.385C274.85 515.798 288.726 503.519 290.349 501.07C291.989 498.597 293.258 491.712 292.065 491.765C291.714 491.781 288.446 494.499 284.802 497.805ZM442.99 492.858C442.416 494.464 443.96 496.447 445.342 495.877C446.789 495.281 446.299 492.208 444.704 491.881C444.005 491.739 443.233 492.178 442.99 492.858ZM154.936 493.63C154.213 495.652 155.225 497.323 157.009 497.051L158.644 496.802V494.854V492.905L157.009 492.656C156.027 492.506 155.197 492.896 154.936 493.63ZM311.864 496.153C310.944 497.139 311.384 499.364 312.597 499.865C314.17 500.512 315.923 498.629 315.32 496.941C314.854 495.638 312.782 495.165 311.864 496.153ZM331.366 503.316C330.662 505.699 331.677 507.322 333.873 507.322C336.069 507.322 337.084 505.699 336.38 503.316C336.094 502.348 335.263 501.867 333.873 501.867C332.484 501.867 331.652 502.348 331.366 503.316ZM190.87 521.449C189.174 524.132 188.135 526.453 188.563 526.606C188.99 526.759 192.219 528.707 195.737 530.936C202.755 535.38 213.426 545.644 213.426 547.95C213.426 548.75 213.222 549.404 212.973 549.404C212.724 549.404 209.529 546.336 205.872 542.586C198.822 535.356 190.502 529.922 186.483 529.922C185.314 529.922 179.04 532.671 172.54 536.03C161.308 541.836 155.656 545.936 153.829 549.602L153.081 551.104L153.934 553.315C155.341 556.966 166.789 563.959 175.175 566.29C181.06 567.926 193.482 567.912 202.905 566.259C214.158 564.284 231.728 559.652 234.275 557.988C237.603 555.815 238.943 552.403 239.373 545.015L239.746 538.578L238.014 538.232C221.872 535.017 211.222 529.891 195.528 517.783L193.955 516.57L190.87 521.449ZM148.467 556.729C146.263 560.343 148.904 564.566 156.257 569.18C160.762 572.007 171.481 575.643 178.515 576.73C191.006 578.659 209.632 576.512 225.2 571.347C233.467 568.605 235.919 566.66 235.919 562.843V561.374L223.361 565.057C216.454 567.083 207.421 569.348 203.286 570.09L195.769 571.441L187.002 570.992C173.357 570.294 162.589 566.227 153.624 558.384L149.603 554.867L148.467 556.729Z" fill="url(#paint0_linear_497_18451)"/>
<defs>
<linearGradient id="paint0_linear_497_18451" x1="154.974" y1="101.274" x2="685.617" y2="564.647" gradientUnits="userSpaceOnUse">
<stop stop-color="#A699EF" stop-opacity="0.3"/>
<stop offset="1" stop-color="#E0A453"/>
</linearGradient>
</defs>
</svg>
