<svg width="36" height="37" viewBox="0 0 36 37" fill="none" xmlns="http://www.w3.org/2000/svg">
<path d="M8.52708 19.2404C11.5281 18.8484 13.9374 16.5721 14.4989 13.5981L16.5 3L18.5011 13.5981C19.0626 16.5721 21.4719 18.8484 24.4729 19.2404L33 20.3542L23.7367 22.3552C21.0167 22.9427 18.9031 25.0856 18.3529 27.8134L16.5 37L14.5048 27.7252C13.9279 25.0436 11.838 22.946 9.15847 22.3593L0 20.3542L8.52708 19.2404Z" fill="#A699EF"/>
<path d="M21.5496 7.97022C24.5477 7.59014 26.9633 5.32895 27.5404 2.36249L28 0L28.4596 2.36249C29.0367 5.32895 31.4523 7.59014 34.4504 7.97022L36 8.16667L33.8224 8.62323C31.0984 9.19435 28.9715 11.325 28.4052 14.05L28 16L27.5478 13.9599C26.9543 11.2821 24.8516 9.19764 22.1687 8.62752L20 8.16667L21.5496 7.97022Z" fill="#E9C788"/>
</svg>
