<svg width="140" height="206" viewBox="0 0 140 206" fill="none" xmlns="http://www.w3.org/2000/svg">
<path opacity="0.8" d="M137.582 4.42983C138.682 4.52595 139.652 3.71183 139.748 2.61145C139.844 1.51107 139.03 0.541119 137.93 0.445L137.756 2.43741L137.582 4.42983ZM50.051 202.416C51.1436 202.253 51.8976 201.236 51.7353 200.143L49.0895 182.339C48.9272 181.246 47.9098 180.492 46.8173 180.655C45.7247 180.817 44.9706 181.834 45.133 182.927L47.4848 198.753L31.6585 201.105C30.566 201.267 29.8119 202.285 29.9742 203.377C30.1366 204.47 31.1539 205.224 32.2465 205.061L50.051 202.416ZM47.9825 196.54C47.1217 195.848 45.8628 195.984 45.1706 196.845C44.4784 197.706 44.615 198.965 45.4757 199.657L46.7291 198.099L47.9825 196.54ZM34.0692 188.984C34.8193 189.795 36.0847 189.844 36.8955 189.094C37.7063 188.344 37.7556 187.079 37.0055 186.268L35.5374 187.626L34.0692 188.984ZM23.3796 168.246C22.7997 167.306 21.5675 167.014 20.6274 167.594C19.6873 168.174 19.3953 169.406 19.9753 170.346L21.6775 169.296L23.3796 168.246ZM6.86229 142.175C7.21096 143.223 8.34326 143.79 9.39135 143.441C10.4394 143.093 11.0064 141.96 10.6578 140.912L8.76004 141.544L6.86229 142.175ZM8.47665 133.677C8.188 132.611 7.08969 131.981 6.0235 132.269C4.95731 132.558 4.32699 133.656 4.61564 134.722L6.54614 134.2L8.47665 133.677ZM1.41893 119.493C1.58258 120.585 2.60079 121.338 3.69317 121.174C4.78555 121.011 5.53843 119.992 5.37479 118.9L3.39686 119.196L1.41893 119.493ZM4.08244 96.3279C4.1242 95.2241 3.26326 94.2954 2.15948 94.2537C1.0557 94.2119 0.127057 95.0729 0.0852962 96.1766L2.08387 96.2523L4.08244 96.3279ZM5.61958 65.5243C5.26292 66.5697 5.82127 67.7063 6.86667 68.063C7.91208 68.4196 9.04867 67.8613 9.40532 66.8159L7.51245 66.1701L5.61958 65.5243ZM12.1144 59.8186C12.5552 58.8058 12.0916 57.6274 11.0789 57.1865C10.0661 56.7456 8.88768 57.2092 8.4468 58.222L10.2806 59.0203L12.1144 59.8186ZM15.9026 44.4449C15.2944 45.367 15.5488 46.6075 16.4708 47.2157C17.3928 47.824 18.6333 47.5696 19.2416 46.6476L17.5721 45.5462L15.9026 44.4449ZM33.9451 29.7673C34.7745 29.0377 34.8554 27.774 34.1259 26.9446C33.3963 26.1152 32.1326 26.0343 31.3032 26.7638L32.6242 28.2655L33.9451 29.7673ZM57.7606 10.2977C56.7447 10.7312 56.2725 11.9062 56.706 12.9222C57.1395 13.9381 58.3145 14.4103 59.3304 13.9768L58.5455 12.1373L57.7606 10.2977ZM66.3458 11.2629C67.3886 10.8989 67.9389 9.75837 67.5749 8.71551C67.2109 7.67265 66.0703 7.12235 65.0275 7.48638L65.6866 9.37465L66.3458 11.2629ZM80.0209 3.26634C78.942 3.50328 78.2595 4.56995 78.4964 5.64881C78.7334 6.72766 79.8001 7.41017 80.8789 7.17323L80.4499 5.21979L80.0209 3.26634ZM103.317 3.99467C104.419 3.91561 105.248 2.95839 105.169 1.85665C105.09 0.754912 104.132 -0.0741318 103.031 0.0049268L103.174 1.9998L103.317 3.99467ZM133.976 0.129852C132.875 0.0505373 131.917 0.87936 131.838 1.98108C131.759 3.0828 132.587 4.04021 133.689 4.11953L133.833 2.12469L133.976 0.129852ZM49.757 200.437L50.948 198.831C49.9467 198.088 48.9581 197.325 47.9825 196.54L46.7291 198.099L45.4757 199.657C46.4917 200.474 47.5219 201.27 48.566 202.044L49.757 200.437ZM35.5374 187.626L37.0055 186.268C31.9526 180.805 27.3892 174.745 23.3796 168.246L21.6775 169.296L19.9753 170.346C24.1128 177.053 28.8309 183.321 34.0692 188.984L35.5374 187.626ZM8.76004 141.544L10.6578 140.912C9.86268 138.522 9.13493 136.109 8.47665 133.677L6.54614 134.2L4.61564 134.722C5.29376 137.227 6.04336 139.713 6.86229 142.175L8.76004 141.544ZM3.39686 119.196L5.37479 118.9C4.24878 111.384 3.7994 103.809 4.08244 96.3279L2.08387 96.2523L0.0852962 96.1766C-0.207599 103.918 0.257869 111.742 1.41893 119.493L3.39686 119.196ZM7.51245 66.1701L9.40532 66.8159C10.2137 64.4463 11.116 62.1119 12.1144 59.8186L10.2806 59.0203L8.4468 58.222C7.404 60.6175 6.46245 63.0537 5.61958 65.5243L7.51245 66.1701ZM17.5721 45.5462L19.2416 46.6476C23.2738 40.5352 28.1554 34.86 33.9451 29.7673L32.6242 28.2655L31.3032 26.7638C25.2417 32.0957 20.1269 38.0413 15.9026 44.4449L17.5721 45.5462ZM58.5455 12.1373L59.3304 13.9768C61.5909 13.0123 63.9289 12.1066 66.3458 11.2629L65.6866 9.37465L65.0275 7.48638C62.5274 8.3591 60.1054 9.29725 57.7606 10.2977L58.5455 12.1373ZM80.4499 5.21979L80.8789 7.17323C87.8193 5.64896 95.2912 4.57058 103.317 3.99467L103.174 1.9998L103.031 0.0049268C94.8263 0.593654 87.1627 1.69785 80.0209 3.26634L80.4499 5.21979ZM133.833 2.12469L133.689 4.11953C134.976 4.21215 136.273 4.31553 137.582 4.42983L137.756 2.43741L137.93 0.445C136.601 0.328952 135.283 0.223948 133.976 0.129852L133.833 2.12469Z" fill="#DFAC67" fill-opacity="0.55"/>
</svg>
