<svg width="189" height="179" viewBox="0 0 189 179" fill="none" xmlns="http://www.w3.org/2000/svg">
<path opacity="0.8" d="M185.86 32.5486C186.822 33.0918 188.042 32.7524 188.585 31.7906C189.128 30.8287 188.789 29.6087 187.827 29.0656L186.843 30.8071L185.86 32.5486ZM15.7128 177.957C16.6237 178.581 17.8686 178.349 18.4934 177.438L28.6745 162.594C29.2993 161.684 29.0673 160.439 28.1564 159.814C27.2455 159.189 26.0006 159.421 25.3758 160.332L16.3259 173.527L3.13125 164.477C2.22036 163.852 0.975449 164.084 0.350685 164.995C-0.274079 165.906 -0.0421191 167.151 0.868784 167.775L15.7128 177.957ZM18.1344 172.137C17.9502 171.048 16.9179 170.314 15.8288 170.498C14.7397 170.683 14.0062 171.715 14.1905 172.804L16.1624 172.47L18.1344 172.137ZM12.0221 157.03C12.1401 158.128 13.126 158.923 14.2243 158.805C15.3225 158.687 16.1172 157.701 15.9992 156.603L14.0106 156.816L12.0221 157.03ZM14.4664 133.112C14.4403 132.008 13.5241 131.134 12.4198 131.16C11.3155 131.186 10.4415 132.102 10.4675 133.207L12.4669 133.16L14.4664 133.112ZM11.5769 101.418C11.4699 102.517 12.2743 103.495 13.3737 103.602C14.473 103.709 15.451 102.905 15.5581 101.806L13.5675 101.612L11.5769 101.418ZM16.4509 94.0278C16.5962 92.9328 15.8263 91.9273 14.7313 91.782C13.6364 91.6367 12.6309 92.4066 12.4856 93.5016L14.4682 93.7647L16.4509 94.0278ZM15.1856 77.793C14.9544 78.8731 15.6427 79.9361 16.7228 80.1673C17.8029 80.3984 18.8659 79.7102 19.097 78.6301L17.1413 78.2115L15.1856 77.793ZM25.6235 56.1841C26.0163 55.1518 25.4979 53.9964 24.4655 53.6036C23.4332 53.2107 22.2778 53.7292 21.885 54.7615L23.7542 55.4728L25.6235 56.1841ZM37.4295 26.7106C36.7411 27.5744 36.8834 28.8327 37.7472 29.5211C38.6111 30.2094 39.8694 30.0672 40.5578 29.2033L38.9936 27.9569L37.4295 26.7106ZM45.6408 23.4414C46.4134 22.652 46.3998 21.3858 45.6104 20.6132C44.821 19.8406 43.5547 19.8542 42.7821 20.6436L44.2115 22.0425L45.6408 23.4414ZM55.3341 10.4047C54.4031 10.9992 54.1303 12.2357 54.7248 13.1667C55.3192 14.0977 56.5558 14.3705 57.4868 13.7761L56.4104 12.0904L55.3341 10.4047ZM78.6378 5.05517C79.7156 4.81345 80.3933 3.74378 80.1516 2.66598C79.9099 1.58818 78.8402 0.910403 77.7624 1.15212L78.2001 3.10365L78.6378 5.05517ZM109.796 0.0151347C108.699 -0.1201 107.701 0.658962 107.566 1.75522C107.43 2.85148 108.21 3.84981 109.306 3.98504L109.551 2.00009L109.796 0.0151347ZM117.048 5.19194C118.133 5.39527 119.178 4.67997 119.382 3.59428C119.585 2.50858 118.87 1.46363 117.784 1.2603L117.416 3.22612L117.048 5.19194ZM133.253 5.01313C132.193 4.70087 131.081 5.30664 130.769 6.36615C130.457 7.42566 131.063 8.5377 132.122 8.84996L132.688 6.93155L133.253 5.01313ZM154.2 16.8204C155.217 17.2502 156.39 16.7738 156.82 15.7562C157.25 14.7387 156.774 13.5654 155.756 13.1356L154.978 14.978L154.2 16.8204ZM184.247 27.069C183.279 26.5363 182.063 26.8888 181.53 27.8564C180.997 28.824 181.35 30.0403 182.318 30.573L183.282 28.821L184.247 27.069ZM16.844 176.307L18.8102 175.941C18.5776 174.692 18.3521 173.424 18.1344 172.137L16.1624 172.47L14.1905 172.804C14.4118 174.113 14.6411 175.403 14.8779 176.674L16.844 176.307ZM14.0106 156.816L15.9992 156.603C15.1918 149.088 14.6568 141.193 14.4664 133.112L12.4669 133.16L10.4675 133.207C10.6606 141.401 11.2031 149.408 12.0221 157.03L14.0106 156.816ZM13.5675 101.612L15.5581 101.806C15.8115 99.2039 16.1083 96.6092 16.4509 94.0278L14.4682 93.7647L12.4856 93.5016C12.1367 96.1307 11.8346 98.7716 11.5769 101.418L13.5675 101.612ZM17.1413 78.2115L19.097 78.6301C20.7661 70.8308 22.9202 63.2882 25.6235 56.1841L23.7542 55.4728L21.885 54.7615C19.0992 62.0824 16.891 69.824 15.1856 77.793L17.1413 78.2115ZM38.9936 27.9569L40.5578 29.2033C42.1658 27.1854 43.8591 25.2619 45.6408 23.4414L44.2115 22.0425L42.7821 20.6436C40.9014 22.5653 39.1184 24.591 37.4295 26.7106L38.9936 27.9569ZM56.4104 12.0904L57.4868 13.7761C63.692 9.81394 70.7112 6.83286 78.6378 5.05517L78.2001 3.10365L77.7624 1.15212C69.3862 3.03065 61.9343 6.1904 55.3341 10.4047L56.4104 12.0904ZM109.551 2.00009L109.306 3.98504C111.822 4.29549 114.403 4.69654 117.048 5.19194L117.416 3.22612L117.784 1.2603C115.06 0.750171 112.398 0.336149 109.796 0.0151347L109.551 2.00009ZM132.688 6.93155L132.122 8.84996C139.085 10.9022 146.438 13.542 154.2 16.8204L154.978 14.978L155.756 13.1356C147.87 9.8047 140.375 7.11218 133.253 5.01313L132.688 6.93155ZM183.282 28.821L182.318 30.573C183.491 31.2189 184.671 31.8774 185.86 32.5486L186.843 30.8071L187.827 29.0656C186.626 28.3874 185.433 27.722 184.247 27.069L183.282 28.821Z" fill="#DFAC67" fill-opacity="0.55"/>
</svg>
