<svg width="169" height="212" viewBox="0 0 169 212" fill="none" xmlns="http://www.w3.org/2000/svg">
<path opacity="0.8" d="M2.00045 3.99973C0.895884 3.99973 0.000453537 3.1043 0.000453345 1.99973C0.000447906 0.895163 0.895882 -0.000272561 2.00045 -0.000274145L2.00045 1.99973L2.00045 3.99973ZM141.263 211.849C140.242 212.27 139.073 211.783 138.652 210.762L131.794 194.119C131.373 193.098 131.86 191.929 132.881 191.508C133.902 191.087 135.072 191.574 135.492 192.595L141.588 207.389L156.381 201.293C157.403 200.872 158.572 201.359 158.993 202.38C159.413 203.401 158.927 204.57 157.905 204.991L141.263 211.849ZM6.235 0.0170487C7.33953 0.0261448 8.22756 0.928914 8.21846 2.03345C8.20937 3.13798 7.30659 4.02601 6.20206 4.01692L6.21853 2.01698L6.235 0.0170487ZM22.4814 4.43029C21.3779 4.38228 20.5223 3.44878 20.5703 2.34526C20.6183 1.24173 21.5518 0.386063 22.6553 0.434069L22.5684 2.43218L22.4814 4.43029ZM47.4049 2.29196C48.5029 2.41242 49.2953 3.40017 49.1748 4.49815C49.0544 5.59613 48.0666 6.38856 46.9686 6.26809L47.1868 4.28002L47.4049 2.29196ZM79.0013 11.6459C77.9263 11.3922 77.2605 10.315 77.5143 9.23993C77.768 8.16491 78.8452 7.49916 79.9203 7.75293L79.4608 9.69943L79.0013 11.6459ZM87.986 9.82506C89.05 10.1217 89.6721 11.2247 89.3755 12.2887C89.0789 13.3527 87.9759 13.9748 86.9119 13.6781L87.4489 11.7516L87.986 9.82506ZM102.27 18.7221C101.239 18.3262 100.724 17.1694 101.12 16.1382C101.516 15.107 102.672 14.5919 103.704 14.9878L102.987 16.8549L102.27 18.7221ZM126.065 25.9771C127.002 26.562 127.287 27.7958 126.702 28.7328C126.117 29.6697 124.883 29.9551 123.946 29.3702L125.006 27.6736L126.065 25.9771ZM147.728 50.6676C147.06 49.7878 147.232 48.5332 148.112 47.8653C148.991 47.1973 150.246 47.3691 150.914 48.2488L149.321 49.4582L147.728 50.6676ZM155.643 55.191C156.217 56.1346 155.917 57.365 154.974 57.9391C154.03 58.5131 152.8 58.2135 152.226 57.2698L153.934 56.2304L155.643 55.191ZM159.099 71.6841C158.724 70.645 159.263 69.499 160.302 69.1245C161.341 68.7499 162.487 69.2887 162.862 70.3278L160.98 71.006L159.099 71.6841ZM168.174 94.8001C168.277 95.8998 167.469 96.8749 166.369 96.9779C165.269 97.0809 164.294 96.2729 164.191 95.1732L166.182 94.9866L168.174 94.8001ZM163.228 127.448C163.375 126.353 164.383 125.586 165.477 125.733C166.572 125.881 167.339 126.888 167.192 127.983L165.21 127.715L163.228 127.448ZM165.91 136.171C165.717 137.259 164.679 137.984 163.591 137.791C162.504 137.598 161.778 136.56 161.971 135.473L163.941 135.822L165.91 136.171ZM158.555 151.384C158.823 150.312 159.909 149.66 160.98 149.928C162.052 150.195 162.704 151.281 162.436 152.352L160.496 151.868L158.555 151.384ZM155.463 176.115C155.114 177.163 153.982 177.73 152.934 177.38C151.886 177.031 151.319 175.899 151.669 174.851L153.566 175.483L155.463 176.115ZM140.209 205.468C140.627 204.446 141.795 203.956 142.817 204.375C143.84 204.793 144.329 205.961 143.91 206.983L142.06 206.226L140.209 205.468ZM2.00045 1.99973L2.00045 -0.000274145C3.42312 -0.000273727 4.8346 0.00551979 6.235 0.0170487L6.21853 2.01698L6.20206 4.01692C4.81278 4.00547 3.41227 3.99973 2.00045 3.99973L2.00045 1.99973ZM22.5684 2.43218L22.6553 0.434069C31.3738 0.813352 39.6164 1.43741 47.4049 2.29196L47.1868 4.28002L46.9686 6.26809C39.2741 5.42386 31.1193 4.80606 22.4814 4.43029L22.5684 2.43218ZM79.4608 9.69943L79.9203 7.75293C82.6851 8.40561 85.3732 9.09668 87.986 9.82506L87.4489 11.7516L86.9119 13.6781C84.3522 12.9646 81.7159 12.2867 79.0013 11.6459L79.4608 9.69943ZM102.987 16.8549L103.704 14.9878C112.079 18.2028 119.507 21.8831 126.065 25.9771L125.006 27.6736L123.946 29.3702C117.626 25.4246 110.431 21.8548 102.27 18.7221L102.987 16.8549ZM149.321 49.4582L150.914 48.2488C152.628 50.5063 154.202 52.822 155.643 55.191L153.934 56.2304L152.226 57.2698C150.855 55.0172 149.358 52.8151 147.728 50.6676L149.321 49.4582ZM160.98 71.006L162.862 70.3278C165.679 78.1452 167.382 86.3491 168.174 94.8001L166.182 94.9866L164.191 95.1732C163.427 87.0125 161.787 79.1442 159.099 71.6841L160.98 71.006ZM165.21 127.715L167.192 127.983C166.824 130.705 166.395 133.436 165.91 136.171L163.941 135.822L161.971 135.473C162.447 132.789 162.868 130.112 163.228 127.448L165.21 127.715ZM160.496 151.868L162.436 152.352C160.448 160.319 158.078 168.271 155.463 176.115L153.566 175.483L151.669 174.851C154.257 167.086 156.596 159.234 158.555 151.384L160.496 151.868ZM142.06 206.226L143.91 206.983C143.391 208.252 142.87 209.514 142.347 210.769L140.501 210L138.655 209.231C139.174 207.983 139.693 206.729 140.209 205.468L142.06 206.226Z" fill="#DFAC67" fill-opacity="0.55"/>
</svg>
