<svg width="214" height="173" viewBox="0 0 214 173" fill="none" xmlns="http://www.w3.org/2000/svg">
<path opacity="0.8" d="M2.21157 6.24959C1.11324 6.3668 0.127849 5.57144 0.010642 4.4731C-0.106565 3.37477 0.688792 2.38938 1.78713 2.27217L1.99935 4.26088L2.21157 6.24959ZM197.124 172.325C196.192 172.917 194.956 172.642 194.363 171.71L184.702 156.523C184.109 155.591 184.384 154.355 185.316 153.762C186.248 153.169 187.484 153.444 188.077 154.376L196.665 167.876L210.165 159.288C211.097 158.695 212.333 158.97 212.926 159.902C213.519 160.834 213.244 162.07 212.312 162.663L197.124 172.325ZM194.89 166.454C195.107 165.37 196.16 164.668 197.243 164.884C198.326 165.101 199.029 166.154 198.813 167.238L196.851 166.846L194.89 166.454ZM201.22 151.705C201.099 152.803 200.111 153.595 199.013 153.474C197.915 153.353 197.123 152.365 197.244 151.267L199.232 151.486L201.22 151.705ZM198.198 128.263C198.166 127.159 199.035 126.237 200.139 126.205C201.243 126.173 202.164 127.042 202.197 128.146L200.198 128.204L198.198 128.263ZM198.028 96.9652C198.294 98.0374 197.64 99.1219 196.568 99.3877C195.496 99.6535 194.411 98.9998 194.146 97.9277L196.087 97.4465L198.028 96.9652ZM192.085 90.5597C191.755 89.5054 192.343 88.3837 193.397 88.0542C194.452 87.7247 195.573 88.3123 195.903 89.3666L193.994 89.9632L192.085 90.5597ZM190.254 74.6249C190.715 75.6287 190.275 76.8161 189.272 77.2771C188.268 77.7382 187.081 77.2982 186.62 76.2944L188.437 75.4597L190.254 74.6249ZM175.01 56.6041C174.353 55.7163 174.54 54.4638 175.428 53.8067C176.316 53.1496 177.568 53.3367 178.225 54.2245L176.618 55.4143L175.01 56.6041ZM156.097 31.7369C156.972 32.4108 157.135 33.6665 156.461 34.5418C155.787 35.4169 154.531 35.5802 153.656 34.9063L154.876 33.3216L156.097 31.7369ZM147.466 30.4537C146.549 29.8378 146.305 28.5953 146.921 27.6783C147.537 26.7613 148.779 26.5172 149.696 27.1331L148.581 28.7934L147.466 30.4537ZM136.105 19.1669C137.089 19.6681 137.48 20.8724 136.979 21.8567C136.478 22.841 135.274 23.2326 134.289 22.7314L135.197 20.9491L136.105 19.1669ZM113.041 13.9794C111.991 13.6364 111.418 12.5072 111.761 11.4572C112.104 10.4073 113.233 9.83411 114.283 10.1771L113.662 12.0782L113.041 13.9794ZM83.7611 3.00003C84.8526 3.16944 85.6001 4.19162 85.4307 5.28312C85.2613 6.37462 84.2391 7.12212 83.1476 6.9527L83.4543 4.97637L83.7611 3.00003ZM75.4385 5.89132C74.3419 5.759 73.5602 4.76276 73.6925 3.66614C73.8248 2.56952 74.8211 1.7878 75.9177 1.92012L75.6781 3.90572L75.4385 5.89132ZM60.3711 0.527836C61.4737 0.594035 62.3139 1.54152 62.2477 2.6441C62.1815 3.74669 61.234 4.58684 60.1314 4.52065L60.2513 2.52424L60.3711 0.527836ZM36.989 4.04394C35.8846 4.06182 34.9748 3.181 34.9569 2.07658C34.939 0.972154 35.8198 0.0623446 36.9243 0.0444615L36.9566 2.0442L36.989 4.04394ZM5.75325 1.86692C6.8526 1.75963 7.83077 2.56384 7.93807 3.66319C8.04537 4.76253 7.24115 5.74071 6.1418 5.84801L5.94753 3.85746L5.75325 1.86692ZM196.051 170.637L194.099 170.203C194.375 168.96 194.639 167.71 194.89 166.454L196.851 166.846L198.813 167.238C198.556 168.522 198.286 169.8 198.003 171.071L196.051 170.637ZM199.232 151.486L197.244 151.267C198.08 143.688 198.424 135.979 198.198 128.263L200.198 128.204L202.197 128.146C202.428 136.058 202.075 143.953 201.22 151.705L199.232 151.486ZM196.087 97.4465L194.146 97.9277C193.532 95.4531 192.846 92.9957 192.085 90.5597L193.994 89.9632L195.903 89.3666C196.689 91.8805 197.396 94.415 198.028 96.9652L196.087 97.4465ZM188.437 75.4597L186.62 76.2944C183.47 69.4371 179.623 62.8375 175.01 56.6041L176.618 55.4143L178.225 54.2245C183.01 60.6896 186.995 67.5287 190.254 74.6249L188.437 75.4597ZM154.876 33.3216L153.656 34.9063C151.67 33.3771 149.607 31.8919 147.466 30.4537L148.581 28.7934L149.696 27.1331C151.909 28.6191 154.042 30.1547 156.097 31.7369L154.876 33.3216ZM135.197 20.9491L134.289 22.7314C127.8 19.4269 120.73 16.4907 113.041 13.9794L113.662 12.0782L114.283 10.1771C122.159 12.7495 129.422 15.7639 136.105 19.1669L135.197 20.9491ZM83.4543 4.97637L83.1476 6.9527C80.6278 6.5616 78.0584 6.20741 75.4385 5.89132L75.6781 3.90572L75.9177 1.92012C78.5815 2.24152 81.1957 2.60186 83.7611 3.00003L83.4543 4.97637ZM60.2513 2.52424L60.1314 4.52065C52.7756 4.07902 45.0659 3.91316 36.989 4.04394L36.9566 2.0442L36.9243 0.0444615C45.0969 -0.087869 52.9084 0.0797887 60.3711 0.527836L60.2513 2.52424ZM5.94753 3.85746L6.1418 5.84801C4.83977 5.97509 3.52971 6.10892 2.21157 6.24959L1.99935 4.26088L1.78713 2.27217C3.11712 2.13024 4.43915 1.99518 5.75325 1.86692L5.94753 3.85746Z" fill="#DFAC67" fill-opacity="0.55"/>
</svg>
