<svg width="44" height="44" viewBox="0 0 44 44" fill="none" xmlns="http://www.w3.org/2000/svg">
<path d="M34.2152 9.0042V34.2155H9.00395V9.0042H34.2152ZM34.2152 5.40259H9.00395C8.04875 5.40259 7.13266 5.78204 6.45723 6.45747C5.7818 7.13291 5.40234 8.04899 5.40234 9.0042V34.2155C5.40234 35.1707 5.7818 36.0868 6.45723 36.7622C7.13266 37.4376 8.04875 37.8171 9.00395 37.8171H34.2152C35.1704 37.8171 36.0865 37.4376 36.7619 36.7622C37.4374 36.0868 37.8168 35.1707 37.8168 34.2155V9.0042C37.8168 8.04899 37.4374 7.13291 36.7619 6.45747C36.0865 5.78204 35.1704 5.40259 34.2152 5.40259Z" fill="white"/>
<path d="M20.5833 28.6148L19.5569 25.2113H14.4066L13.3801 28.5788H10.1387L15.1269 14.4065H18.7285L23.7347 28.6148H20.5833ZM18.7825 22.7262C17.8281 19.6829 17.3059 17.9541 17.1798 17.5579C17.0538 17.1617 16.9817 16.8376 16.9277 16.6035C16.7116 17.4318 16.0993 19.4668 15.1269 22.7262H18.7825Z" fill="white"/>
<path d="M28.6685 28.8128C27.9258 28.8543 27.1822 28.7484 26.4806 28.5012C25.779 28.2539 25.1333 27.8702 24.5807 27.3722C24.0735 26.8251 23.6827 26.1806 23.4319 25.4779C23.1812 24.7753 23.0758 24.029 23.122 23.2844C23.0232 21.765 23.5061 20.2649 24.4726 19.0885C24.955 18.5826 25.5411 18.187 26.1908 17.929C26.8405 17.671 27.5383 17.5567 28.2363 17.5938C28.8953 17.5475 29.5567 17.6407 30.1772 17.8672C30.7978 18.0937 31.3637 18.4485 31.8379 18.9084C32.2798 19.3936 32.6205 19.962 32.8401 20.5804C33.0596 21.1988 33.1536 21.8548 33.1165 22.51V23.9327H26.1114C26.0994 24.2923 26.1584 24.6508 26.2851 24.9876C26.4118 25.3244 26.6036 25.633 26.8497 25.8955C27.1062 26.1439 27.4116 26.3361 27.7464 26.4602C28.0812 26.5842 28.4382 26.6372 28.7946 26.6159C29.4013 26.616 30.0059 26.5434 30.5954 26.3998C31.2188 26.2546 31.8232 26.037 32.3962 25.7515V28.0385C31.8695 28.2974 31.3131 28.4909 30.7394 28.6148C30.0577 28.7511 29.3638 28.8175 28.6685 28.8128ZM28.2543 19.7008C27.9791 19.68 27.7028 19.7229 27.4468 19.8259C27.1907 19.9289 26.9618 20.0895 26.7777 20.295C26.3911 20.7686 26.1754 21.3586 26.1654 21.9698H30.3072C30.3344 21.3587 30.1284 20.7601 29.731 20.295C29.5421 20.0956 29.3124 19.9392 29.0575 19.8366C28.8027 19.7341 28.5287 19.6877 28.2543 19.7008Z" fill="white"/>
</svg>
