<svg width="38" height="38" viewBox="0 0 38 38" fill="none" xmlns="http://www.w3.org/2000/svg">
<path d="M37.1416 20.3654C36.9232 18.829 36.3911 17.372 35.5595 16.0352C34.8341 14.8686 33.9035 13.8311 32.7927 12.9492L32.7957 12.9464L21.1292 3.98592C21.1195 3.97748 21.1095 3.96961 21.1029 3.96502C20.7149 3.66789 20.1898 3.50439 19.6247 3.50439C19.0589 3.50439 18.5132 3.66825 18.0889 3.9659C17.6328 4.28451 17.3721 4.70727 17.3539 5.15734C17.3372 5.57711 17.5374 5.98108 17.9193 6.29606C18.6701 6.88843 19.4194 7.49384 20.1695 8.09983C20.8975 8.68827 21.6477 9.29426 22.3943 9.88423L8.10472 9.87454C6.47056 9.87454 5.35784 10.6419 5.12895 11.9267C5.02838 12.4894 5.20586 13.1081 5.60262 13.582C6.02355 14.0844 6.63472 14.3615 7.32344 14.3615L8.41278 14.3622C9.91767 14.3622 11.4292 14.3586 12.9387 14.3549L14.3782 14.3516L1.40926 23.9463L1.35777 23.9839C0.633361 24.5393 0.159114 25.3177 0.0567924 26.1196C-0.020768 26.7271 0.120953 27.2822 0.466807 27.7256C0.879005 28.2541 1.52257 28.5448 2.2791 28.5448C3.02229 28.5448 3.78064 28.2632 4.4154 27.7504L11.4188 22.019C11.3889 22.2988 11.3526 22.7094 11.3567 23.0074C11.3646 23.4793 11.5161 24.426 11.7559 25.1947C12.2514 26.7743 13.0861 28.2196 14.2366 29.4888C15.4337 30.8092 16.8917 31.8563 18.5698 32.6C20.3439 33.3847 22.2509 33.783 24.2383 33.783H24.2567C26.2504 33.7781 28.1636 33.3735 29.9434 32.58C31.6242 31.8274 33.0816 30.7762 34.2742 29.4558C35.4232 28.1802 36.2567 26.7325 36.7512 25.1542C36.9956 24.3734 37.1532 23.5651 37.2186 22.7507C37.2797 21.962 37.2534 21.1595 37.1416 20.3654ZM24.3837 27.9364C20.0037 27.9364 16.452 24.7592 16.452 20.8397C16.452 16.9205 20.0038 13.7433 24.3837 13.7433C28.7635 13.7433 32.315 16.9205 32.315 20.8397C32.3151 24.7592 28.7635 27.9364 24.3837 27.9364ZM28.9576 20.2161C29.0221 21.386 28.5549 22.4721 27.7344 23.2762C26.8998 24.0953 25.7087 24.6099 24.377 24.6099C23.0456 24.6099 21.8545 24.0953 21.0195 23.2762C20.1993 22.4721 19.733 21.386 19.7972 20.217C19.8602 19.0807 20.4145 18.0777 21.2493 17.3675C22.0703 16.6691 23.1728 16.243 24.3769 16.243C25.5813 16.243 26.6834 16.6692 27.5044 17.3675C28.3395 18.0777 28.894 19.0801 28.9576 20.2161Z" fill="white"/>
</svg>
