<svg width="37" height="39" viewBox="0 0 37 39" fill="none" xmlns="http://www.w3.org/2000/svg">
<path fill-rule="evenodd" clip-rule="evenodd" d="M17.7703 2.00534C17.2873 2.11463 17.2003 2.16052 12.9941 4.52655C11.0946 5.59509 8.27859 7.17566 6.73639 8.03909L3.93238 9.60885L3.48265 10.0534C2.98175 10.5485 2.72167 11.0235 2.60513 11.6561C2.50076 12.2225 2.50076 26.4865 2.60513 27.0529C2.72167 27.6855 2.98175 28.1605 3.48265 28.6556L3.93238 29.1001L6.73639 30.6699C8.27859 31.5333 11.0946 33.1144 12.9941 34.1834C14.8937 35.2524 16.6787 36.2443 16.9608 36.3877C17.8267 36.8278 18.6627 36.8979 19.5067 36.6013C19.7053 36.5314 20.5755 36.0751 21.4405 35.587C22.3055 35.099 25.2567 33.4398 27.9986 31.8999C31.202 30.1009 33.1036 28.993 33.3188 28.8006C33.737 28.4266 34.023 28.0149 34.2164 27.5089L34.3661 27.1168L34.3861 19.6281L34.4061 12.1393L34.3305 11.6985C34.2172 11.0382 33.9608 10.5603 33.4481 10.0534L32.9983 9.60885L28.0058 6.80908C25.2599 5.26921 22.3055 3.60999 21.4405 3.12195C20.5755 2.63392 19.7056 2.17768 19.5075 2.10799C19.0333 1.94133 18.2561 1.89544 17.7703 2.00534ZM17.5079 10.3003C15.4532 10.5544 13.6326 11.4191 12.1682 12.8367C10.8157 14.1457 9.97837 15.6489 9.56543 17.5088L9.40615 18.226V19.3545V20.4829L9.5644 21.1955C9.95703 22.9635 10.7121 24.3755 11.9475 25.6517C13.2566 27.0041 14.7598 27.8415 16.6197 28.2544L17.3369 28.4137H18.4654H19.5938L20.3064 28.2554C21.6164 27.9645 22.6972 27.488 23.7505 26.7369C24.3697 26.2953 25.6726 25.007 25.6298 24.8787C25.6024 24.7966 22.507 22.9821 22.3913 22.9803C22.3501 22.9797 22.2578 23.0445 22.1861 23.1243C21.7149 23.6491 20.6226 24.27 19.7741 24.4952L19.2518 24.6338H18.4654H17.6789L17.1561 24.4951C15.2952 24.0011 13.8187 22.5245 13.3246 20.6632L13.186 20.141V19.3545V18.568L13.3246 18.0458C13.819 16.1832 15.2941 14.7082 17.1566 14.2138L17.6789 14.0752H18.4654H19.2518L19.7741 14.2138C20.6226 14.439 21.7149 15.0598 22.1861 15.5847C22.2578 15.6645 22.3501 15.7293 22.3913 15.7286C22.507 15.7269 25.6024 13.9124 25.6298 13.8303C25.6726 13.702 24.3697 12.4137 23.7505 11.9722C22.721 11.2381 21.6994 10.7792 20.4487 10.4889L19.7306 10.3222L18.7389 10.2965C18.1935 10.2823 17.6395 10.2841 17.5079 10.3003ZM24.5521 17.8499V18.6022H23.7656H22.9791V19.3545V20.1068H23.7656H24.5521V20.8591V21.6114H25.3044H26.0567V20.8591V20.1068H26.809H27.5613V19.3545V18.6022H26.809H26.0567V17.8499V17.0976H25.3044H24.5521V17.8499ZM29.8182 17.8499V18.6022H29.0659H28.3136V19.3545V20.1068H29.0659H29.8182V20.8591V21.6114H30.5705H31.3228V20.8591V20.1068H32.1092H32.8957V19.3545V18.6022H32.1092H31.3228V17.8499V17.0976H30.5705H29.8182V17.8499Z" fill="white"/>
</svg>
