<svg width="38" height="38" viewBox="0 0 38 38" fill="none" xmlns="http://www.w3.org/2000/svg">
<path d="M6.36158 18.6979C6.48678 18.6978 6.6098 18.6652 6.71867 18.6033C6.80105 18.5564 6.87335 18.4937 6.93142 18.4187C6.98949 18.3437 7.03219 18.2581 7.05705 18.1666C7.08192 18.0751 7.08847 17.9796 7.07633 17.8855C7.06419 17.7915 7.0336 17.7008 6.98631 17.6186C5.77938 15.5244 5.68039 13.7969 6.44004 12.4858C7.48565 10.6843 10.371 10.0185 14.159 10.7048C14.347 10.7388 14.541 10.697 14.6983 10.5884C14.8556 10.4799 14.9636 10.3134 14.9985 10.1255C15.0154 10.0323 15.0138 9.93657 14.9938 9.84394C14.9737 9.7513 14.9356 9.66352 14.8816 9.58562C14.8276 9.50773 14.7588 9.44123 14.6791 9.38993C14.5994 9.33864 14.5103 9.30355 14.4171 9.28668C12.2767 8.89952 10.3109 8.90686 8.74244 9.30868C7.10729 9.72736 5.88277 10.5757 5.18985 11.7636C4.1633 13.5373 4.25862 15.7767 5.73392 18.335C5.79726 18.4454 5.88868 18.5372 5.9989 18.6009C6.10913 18.6647 6.23425 18.6981 6.36158 18.6979Z" fill="white"/>
<path d="M26.515 10.539C28.879 10.5698 30.3726 11.2216 31.1191 12.5085C32.161 14.3035 31.3038 17.114 28.8262 20.0258C28.7371 20.1306 28.6798 20.2589 28.6613 20.3952C28.6428 20.5316 28.6637 20.6704 28.7217 20.7953C28.7796 20.9201 28.8721 21.0257 28.9883 21.0996C29.1044 21.1735 29.2392 21.2126 29.3769 21.2122C29.4816 21.2123 29.5852 21.1897 29.6804 21.1459C29.7756 21.1021 29.8602 21.0381 29.9283 20.9585C31.3302 19.3109 32.3003 17.6192 32.7329 16.067C33.1832 14.4538 33.0578 12.9719 32.3663 11.7863C31.3544 10.0426 29.4238 9.13555 26.5304 9.09743H26.5201C26.329 9.09626 26.1452 9.17108 26.0092 9.30543C25.8732 9.43978 25.7961 9.62265 25.7949 9.81381C25.7938 10.005 25.8686 10.1888 26.0029 10.3248C26.1373 10.4608 26.3202 10.5378 26.5113 10.539H26.515Z" fill="white"/>
<path d="M23.9385 30.4217C23.7744 30.3239 23.5784 30.2948 23.393 30.3408C23.2076 30.3869 23.0479 30.5042 22.9486 30.6674C21.7453 32.6581 20.2671 33.7544 18.7859 33.7544C16.6969 33.7544 14.6797 31.6052 13.3797 28.0042C13.3143 27.8246 13.1805 27.6782 13.0076 27.5969C12.8346 27.5155 12.6365 27.5059 12.4565 27.5701C12.3669 27.6016 12.2844 27.6505 12.2138 27.7139C12.1431 27.7774 12.0857 27.8542 12.0448 27.9399C12.0039 28.0256 11.9804 28.1186 11.9755 28.2134C11.9707 28.3083 11.9846 28.4031 12.0166 28.4926C12.7498 30.5288 13.7375 32.2138 14.8763 33.3657C16.0575 34.5639 17.4096 35.1989 18.7859 35.1989C20.7936 35.1989 22.7118 33.8548 24.1863 31.4146C24.2353 31.3334 24.2678 31.2433 24.2819 31.1495C24.296 31.0557 24.2914 30.9601 24.2683 30.8681C24.2453 30.7761 24.2043 30.6895 24.1477 30.6134C24.0911 30.5373 24.02 30.4732 23.9385 30.4247V30.4217Z" fill="white"/>
<path d="M31.6545 24.8233C31.2667 24.8214 30.8844 24.9152 30.5415 25.0964C30.1986 25.2776 29.9058 25.5406 29.6889 25.8622C29.472 26.1837 29.3379 26.5538 29.2983 26.9396C29.2587 27.3254 29.315 27.715 29.4621 28.0738C26.3971 29.5037 20.6778 28.4251 15.3933 25.3887C12.9801 24.0028 10.8354 22.3193 9.18996 20.5206C9.06048 20.38 8.88075 20.2961 8.68979 20.2872C8.49882 20.2782 8.31205 20.345 8.17001 20.473C8.09963 20.5366 8.04252 20.6134 8.00199 20.6992C7.96147 20.785 7.93832 20.8779 7.93389 20.9727C7.92946 21.0674 7.94383 21.1621 7.97618 21.2513C8.00852 21.3404 8.0582 21.4223 8.12235 21.4922C9.86675 23.3986 12.1318 25.179 14.6725 26.6381C17.626 28.3341 20.7049 29.4707 23.5763 29.9238C24.4249 30.0615 25.283 30.1329 26.1427 30.1372C27.838 30.1372 29.2957 29.8219 30.4329 29.1994C30.7443 29.3896 31.0956 29.505 31.4591 29.5366C31.8226 29.5682 32.1885 29.5151 32.528 29.3815C32.8675 29.2479 33.1715 29.0375 33.416 28.7667C33.6605 28.4958 33.839 28.172 33.9373 27.8206C34.0356 27.4693 34.0512 27.0999 33.9827 26.7415C33.9143 26.3831 33.7637 26.0454 33.5428 25.755C33.3219 25.4646 33.0367 25.2293 32.7096 25.0677C32.3825 24.906 32.0223 24.8224 31.6575 24.8233H31.6545ZM31.6545 28.098C31.4464 28.098 31.2443 28.0278 31.0811 27.8986C31.0362 27.8365 30.9817 27.7818 30.9198 27.7365C30.7927 27.571 30.7253 27.3673 30.7287 27.1585C30.732 26.9498 30.8059 26.7484 30.9383 26.587C31.0707 26.4256 31.2538 26.3138 31.4578 26.2696C31.6618 26.2255 31.8748 26.2518 32.062 26.3441C32.2492 26.4364 32.3997 26.5893 32.489 26.778C32.5783 26.9667 32.601 27.1801 32.5536 27.3834C32.5062 27.5867 32.3914 27.7679 32.2279 27.8977C32.0644 28.0274 31.8618 28.0981 31.6531 28.098H31.6545Z" fill="white"/>
<path d="M6.01875 24.8272C6.06055 23.2683 6.92871 21.381 8.48834 19.4628C10.1887 17.3767 12.6451 15.3566 15.4058 13.7691C17.8439 12.3686 20.1866 11.43 22.5968 10.916C22.6908 10.8977 22.7802 10.8608 22.8598 10.8075C22.9394 10.7542 23.0076 10.6856 23.0603 10.6057C23.1131 10.5258 23.1494 10.4361 23.1671 10.342C23.1849 10.2479 23.1837 10.1512 23.1636 10.0575C23.1435 9.96385 23.105 9.87514 23.0502 9.79655C22.9955 9.71796 22.9256 9.65108 22.8447 9.5998C22.7638 9.54852 22.6735 9.51388 22.5791 9.4979C22.4846 9.48192 22.388 9.48492 22.2947 9.50672C19.7393 10.0515 17.2514 11.0465 14.6843 12.5196C8.5118 16.0649 4.39167 21.2556 4.57938 25.2166C4.1097 25.5272 3.76593 25.9948 3.60968 26.5358C3.45342 27.0767 3.49489 27.6556 3.72665 28.1688C3.9584 28.682 4.3653 29.0959 4.87446 29.3363C5.38361 29.5768 5.96174 29.6281 6.50528 29.481C7.04882 29.334 7.52225 28.9983 7.84076 28.5339C8.15926 28.0696 8.30203 27.507 8.24348 26.947C8.18493 26.387 7.9289 25.8661 7.52124 25.4777C7.11359 25.0892 6.58095 24.8587 6.01875 24.8272ZM5.8875 28.0983C5.70651 28.097 5.52995 28.0421 5.3801 27.9406C5.23024 27.8391 5.11379 27.6955 5.04543 27.5279C4.97707 27.3603 4.95985 27.1762 4.99596 26.9989C5.03207 26.8215 5.11988 26.6588 5.24832 26.5313C5.37676 26.4038 5.54009 26.3171 5.7177 26.2823C5.89531 26.2475 6.07926 26.266 6.24636 26.3356C6.41346 26.4051 6.55621 26.5226 6.65664 26.6732C6.75706 26.8238 6.81066 27.0007 6.81066 27.1817C6.8095 27.4256 6.71165 27.659 6.53859 27.8309C6.36552 28.0027 6.13137 28.0988 5.8875 28.0983Z" fill="white"/>
<path d="M18.7857 7.06272C19.1676 7.06369 19.5441 6.97208 19.8829 6.79572C20.2217 6.61937 20.5127 6.36352 20.731 6.0501C22.0428 6.90727 23.2241 8.61647 24.09 10.8983C25.0432 13.42 25.5448 16.4256 25.5448 19.5903C25.5448 22.3165 25.1642 24.8953 24.4449 27.1867C24.4161 27.2769 24.4055 27.3719 24.4139 27.4662C24.4222 27.5605 24.4492 27.6522 24.4933 27.736C24.5373 27.8203 24.5975 27.895 24.6705 27.9559C24.7435 28.0168 24.8278 28.0627 24.9186 28.0908C25.1012 28.1473 25.2987 28.1293 25.4681 28.0409C25.6376 27.9524 25.7653 27.8007 25.8234 27.6186C26.5875 25.1886 26.9915 22.461 26.9915 19.5903C26.9915 16.1315 26.4218 12.8613 25.3439 10.1314C24.2873 7.45647 22.8413 5.55589 21.1541 4.62027C21.1395 4.15527 20.9884 3.70486 20.7194 3.32524C20.4505 2.94563 20.0757 2.65362 19.6419 2.48566C19.2081 2.31771 18.7344 2.28124 18.2799 2.38082C17.8255 2.4804 17.4104 2.71161 17.0866 3.04559C16.7627 3.37958 16.5444 3.80155 16.4588 4.25883C16.3733 4.71612 16.4243 5.18848 16.6056 5.61695C16.7868 6.04542 17.0902 6.41103 17.4779 6.66814C17.8656 6.92526 18.3205 7.06249 18.7857 7.06272ZM18.7857 3.78803C18.9667 3.78933 19.1432 3.84419 19.2931 3.94569C19.443 4.0472 19.5594 4.19079 19.6278 4.35838C19.6961 4.52597 19.7133 4.71005 19.6772 4.88741C19.6411 5.06477 19.5533 5.22747 19.4249 5.35499C19.2964 5.48252 19.1331 5.56916 18.9555 5.60399C18.7779 5.63883 18.5939 5.62029 18.4268 5.55073C18.2597 5.48117 18.117 5.36369 18.0166 5.21311C17.9161 5.06253 17.8625 4.88559 17.8625 4.70459C17.8637 4.46072 17.9615 4.22726 18.1346 4.05544C18.3077 3.88361 18.5418 3.78744 18.7857 3.78803Z" fill="white"/>
<path d="M18.4047 17.8443C17.9731 17.9368 17.5911 18.1858 17.3323 18.5433C17.0735 18.9008 16.9563 19.3416 17.0033 19.7804C17.0503 20.2193 17.2583 20.6252 17.5869 20.9198C17.9156 21.2143 18.3417 21.3768 18.7831 21.3757C18.9103 21.3756 19.0371 21.362 19.1614 21.3353C19.3933 21.2883 19.6135 21.1957 19.8093 21.0629C20.005 20.9301 20.1725 20.7597 20.3018 20.5616C20.4312 20.3635 20.52 20.1417 20.5629 19.9091C20.6059 19.6765 20.6022 19.4376 20.5521 19.2064C20.5019 18.9752 20.4064 18.7562 20.271 18.5623C20.1355 18.3683 19.9629 18.2031 19.7632 18.0764C19.5634 17.9497 19.3404 17.8639 19.1072 17.8241C18.874 17.7843 18.6352 17.7911 18.4047 17.8443Z" fill="white"/>
</svg>
