<svg width="40" height="40" viewBox="0 0 40 40" fill="none" xmlns="http://www.w3.org/2000/svg">
<path d="M19.9149 4.97852H14.9362C12.1866 4.97852 9.95752 7.20756 9.95752 9.95721C9.95752 12.7069 12.1866 14.9359 14.9362 14.9359M19.9149 4.97852V14.9359M19.9149 4.97852H24.8936C27.6433 4.97852 29.8723 7.20756 29.8723 9.95721C29.8723 12.7069 27.6433 14.9359 24.8936 14.9359M14.9362 14.9359H19.9149M14.9362 14.9359C12.1866 14.9359 9.95752 17.1649 9.95752 19.9146C9.95752 22.6643 12.1866 24.8933 14.9362 24.8933M19.9149 14.9359H24.8936M19.9149 14.9359V24.8933M24.8936 14.9359C27.6433 14.9359 29.8723 17.1649 29.8723 19.9146C29.8723 22.6643 27.6433 24.8933 24.8936 24.8933C22.1439 24.8933 19.9149 22.6643 19.9149 19.9146C19.9149 17.1649 22.1439 14.9359 24.8936 14.9359ZM19.9149 24.8933H14.9362M19.9149 24.8933V29.872C19.9149 32.6217 17.6859 34.8507 14.9362 34.8507C12.1866 34.8507 9.95752 32.6217 9.95752 29.872C9.95752 27.1223 12.1866 24.8933 14.9362 24.8933" stroke="white" stroke-width="3.12853" stroke-linecap="round" stroke-linejoin="round"/>
</svg>
