<svg width="38" height="38" viewBox="0 0 38 38" fill="none" xmlns="http://www.w3.org/2000/svg">
<path d="M27.8623 35.2019C27.7227 35.2759 27.7344 35.2993 27.8682 35.2313C27.9116 35.2137 27.9479 35.189 27.9796 35.1597C27.9796 35.1351 27.9796 35.1351 27.8623 35.2019ZM28.1439 35.0494C28.077 35.1046 28.077 35.1046 28.1568 35.0682C28.199 35.0436 28.2366 35.0201 28.2366 35.0131C28.2366 34.9814 28.2178 34.9884 28.1439 35.0494ZM28.3269 34.9391C28.26 34.9943 28.26 34.9943 28.3398 34.9579C28.3832 34.9333 28.4196 34.9075 28.4196 34.9016C28.4196 34.8723 28.4008 34.8781 28.3269 34.9391ZM28.5123 34.83C28.4454 34.8852 28.4454 34.8852 28.5228 34.8476C28.5662 34.8242 28.6026 34.7995 28.6026 34.7925C28.6026 34.7632 28.5838 34.769 28.5123 34.83ZM28.7621 34.6646C28.6343 34.7503 28.5897 34.8054 28.707 34.7444C28.7856 34.6963 28.9194 34.5907 28.8959 34.5907C28.8454 34.6095 28.8032 34.6412 28.761 34.6646H28.7621ZM17.5428 0.0130176C17.4572 0.0188836 17.2003 0.0423475 16.975 0.0611187C11.6393 0.544477 6.64735 3.41647 3.48323 7.8406C1.73399 10.2656 0.598331 13.0825 0.170114 16.0401C0.0187712 17.0725 0 17.3775 0 18.7772C0 20.1756 0.0187712 20.476 0.170114 21.5084C1.19197 28.5605 6.20857 34.4804 13.0084 36.6743C14.2321 37.065 15.5144 37.3348 16.975 37.5002C17.5428 37.5612 19.9984 37.5612 20.5662 37.5002C23.0909 37.2187 25.2226 36.5957 27.332 35.5199C27.6558 35.3556 27.7168 35.3122 27.6734 35.2759C26.641 33.9138 25.6274 32.5505 24.6125 31.1755L21.6127 27.1245L17.8549 21.5576C16.6019 19.6946 15.3443 17.8363 14.0667 15.992C14.0538 15.992 14.0373 18.4663 14.0303 21.4837C14.0174 26.769 14.0174 26.9837 13.9505 27.1057C13.8836 27.2523 13.7734 27.3744 13.6267 27.4424C13.5106 27.4975 13.4061 27.5093 12.8512 27.5093H12.2165L12.0511 27.406C11.9479 27.3392 11.8622 27.2465 11.8071 27.1374L11.7273 26.972L11.7332 19.6148L11.7461 12.2577L11.8622 12.111C11.9361 12.0207 12.0276 11.9468 12.1309 11.8917C12.2846 11.8177 12.3456 11.806 12.9803 11.806C13.7253 11.806 13.8484 11.8353 14.0444 12.05C15.5648 14.3167 17.0806 16.5891 18.5717 18.8687C21.0108 22.5666 24.3404 27.6125 25.977 30.088L28.9534 34.5919L29.1 34.4945C30.5302 33.5407 31.8312 32.405 32.954 31.1098C35.3192 28.4021 36.8537 25.0714 37.3734 21.5166C37.5248 20.4842 37.5435 20.178 37.5435 18.7795C37.5435 17.3799 37.5248 17.0807 37.3734 16.0483C36.3516 8.9962 31.335 3.07624 24.5351 0.881185C23.2634 0.478778 21.9552 0.204249 20.6307 0.0634651C20.2752 0.027096 17.849 -0.0163124 17.544 0.015364L17.5428 0.0130176ZM25.2238 11.3661C25.4009 11.4505 25.5347 11.6101 25.5957 11.7931C25.6274 11.8917 25.6332 13.9318 25.6274 18.5273L25.6145 25.1253L24.4542 23.3421L23.2868 21.5576V16.7675C23.2868 13.662 23.2997 11.921 23.3162 11.8353C23.3713 11.6394 23.505 11.4752 23.6834 11.3719C23.8288 11.298 23.8852 11.2922 24.4659 11.2922C25.0091 11.2922 25.1018 11.298 25.2238 11.3661Z" fill="white"/>
</svg>
