<svg width="40" height="40" viewBox="0 0 40 40" fill="none" xmlns="http://www.w3.org/2000/svg">
<path d="M35.1 9.79139L21.3256 1.99143C20.8842 1.7842 20.4026 1.67676 19.915 1.67676C19.4274 1.67676 18.9457 1.7842 18.5044 1.99143L4.72997 9.79139C4.30645 10.0358 3.95375 10.3862 3.70646 10.808C3.45916 11.2299 3.32576 11.7088 3.31934 12.1978V27.6317C3.32576 28.1207 3.45916 28.5996 3.70646 29.0214C3.95375 29.4433 4.30645 29.7936 4.72997 30.0381L8.38101 32.1125C9.3348 32.6761 10.4265 32.9634 11.5342 32.9423C14.1065 32.9423 15.6001 31.3657 15.6001 28.7104V13.5254C15.6001 13.4154 15.5564 13.3098 15.4786 13.232C15.4008 13.1542 15.2953 13.1105 15.1852 13.1105H13.4427C13.3326 13.1105 13.2271 13.1542 13.1493 13.232C13.0715 13.3098 13.0278 13.4154 13.0278 13.5254V28.7104C13.0278 29.9551 11.7831 31.1168 9.79164 30.1211L5.97464 27.9636C5.92311 27.925 5.88129 27.8749 5.85248 27.8173C5.82368 27.7596 5.80868 27.6961 5.80868 27.6317V12.1978C5.81439 12.0444 5.87304 11.8978 5.97464 11.7829L19.666 4.06589H20.1639L33.8553 11.7829C33.9569 11.8978 34.0156 12.0444 34.0213 12.1978V27.6317C34.0213 27.6961 34.0063 27.7596 33.9775 27.8173C33.9487 27.8749 33.9069 27.925 33.8553 27.9636L20.1639 35.6806C20.0882 35.7243 20.0024 35.7473 19.915 35.7473C19.8276 35.7473 19.7417 35.7243 19.666 35.6806L16.181 33.6891C16.1353 33.6483 16.0762 33.6257 16.015 33.6257C15.9538 33.6257 15.8947 33.6483 15.849 33.6891L13.7746 34.6019C13.5257 34.6849 13.1937 34.7678 13.8576 35.1827L18.5044 37.7551C18.9235 38.0299 19.4138 38.1763 19.915 38.1763C20.4162 38.1763 20.9065 38.0299 21.3256 37.7551L35.1 30.0381C35.5235 29.7936 35.8762 29.4433 36.1235 29.0214C36.3708 28.5996 36.5042 28.1207 36.5106 27.6317V12.1978C36.5042 11.7088 36.3708 11.2299 36.1235 10.808C35.8762 10.3862 35.5235 10.0358 35.1 9.79139Z" fill="white"/>
<path d="M24.1468 25.1425C20.4958 25.1425 19.749 24.3128 19.4171 22.5702C19.4171 22.4822 19.3821 22.3978 19.3199 22.3355C19.2576 22.2733 19.1732 22.2383 19.0852 22.2383H17.2596C17.1716 22.2383 17.0872 22.2733 17.0249 22.3355C16.9627 22.3978 16.9277 22.4822 16.9277 22.5702C16.9277 24.8106 18.1724 27.5489 24.1468 27.5489C28.4617 27.5489 30.9511 25.8893 30.9511 22.9851C30.9511 20.0809 28.9596 19.2511 24.7277 18.7532C20.4958 18.2553 20.0809 17.9234 20.0809 16.9277C20.0809 15.932 20.4128 15.1022 23.566 15.1022C26.7192 15.1022 27.466 15.683 27.8809 17.5085C27.9003 17.6037 27.9524 17.689 28.0282 17.7496C28.104 17.8103 28.1987 17.8424 28.2958 17.8405H30.0383L30.3702 17.6745C30.4002 17.6408 30.4231 17.6014 30.4373 17.5586C30.4516 17.5158 30.457 17.4705 30.4532 17.4256C30.2043 14.1894 27.9638 12.6958 23.566 12.6958C19.1681 12.6958 17.3426 14.3554 17.3426 17.0107C17.3426 19.666 19.666 20.7447 23.4 21.1596C27.1341 21.5745 28.2958 22.1553 28.2958 23.0681C28.2958 23.9808 27.0511 25.1425 24.1468 25.1425Z" fill="white"/>
</svg>
