<svg width="44" height="44" viewBox="0 0 44 44" fill="none" xmlns="http://www.w3.org/2000/svg">
<path d="M34.2152 9.0042V34.2155H9.00395V9.0042H34.2152ZM34.2152 5.40259H9.00395C8.04875 5.40259 7.13266 5.78204 6.45723 6.45747C5.7818 7.13291 5.40234 8.04899 5.40234 9.0042V34.2155C5.40234 35.1707 5.7818 36.0868 6.45723 36.7622C7.13266 37.4376 8.04875 37.8171 9.00395 37.8171H34.2152C35.1704 37.8171 36.0865 37.4376 36.7619 36.7622C37.4374 36.0868 37.8168 35.1707 37.8168 34.2155V9.0042C37.8168 8.04899 37.4374 7.13291 36.7619 6.45747C36.0865 5.78204 35.1704 5.40259 34.2152 5.40259Z" fill="white"/>
<path d="M21.8077 18.8546C21.8465 19.5078 21.737 20.1614 21.4876 20.7664C21.2381 21.3714 20.855 21.9121 20.367 22.3482C19.2054 23.2244 17.767 23.6528 16.3152 23.5547H15.0366V28.5789H12.0293V14.4066H16.5493C17.9423 14.311 19.3248 14.706 20.4571 15.5231C20.9267 15.9344 21.2934 16.45 21.5279 17.0285C21.7625 17.607 21.8583 18.2324 21.8077 18.8546ZM15.0366 21.1056H16.0091C16.7183 21.141 17.4197 20.945 18.008 20.5473C18.2456 20.3616 18.4328 20.1192 18.5524 19.8423C18.6719 19.5654 18.72 19.263 18.6923 18.9626C18.7185 18.6751 18.6805 18.3853 18.5808 18.1143C18.4811 17.8433 18.3223 17.5979 18.116 17.3959C17.5942 17.0202 16.9562 16.8416 16.3152 16.8917H15.0366V21.1056Z" fill="white"/>
<path d="M31.1896 25.3735C31.2152 25.8581 31.1239 26.3418 30.9233 26.7838C30.7227 27.2257 30.4187 27.6129 30.037 27.9126C29.0048 28.5589 27.7944 28.8615 26.5795 28.777C25.9036 28.7862 25.2283 28.7319 24.5626 28.6149C24.0243 28.5188 23.4987 28.3618 22.9959 28.1467V25.7156C23.5775 25.9804 24.1798 26.1972 24.7967 26.3639C25.3858 26.5141 25.9898 26.5986 26.5975 26.616C27.66 26.616 28.2002 26.3099 28.2002 25.6976C28.2045 25.592 28.1875 25.4866 28.1504 25.3877C28.1133 25.2887 28.0568 25.1982 27.9841 25.1214C27.7718 24.9215 27.5286 24.7573 27.2638 24.6352L25.8592 23.9869C25.2211 23.7382 24.6162 23.4116 24.0584 23.0144C23.6999 22.7506 23.4097 22.4048 23.212 22.006C23.0209 21.5566 22.9288 21.0714 22.9419 20.5833C22.925 20.1473 23.0185 19.714 23.2137 19.3236C23.4089 18.9333 23.6994 18.5985 24.0584 18.3503C25.01 17.7709 26.1154 17.4945 27.2278 17.558C28.543 17.5588 29.8414 17.8541 31.0275 18.4224L30.1451 20.5473C29.6517 20.328 29.1467 20.1356 28.6324 19.9711C28.1657 19.8276 27.6801 19.7548 27.1918 19.755C26.3094 19.755 25.8772 19.9891 25.8772 20.4573C25.8847 20.5988 25.9283 20.736 26.004 20.8558C26.0797 20.9756 26.1848 21.074 26.3094 21.1416C26.8793 21.489 27.4826 21.7786 28.1102 22.006C28.7446 22.2549 29.3488 22.5751 29.911 22.9604C30.2764 23.2293 30.5726 23.5811 30.7754 23.9869C31.0236 24.4088 31.1657 24.8846 31.1896 25.3735Z" fill="white"/>
</svg>
