<svg width="38" height="38" viewBox="0 0 38 38" fill="none" xmlns="http://www.w3.org/2000/svg">
<path d="M11.3883 5.5695C10.7991 5.90969 10.179 6.84783 10.107 8.89418C10.0729 9.86621 9.25717 10.6265 8.28517 10.5923C7.31315 10.5581 6.55288 9.74244 6.58705 8.77041C6.67526 6.26167 7.46862 3.76547 9.62721 2.51921C11.7919 1.26941 14.3585 1.83696 16.5809 3.02255C17.439 3.48036 17.7635 4.54715 17.3057 5.40527C16.8479 6.26341 15.7811 6.58794 14.923 6.13015C13.1069 5.16128 11.9793 5.22827 11.3883 5.5695ZM20.8312 8.62413C21.5802 8.00362 22.6903 8.10775 23.3109 8.85673C24.6126 10.4279 25.8613 12.2196 26.9948 14.1829C29.4375 18.4136 30.9436 22.748 31.3496 26.3837C31.5522 28.1986 31.4902 29.9256 31.0664 31.4068C30.6393 32.8992 29.8073 34.2501 28.4121 35.0555C26.724 36.0302 24.7749 35.8919 22.9909 35.2424C21.2005 34.5906 19.3579 33.3562 17.6013 31.7529C16.883 31.0971 16.8322 29.9831 17.4879 29.2648C18.1436 28.5466 19.2575 28.4956 19.9759 29.1514C21.5235 30.564 22.978 31.4892 24.1958 31.9328C25.4201 32.3784 26.1903 32.2714 26.651 32.0053C27.037 31.7825 27.4254 31.3284 27.6802 30.4377C27.9382 29.536 28.0197 28.3014 27.8493 26.7744C27.5088 23.7264 26.203 19.8557 23.9446 15.944C22.9058 14.1448 21.7691 12.5166 20.5986 11.1038C19.9781 10.3548 20.0822 9.24461 20.8312 8.62413Z" fill="white"/>
<path d="M34.0476 19.2674C34.0476 18.587 33.5451 17.5809 31.8089 16.4955C30.9842 15.9799 30.7337 14.8933 31.2493 14.0686C31.765 13.2439 32.8514 12.9934 33.6761 13.509C35.8047 14.8397 37.5697 16.7749 37.5697 19.2674C37.5697 21.767 35.795 23.7059 33.6571 25.0377C32.8315 25.552 31.7452 25.2998 31.231 24.4742C30.7168 23.6486 30.9692 22.5625 31.7946 22.0482C33.5418 20.9599 34.0476 19.9498 34.0476 19.2674ZM26.6806 25.9178C26.8436 26.8768 26.1983 27.7862 25.2393 27.9491C23.2279 28.2908 21.0519 28.4763 18.7849 28.4763C13.8997 28.4763 9.39285 27.6136 6.04135 26.1472C4.36823 25.4153 2.90365 24.4981 1.83277 23.3905C0.753689 22.2744 0 20.8784 0 19.2674C0 17.3183 1.09441 15.6993 2.54882 14.4791C4.0085 13.2546 5.99873 12.2759 8.26565 11.5564C9.1927 11.2621 10.1827 11.7751 10.477 12.7021C10.7712 13.6292 10.2583 14.6192 9.33124 14.9135C7.33394 15.5475 5.80546 16.3445 4.81254 17.1775C3.81431 18.0149 3.52216 18.7354 3.52216 19.2674C3.52216 19.7131 3.72119 20.2765 4.36502 20.9424C5.01704 21.6168 6.04553 22.3046 7.45311 22.9205C10.263 24.1497 14.268 24.9541 18.7849 24.9541C20.8624 24.9541 22.8408 24.7839 24.6495 24.4765C25.6085 24.3138 26.5179 24.9591 26.6806 25.9178Z" fill="white"/>
<path d="M11.4397 32.0055C12.029 32.3458 13.1514 32.4136 14.9596 31.4528C15.8185 30.9963 16.8848 31.3227 17.3412 32.1814C17.7976 33.0403 17.4713 34.1066 16.6124 34.5631C14.3957 35.7409 11.8372 36.3021 9.67864 35.0557C7.51395 33.8061 6.72214 31.2994 6.63773 28.782C6.60514 27.8099 7.36672 26.9956 8.33879 26.963C9.31086 26.9303 10.1253 27.6918 10.1579 28.6639C10.2269 30.7213 10.8487 31.6643 11.4397 32.0055ZM9.36367 22.3004C8.4518 21.962 7.9869 20.9485 8.32529 20.0366C9.03512 18.1237 9.96234 16.1464 11.0959 14.1831C13.5384 9.95245 16.5391 6.4808 19.4847 4.31145C20.9552 3.22846 22.4817 2.41864 23.9765 2.04508C25.4825 1.66866 27.0684 1.71391 28.4635 2.51942C30.1515 3.49398 31.0065 5.25128 31.3359 7.12091C31.6665 8.99731 31.5191 11.2102 31.0086 13.5332C30.7998 14.4831 29.8606 15.0841 28.9108 14.8754C27.9607 14.6667 27.3598 13.7274 27.5686 12.7775C28.018 10.7308 28.092 9.00856 27.8673 7.73215C27.6412 6.44896 27.1631 5.83572 26.7024 5.56971C26.3166 5.34687 25.7291 5.23754 24.8305 5.46214C23.9203 5.6896 22.8104 6.23641 21.5733 7.14747C19.1038 8.96627 16.4046 12.0325 14.1462 15.9442C13.1074 17.7433 12.2657 19.5419 11.6274 21.262C11.289 22.1738 10.2755 22.6387 9.36367 22.3004Z" fill="white"/>
<path d="M22.2116 18.9402C22.2116 20.7031 20.7824 22.1322 19.0196 22.1322C17.2567 22.1322 15.8276 20.7031 15.8276 18.9402C15.8276 17.1774 17.2567 15.7483 19.0196 15.7483C20.7824 15.7483 22.2116 17.1774 22.2116 18.9402Z" fill="white"/>
</svg>
