<svg width="38" height="38" viewBox="0 0 38 38" fill="none" xmlns="http://www.w3.org/2000/svg">
<mask id="mask0_493_233" style="mask-type:luminance" maskUnits="userSpaceOnUse" x="0" y="0" width="38" height="38">
<path d="M37.5424 0H0V37.5424H37.5424V0Z" fill="white"/>
</mask>
<g mask="url(#mask0_493_233)">
<path d="M37.5424 18.2844C37.5424 15.7974 34.4279 13.4404 29.6528 11.9788C30.7547 7.11191 30.2649 3.23982 28.107 2.00014C27.6096 1.70936 27.028 1.57161 26.3929 1.57161V3.27809C26.7449 3.27809 27.028 3.34696 27.2653 3.47705C28.306 4.07394 28.7575 6.34667 28.4055 9.26986C28.3213 9.98919 28.1835 10.7468 28.0152 11.5197C26.5154 11.1523 24.8778 10.8692 23.156 10.6856C22.1229 9.26986 21.0516 7.98427 19.9725 6.85938C22.4672 4.54073 24.8089 3.27044 26.4006 3.27044V1.56396C24.2962 1.56396 21.5413 3.06383 18.7559 5.66562C15.9704 3.07913 13.2156 1.59458 11.1112 1.59458V3.30105C12.6952 3.30105 15.0445 4.56368 17.5392 6.86703C16.4678 7.99192 15.3965 9.26986 14.3787 10.6856C12.6493 10.8692 11.0117 11.1523 9.51186 11.5273C9.33585 10.7621 9.20576 10.0198 9.11393 9.30813C8.75427 6.38494 9.19811 4.1122 10.2312 3.50766C10.4607 3.36991 10.7592 3.3087 11.1112 3.3087V1.60223C10.4684 1.60223 9.88681 1.73998 9.38176 2.03076C7.23146 3.27044 6.74937 7.13486 7.85895 11.9864C3.0992 13.4557 0 15.805 0 18.2844C0 20.7713 3.1145 23.1283 7.88956 24.5898C6.78763 29.4567 7.27737 33.3289 9.43534 34.5686C9.93274 34.8593 10.5143 34.997 11.1571 34.997C13.2615 34.997 16.0164 33.4972 18.8018 30.8953C21.5872 33.4819 24.3422 34.9663 26.4464 34.9663C27.0893 34.9663 27.6709 34.8287 28.1759 34.5379C30.3263 33.2982 30.8084 29.4339 29.6987 24.5821C34.4432 23.1206 37.5424 20.7638 37.5424 18.2844ZM27.5791 13.1802C27.296 14.1674 26.9438 15.1851 26.5459 16.2028C26.2323 15.5907 25.9031 14.9785 25.5435 14.3663C25.1916 13.7541 24.8166 13.1573 24.4416 12.5757C25.5282 12.7364 26.5766 12.9353 27.5791 13.1802ZM24.0742 21.33C23.4774 22.3631 22.8652 23.3424 22.2301 24.2532C21.0899 24.3526 19.9344 24.4061 18.7712 24.4061C17.6157 24.4061 16.4601 24.3526 15.3276 24.2608C14.6925 23.3501 14.0726 22.3784 13.4758 21.3529C12.8942 20.3505 12.3662 19.3328 11.8841 18.3072C12.3585 17.2819 12.8942 16.2565 13.4681 15.254C14.065 14.2209 14.6772 13.2414 15.3123 12.3308C16.4525 12.2313 17.608 12.1778 18.7712 12.1778C19.9267 12.1778 21.0822 12.2313 22.2148 12.3232C22.8498 13.2338 23.4698 14.2056 24.0665 15.231C24.6481 16.2335 25.1762 17.2512 25.6583 18.2767C25.1762 19.3021 24.6481 20.3275 24.0742 21.33ZM26.5459 20.3351C26.9592 21.3605 27.3111 22.3859 27.6019 23.3808C26.5995 23.6256 25.5435 23.8322 24.4492 23.993C24.8241 23.4038 25.1992 22.7992 25.5512 22.1794C25.9031 21.5672 26.2323 20.9474 26.5459 20.3351ZM18.7865 28.5001C18.0748 27.7656 17.3632 26.9468 16.6591 26.0514C17.3479 26.0821 18.0519 26.1049 18.7635 26.1049C19.4829 26.1049 20.1945 26.0898 20.8909 26.0514C20.2022 26.9468 19.4904 27.7656 18.7865 28.5001ZM13.0932 23.993C12.0065 23.8322 10.9581 23.6332 9.95569 23.3884C10.2388 22.4012 10.5908 21.3835 10.9888 20.3658C11.3025 20.9779 11.6315 21.5902 11.9912 22.2023C12.3509 22.8145 12.7182 23.4114 13.0932 23.993ZM18.7482 8.06845C19.4599 8.80307 20.1715 9.62187 20.8756 10.5172C20.1868 10.4866 19.4829 10.4636 18.7712 10.4636C18.0519 10.4636 17.3402 10.4789 16.6438 10.5172C17.3325 9.62187 18.0443 8.80307 18.7482 8.06845ZM13.0855 12.5757C12.7105 13.1649 12.3356 13.7694 11.9836 14.3893C11.6315 15.0015 11.3025 15.6137 10.9888 16.2258C10.5755 15.2004 10.2235 14.175 9.93274 13.1802C10.9352 12.943 11.9912 12.7364 13.0855 12.5757ZM6.16014 22.1564C3.45121 21.0009 1.69882 19.4858 1.69882 18.2844C1.69882 17.0829 3.45121 15.5601 6.16014 14.4122C6.81824 14.1291 7.53755 13.8766 8.27983 13.6394C8.71601 15.1392 9.28994 16.7003 10.0016 18.2996C9.29759 19.8914 8.73132 21.4447 8.30279 22.937C7.5452 22.6997 6.82589 22.4396 6.16014 22.1564ZM10.2771 33.0916C9.23638 32.4946 8.78488 30.2219 9.13689 27.2988C9.22106 26.5794 9.35881 25.8218 9.52716 25.0491C11.027 25.4163 12.6646 25.6995 14.3864 25.8831C15.4195 27.2988 16.4908 28.5843 17.5698 29.7093C15.0751 32.0279 12.7335 33.2982 11.1418 33.2982C10.7975 33.2905 10.5067 33.2217 10.2771 33.0916ZM28.4285 27.2605C28.7881 30.1838 28.3443 32.4565 27.3111 33.0609C27.0817 33.1987 26.7832 33.2599 26.4312 33.2599C24.8471 33.2599 22.4979 31.9974 20.0032 29.694C21.0746 28.5691 22.1459 27.2911 23.1636 25.8755C24.8931 25.6918 26.5307 25.4087 28.0305 25.0337C28.2065 25.8066 28.3443 26.5489 28.4285 27.2605ZM31.3746 22.1564C30.7165 22.4396 29.9971 22.692 29.2549 22.9293C28.8188 21.4295 28.2448 19.8684 27.5331 18.2691C28.2372 16.6773 28.8034 15.1239 29.2319 13.6317C29.9895 13.8689 30.7089 14.1291 31.3823 14.4122C34.0911 15.5677 35.8436 17.0829 35.8436 18.2844C35.8359 19.4858 34.0835 21.0086 31.3746 22.1564Z" fill="white"/>
<path d="M18.7637 21.7816C20.6951 21.7816 22.2608 20.2159 22.2608 18.2846C22.2608 16.353 20.6951 14.7874 18.7637 14.7874C16.8323 14.7874 15.2666 16.353 15.2666 18.2846C15.2666 20.2159 16.8323 21.7816 18.7637 21.7816Z" fill="white"/>
</g>
</svg>
