<svg width="41" height="41" viewBox="0 0 41 41" fill="none" xmlns="http://www.w3.org/2000/svg">
<path d="M20.9234 36.2494C20.397 36.1762 19.3883 35.9501 18.644 35.7403C15.2847 34.7941 12.5305 33.1388 10.7909 31.0212C10.5276 30.7008 10.1882 30.2359 10.2052 30.2192C10.2052 30.2192 10.3661 30.2219 10.5501 30.2485C10.9418 30.2865 11.4556 30.2778 11.682 30.2075C12.1774 30.0759 12.4846 29.7584 12.5633 29.2968C12.5925 29.1768 12.5925 27.3032 12.5925 22.7687V16.41L12.5194 16.2023C12.3438 15.7085 12.0612 15.4978 11.4851 15.434C11.1774 15.3989 10.7561 15.5657 10.2119 15.9329C8.23442 17.2699 5.6727 20.5399 3.14082 24.9598C3.02672 25.1587 2.92725 25.3152 2.92725 25.3152C2.92725 25.3152 2.92725 25.0431 2.9565 24.7193C3.11742 20.7316 4.83596 16.5557 7.85994 12.8074C8.59633 11.8943 9.70692 10.714 10.5767 9.91943C13.3886 7.35039 16.4951 5.57392 19.6209 4.74771L19.8725 4.68042L19.7906 4.75064C19.7467 4.7916 19.5389 4.97006 19.3306 5.15116C18.905 5.52126 18.1697 6.24478 17.8257 6.63272C16.9208 7.6532 16.3851 8.56104 16.2751 9.26027C16.2136 9.65378 16.2751 10.5262 16.4213 11.0367C16.5823 11.6427 16.8804 12.0344 17.2958 12.1874C17.4129 12.2313 17.5094 12.243 17.7002 12.243C17.9869 12.2427 18.1949 12.1933 18.4834 12.0616L18.6735 11.9738V20.0098V28.0455L18.7584 28.221C19.0012 28.7163 19.5741 28.9352 20.7177 28.9711C21.2859 29.0004 21.4705 28.9711 21.9046 28.8307C22.6062 28.6084 23.4675 28.1698 24.4365 27.5414L24.7145 27.36L24.7148 20.7994C24.7151 13.7524 24.7148 14.095 24.5831 13.6819C24.3373 12.9399 23.5591 11.8954 22.622 11.0487L22.316 10.7737H22.4681C22.6934 10.7737 23.2581 10.841 23.6475 10.9376C24.3883 11.1248 25.1498 11.4575 25.7317 11.8501L25.9219 11.9788L25.9892 11.8647C26.0974 11.6775 26.3894 11.3258 26.6735 11.0356C28.2025 9.47414 30.6474 8.19035 33.823 7.28135C34.1038 7.20235 34.344 7.13506 34.3566 7.13506C34.3566 7.13506 34.222 7.34571 34.0287 7.60229C32.897 9.10902 31.8405 10.7439 31.3016 11.8217C31.0266 12.3703 30.8985 12.6974 30.8391 12.9934C30.7893 13.245 30.7484 27.0384 30.7952 27.2193C30.883 27.5434 31.251 27.7295 31.8762 27.7664C32.1957 27.7956 32.5035 27.7342 32.9622 27.582C34.5693 27.0539 36.1664 26.0226 37.5804 24.5996L38.0322 24.1452L38 24.271C37.9005 24.6499 37.5058 25.3688 36.8941 26.2909C34.9754 29.1836 32.251 32.1402 29.6788 34.1221C29.244 34.4571 28.407 35.0454 28.3651 35.0454C28.3359 35.0454 27.5208 34.2309 26.5246 33.2353C24.9775 31.6894 24.7083 31.4311 24.6814 31.4665C24.6522 31.4957 23.8458 32.5823 22.8637 33.8954C21.8812 35.2084 21.0638 36.2812 21.0468 36.2789C21.0176 36.2769 20.9795 36.2789 20.9386 36.2496L20.9234 36.2494Z" fill="white"/>
</svg>
